<svg width="181" height="180" viewBox="0 0 181 180" fill="none" xmlns="http://www.w3.org/2000/svg">
<path d="M158.39 52.4414H14.9257" stroke="#C3C9ED" stroke-width="0.66" stroke-miterlimit="10"/>
<path d="M16.6731 39.5625H156.642C157.608 39.5625 158.39 40.3437 158.39 41.3073V121.658C158.39 122.622 157.608 123.403 156.642 123.403H16.6731C15.708 123.403 14.9257 122.622 14.9257 121.658V41.3073C14.9257 40.3437 15.708 39.5625 16.6731 39.5625Z" stroke="#C3C9ED" stroke-width="0.66" stroke-miterlimit="10"/>
<path d="M143.614 28.9336H178.396C179.282 28.9336 180 29.6505 180 30.5349V63.764C180 64.6483 179.282 65.3652 178.396 65.3652H143.614C142.728 65.3652 142.011 64.6483 142.011 63.764V30.5349C142.011 29.6505 142.728 28.9336 143.614 28.9336Z" fill="white"/>
<path d="M143.614 28.9336H178.396C179.282 28.9336 180 29.6505 180 30.5349V63.764C180 64.6483 179.282 65.3652 178.396 65.3652H143.614C142.728 65.3652 142.011 64.6483 142.011 63.764V30.5349C142.011 29.6505 142.728 28.9336 143.614 28.9336Z" stroke="#C3C9ED" stroke-width="0.66" stroke-miterlimit="10"/>
<path d="M133.085 37.3359H167.868C168.753 37.3359 169.471 38.0529 169.471 38.9372V72.1663C169.471 73.0507 168.753 73.7676 167.868 73.7676H133.085C132.2 73.7676 131.482 73.0507 131.482 72.1663V38.9372C131.482 38.0529 132.2 37.3359 133.085 37.3359Z" fill="#F8632D"/>
<path d="M145.305 63.0167C145.305 60.0303 147.726 57.6094 150.713 57.6094C153.699 57.6094 156.12 60.0303 156.12 63.0167V63.6185H145.305V63.0167Z" stroke="white" stroke-width="2"/>
<path fill-rule="evenodd" clip-rule="evenodd" d="M157.109 64.0203H161.238C162.17 64.0203 162.925 63.2653 162.925 62.3338V62.2194C162.925 59.4555 160.684 57.2148 157.92 57.2148C156.802 57.2148 155.769 57.5818 154.936 58.202C155.439 58.6441 155.874 59.1639 156.219 59.7428C156.703 59.4098 157.289 59.2148 157.92 59.2148C159.513 59.2148 160.816 60.4538 160.918 62.0203H157.042C157.093 62.3462 157.12 62.6803 157.12 63.0206V63.8943C157.12 63.9373 157.116 63.9794 157.109 64.0203Z" fill="white"/>
<path fill-rule="evenodd" clip-rule="evenodd" d="M144.383 62.0203C144.332 62.3462 144.305 62.6803 144.305 63.0206V63.8215C144.305 63.8901 144.314 63.9568 144.33 64.0203H140.186C139.255 64.0203 138.5 63.2653 138.5 62.3338V62.2194C138.5 59.4555 140.741 57.2148 143.505 57.2148C144.623 57.2148 145.656 57.5819 146.489 58.202C145.985 58.6441 145.551 59.1639 145.206 59.7428C144.722 59.4098 144.136 59.2148 143.505 59.2148C141.912 59.2148 140.609 60.4538 140.506 62.0203H144.383Z" fill="white"/>
<circle cx="150.713" cy="51.0046" r="3.00457" stroke="white" stroke-width="2"/>
<circle cx="157.921" cy="53.4107" r="2.20365" stroke="white" stroke-width="2"/>
<circle cx="143.505" cy="53.4107" r="2.20365" stroke="white" stroke-width="2"/>
<path d="M14.4611 0.0078125H49.9622C50.8173 0.0078125 51.5105 0.700004 51.5105 1.55387V26.5116C51.5105 27.3654 50.8173 28.0576 49.9622 28.0576H14.4611C13.606 28.0576 12.9127 27.3654 12.9127 26.5116V1.55387C12.9127 0.700004 13.606 0.0078125 14.4611 0.0078125Z" fill="#20AEF7"/>
<path d="M66.065 105.57L84.8662 107.779L104.851 110.098L119.228 112.528C122.629 113.21 125.714 114.981 128.017 117.571C130.32 120.162 131.715 123.431 131.991 126.884C132.052 127.832 132.007 128.784 131.858 129.722L121.905 179.273L67.7792 178.754L66.065 105.57Z" fill="#3962FA"/>
<path d="M85.3748 107.527L92.9948 108.311L102.827 109.637L112.371 111.359C112.371 111.359 107.483 119.355 91.358 116.881C80.2542 115.169 85.3748 107.527 85.3748 107.527Z" fill="#E3AF9A"/>
<path d="M85.6956 107.67L39.4999 86.3672L35.0097 90.7845C33.1728 92.7491 31.9957 95.2373 31.6428 97.902C31.2899 100.567 31.7787 103.275 33.0411 105.649C34.3201 107.657 36.0652 109.327 38.1285 110.519L71.0306 130.087L85.6956 107.67Z" fill="#3962FA"/>
<path d="M66.5847 127.449V115.766" stroke="#1C2337" stroke-width="0.66" stroke-linecap="round" stroke-linejoin="round"/>
<path d="M43.5034 64.9995C42.7403 64.348 40.5174 41.5216 31.2052 31.5164C31.0165 31.3099 30.7879 31.1436 30.5333 31.0275C30.2786 30.9113 30.003 30.8478 29.7232 30.8405C29.4433 30.8333 29.1648 30.8826 28.9045 30.9855C28.6441 31.0883 28.4073 31.2426 28.2081 31.4391C27.9058 31.7415 27.7043 32.1297 27.631 32.5506C27.5578 32.9716 27.6164 33.4049 27.7989 33.7914L32.6319 43.8517C32.6319 43.8517 24.094 40.7707 22.6783 48.8433C21.2627 56.9159 29.0486 60.6595 29.0486 60.6595L33.2734 70.1346L43.5034 64.9995Z" fill="#E3AF9A"/>
<path d="M55.2263 100.897L46.069 59.3633L25.0891 61.5167L31.6032 101.372L55.2263 100.897Z" fill="#3962FA"/>
<path d="M114.439 179.307H74.9677V174.492H110.358C110.816 174.497 111.263 174.626 111.653 174.865C112.042 175.104 112.36 175.445 112.57 175.851L114.439 179.307Z" fill="#86969E"/>
<path d="M0.703224 137.176L16.4077 179.306H83.8708L67.0272 136.238C66.6286 135.465 66.0244 134.817 65.281 134.365C64.5377 133.913 63.6839 133.675 62.8135 133.676H2.85983C2.44656 133.674 2.03984 133.779 1.67873 133.98C1.31762 134.18 1.01423 134.47 0.797691 134.822C0.581161 135.173 0.45874 135.574 0.442192 135.987C0.425652 136.399 0.515541 136.809 0.703224 137.176Z" fill="#86969E"/>
<path d="M42.6851 153.652C43.056 154.481 43.1782 155.399 43.0368 156.296C42.8954 157.193 42.4966 158.03 41.8886 158.705C41.2806 159.38 40.4896 159.864 39.6114 160.1C38.7333 160.335 37.8056 160.311 36.9409 160.03C36.0762 159.749 35.3115 159.224 34.7396 158.519C34.1677 157.813 33.8131 156.956 33.7188 156.053C33.6244 155.15 33.7944 154.24 34.208 153.431C34.6217 152.623 35.2613 151.951 36.0494 151.498C37.2163 150.911 38.5684 150.808 39.8113 151.211C41.0541 151.614 42.087 152.492 42.6851 153.652Z" fill="#F1F4F9"/>
<path d="M135.386 179.317L116.496 179.383L116.209 172.238L139.655 168.219L135.386 179.317Z" fill="#E3AF9A"/>
<path d="M155.039 156.934L119.272 165.459L121.506 179.495L156.831 179.197L155.039 156.934Z" fill="#3962FA"/>
<path d="M119.604 172.281C119.604 172.281 98.0379 162.287 95.9698 179.316L116.496 179.382L119.604 172.281Z" fill="#E3AF9A"/>
<path d="M158.887 178.645C160.449 178.077 161.859 177.159 163.011 175.963C164.163 174.767 165.026 173.323 165.534 171.743C166.042 170.163 166.182 168.488 165.942 166.846C165.702 165.204 165.09 163.638 164.152 162.268L141.48 127.581C135.474 117.377 120.212 110.398 113.422 113.081L115.202 120.226C110.856 123.727 108.854 126.488 111.962 131.115L143.957 174.493C146.766 178.634 154.187 180.335 158.887 178.612V178.645Z" fill="#3962FA"/>
<path d="M127.324 151.954L119.604 142.445" stroke="#1C2337" stroke-width="0.66" stroke-linecap="round" stroke-linejoin="round"/>
<path d="M110.69 55.2227C111.033 55.8742 123.375 57.2104 125.985 64.4327C129.303 73.5655 120.865 85.0615 110.148 90.8592L110.69 55.2227Z" fill="#20120C"/>
<path d="M119.538 58.187C119.538 58.187 119.792 47.8395 107.284 46.8677C101.455 46.4149 98.1928 50.4457 90.5617 49.4297C83.174 48.4468 77.2239 50.9868 77.423 57.16C77.6442 63.9847 83.8597 65.7074 94.9192 67.397L119.538 58.187Z" fill="#20120C"/>
<path d="M90.8713 78.0491C90.8108 79.5422 90.1598 80.9504 89.061 81.9648C87.9621 82.9792 86.5052 83.517 85.0097 83.4603C81.9462 83.2946 79.0265 80.5228 79.2145 77.3754C79.2835 75.8834 79.9387 74.4786 81.038 73.4657C82.1373 72.4527 83.5922 71.9133 85.0871 71.9642C88.1396 72.1299 91.0593 74.9017 90.8713 78.0491Z" fill="#D89C87"/>
<path d="M91.889 93.1924L90.1859 106.731C89.5776 111.491 92.0992 114.384 96.6446 114.903C100.527 115.345 106.023 115.378 106.377 111.16L107.107 88.3555L91.889 93.1924Z" fill="#E3AF9A"/>
<path d="M90.7829 102.124C90.7829 102.124 101.654 101.881 105.16 93.7203C106.797 89.9767 92.0547 91.7988 92.0547 91.7988L90.7829 102.124Z" fill="#1D0300"/>
<path d="M95.5163 97.6419C87.7747 96.6921 82.1675 89.6024 82.7536 83.0537L84.0697 69.3601C84.3618 65.4634 86.1557 61.8316 89.0742 59.2284C91.9927 56.6252 95.8084 55.2534 99.719 55.4015C107.892 55.8322 117.779 63.4189 117.282 71.8449L113.908 82.1813C113.481 86.65 111.315 90.7729 107.876 93.6639C104.437 96.5549 99.9989 97.9832 95.5163 97.6419Z" fill="#E3AF9A"/>
<path d="M110.69 82.2911L109.485 78.415C108.5 74.583 110.812 71.9105 111.697 70.5522C112.32 69.3448 112.526 67.9652 112.282 66.6287C112.038 65.2923 111.358 64.0741 110.347 63.1643C106.532 59.5973 98.9781 57.2672 91.0816 59.4537C89.9732 59.7507 88.9345 60.2636 88.0253 60.9629C87.1161 61.6623 86.3545 62.5343 85.7841 63.5287C85.2496 64.3817 84.8749 65.3247 84.6782 66.3116L84.9436 64.2686C85.9721 56.5383 93.0392 51.7014 100.781 52.7836C103.887 53.0069 106.969 53.4909 109.993 54.2303C118.509 56.7702 124.238 65.649 120.644 73.7658L117.26 79.0996L110.69 82.2911Z" fill="#20120C"/>
<path d="M122.214 82.9631C122.026 86.0773 118.841 88.3964 115.811 88.2308C115.083 88.1791 114.372 87.9841 113.72 87.6569C113.068 87.3298 112.487 86.8771 112.011 86.3248C111.535 85.7725 111.174 85.1316 110.947 84.439C110.72 83.7464 110.633 83.0159 110.69 82.2895C110.878 79.1753 114.661 76.9446 117.68 77.1102C120.699 77.2759 122.391 79.8379 122.214 82.9631Z" fill="#E3AF9A"/>
<path d="M114.108 84.3876C114.108 84.3876 115.213 80.147 119.294 81.3176" stroke="black" stroke-width="0.55" stroke-linecap="round" stroke-linejoin="round"/>
<path d="M88.7038 75.6882C88.605 75.9424 88.4331 76.1618 88.2096 76.3185C87.9862 76.4753 87.7212 76.5624 87.4482 76.569C87.1752 76.5756 86.9064 76.5013 86.6756 76.3554C86.4449 76.2096 86.2625 75.9988 86.1516 75.7496C86.0407 75.5005 86.0062 75.2241 86.0524 74.9553C86.0987 74.6866 86.2236 74.4375 86.4114 74.2396C86.5992 74.0416 86.8416 73.9037 87.1078 73.8431C87.3741 73.7825 87.6524 73.802 87.9075 73.8992C88.0778 73.964 88.2335 74.0618 88.3658 74.187C88.498 74.3121 88.6042 74.4621 88.6782 74.6284C88.7522 74.7946 88.7926 74.9738 88.797 75.1557C88.8014 75.3376 88.7697 75.5186 88.7038 75.6882Z" fill="#20120C"/>
<path d="M100.736 77.2322C100.639 77.4901 100.468 77.7135 100.244 77.874C100.019 78.0345 99.7524 78.1249 99.4766 78.1337C99.2008 78.1426 98.9286 78.0695 98.6944 77.9236C98.4603 77.7778 98.2748 77.5659 98.1614 77.3147C98.048 77.0635 98.0119 76.7843 98.0576 76.5126C98.1033 76.2408 98.2288 75.9888 98.4181 75.7883C98.6075 75.5879 98.8521 75.4481 99.1211 75.3866C99.3901 75.3252 99.6713 75.3448 99.9291 75.4431C100.1 75.5069 100.257 75.6039 100.391 75.7286C100.524 75.8533 100.631 76.0031 100.707 76.1695C100.782 76.3358 100.823 76.5154 100.828 76.6978C100.833 76.8802 100.802 77.0618 100.736 77.2322Z" fill="#20120C"/>
<path d="M91.8223 78.418L90.3292 80.6266C90.2664 80.7105 90.2213 80.8063 90.1967 80.9081C90.1721 81.01 90.1685 81.1158 90.1861 81.219C90.2036 81.3223 90.2421 81.4209 90.299 81.5089C90.3559 81.5969 90.4302 81.6725 90.5172 81.7309L91.7559 82.5592" stroke="black" stroke-width="0.55" stroke-linecap="round" stroke-linejoin="round"/>
<path d="M101.621 67.9991C101.621 67.9991 97.3743 66.718 96.943 69.0261C96.943 69.0261 96.6776 70.5942 100.394 71.6102C104.11 72.6262 105.636 72.6483 106.233 71.2347C106.83 69.8212 103.645 68.3856 101.621 67.9991Z" fill="#20120C"/>
<path d="M86.359 66.3657C86.359 66.3657 90.4732 66.0896 90.5063 68.4087C90.5063 68.4087 90.5063 69.9879 86.9009 70.1204C84.2798 70.2198 83.4614 69.5682 83.4504 68.5081C83.3951 67.2491 84.7886 66.3325 86.359 66.3657Z" fill="#20120C"/>
<path d="M98.1707 85.2734C97.1528 85.8726 96.0091 86.2266 94.8303 86.3071C93.6515 86.3876 92.4701 86.1925 91.3801 85.7373" stroke="black" stroke-width="0.55" stroke-linecap="round" stroke-linejoin="round"/>
<path d="M110.292 63.1097C110.292 63.1097 106.399 59.1451 101.444 61.409C96.4897 63.6729 82.433 65.749 82.7869 58.1733C83.1408 50.5977 102.263 54.6726 102.263 54.6726L112.216 58.4273L110.292 63.1097Z" fill="#20120C"/>
<path d="M170.389 179.559H3.88822" stroke="#1C2337" stroke-width="0.66" stroke-linecap="round" stroke-linejoin="round"/>
<circle cx="32" cy="14" r="10" stroke="white" stroke-width="2"/>
<rect x="28.3333" y="6.66797" width="7.33333" height="8.8" rx="3.66667" stroke="white" stroke-width="2"/>
<path fill-rule="evenodd" clip-rule="evenodd" d="M23.9775 20.4075C25.9843 18.2693 28.8361 16.9336 31.9999 16.9336C35.1637 16.9336 38.0156 18.2693 40.0224 20.4076C39.6044 20.9302 39.1365 21.411 38.6259 21.8429C36.981 20.0544 34.6213 18.9336 31.9999 18.9336C29.3785 18.9336 27.0189 20.0543 25.374 21.8428C24.8633 21.4109 24.3954 20.93 23.9775 20.4075Z" fill="white"/>
</svg>
