<svg width="26" height="26" viewBox="0 0 26 26" fill="none" xmlns="http://www.w3.org/2000/svg">
<path opacity="0.8" d="M8.18151 13.9327L13.5447 20.9054C13.6747 21.0743 13.1263 22.8394 13.2563 22.6705L18.9432 15.2776C21.5492 11.8898 20.4176 7.69491 17.8354 5.88736C15.69 4.38557 12.1307 4.13205 9.78998 5.88767C7.64469 7.49649 6.03541 10.7146 8.18151 13.9327Z" fill="#FC2133"/>
<mask id="path-2-inside-1" fill="white">
<path fill-rule="evenodd" clip-rule="evenodd" d="M7.05577 15.2789L12.7426 22.6719C12.8726 22.8408 13.1274 22.8408 13.2574 22.6719L18.9442 15.2789C21.5502 11.8912 20.8022 7.01375 17.3006 4.56269C14.7184 2.75515 11.2816 2.75515 8.69936 4.56269C5.19784 7.01375 4.44977 11.8912 7.05577 15.2789ZM13.0089 12.8613C14.1938 12.8613 15.1543 11.9007 15.1543 10.7158C15.1543 9.53096 14.1938 8.57043 13.0089 8.57043C11.824 8.57043 10.8635 9.53096 10.8635 10.7158C10.8635 11.9007 11.824 12.8613 13.0089 12.8613Z"/>
</mask>
<path d="M12.7426 22.6719L13.5352 22.0622L13.5352 22.0621L12.7426 22.6719ZM7.05577 15.2789L6.26314 15.8887L7.05577 15.2789ZM13.2574 22.6719L12.4648 22.0621L12.4648 22.0622L13.2574 22.6719ZM18.9442 15.2789L19.7369 15.8887L18.9442 15.2789ZM17.3006 4.56269L16.7272 5.38192V5.38192L17.3006 4.56269ZM8.69936 4.56269L8.1259 3.74346L8.69936 4.56269ZM13.5352 22.0621L7.84839 14.6692L6.26314 15.8887L11.95 23.2816L13.5352 22.0621ZM12.4648 22.0622C12.7351 21.7107 13.2649 21.7107 13.5352 22.0622L11.95 23.2816C12.4803 23.9709 13.5197 23.9709 14.05 23.2816L12.4648 22.0622ZM18.1516 14.6692L12.4648 22.0621L14.05 23.2816L19.7369 15.8887L18.1516 14.6692ZM16.7272 5.38192C19.7618 7.50615 20.4101 11.7332 18.1516 14.6692L19.7369 15.8887C22.6903 12.0491 21.8425 6.52135 17.8741 3.74346L16.7272 5.38192ZM9.27282 5.38192C11.5107 3.8154 14.4893 3.8154 16.7272 5.38192L17.8741 3.74346C14.9476 1.69489 11.0524 1.69489 8.1259 3.74346L9.27282 5.38192ZM7.84839 14.6692C5.58989 11.7332 6.23821 7.50615 9.27282 5.38192L8.1259 3.74346C4.15748 6.52135 3.30966 12.0491 6.26314 15.8887L7.84839 14.6692ZM14.1543 10.7158C14.1543 11.3484 13.6415 11.8613 13.0089 11.8613V13.8613C14.7461 13.8613 16.1543 12.453 16.1543 10.7158H14.1543ZM13.0089 9.57043C13.6415 9.57043 14.1543 10.0832 14.1543 10.7158H16.1543C16.1543 8.97868 14.7461 7.57043 13.0089 7.57043V9.57043ZM11.8635 10.7158C11.8635 10.0832 12.3763 9.57043 13.0089 9.57043V7.57043C11.2717 7.57043 9.86348 8.97868 9.86348 10.7158H11.8635ZM13.0089 11.8613C12.3763 11.8613 11.8635 11.3484 11.8635 10.7158H9.86348C9.86348 12.453 11.2717 13.8613 13.0089 13.8613V11.8613Z" fill="#031F88" mask="url(#path-2-inside-1)"/>
</svg>
