<svg width="126" height="142" viewBox="0 0 126 142" fill="none" xmlns="http://www.w3.org/2000/svg">
<g filter="url(#filter0_d)">
<path d="M62.5 10.866C63.4282 10.3301 64.5718 10.3301 65.5 10.866L115.328 39.634C116.256 40.1699 116.828 41.1603 116.828 42.2321V99.768C116.828 100.84 116.256 101.83 115.328 102.366L65.5 131.134C64.5718 131.67 63.4282 131.67 62.5 131.134L12.6725 102.366C11.7442 101.83 11.1725 100.84 11.1725 99.768V42.2321C11.1725 41.1603 11.7442 40.1699 12.6725 39.634L62.5 10.866Z" fill="white"/>
</g>
<path d="M80.9123 72.6322C79.2618 64.3259 87.1459 59.4543 87.1459 59.4543C87.1459 59.4543 84.0742 55.0102 78.9117 53.867C73.7518 52.7212 71.1693 54.1527 68.5919 55.2264C66.0119 56.3027 64.7245 56.3027 64.7245 56.3027C61.0014 56.3027 58.2797 52.3607 51.1862 54.1554C46.2992 55.3886 41.1547 61.0301 40.2252 67.7633C39.2957 74.499 41.3015 83.0936 45.1689 89.7547C49.0362 96.4209 52.9757 98.9262 55.7719 98.9983C58.5681 99.0677 61.3593 96.9951 64.7245 96.4904C68.0924 95.9908 70.1651 97.7109 73.4685 98.6404C76.7591 99.5674 77.9126 98.7074 81.7027 95.4837C85.5031 92.26 88.9431 83.0139 88.9431 83.0139C88.9431 83.0139 82.5628 80.9436 80.9123 72.6322Z" fill="black"/>
<path d="M73.605 48.4933C77.2611 44.7676 76.0227 39 76.0227 39C76.0227 39 70.8886 39.9012 67.4486 43.4801C64.0112 47.0617 64.5802 52.7186 64.5802 52.7186C64.5802 52.7186 69.9487 52.2165 73.605 48.4933Z" fill="black"/>
<defs>
<filter id="filter0_d" x="0.172455" y="0.463867" width="125.655" height="141.072" filterUnits="userSpaceOnUse" color-interpolation-filters="sRGB">
<feFlood flood-opacity="0" result="BackgroundImageFix"/>
<feColorMatrix in="SourceAlpha" type="matrix" values="0 0 0 0 0 0 0 0 0 0 0 0 0 0 0 0 0 0 127 0" result="hardAlpha"/>
<feOffset dx="-1"/>
<feGaussianBlur stdDeviation="5"/>
<feColorMatrix type="matrix" values="0 0 0 0 0.52549 0 0 0 0 0.588235 0 0 0 0 0.619608 0 0 0 0.2 0"/>
<feBlend mode="normal" in2="BackgroundImageFix" result="effect1_dropShadow"/>
<feBlend mode="normal" in="SourceGraphic" in2="effect1_dropShadow" result="shape"/>
</filter>
</defs>
</svg>
