<svg width="69" height="55" viewBox="0 0 69 55" fill="none" xmlns="http://www.w3.org/2000/svg">
<path d="M1.9064 6.91568C1.24956 7.15462 0.525473 6.83002 0.289107 6.19066C0.0527424 5.5513 0.393604 4.8393 1.05044 4.60035L1.9064 6.91568ZM48.1473 7.39241L48.8709 6.37057L48.1473 7.39241ZM59.0783 53.8831C58.5192 54.2985 57.7271 54.1961 57.3091 53.6545L50.4976 44.8281C50.0797 44.2864 50.1941 43.5106 50.7532 43.0953C51.3123 42.6799 52.1043 42.7823 52.5223 43.324L58.577 51.1697L66.6757 45.1533C67.2348 44.7379 68.0269 44.8403 68.4449 45.3819C68.8629 45.9236 68.7485 46.6994 68.1894 47.1147L59.0783 53.8831ZM1.47842 5.75801C1.05044 4.60035 1.05089 4.60019 1.05145 4.59998C1.05179 4.59986 1.05246 4.59962 1.05312 4.59938C1.05445 4.59889 1.05622 4.59826 1.05842 4.59746C1.06283 4.59587 1.06897 4.59366 1.07683 4.59084C1.09255 4.5852 1.11515 4.57713 1.14448 4.56677C1.20313 4.54604 1.28869 4.51611 1.39997 4.47799C1.62251 4.40175 1.94796 4.29272 2.36668 4.15897C3.20399 3.89152 4.41513 3.52498 5.92291 3.12413C8.93621 2.32302 13.146 1.38172 17.932 0.822861C27.4525 -0.28887 39.4989 0.0839418 48.8709 6.37057L47.4236 8.41425C38.8059 2.63361 27.5178 2.18922 18.2014 3.27711C13.5688 3.81806 9.48453 4.73078 6.55833 5.50873C5.09635 5.89741 3.9264 6.25166 3.12504 6.50762C2.72443 6.63558 2.41617 6.73891 2.20981 6.8096C2.10665 6.84495 2.02897 6.87213 1.978 6.89014C1.95251 6.89915 1.9337 6.90586 1.92172 6.91016C1.91573 6.91231 1.91144 6.91386 1.90888 6.91478C1.9076 6.91524 1.90675 6.91555 1.90634 6.9157C1.90613 6.91578 1.90615 6.91577 1.90604 6.91581C1.90616 6.91576 1.9064 6.91568 1.47842 5.75801ZM48.8709 6.37057C53.0131 9.1491 55.6926 13.55 57.4148 18.4361C59.1394 23.3294 59.9428 28.8172 60.258 33.923C60.5737 39.0364 60.4025 43.8151 60.1534 47.3117C60.0287 49.0616 59.8843 50.4942 59.7707 51.4916C59.7139 51.9904 59.6647 52.3806 59.6296 52.6475C59.612 52.781 59.5979 52.8837 59.5882 52.9537C59.5833 52.9887 59.5794 53.0156 59.5768 53.0341C59.5755 53.0433 59.5744 53.0504 59.5737 53.0555C59.5733 53.058 59.573 53.0599 59.5728 53.0614C59.5727 53.0621 59.5726 53.0628 59.5726 53.0631C59.5725 53.0637 59.5724 53.0641 58.3214 52.9024C57.0704 52.7407 57.0704 52.7409 57.0704 52.7409C57.0704 52.7407 57.0705 52.7406 57.0705 52.7402C57.0706 52.7395 57.0708 52.7383 57.0711 52.7365C57.0716 52.733 57.0724 52.7274 57.0735 52.7196C57.0757 52.7042 57.0791 52.6804 57.0836 52.6485C57.0925 52.5847 57.1057 52.4884 57.1224 52.3616C57.1558 52.1078 57.2032 51.7316 57.2583 51.2477C57.3686 50.2797 57.5096 48.8815 57.6315 47.17C57.8756 43.744 58.0418 39.0777 57.7347 34.102C57.427 29.1186 56.6471 23.873 55.0237 19.2669C53.3977 14.6537 50.964 10.7891 47.4236 8.41425L48.8709 6.37057Z" fill="#3962FA"/>
</svg>
