<svg width="33" height="33" viewBox="0 0 33 33" fill="none" xmlns="http://www.w3.org/2000/svg">
<ellipse cx="16.5" cy="16.5" rx="16.5" ry="16.5" transform="rotate(-90 16.5 16.5)" fill="#86969E"/>
<path fill-rule="evenodd" clip-rule="evenodd" d="M8.80005 13C8.80005 12.6265 8.90244 12.2769 9.08069 11.9777L14.1919 16.3839L9.03902 20.4759C8.98113 20.5219 8.93615 20.5781 8.90461 20.6399C8.83681 20.439 8.80005 20.2238 8.80005 20L8.80005 13ZM9.34054 21.3674C9.70545 21.7568 10.2243 22 10.8 22H22.2C22.7758 22 23.2946 21.7568 23.6596 21.3674C23.5501 21.3696 23.4391 21.336 23.3455 21.2641L17.9319 17.1077C17.0259 17.675 15.8564 17.6533 14.9706 17.0426L9.6609 21.2591C9.56621 21.3343 9.45267 21.3696 9.34054 21.3674ZM18.7256 16.4564L23.9544 20.4709C24.0155 20.5178 24.0627 20.5759 24.0954 20.6401C24.1633 20.4392 24.2 20.2239 24.2 20V13C24.2 12.6265 24.0977 12.277 23.9195 11.9778L18.7256 16.4564ZM15.2717 15.9944L9.79311 11.2716C10.0888 11.0989 10.4329 11 10.8 11L22.2 11C22.5673 11 22.9114 11.099 23.2071 11.2717L17.73 15.9945L17.716 16.0065L17.7029 16.0196C17.039 16.6835 15.9626 16.6835 15.2987 16.0196L15.2857 16.0065L15.2717 15.9944Z" fill="white"/>
</svg>
