<svg width="33" height="33" viewBox="0 0 33 33" fill="none" xmlns="http://www.w3.org/2000/svg">
<ellipse cx="16.5" cy="16.5" rx="16.5" ry="16.5" transform="rotate(-90 16.5 16.5)" fill="#86969E"/>
<path fill-rule="evenodd" clip-rule="evenodd" d="M8.80005 12.7004C8.80005 11.154 10.0537 9.90039 11.6 9.90039L21.4 9.90039C22.9464 9.90039 24.2 11.154 24.2 12.7004V18.9323C24.2 20.4787 22.9464 21.7323 21.4 21.7323H18.5051C18.2819 21.7323 18.0721 21.8387 17.9403 22.0188L17.0226 23.2723C16.7558 23.6367 16.2189 23.6568 15.9255 23.3134L14.7846 21.9777C14.6516 21.822 14.4571 21.7323 14.2524 21.7323H11.6001C10.0537 21.7323 8.80005 20.4787 8.80005 18.9323L8.80005 12.7004ZM11 13.7504C11 13.4466 11.2463 13.2004 11.55 13.2004L19.25 13.2004C19.5538 13.2004 19.8 13.4466 19.8 13.7504C19.8 14.0541 19.5538 14.3004 19.25 14.3004L11.55 14.3004C11.2463 14.3004 11 14.0541 11 13.7504ZM11.55 16.5004C11.2463 16.5004 11 16.7466 11 17.0504C11 17.3541 11.2463 17.6004 11.55 17.6004H15.95C16.2538 17.6004 16.5 17.3541 16.5 17.0504C16.5 16.7466 16.2538 16.5004 15.95 16.5004H11.55Z" fill="white"/>
</svg>
