<svg width="20" height="20" viewBox="0 0 20 20" fill="none" xmlns="http://www.w3.org/2000/svg">
<ellipse cx="10" cy="10" rx="10" ry="10" transform="rotate(-90 10 10)" fill="#3962FA"/>
<path fill-rule="evenodd" clip-rule="evenodd" d="M5.33331 8.66699C5.33331 8.28526 5.44026 7.92851 5.62582 7.62507L8.29227 9.9237L5.50222 12.1393C5.39361 11.8928 5.33331 11.6203 5.33331 11.3337L5.33331 8.66699ZM6.12126 12.9247C6.45757 13.1813 6.87764 13.3337 7.33331 13.3337H12.6666C13.1211 13.3337 13.5402 13.1821 13.8761 12.9267L10.8519 10.6048C10.2992 10.8947 9.62959 10.8832 9.08619 10.5702L6.12126 12.9247ZM11.6607 9.96503L14.4965 12.1423C14.6059 11.895 14.6666 11.6214 14.6666 11.3337V8.66699C14.6666 8.28532 14.5597 7.92863 14.3742 7.62521L11.6607 9.96503ZM12.6666 6.66699C13.0253 6.66699 13.3619 6.7614 13.653 6.92671L10.6168 9.54472L10.6028 9.55678L10.5897 9.56984C10.2643 9.89527 9.73667 9.89527 9.41123 9.56984L9.39815 9.55676L9.38415 9.54468L6.34716 6.92662C6.63818 6.76136 6.97473 6.66699 7.33331 6.66699L12.6666 6.66699Z" fill="white"/>
</svg>
