<svg width="20" height="20" viewBox="0 0 20 20" fill="none" xmlns="http://www.w3.org/2000/svg">
<circle cx="10" cy="10" r="10" transform="rotate(-90 10 10)" fill="#3962FA"/>
<path d="M13.7427 11.76C13.7208 11.7427 12.1333 10.5984 11.6976 10.6805C11.4896 10.7173 11.3707 10.8592 11.132 11.1432C11.0936 11.1891 11.0013 11.2989 10.9296 11.3771C10.7788 11.3279 10.6316 11.268 10.4893 11.1979C9.75481 10.8403 9.16133 10.2468 8.80373 9.51227C8.73356 9.36998 8.67368 9.22285 8.62453 9.072C8.70293 9 8.8128 8.90773 8.85973 8.86827C9.1424 8.63093 9.28453 8.512 9.32133 8.30347C9.3968 7.87147 8.25333 6.27307 8.24133 6.25867C8.18945 6.18455 8.12175 6.1229 8.04311 6.07816C7.96448 6.03343 7.87689 6.00673 7.78667 6C7.3232 6 6 7.71653 6 8.0056C6 8.0224 6.02427 9.73013 8.13013 11.8723C10.2701 13.9757 11.9776 14 11.9944 14C12.2837 14 14 12.6768 14 12.2133C13.9933 12.1234 13.9668 12.0361 13.9223 11.9577C13.8778 11.8793 13.8164 11.8118 13.7427 11.76Z" fill="white"/>
</svg>
