<svg width="33" height="33" viewBox="0 0 33 33" fill="none" xmlns="http://www.w3.org/2000/svg">
<circle cx="16.5" cy="16.5" r="16.5" transform="rotate(-90 16.5 16.5)" fill="#86969E"/>
<path d="M22.6753 19.4044C22.6392 19.3758 20.0199 17.4878 19.3009 17.6233C18.9577 17.684 18.7615 17.9181 18.3677 18.3867C18.3043 18.4624 18.1521 18.6436 18.0337 18.7726C17.7849 18.6914 17.5421 18.5926 17.3073 18.4769C16.0953 17.8868 15.1161 16.9076 14.5261 15.6956C14.4103 15.4609 14.3115 15.2181 14.2304 14.9692C14.3597 14.8504 14.541 14.6982 14.6185 14.633C15.0849 14.2414 15.3194 14.0452 15.3801 13.7011C15.5046 12.9883 13.6179 10.351 13.5981 10.3272C13.5125 10.2049 13.4008 10.1032 13.271 10.0294C13.1413 9.95554 12.9968 9.91149 12.8479 9.90039C12.0832 9.90039 9.8999 12.7327 9.8999 13.2096C9.8999 13.2374 9.93994 16.0551 13.4146 19.5896C16.9456 23.0604 19.7629 23.1004 19.7907 23.1004C20.2681 23.1004 23.0999 20.9171 23.0999 20.1524C23.0889 20.0041 23.0451 19.86 22.9717 19.7306C22.8983 19.6013 22.797 19.4899 22.6753 19.4044Z" fill="white"/>
</svg>
