<svg width="20" height="20" viewBox="0 0 20 20" fill="none" xmlns="http://www.w3.org/2000/svg">
<ellipse cx="10" cy="10" rx="10" ry="10" transform="rotate(-90 10 10)" fill="#3962FA"/>
<path fill-rule="evenodd" clip-rule="evenodd" d="M5.33331 8.8C5.33331 7.2536 6.58692 6 8.13331 6H11.8666C13.413 6 14.6666 7.2536 14.6666 8.8V10.3709C14.6666 11.9173 13.413 13.1709 11.8666 13.1709H11.355C11.1319 13.1709 10.9221 13.2773 10.7902 13.4573L10.5225 13.823C10.2557 14.1874 9.71879 14.2075 9.42546 13.8641L9.04289 13.4162C8.9099 13.2605 8.7154 13.1709 8.51063 13.1709H8.13331C6.58692 13.1709 5.33331 11.9173 5.33331 10.3709V8.8ZM6.66665 8.33333C6.66665 8.14924 6.81588 8 6.99998 8L11.6666 8C11.8507 8 12 8.14924 12 8.33333C12 8.51743 11.8507 8.66667 11.6666 8.66667H6.99998C6.81588 8.66667 6.66665 8.51743 6.66665 8.33333ZM6.99998 10C6.81588 10 6.66665 10.1492 6.66665 10.3333C6.66665 10.5174 6.81588 10.6667 6.99998 10.6667H9.66665C9.85074 10.6667 9.99998 10.5174 9.99998 10.3333C9.99998 10.1492 9.85074 10 9.66665 10H6.99998Z" fill="white"/>
</svg>
