<svg width="36" height="36" viewBox="0 0 36 36" fill="none" xmlns="http://www.w3.org/2000/svg">
<path d="M29.25 36H6.75C3.02175 36 0 32.9782 0 29.25V6.75C0 3.02175 3.02175 0 6.75 0H29.25C32.9782 0 36 3.02175 36 6.75V29.25C36 32.9782 32.9782 36 29.25 36Z" fill="#FC2133" fill-opacity="0.2"/>
<path d="M27.3575 22.4C27.3029 22.3567 23.3342 19.496 22.2449 19.7013C21.7249 19.7933 21.4275 20.148 20.8309 20.858C20.7349 20.9727 20.5042 21.2473 20.3249 21.4427C19.9478 21.3197 19.58 21.17 19.2242 20.9947C17.3879 20.1007 15.9042 18.617 15.0102 16.7807C14.8348 16.4249 14.685 16.0571 14.5622 15.68C14.7582 15.5 15.0329 15.2693 15.1502 15.1707C15.8569 14.5773 16.2122 14.28 16.3042 13.7587C16.4929 12.6787 14.5308 11.036 14.5008 11C14.3711 10.8147 14.1974 10.1118 14.0008 10C13.8042 9.88816 14.2264 9.51682 14.0009 9.5C12.8422 9.5 10.0009 13 10.0009 13.5C10.0009 14 9.50084 15.5 14.0009 21C20.3249 27.1859 22.9588 27 23.0008 27C23.7242 27 28.0009 24.692 28.0009 23.5333C27.9842 23.3086 27.9179 23.0903 27.8066 22.8943C27.6954 22.6983 27.542 22.5295 27.3575 22.4Z" fill="#FC2133" fill-opacity="0.8"/>
<path d="M27.0461 22.7918L27.0575 22.8009L27.0694 22.8092C27.1932 22.8962 27.2962 23.0096 27.3709 23.1412C27.441 23.2645 27.4845 23.4011 27.4989 23.542C27.4971 23.5527 27.4926 23.5733 27.4811 23.6052C27.4629 23.6559 27.4318 23.722 27.3835 23.8039C27.2863 23.9688 27.1375 24.1672 26.9418 24.391C26.5516 24.8374 26.0139 25.341 25.4437 25.8175C24.8747 26.2929 24.2864 26.7303 23.8017 27.046C23.5586 27.2044 23.3494 27.3269 23.1866 27.4078C23.105 27.4484 23.0427 27.4747 22.9987 27.4898C22.9848 27.4946 22.9748 27.4976 22.9683 27.4993C22.6637 27.4865 18.674 27.2355 13.6789 22.3271C8.76515 17.3272 8.51351 13.3369 8.50069 13.0318C8.50244 13.0253 8.50539 13.0153 8.51015 13.0015C8.52531 12.9575 8.55158 12.8952 8.59213 12.8136C8.67306 12.6509 8.79559 12.4417 8.95395 12.1986C9.26965 11.7139 9.70711 11.1256 10.1825 10.5566C10.659 9.98627 11.1626 9.44853 11.609 9.05823C11.8329 8.86255 12.0313 8.7137 12.1961 8.61648C12.278 8.56818 12.3441 8.53709 12.3948 8.51886C12.4267 8.50739 12.4473 8.5029 12.4579 8.50113C12.5995 8.51566 12.7366 8.55951 12.8605 8.62999C12.9927 8.70519 13.1065 8.80882 13.1937 8.9334L13.2058 8.95062L13.2192 8.96676C13.2182 8.96558 13.2249 8.97497 13.2383 8.99399C13.3553 9.15948 13.9877 10.0544 14.6085 11.0716C14.9519 11.6342 15.2809 12.2169 15.5109 12.7179C15.6261 12.9689 15.7111 13.188 15.7616 13.3665C15.8157 13.5579 15.8147 13.6503 15.8108 13.6726L16.3033 13.7587L15.8109 13.6718C15.7571 13.977 15.5821 14.1544 14.8278 14.7877L14.8275 14.788L14.8187 14.7954C14.6985 14.8965 14.4237 15.1275 14.2231 15.3117L13.9863 15.5292L14.0859 15.8349C14.2161 16.2343 14.3746 16.6239 14.5603 17.0007C15.5032 18.9366 17.0674 20.5009 19.0034 21.4437C19.3802 21.6293 19.7697 21.7878 20.169 21.918L20.4748 22.0178L20.6923 21.7808C20.8805 21.5759 21.1181 21.2927 21.2132 21.1792C21.8497 20.4218 22.0271 20.2475 22.3311 20.1937L22.3311 20.1937L22.3366 20.1927C22.3593 20.1884 22.4512 20.1862 22.6414 20.2386C22.8191 20.2876 23.0372 20.3711 23.2872 20.4852C23.7865 20.7129 24.3666 21.0406 24.9273 21.3839C25.4855 21.7256 26.0135 22.0759 26.4059 22.344C26.7636 22.5884 26.9954 22.7554 27.0387 22.7866C27.0439 22.7903 27.0464 22.7921 27.0461 22.7918Z" stroke="#031F88"/>
</svg>
