<svg width="9" height="10" viewBox="0 0 9 10" fill="none" xmlns="http://www.w3.org/2000/svg">
<path fill-rule="evenodd" clip-rule="evenodd" d="M0.25739 0.757268C-0.0355036 1.05016 -0.0355035 1.52503 0.25739 1.81793L3.43937 4.99991L0.25739 8.18189C-0.0355036 8.47478 -0.0355036 8.94966 0.25739 9.24255C0.550283 9.53544 1.02516 9.53544 1.31805 9.24255L4.50003 6.06057L7.68201 9.24255C7.9749 9.53544 8.44978 9.53544 8.74267 9.24255C9.03556 8.94966 9.03556 8.47478 8.74267 8.18189L5.56069 4.99991L8.74267 1.81793C9.03556 1.52503 9.03556 1.05016 8.74267 0.757267C8.44978 0.464374 7.9749 0.464375 7.68201 0.757267L4.50003 3.93925L1.31805 0.757268C1.02516 0.464375 0.550283 0.464375 0.25739 0.757268Z" fill="#43D14F"/>
</svg>
