<svg width="15" height="14" viewBox="0 0 15 14" fill="none" xmlns="http://www.w3.org/2000/svg">
<path fill-rule="evenodd" clip-rule="evenodd" d="M0.914946 0.494726C0.524422 0.88525 0.522301 1.52052 0.910211 1.91364L5.77983 6.84868L0.63448 11.9258C0.241358 12.3137 0.239252 12.9448 0.629777 13.3353C1.0203 13.7258 1.65557 13.7279 2.04869 13.34L7.18454 8.27227L12.346 13.5031C12.7339 13.8962 13.365 13.8983 13.7555 13.5078C14.146 13.1173 14.1482 12.482 13.7603 12.0889L8.60813 6.86756L13.6382 1.9042C14.0313 1.5163 14.0334 0.88525 13.6429 0.494725C13.2523 0.104201 12.6171 0.102081 12.224 0.48999L7.20342 5.44397L2.32443 0.499428C1.93652 0.106307 1.30547 0.104201 0.914946 0.494726Z" fill="#86969E"/>
</svg>
