<svg width="101" height="95" viewBox="0 0 101 95" fill="none" xmlns="http://www.w3.org/2000/svg">
<path d="M49.5943 0.804016H5.28528V94.0859H49.5943V0.804016Z" fill="#EFF2F9"/>
<path fill-rule="evenodd" clip-rule="evenodd" d="M71.3923 94.0864H49.5942V20.0681L71.3923 9.69531V94.0864Z" fill="#86969E"/>
<path fill-rule="evenodd" clip-rule="evenodd" d="M45.8648 90.3729V55.8532L22.0189 61.3258V90.3729H45.8648Z" fill="#86969E"/>
<path d="M25.0049 89.5678H48.85V55.0481L25.0049 60.5207V89.5678ZM48.85 48.2464V5.22234L11.9981 18.0926V56.7035L48.85 48.2464ZM57.1773 47.5506V49.3379L79.9126 44.1189V42.3317L57.1773 47.5506ZM57.1773 21.9859V46.3349L79.9126 41.1168V27.9227L57.1773 21.9859ZM55.9877 46.6096V21.6748L52.5837 20.7862V47.3891L55.9877 46.6096ZM55.9877 49.6093V47.8237L52.5837 48.6041V50.3888L55.9877 49.6093ZM31.6183 29.4876H35.7897V33.6388H31.6141L31.6183 29.4876ZM25.067 35.9663H29.2306V40.1149H25.067V35.9663ZM31.6183 35.9663H35.7897V40.1149H31.6141L31.6183 35.9663ZM25.067 29.4834H29.2306V33.6345H25.067V29.4834ZM70.2104 58.3589H74.3741V62.5075H70.2104V58.3589ZM63.6548 64.846H67.8269V68.9887H63.6548V64.846ZM70.2104 64.846H74.3741V68.9887H70.2104V64.846ZM63.6548 58.3631H67.8269V62.5117H63.6548V58.3631ZM21.5593 93.2861V61.3129L17.7007 62.1972V58.3969L21.5593 57.5126L48.85 51.2478V49.4588L11.9981 57.9133V93.2776H8.26615V58.7731L5.2785 59.4596V93.2776H4.08889V59.7327L0.265115 60.612L0 59.4579L4.08634 58.5203V0H5.27596V58.2515L8.2636 57.565V15.4717L52.5794 0V16.9639L55.9834 17.8525V0H57.173V18.162L83.6378 25.0727V40.2629L99.831 36.5429L100.092 37.6969L83.6395 41.4752V43.2642L91.8275 41.3873V93.2818H62.1389V89.5678H88.0997V46.0423L57.1747 53.1382V93.2818H55.9851V53.4113L52.5794 54.1933V93.2818L21.5593 93.2861Z" fill="#3962FA"/>
</svg>
