<svg width="30" height="30" viewBox="0 0 30 30" fill="none" xmlns="http://www.w3.org/2000/svg">
<circle cx="15" cy="15" r="15" fill="#3962FA"/>
<path fill-rule="evenodd" clip-rule="evenodd" d="M13.4998 9.5C13.4998 8.67157 14.1713 8 14.9998 8C15.8282 8 16.4998 8.67157 16.4998 9.5V16.2785L16.7174 16.0609C17.3032 15.4751 18.253 15.4751 18.8388 16.0609C19.4245 16.6467 19.4245 17.5964 18.8388 18.1822L16.0103 21.0106C15.4245 21.5964 14.4748 21.5964 13.889 21.0106C13.8859 21.0075 13.8828 21.0044 13.8796 21.0012L11.0604 18.182C10.4746 17.5962 10.4746 16.6464 11.0604 16.0607C11.6462 15.4749 12.596 15.4749 13.1818 16.0607L13.4998 16.3787V9.5Z" fill="white"/>
</svg>
