<svg width="68" height="68" viewBox="0 0 68 68" fill="none" xmlns="http://www.w3.org/2000/svg">
<path d="M66.0462 58.3433V58.3396V27.5263H64.7962L66.0462 27.5217C66.0411 26.1452 65.6795 24.7934 64.9965 23.5982C64.3136 22.403 63.3325 21.4051 62.1491 20.7019L62.1234 20.6866L62.0969 20.6726L55.3328 17.0799C54.8065 16.7928 54.2145 16.6476 53.6149 16.6588C53.0122 16.67 52.4229 16.8389 51.9056 17.1485C51.3884 17.4582 50.9612 17.8978 50.6666 18.4238C50.3731 18.9477 50.2214 19.539 50.2263 20.1394V32.1748L37.6317 38.9679L37.6296 38.969L33.7164 41.0702L29.8033 38.969L29.8012 38.9679L17.2066 32.1748V20.1394C17.2115 19.539 17.0597 18.9477 16.7663 18.4238C16.4717 17.8978 16.0445 17.4582 15.5273 17.1485C15.01 16.8389 14.4207 16.67 13.818 16.6588C13.2185 16.6476 12.6266 16.7927 12.1003 17.0797L5.20325 20.7389L5.1648 20.7593L5.12785 20.7824C3.98268 21.4962 3.03826 22.49 2.3837 23.6701C1.72925 24.8499 1.38613 26.1771 1.38672 27.5263L1.38671 58.3396L1.38672 58.3433C1.39284 60.4383 2.22779 62.4457 3.70918 63.9271C5.19057 65.4085 7.19801 66.2434 9.29301 66.2496H9.29666L58.1362 66.2496L58.1399 66.2495C60.2349 66.2434 62.2423 65.4085 63.7237 63.9271C65.2051 62.4457 66.04 60.4383 66.0462 58.3433Z" fill="#3962FA" stroke="#031F88" stroke-width="2.5"/>
<path d="M64.7962 27.5263V30.8119L34.7598 46.9733C34.4399 47.1482 34.0811 47.2398 33.7164 47.2398C33.3518 47.2398 32.993 47.1482 32.673 46.9733L2.63672 30.8119V27.5263C2.63613 26.3892 2.92525 25.2708 3.4768 24.2764C4.02835 23.2821 4.82414 22.4446 5.78909 21.8431L12.6932 18.1802C13.0304 17.9951 13.4101 17.9014 13.7947 17.9086C14.1792 17.9158 14.5552 18.0235 14.8852 18.221C15.2152 18.4186 15.4878 18.6991 15.6757 19.0347C15.8637 19.3702 15.9605 19.7492 15.9566 20.1338V32.9208L33.7164 42.489L51.4763 32.9208V20.1338C51.4724 19.7492 51.5692 19.3702 51.7572 19.0347C51.9451 18.6991 52.2177 18.4186 52.5477 18.221C52.8777 18.0235 53.2537 17.9158 53.6382 17.9086C54.0228 17.9014 54.4025 17.9951 54.7396 18.1802L61.5106 21.7765C62.5083 22.3694 63.3354 23.2107 63.9112 24.2184C64.487 25.226 64.7919 26.3657 64.7962 27.5263V27.5263Z" fill="#1D16F0"/>
<path d="M64.7962 57.1863V58.3407C64.791 60.1054 64.0877 61.7964 62.8398 63.0443C61.5919 64.2921 59.901 64.9955 58.1362 65.0006H9.29666C7.53192 64.9955 5.84093 64.2921 4.59306 63.0443C3.3452 61.7964 2.64187 60.1054 2.63672 58.3407V57.1863L26.8789 40.2034C27.2184 39.971 27.615 39.8357 28.0258 39.8123C28.4366 39.7888 28.8461 39.878 29.2099 40.0702L33.7164 42.49L38.223 40.0702C38.5868 39.878 38.9962 39.7888 39.407 39.8123C39.8178 39.8357 40.2144 39.971 40.554 40.2034L64.7962 57.1863Z" fill="#1D16F0"/>
<path d="M10.4785 34.7598V4.27843C10.4785 3.67415 10.7263 3.09463 11.1674 2.66734C11.6085 2.24005 12.2067 2 12.8305 2H54.4645C55.0883 2 55.6865 2.24005 56.1276 2.66734C56.5687 3.09463 56.8165 3.67415 56.8165 4.27843V35.5998" stroke="#031F88" stroke-width="2.5"/>
<path d="M53.6967 2.83984H13.7371C13.1483 2.83984 12.5836 3.07373 12.1673 3.49006C11.751 3.90639 11.5171 4.47105 11.5171 5.05982V35.5777L32.6644 46.9728C32.9876 47.1478 33.3494 47.2394 33.7169 47.2394C34.0844 47.2394 34.4462 47.1478 34.7694 46.9728L55.9167 35.5777V5.05982C55.9167 4.47105 55.6828 3.90639 55.2665 3.49006C54.8502 3.07373 54.2855 2.83984 53.6967 2.83984V2.83984Z" fill="white"/>
<path d="M2.00016 30.1921L32.7921 46.451C33.3714 46.7569 34.0639 46.7597 34.6456 46.4584L66.0567 30.1921" stroke="#031F88" stroke-width="2.5"/>
<rect x="16.7002" y="10" width="34" height="2" rx="1" fill="#031F88"/>
<rect x="16.7002" y="23" width="34" height="2" rx="1" fill="#031F88"/>
<rect x="16.7002" y="15" width="20" height="2" rx="1" fill="#031F88"/>
<rect x="16.7002" y="28" width="20" height="2" rx="1" fill="#031F88"/>
</svg>
