<svg width="26" height="26" viewBox="0 0 26 26" fill="none" xmlns="http://www.w3.org/2000/svg">
<path d="M5.25 22C4.69771 22 4.25 21.5523 4.25 21L4.25 7.5C4.25 5.84315 5.59315 4.5 7.25 4.5L21 4.5C21.5523 4.5 22 4.94771 22 5.5L22 21.5L17 13L14 17.5L11 22L5.25 22Z" fill="#FC2133" fill-opacity="0.3"/>
<rect x="10.75" y="7" width="4" height="1" rx="0.5" fill="#031F88"/>
<path d="M8.75 22.5L7.25 22.5C5.04086 22.5 3.25 20.7091 3.25 18.5L3.25 7.5C3.25 5.29086 5.04086 3.5 7.25 3.5L18.5 3.5C20.7091 3.5 22.5 5.29086 22.5 7.5L22.5 11" stroke="#031F88" stroke-linecap="round"/>
<path d="M15.8925 13.9292C16.2809 13.2818 17.2191 13.2818 17.6075 13.9292L21.8413 20.9855C22.2412 21.652 21.7611 22.5 20.9838 22.5H12.5162C11.7389 22.5 11.2588 21.652 11.6587 20.9855L15.8925 13.9292Z" fill="#FC2133"/>
<path d="M15.8925 13.9292C16.2809 13.2818 17.2191 13.2818 17.6075 13.9292L21.8413 20.9855C22.2412 21.652 21.7611 22.5 20.9838 22.5H12.5162C11.7389 22.5 11.2588 21.652 11.6587 20.9855L15.8925 13.9292Z" stroke="#031F88"/>
<rect x="16.25" y="16" width="1" height="3" rx="0.5" fill="#031F88"/>
<rect x="16.25" y="20" width="1" height="1" rx="0.5" fill="#031F88"/>
</svg>
