<svg width="20" height="14" viewBox="0 0 20 14" fill="none" xmlns="http://www.w3.org/2000/svg">
<path d="M10 14C4.54243 14 0.349418 7.80769 0.14975 7.53846C-0.0499168 7.26923 -0.0499168 6.86538 0.14975 6.59615C0.349418 6.32692 4.54243 0 10 0C15.4576 0 19.6506 6.32692 19.8503 6.59615C20.0499 6.86538 20.0499 7.26923 19.8503 7.53846C19.6506 7.80769 15.4576 14 10 14ZM1.94676 7.06731C3.01165 8.41346 6.27288 12.25 10 12.25C13.7271 12.25 17.0549 8.41346 18.0532 7.06731C16.9884 5.65385 13.7271 1.68269 10 1.68269C6.27288 1.68269 2.94509 5.65385 1.94676 7.06731Z" fill="#86969E"/>
<path d="M10 11.2406C7.67057 11.2406 5.80701 9.35593 5.80701 7.00016C5.80701 4.64438 7.67057 2.75977 10 2.75977C12.3295 2.75977 14.193 4.64438 14.193 7.00016C14.193 9.35593 12.3295 11.2406 10 11.2406ZM10 4.44246C8.60235 4.44246 7.4709 5.58669 7.4709 7.00016C7.4709 8.41362 8.60235 9.55785 10 9.55785C11.3977 9.55785 12.5291 8.41362 12.5291 7.00016C12.5291 5.58669 11.3977 4.44246 10 4.44246Z" fill="#86969E"/>
</svg>
