<svg width="20" height="14" viewBox="0 0 20 14" fill="none" xmlns="http://www.w3.org/2000/svg">
<path d="M10 14C4.54243 14 0.349418 7.80769 0.14975 7.53846C-0.0499168 7.26923 -0.0499168 6.86538 0.14975 6.59615C0.349418 6.32692 4.54243 0 10 0C15.4576 0 19.6506 6.32692 19.8503 6.59615C20.0499 6.86538 20.0499 7.26923 19.8503 7.53846C19.6506 7.80769 15.4576 14 10 14ZM1.94676 7.06731C3.01165 8.41346 6.27288 12.25 10 12.25C13.7271 12.25 17.0549 8.41346 18.0532 7.06731C16.9884 5.65385 13.7271 1.68269 10 1.68269C6.27288 1.68269 2.94509 5.65385 1.94676 7.06731Z" fill="#43D14F"/>
<path d="M9.99966 11.2401C7.6702 11.2401 5.80664 9.35544 5.80664 6.99967C5.80664 4.6439 7.6702 2.75928 9.99966 2.75928C12.3291 2.75928 14.1927 4.6439 14.1927 6.99967C14.1927 9.35544 12.3291 11.2401 9.99966 11.2401ZM9.99966 4.44197C8.60199 4.44197 7.47054 5.58621 7.47054 6.99967C7.47054 8.41313 8.60199 9.55737 9.99966 9.55737C11.3973 9.55737 12.5288 8.41313 12.5288 6.99967C12.5288 5.58621 11.3973 4.44197 9.99966 4.44197Z" fill="#43D14F"/>
</svg>
