<svg width="28" height="28" viewBox="0 0 28 28" fill="none" xmlns="http://www.w3.org/2000/svg">
<path d="M3 6C3 4.89543 3.89543 4 5 4H27.3V18.3659C27.3 20.5751 25.5091 22.3659 23.3 22.3659H17.5073C17.1885 22.3659 16.8887 22.518 16.7004 22.7752L14.7466 25.4439C14.3654 25.9645 13.5983 25.9933 13.1793 25.5027L10.7385 22.6451C10.5845 22.4649 10.3716 22.3452 10.1377 22.3074L3 21.1536V6Z" fill="#3962FA" fill-opacity="0.4"/>
<path d="M9 18C9 15.2386 11.2386 13 14 13V13C16.7614 13 19 15.2386 19 18V18.3333C19 18.7015 18.7015 19 18.3333 19H9.66667C9.29848 19 9 18.7015 9 18.3333V18Z" stroke="#031F88" stroke-width="2"/>
<circle cx="14" cy="8" r="2" stroke="#031F88" stroke-width="2"/>
<path d="M1 4.99999C1 3.34314 2.34314 2 4 2H24C25.6569 2 27 3.34315 27 5V18.84C27 20.4969 25.6569 21.84 24 21.84H17.5118C16.869 21.84 16.2655 22.1489 15.8896 22.6702L13.9393 25.3746L11.5649 22.5524C11.1849 22.1007 10.6248 21.84 10.0345 21.84H4C2.34315 21.84 1 20.4969 1 18.84V4.99999Z" stroke="#031F88" stroke-width="2"/>
</svg>
