<svg width="20" height="20" viewBox="0 0 20 20" fill="none" xmlns="http://www.w3.org/2000/svg">
<path d="M4.5 19C3.94772 19 3.5 18.5523 3.5 18L3.5 4.5C3.5 2.84315 4.84315 1.5 6.5 1.5L14 1.5C15.6569 1.5 17 2.84314 17 4.5L17 16C17 17.6569 15.6569 19 14 19L4.5 19Z" fill="#3962FA" fill-opacity="0.8"/>
<rect x="2.5" y="19.5" width="19" height="15" rx="3.5" transform="rotate(-90 2.5 19.5)" stroke="#031F88"/>
<path fill-rule="evenodd" clip-rule="evenodd" d="M14.5888 10.8536C14.7841 10.6583 14.7841 10.3417 14.5888 10.1464C14.3936 9.95118 14.077 9.95118 13.8817 10.1464L8.57845 15.4497L6.10355 12.9748C5.90829 12.7796 5.59171 12.7796 5.39645 12.9748C5.20118 13.1701 5.20118 13.4867 5.39645 13.6819L8.22052 16.506C8.22196 16.5075 8.22341 16.5089 8.22487 16.5104C8.42014 16.7057 8.73672 16.7057 8.93198 16.5104L14.5888 10.8536Z" fill="#031F88"/>
<rect x="5" y="4" width="10" height="1" rx="0.5" fill="#031F88"/>
<rect x="7" y="7" width="6" height="1" rx="0.5" fill="#031F88"/>
</svg>
