<svg width="15" height="14" viewBox="0 0 15 14" fill="none" xmlns="http://www.w3.org/2000/svg">
<path fill-rule="evenodd" clip-rule="evenodd" d="M1.43252 0.494726C1.042 0.88525 1.03988 1.52052 1.42779 1.91364L6.29741 6.84868L1.15206 11.9258C0.758936 12.3137 0.756831 12.9448 1.14736 13.3353C1.53788 13.7258 2.17315 13.7279 2.56627 13.34L7.70212 8.27227L12.8636 13.5031C13.2515 13.8962 13.8826 13.8983 14.2731 13.5078C14.6636 13.1173 14.6657 12.482 14.2778 12.0889L9.12571 6.86756L14.1557 1.9042C14.5489 1.5163 14.551 0.88525 14.1604 0.494725C13.7699 0.104201 13.1347 0.102081 12.7415 0.48999L7.72099 5.44397L2.842 0.499428C2.45409 0.106307 1.82305 0.104201 1.43252 0.494726Z" fill="#86969E"/>
</svg>
