<svg width="52" height="52" viewBox="0 0 52 52" fill="none" xmlns="http://www.w3.org/2000/svg">
<path d="M42.25 52H9.75C4.36475 52 0 47.6352 0 42.25V9.75C0 4.36475 4.36475 0 9.75 0H42.25C47.6352 0 52 4.36475 52 9.75V42.25C52 47.6352 47.6352 52 42.25 52Z" fill="#3962FA" fill-opacity="0.2"/>
<path d="M10 33C10 32.4477 10.4477 32 11 32H17V43C17 44.1046 16.1046 45 15 45H10V33Z" fill="#3962FA" fill-opacity="0.6"/>
<path d="M24 27C24 26.4477 24.4477 26 25 26H31V43C31 44.1046 30.1046 45 29 45H24V27Z" fill="#3962FA" fill-opacity="0.6"/>
<path d="M38 21C38 20.4477 38.4477 20 39 20H45V43C45 44.1046 44.1046 45 43 45H38V21Z" fill="#3962FA" fill-opacity="0.6"/>
<rect x="7" y="29" width="10" height="16" rx="2" stroke="#031F88" stroke-width="2"/>
<rect x="21" y="23" width="10" height="22" rx="2" stroke="#031F88" stroke-width="2"/>
<path d="M28.6798 8.75997L29.079 13.0839L25.1348 11.2677L28.6798 8.75997Z" fill="#031F88" stroke="#031F88"/>
<path d="M27.5218 11.5361C25.7951 14.5178 23.2284 16.9247 20.142 18.4564C17.0556 19.988 13.5864 20.5764 10.1676 20.1482" stroke="#031F88" stroke-width="2" stroke-linecap="round"/>
<rect x="35" y="17" width="10" height="28" rx="2" stroke="#031F88" stroke-width="2"/>
</svg>
