<svg width="77" height="118" viewBox="0 0 77 118" fill="none" xmlns="http://www.w3.org/2000/svg">
<rect x="1.96875" y="50.875" width="73.2812" height="65.4688" rx="6.5625" fill="#3962FA" stroke="#031F88" stroke-width="2.5"/>
<path d="M3 52C3 52 5.5 79.0567 21.5 95C37.5 110.943 74 115 74 115H7.81C5.15351 115 3 112.846 3 110.19V52Z" fill="#1F48DF"/>
<rect x="1.96875" y="50.875" width="73.2812" height="65.4688" rx="6.5625" stroke="#031F88" stroke-width="2.5"/>
<mask id="path-4-inside-1" fill="white">
<path fill-rule="evenodd" clip-rule="evenodd" d="M38.5 0C23.3122 0 11 12.3122 11 27.5V52H66V27.5C66 12.3122 53.6878 0 38.5 0ZM38.5 9.90476C28.835 9.90476 21 17.7398 21 27.4048V49.5238H56V27.4048C56 17.7398 48.165 9.90476 38.5 9.90476Z"/>
</mask>
<path fill-rule="evenodd" clip-rule="evenodd" d="M38.5 0C23.3122 0 11 12.3122 11 27.5V52H66V27.5C66 12.3122 53.6878 0 38.5 0ZM38.5 9.90476C28.835 9.90476 21 17.7398 21 27.4048V49.5238H56V27.4048C56 17.7398 48.165 9.90476 38.5 9.90476Z" fill="#3962FA"/>
<path d="M11 52H8.5V54.5H11V52ZM66 52V54.5H68.5V52H66ZM21 49.5238H18.5V52.0238H21V49.5238ZM56 49.5238V52.0238H58.5V49.5238H56ZM13.5 27.5C13.5 13.6929 24.6929 2.5 38.5 2.5V-2.5C21.9315 -2.5 8.5 10.9315 8.5 27.5H13.5ZM13.5 52V27.5H8.5V52H13.5ZM66 49.5H11V54.5H66V49.5ZM63.5 27.5V52H68.5V27.5H63.5ZM38.5 2.5C52.3071 2.5 63.5 13.6929 63.5 27.5H68.5C68.5 10.9315 55.0685 -2.5 38.5 -2.5V2.5ZM23.5 27.4048C23.5 19.1205 30.2157 12.4048 38.5 12.4048V7.40476C27.4543 7.40476 18.5 16.3591 18.5 27.4048H23.5ZM23.5 49.5238V27.4048H18.5V49.5238H23.5ZM56 47.0238H21V52.0238H56V47.0238ZM53.5 27.4048V49.5238H58.5V27.4048H53.5ZM38.5 12.4048C46.7843 12.4048 53.5 19.1205 53.5 27.4048H58.5C58.5 16.3591 49.5457 7.40476 38.5 7.40476V12.4048Z" fill="#031F88" mask="url(#path-4-inside-1)"/>
<path d="M12.1094 85.5627L14.0547 83.5237L11.2656 83.0081L11.8984 81.0627L14.4531 82.2815L14.0781 79.469H16.1406L15.7656 82.2815L18.3203 81.0627L18.9531 83.0081L16.1641 83.5237L18.1094 85.5627L16.4453 86.7815L15.1094 84.3206L13.7734 86.7815L12.1094 85.5627Z" fill="white"/>
<path d="M23.8281 85.5625L25.7734 83.5234L22.9844 83.0078L23.6172 81.0625L26.1719 82.2812L25.7969 79.4687H27.8594L27.4844 82.2812L30.0391 81.0625L30.6719 83.0078L27.8828 83.5234L29.8281 85.5625L28.1641 86.7812L26.8281 84.3203L25.4922 86.7812L23.8281 85.5625Z" fill="white"/>
<path d="M35.5469 85.5625L37.4922 83.5234L34.7031 83.0078L35.3359 81.0625L37.8906 82.2812L37.5156 79.4687H39.5781L39.2031 82.2812L41.7578 81.0625L42.3906 83.0078L39.6016 83.5234L41.5469 85.5625L39.8828 86.7812L38.5469 84.3203L37.2109 86.7812L35.5469 85.5625Z" fill="white"/>
<path d="M47.2656 85.5625L49.2109 83.5234L46.4219 83.0078L47.0547 81.0625L49.6094 82.2812L49.2344 79.4687H51.2969L50.9219 82.2812L53.4766 81.0625L54.1094 83.0078L51.3203 83.5234L53.2656 85.5625L51.6016 86.7812L50.2656 84.3203L48.9297 86.7812L47.2656 85.5625Z" fill="white"/>
<path d="M58.9844 85.5625L60.9297 83.5234L58.1406 83.0078L58.7734 81.0625L61.3281 82.2812L60.9531 79.4687H63.0156L62.6406 82.2812L65.1953 81.0625L65.8281 83.0078L63.0391 83.5234L64.9844 85.5625L63.3203 86.7812L61.9844 84.3203L60.6484 86.7812L58.9844 85.5625Z" fill="white"/>
</svg>
