<svg width="17" height="16" viewBox="0 0 17 16" fill="none" xmlns="http://www.w3.org/2000/svg">
<path d="M10 3.5V3C10 1.89543 9.10457 1 8 1H3C1.89543 1 1 1.89543 1 3V13C1 14.1046 1.89543 15 3 15H8C9.10457 15 10 14.1046 10 13V12.5" stroke="#86969E" stroke-width="2" stroke-linecap="round" stroke-linejoin="round"/>
<rect x="5" y="7" width="10" height="2" rx="1" fill="#86969E"/>
<path fill-rule="evenodd" clip-rule="evenodd" d="M13.2426 5.17157C12.8521 4.78105 12.219 4.78105 11.8284 5.17157C11.4379 5.5621 11.4379 6.19526 11.8284 6.58579L13.2426 8L11.8284 9.41421C11.4379 9.80474 11.4379 10.4379 11.8284 10.8284C12.219 11.219 12.8521 11.219 13.2426 10.8284L15.364 8.70711C15.7545 8.31658 15.7545 7.68342 15.364 7.29289L13.2426 5.17157Z" fill="#86969E"/>
</svg>
