<svg width="269" height="30" viewBox="0 0 269 30" fill="none" xmlns="http://www.w3.org/2000/svg">
<path d="M45.7615 6.44266H39.2148V1.87109H57.9194V6.44266H51.3728V27.1596H45.7615V6.44266Z" fill="#333333"/>
<path d="M71.7134 1.8687C73.4282 1.79695 75.135 2.14011 76.6888 2.86902C77.9403 3.47694 78.9941 4.42663 79.7283 5.60822C80.4362 6.83767 80.7921 8.23812 80.757 9.65626V11.2829C80.8005 12.7593 80.3927 14.2138 79.588 15.4525C78.8217 16.5996 77.7357 17.4967 76.4643 18.0328L81.1405 27.1479H75.1737L71.2832 19.0144H68.1314V27.1479H62.5762V1.8687H71.7134ZM68.1314 6.1972V14.8074H71.545C72.5239 14.8525 73.4823 14.5175 74.2198 13.8726C74.5591 13.5436 74.8233 13.1452 74.9944 12.7047C75.1655 12.2643 75.2394 11.792 75.2111 11.3203V9.62821C75.2405 9.15922 75.167 8.68948 74.9957 8.25185C74.8245 7.81423 74.5597 7.4193 74.2198 7.09468C73.4798 6.45394 72.5232 6.11957 71.545 6.1598L68.1314 6.1972Z" fill="#333333"/>
<path d="M100.922 27.1596L99.5187 21.756H91.7283L90.3254 27.1596H84.3867L91.6534 1.87109H99.6122L106.86 27.2064L100.922 27.1596ZM92.6635 17.3901H98.6022L95.6188 6.05001L92.6635 17.3901Z" fill="#333333"/>
<path d="M111.461 1.87171H120.523C121.833 1.85876 123.136 2.05119 124.386 2.44198C125.506 2.7895 126.548 3.35152 127.453 4.09672C128.311 4.81518 128.992 5.72017 129.445 6.74243C129.921 7.82629 130.16 8.99919 130.147 10.1828V19.0548C130.225 20.2046 130.029 21.3566 129.575 22.4161C129.122 23.4756 128.423 24.4126 127.538 25.1502C125.502 26.6152 123.028 27.3408 120.523 27.207H111.461V1.87171ZM124.554 11.1364C124.666 9.82179 124.272 8.51405 123.451 7.48099C123.05 7.0598 122.564 6.72922 122.026 6.51151C121.487 6.29381 120.908 6.19403 120.327 6.2189H117.072V22.785H120.327C121.457 22.8456 122.57 22.4859 123.451 21.7753C123.819 21.4099 124.108 20.9719 124.298 20.489C124.488 20.0062 124.575 19.4891 124.554 18.9707V11.1364Z" fill="#333333"/>
<path d="M141.594 27.1596H135.982V1.87109H141.594V27.1596Z" fill="#333333"/>
<path d="M148.262 1.87109H163.889V6.5455H153.836V12.2576H163.515V16.6516H153.836V22.4385H164.282V27.1129H148.262V1.87109Z" fill="#333333"/>
<path d="M172.709 1.87109H188.337V6.44266H178.283V12.1548H187.982V16.6983H178.283V27.1596H172.672L172.709 1.87109Z" fill="#43D14F"/>
<path d="M199.147 22.4385H208.658V27.2064H193.592V1.87109H199.147V22.4385Z" fill="#43D14F"/>
<path d="M212.652 9.98408C212.584 8.79855 212.789 7.61329 213.251 6.51935C213.713 5.42541 214.42 4.4519 215.317 3.67363C217.39 2.2257 219.858 1.44922 222.387 1.44922C224.917 1.44922 227.385 2.2257 229.458 3.67363C230.355 4.4519 231.062 5.42541 231.524 6.51935C231.986 7.61329 232.191 8.79855 232.123 9.98408V19.0057C232.194 20.1907 231.992 21.3761 231.531 22.4704C231.07 23.5646 230.364 24.5383 229.467 25.3161C227.391 26.7644 224.92 27.5409 222.387 27.5409C219.855 27.5409 217.384 26.7644 215.308 25.3161C214.412 24.5369 213.707 23.563 213.247 22.4691C212.786 21.3752 212.583 20.1904 212.652 19.0057V9.98408ZM218.263 19.1366C218.235 19.6767 218.316 20.217 218.503 20.7248C218.689 21.2325 218.977 21.6972 219.348 22.0908C219.757 22.4672 220.238 22.7573 220.762 22.9436C221.286 23.13 221.842 23.2088 222.397 23.1752C222.955 23.2081 223.513 23.1291 224.04 22.9428C224.567 22.7566 225.051 22.4669 225.464 22.0908C225.839 21.6989 226.129 21.2347 226.317 20.7267C226.505 20.2187 226.587 19.6775 226.559 19.1366V9.85319C226.588 9.3121 226.507 8.77066 226.318 8.26246C226.13 7.75427 225.84 7.29017 225.464 6.89897C225.049 6.52628 224.565 6.2394 224.038 6.05488C223.512 5.87036 222.954 5.79184 222.397 5.82386C221.843 5.7907 221.287 5.86874 220.764 6.05338C220.24 6.23802 219.759 6.52552 219.348 6.89897C218.976 7.29221 218.689 7.75687 218.502 8.26471C218.316 8.77255 218.234 9.31298 218.263 9.85319V19.1366Z" fill="#43D14F"/>
<path d="M269.001 1.87109L263.343 27.2064H256.123L252.672 10.9301L249.249 27.2064H242.02L236.408 1.87109H242.319L246.247 21.5036L250.035 2.26374H255.319L259.162 21.5036L263.034 1.87109H269.001Z" fill="#43D14F"/>
<path d="M10.0537 10.0874L0.87912 19.2398C0.807176 19.3122 0.71534 19.3615 0.615291 19.3815C0.515242 19.4015 0.4115 19.3913 0.317257 19.3522C0.223015 19.3131 0.14253 19.2469 0.0860372 19.162C0.029545 19.077 -0.000402193 18.9772 4.07952e-06 18.8752V0.514188C4.07952e-06 0.377818 0.0541971 0.247033 0.150661 0.150605C0.247126 0.0541769 0.377959 4.078e-06 0.51438 4.078e-06H18.8542C18.9563 -0.000402043 19.0561 0.0295339 19.1411 0.0860052C19.226 0.142476 19.2923 0.222931 19.3314 0.317139C19.3705 0.411346 19.3807 0.51505 19.3607 0.615062C19.3406 0.715074 19.2913 0.806875 19.219 0.878792L10.0537 10.0874Z" fill="#43D14F"/>
<path d="M11.4189 18.4165L20.3316 27.2418C20.4682 27.3842 20.5609 27.5628 20.5987 27.7564C20.6366 27.95 20.6179 28.1504 20.545 28.3337C20.472 28.517 20.3479 28.6754 20.1873 28.7901C20.0268 28.9049 19.8366 28.971 19.6395 28.9807H1.16877C1.06674 28.9811 0.96689 28.9511 0.881924 28.8947C0.796959 28.8382 0.730714 28.7577 0.691613 28.6635C0.652512 28.5693 0.642323 28.4656 0.66234 28.3656C0.682358 28.2656 0.731678 28.1738 0.804029 28.1019L10.6988 18.4165C10.7949 18.3223 10.9242 18.2695 11.0588 18.2695C11.1935 18.2695 11.3227 18.3223 11.4189 18.4165Z" fill="#43D14F"/>
<path d="M16.386 13.0868L24.401 4.35505C24.4492 4.30111 24.5083 4.25795 24.5744 4.22841C24.6404 4.19887 24.712 4.18359 24.7844 4.18359C24.8568 4.18359 24.9284 4.19887 24.9944 4.22841C25.0605 4.25795 25.1196 4.30111 25.1678 4.35505C26.234 5.60779 29.1706 9.34731 29.1706 14.1059C29.1485 17.3394 28.0309 20.4701 26.0002 22.9872C25.9519 23.0412 25.8929 23.0843 25.8268 23.1139C25.7607 23.1434 25.6891 23.1587 25.6168 23.1587C25.5444 23.1587 25.4728 23.1434 25.4067 23.1139C25.3407 23.0843 25.2816 23.0412 25.2333 22.9872L16.386 13.7319C16.3107 13.6413 16.2695 13.5272 16.2695 13.4094C16.2695 13.2916 16.3107 13.1775 16.386 13.0868Z" fill="#43D14F"/>
</svg>
