<svg width="28" height="28" viewBox="0 0 28 28" fill="none" xmlns="http://www.w3.org/2000/svg">
<path d="M26.3807 15.4612L27.2862 17.9126L24.7105 17.4711L26.3807 15.4612Z" fill="#031F88" stroke="#031F88"/>
<path d="M26.1426 17.3135C25.5016 19.6935 24.1736 21.8319 22.3246 23.4617C20.4755 25.0914 18.1873 26.1403 15.7456 26.4774" stroke="#031F88" stroke-width="2" stroke-linecap="round"/>
<path d="M15.4397 1.64052L17.8911 0.734945L17.4497 3.3107L15.4397 1.64052Z" fill="#031F88" stroke="#031F88"/>
<path d="M17.2924 1.87843C19.6724 2.51943 21.8108 3.84738 23.4406 5.69645C25.0704 7.54552 26.1193 9.83375 26.4564 12.2754" stroke="#031F88" stroke-width="2" stroke-linecap="round"/>
<path d="M1.61932 12.5251L0.713751 10.0737L3.28951 10.5152L1.61932 12.5251Z" fill="#031F88" stroke="#031F88"/>
<path d="M1.8574 10.6729C2.4984 8.29286 3.82635 6.15446 5.67542 4.52468C7.52449 2.8949 9.81272 1.84598 12.2544 1.50891" stroke="#031F88" stroke-width="2" stroke-linecap="round"/>
<path opacity="0.8" d="M14.4161 8.9869C14.4793 8.77629 14.7866 8.80705 14.8068 9.026L15.0459 11.6174C15.0702 11.8809 15.2956 12.0798 15.5601 12.0712L19.7626 11.9343L16.214 14.34C16.0247 14.4683 15.9466 14.7087 16.0243 14.9237L17.4812 18.9558L14.1603 16.3737C13.952 16.2117 13.6537 16.2395 13.4789 16.4372L11.8618 18.2655C11.7175 18.4286 11.4534 18.2763 11.5223 18.0697L12.6894 14.5684C12.703 14.5275 12.689 14.4826 12.6545 14.4568L11.1922 13.36C11.0384 13.2447 11.12 13 11.3122 13H13.1378C13.1819 13 13.2209 12.971 13.2336 12.9287L14.4161 8.9869Z" fill="#3962FA" fill-opacity="0.4"/>
<path d="M8.01097 13.2752L8.01097 13.2752L10.4158 14.9055L9.4285 17.6379C9.01978 18.7691 10.3442 19.7313 11.2937 18.993L13.5873 17.2097L15.8809 18.993C16.8304 19.7313 18.1548 18.7691 17.7461 17.6379L16.7588 14.9055L19.1636 13.2752C20.1592 12.6003 19.6533 11.0434 18.4512 11.0826L15.5474 11.1772L14.74 8.38626L13.7794 8.66414L14.74 8.38625C14.4058 7.23087 12.7688 7.23087 12.4346 8.38626L11.6272 11.1772L8.7234 11.0826C7.52128 11.0434 7.01542 12.6003 8.01097 13.2752Z" stroke="#031F88" stroke-width="2" stroke-linejoin="round"/>
<path d="M12.5028 26.3595L10.0514 27.2651L10.4929 24.6893L12.5028 26.3595Z" fill="#031F88" stroke="#031F88"/>
<path d="M10.6501 26.1216C8.27013 25.4806 6.13172 24.1526 4.50194 22.3036C2.87216 20.4545 1.82324 18.1663 1.48618 15.7246" stroke="#031F88" stroke-width="2" stroke-linecap="round"/>
</svg>
