<svg width="28" height="28" viewBox="0 0 28 28" fill="none" xmlns="http://www.w3.org/2000/svg">
<rect x="20.7175" y="1.62583" width="8" height="26" rx="3" transform="rotate(45 20.7175 1.62583)" stroke="#031F88" stroke-width="2"/>
<rect x="2.33275" y="7.28223" width="8" height="26" rx="3" transform="rotate(-45 2.33275 7.28223)" stroke="#031F88" stroke-width="2"/>
<path fill-rule="evenodd" clip-rule="evenodd" d="M22.1317 4.45396C21.3507 3.67291 20.0844 3.67291 19.3033 4.45396L14.3536 9.4037L9.40381 4.45396C8.62277 3.67291 7.35644 3.67291 6.57539 4.45396L5.16117 5.86817C4.38012 6.64922 4.38012 7.91555 5.16117 8.6966L10.1109 13.6463L5.16117 18.5961C4.38013 19.3771 4.38012 20.6435 5.16117 21.4245L6.57539 22.8387C7.35644 23.6198 8.62276 23.6198 9.40381 22.8387L14.3536 17.889L19.3033 22.8387C20.0844 23.6198 21.3507 23.6198 22.1317 22.8387L23.546 21.4245C24.327 20.6435 24.327 19.3771 23.546 18.5961L18.5962 13.6463L23.5459 8.6966C24.327 7.91555 24.327 6.64922 23.5459 5.86817L22.1317 4.45396Z" fill="#D7E0FE"/>
<path fill-rule="evenodd" clip-rule="evenodd" d="M22.8388 5.16099C22.0577 4.37994 20.7914 4.37994 20.0103 5.16099L15.0606 10.1107L8.69662 3.74677L6.5753 5.86809C5.79425 6.64914 5.79425 7.91547 6.5753 8.69652L11.525 13.6463L4.45397 20.7173L6.57529 22.8387C7.35634 23.6197 8.62267 23.6197 9.40372 22.8387L15.0606 17.1818L20.0103 22.1315C20.7914 22.9126 22.0577 22.9126 22.8388 22.1315L24.9601 20.0102L18.5961 13.6463L23.5459 8.69652C24.3269 7.91547 24.3269 6.64914 23.5459 5.86809L22.8388 5.16099Z" fill="#3962FA" fill-opacity="0.4"/>
<path d="M12.9393 6.57512L10.1109 3.74669C8.93935 2.57512 7.03985 2.57512 5.86828 3.74669L4.45407 5.16091C3.2825 6.33248 3.2825 8.23197 4.45407 9.40355L7.2825 12.232" stroke="#031F88" stroke-width="2"/>
<path d="M15.7678 20.7174L18.5962 23.5458C19.7678 24.7174 21.6673 24.7174 22.8388 23.5458L24.2531 22.1316C25.4246 20.96 25.4246 19.0605 24.2531 17.8889L21.4246 15.0605" stroke="#031F88" stroke-width="2"/>
<path d="M7.28249 15.0604L4.45406 17.8888C3.28249 19.0604 3.28249 20.9599 4.45406 22.1315L5.86827 23.5457C7.03985 24.7172 8.93934 24.7172 10.1109 23.5457L12.9393 20.7172" stroke="#031F88" stroke-width="2"/>
</svg>
