<svg width="26" height="26" viewBox="0 0 26 26" fill="none" xmlns="http://www.w3.org/2000/svg">
<path d="M22.3575 17.4C22.3029 17.3567 18.3342 14.496 17.2449 14.7013C16.7249 14.7933 16.4275 15.148 15.8309 15.858C15.7349 15.9727 15.5042 16.2473 15.3249 16.4427C14.9478 16.3197 14.58 16.17 14.2242 15.9947C12.3879 15.1007 10.9042 13.617 10.0102 11.7807C9.83477 11.4249 9.68505 11.0571 9.56219 10.68C9.75819 10.5 10.0329 10.2693 10.1502 10.1707C10.8569 9.57733 11.2122 9.28 11.3042 8.75867C11.4929 7.67867 9.53081 6.036 9.50081 6C9.37111 5.81471 9.19739 5.11184 9.00081 5C8.80423 4.88816 9.2264 4.51682 9.00085 4.5C7.84219 4.5 5.00091 8 5.00091 8.5C5.00091 9 4.50084 10.5 9.00089 16C15.3249 22.1859 17.9588 22 18.0008 22C18.7242 22 23.0009 19.692 23.0009 18.5333C22.9842 18.3086 22.9179 18.0903 22.8066 17.8943C22.6954 17.6983 22.542 17.5295 22.3575 17.4Z" fill="#3962FA" fill-opacity="0.8"/>
<path d="M22.0461 17.7918L22.0575 17.8009L22.0694 17.8092C22.1932 17.8962 22.2962 18.0096 22.3709 18.1412C22.441 18.2645 22.4845 18.4011 22.4989 18.542C22.4971 18.5527 22.4926 18.5733 22.4811 18.6052C22.4629 18.6559 22.4318 18.722 22.3835 18.8039C22.2863 18.9688 22.1375 19.1672 21.9418 19.391C21.5516 19.8374 21.0139 20.341 20.4437 20.8175C19.8747 21.2929 19.2864 21.7303 18.8017 22.046C18.5586 22.2044 18.3494 22.3269 18.1866 22.4078C18.105 22.4484 18.0427 22.4747 17.9987 22.4898C17.9848 22.4946 17.9748 22.4976 17.9683 22.4993C17.6637 22.4865 13.674 22.2355 8.67889 17.3271C3.76515 12.3272 3.51351 8.3369 3.50069 8.03177C3.50244 8.02529 3.50539 8.01533 3.51015 8.0015C3.52531 7.95753 3.55158 7.89522 3.59213 7.81365C3.67306 7.65086 3.79559 7.4417 3.95395 7.19857C4.26965 6.71386 4.70711 6.12561 5.18253 5.55658C5.65904 4.98627 6.16264 4.44853 6.60904 4.05823C6.83285 3.86255 7.03126 3.7137 7.19609 3.61648C7.27798 3.56818 7.34411 3.53709 7.39479 3.51886C7.42668 3.50739 7.44725 3.5029 7.45793 3.50113C7.59952 3.51566 7.73664 3.55951 7.86054 3.62999C7.99271 3.70519 8.10651 3.80882 8.19372 3.9334L8.20577 3.95062L8.21922 3.96676C8.21824 3.96558 8.22488 3.97497 8.23832 3.99399C8.35527 4.15948 8.9877 5.05439 9.60854 6.07164C9.95185 6.63417 10.2809 7.21688 10.5109 7.71794C10.6261 7.96891 10.7111 8.18796 10.7616 8.36651C10.8157 8.55789 10.8147 8.6503 10.8108 8.67263L11.3033 8.75866L10.8109 8.67178C10.7571 8.97697 10.5821 9.15445 9.82782 9.78774L9.82753 9.78799L9.81871 9.79541C9.6985 9.89648 9.4237 10.1275 9.22313 10.3117L8.98634 10.5292L9.08593 10.8349C9.21605 11.2343 9.37459 11.6239 9.56034 12.0007C10.5032 13.9366 12.0674 15.5009 14.0034 16.4437C14.3802 16.6293 14.7697 16.7878 15.169 16.918L15.4748 17.0178L15.6923 16.7808C15.8805 16.5759 16.1181 16.2927 16.2132 16.1792C16.8497 15.4218 17.0271 15.2475 17.3311 15.1937L17.3311 15.1937L17.3366 15.1927C17.3593 15.1884 17.4512 15.1862 17.6414 15.2386C17.8191 15.2876 18.0372 15.3711 18.2872 15.4852C18.7865 15.7129 19.3666 16.0406 19.9273 16.3839C20.4855 16.7256 21.0135 17.0759 21.4059 17.344C21.7636 17.5884 21.9954 17.7554 22.0387 17.7866C22.0439 17.7903 22.0464 17.7921 22.0461 17.7918Z" stroke="#031F88"/>
</svg>
