<svg width="26" height="26" viewBox="0 0 26 26" fill="none" xmlns="http://www.w3.org/2000/svg">
<circle cx="13" cy="13" r="13" fill="#FC2133"/>
<path fill-rule="evenodd" clip-rule="evenodd" d="M9.28534 9.23358C8.88871 9.6302 8.88656 10.2754 9.28053 10.6747L11.7012 13.1279L9.23835 15.5581C8.83909 15.952 8.83695 16.5929 9.23358 16.9896C9.6302 17.3862 10.2754 17.3883 10.6747 16.9944L13.1279 14.5737L15.558 17.0365C15.952 17.4357 16.5929 17.4379 16.9895 17.0412C17.3861 16.6446 17.3883 15.9994 16.9943 15.6001L14.5737 13.147L17.0365 10.7169C17.4357 10.323 17.4379 9.68205 17.0412 9.28542C16.6446 8.88879 15.9994 8.88664 15.6001 9.28061L13.147 11.7012L10.7168 9.23835C10.3229 8.83909 9.68197 8.83695 9.28534 9.23358Z" fill="white"/>
</svg>
