<svg width="14" height="14" viewBox="0 0 14 14" fill="none" xmlns="http://www.w3.org/2000/svg">
<path fill-rule="evenodd" clip-rule="evenodd" d="M0.72061 0.493505C0.330086 0.884029 0.327965 1.5193 0.715875 1.91242L5.58549 6.84746L0.440144 11.9246C0.0470223 12.3125 0.0449165 12.9436 0.435441 13.3341C0.825965 13.7246 1.46124 13.7267 1.85436 13.3388L6.99021 8.27105L12.1517 13.5019C12.5396 13.895 13.1707 13.8971 13.5612 13.5066C13.9517 13.1161 13.9538 12.4808 13.5659 12.0877L8.41379 6.86634L13.4438 1.90298C13.837 1.51507 13.8391 0.884029 13.4485 0.493505C13.058 0.10298 12.4227 0.10086 12.0296 0.48877L7.00908 5.44275L2.13009 0.498208C1.74218 0.105086 1.11113 0.102981 0.72061 0.493505Z" fill="black"/>
</svg>
