<svg width="52" height="52" viewBox="0 0 52 52" fill="none" xmlns="http://www.w3.org/2000/svg">
<path d="M42.25 52H9.75C4.36475 52 0 47.6352 0 42.25V9.75C0 4.36475 4.36475 0 9.75 0H42.25C47.6352 0 52 4.36475 52 9.75V42.25C52 47.6352 47.6352 52 42.25 52Z" fill="#3962FA" fill-opacity="0.2"/>
<path d="M24.3125 45C28.7088 45 30.6485 41.7127 30.8562 38.9368C30.8768 38.6614 30.6511 38.4375 30.375 38.4375H18.25C17.9739 38.4375 17.7482 38.6614 17.7688 38.9368C17.9765 41.7127 19.9162 45 24.3125 45Z" fill="#3962FA" fill-opacity="0.6"/>
<path d="M25 14C21.5 14 17.5 16 17.5 20.5V25C17.5 27.9929 16.8679 29.6762 15.5 31.5C14 33.5 13 33.7257 13 34.5C13 35.5 14.0406 36 15.5 36L36.9785 37.2222C38.4378 37.2222 39.625 36.0351 39.625 34.5754C39.625 33.8012 39.2877 33.0676 38.6995 32.5656C36.3992 30.6208 35.088 27.7956 35.088 24.8027V20.5863C32 14.5 28 14 25 14Z" fill="#3962FA" fill-opacity="0.6"/>
<path d="M29.7879 39.4375C29.611 40.4655 29.1621 41.5133 28.4144 42.3374C27.5479 43.2925 26.2351 44 24.3125 44C22.3899 44 21.0771 43.2925 20.2106 42.3374C19.4629 41.5133 19.014 40.4655 18.8371 39.4375H29.7879Z" stroke="#031F88" stroke-width="2"/>
<path d="M14.537 20.5863C14.537 15.3237 19.0042 11 24.3125 11C29.6208 11 34.088 15.3237 34.088 20.5863V24.8027C34.088 28.0902 35.5289 31.1936 38.0521 33.3277C38.4158 33.639 38.625 34.0935 38.625 34.5754C38.625 35.4829 37.8855 36.2222 36.9785 36.2222H11.6465C10.7395 36.2222 10 35.4829 10 34.5754C10 34.0934 10.2094 33.6387 10.5732 33.3274C13.0962 31.1933 14.537 28.0901 14.537 24.8027V20.5863Z" stroke="#031F88" stroke-width="2"/>
<circle cx="36" cy="14" r="7" fill="#D7E0FE" stroke="#031F88" stroke-width="2"/>
<path d="M43 16C43 19.3137 39.8137 21.5 36.5 21.5C33.1863 21.5 31 19.3137 31 16C31 12.6863 33.6863 10 37 10C40.3137 10 43 12.6863 43 16Z" fill="#3962FA" fill-opacity="0.6"/>
<circle cx="36" cy="14" r="7" stroke="#031F88" stroke-width="2"/>
</svg>
