<svg width="18" height="22" viewBox="0 0 18 22" fill="none" xmlns="http://www.w3.org/2000/svg">
<path fill-rule="evenodd" clip-rule="evenodd" d="M2.875 6.99995C2.875 3.62241 5.62257 0.875 8.99995 0.875V16.625H1.7812C0.936852 16.625 0.25 15.9381 0.25 15.0936C0.25 14.6457 0.445145 14.2213 0.785446 13.9308C2.11637 12.8056 2.875 11.171 2.875 9.43941V6.99995ZM9.29875 21.125C11.2318 21.125 12.7988 19.7819 12.7988 18.125H5.79883C5.79883 19.7819 7.36574 21.125 9.29875 21.125ZM9.00005 0.875C12.3774 0.875 15.125 3.62241 15.125 6.99995V9.43941C15.125 11.171 15.8836 12.8056 17.2146 13.9308C17.5549 14.2213 17.75 14.6457 17.75 15.0936C17.75 15.9381 17.0631 16.625 16.2188 16.625H9.00005V0.875Z" fill="#3962FA"/>
</svg>
