<svg width="80" height="80" viewBox="0 0 80 80" fill="none" xmlns="http://www.w3.org/2000/svg">
<path d="M78.2507 32.3886L78.2507 32.3841C78.2449 30.7864 77.8252 29.2176 77.0325 27.8304C76.2399 26.4433 75.1013 25.2852 73.7279 24.4691L73.7021 24.4538L73.6757 24.4397L65.6219 20.162C65.0313 19.8396 64.3669 19.6766 63.6941 19.6891C63.0181 19.7017 62.3572 19.8911 61.7771 20.2384C61.197 20.5857 60.7179 21.0788 60.3875 21.6686C60.0582 22.2565 59.888 22.92 59.8936 23.5937V38.0647L44.7745 46.2195L44.7724 46.2206L40.0009 48.7826L35.2293 46.2206L35.2272 46.2195L20.1081 38.0647V23.5937C20.1137 22.92 19.9435 22.2565 19.6143 21.6686L18.5237 22.2795L19.6142 21.6686C19.2838 21.0788 18.8047 20.5857 18.2246 20.2384C17.6445 19.8911 16.9836 19.7017 16.3076 19.6891C15.6349 19.6766 14.9706 19.8396 14.3801 20.1618L6.16798 24.5187L6.12953 24.5391L6.09258 24.5622C4.76361 25.3906 3.66761 26.5439 2.90798 27.9134C2.14847 29.2827 1.75028 30.8228 1.75098 32.3886C1.75098 32.3888 1.75098 32.3889 1.75098 32.3891C1.75098 32.3891 1.75098 32.3892 1.75098 32.3893L1.75097 69.0714L1.75098 69.075C1.75808 71.5062 2.727 73.8357 4.44609 75.5548C6.16518 77.2739 8.49472 78.2428 10.9259 78.2499H10.9295L69.0722 78.2499L69.0758 78.2499C71.507 78.2428 73.8365 77.2739 75.5556 75.5548C77.2747 73.8357 78.2436 71.5062 78.2507 69.075V69.0714L78.2507 32.3886Z" fill="#3962FA" stroke="#031F88" stroke-width="2.5"/>
<path d="M77.0007 32.3886V36.3001L41.243 55.54C40.8621 55.7482 40.4349 55.8573 40.0009 55.8573C39.5668 55.8573 39.1396 55.7482 38.7587 55.54L3.00098 36.3001V32.3886C3.00028 31.035 3.34447 29.7035 4.00108 28.5197C4.65769 27.336 5.60507 26.339 6.75382 25.623L14.9731 21.2623C15.3744 21.0419 15.8265 20.9304 16.2843 20.9389C16.7421 20.9475 17.1897 21.0757 17.5826 21.3109C17.9755 21.5461 18.2999 21.88 18.5237 22.2795C18.7474 22.679 18.8627 23.1301 18.8581 23.588V38.8108L40.0009 50.2014L61.1436 38.8108V23.588C61.139 23.1301 61.2543 22.679 61.478 22.2795C61.7018 21.88 62.0262 21.5461 62.4191 21.3109C62.812 21.0757 63.2596 20.9475 63.7174 20.9389C64.1752 20.9304 64.6273 21.0419 65.0286 21.2623L73.0893 25.5437C74.2771 26.2495 75.2617 27.251 75.9472 28.4506C76.6327 29.6502 76.9957 31.007 77.0007 32.3886Z" fill="#1F48DF"/>
<path d="M77.0007 67.6976V69.0719C76.9946 71.1728 76.1573 73.1859 74.6717 74.6714C73.1862 76.157 71.1731 76.9943 69.0722 77.0004H10.9295C8.82863 76.9943 6.81553 76.157 5.32997 74.6714C3.84441 73.1859 3.00711 71.1728 3.00098 69.0719V67.6976L31.8609 47.4798C32.2651 47.2031 32.7372 47.0421 33.2263 47.0141C33.7153 46.9862 34.2028 47.0924 34.6359 47.3212L40.0008 50.2019L45.3658 47.3212C45.7989 47.0924 46.2863 46.9862 46.7754 47.0141C47.2645 47.0421 47.7366 47.2031 48.1408 47.4798L77.0007 67.6976Z" fill="#1F48DF"/>
<path d="M12.3359 41V4.71243C12.3359 3.99305 12.6309 3.30313 13.156 2.79445C13.6811 2.28577 14.3933 2 15.1359 2H64.7005C65.4431 2 66.1553 2.28577 66.6804 2.79445C67.2055 3.30313 67.5005 3.99305 67.5005 4.71243V42" stroke="#031F88" stroke-width="2.5"/>
<path d="M63.7864 3H16.2151C15.5142 3 14.842 3.27844 14.3463 3.77407C13.8507 4.2697 13.5723 4.94192 13.5723 5.64285V41.9738L38.7478 55.5396C39.1326 55.7479 39.5632 55.857 40.0007 55.857C40.4383 55.857 40.8689 55.7479 41.2537 55.5396L66.4292 41.9738V5.64285C66.4292 4.94192 66.1508 4.2697 65.6552 3.77407C65.1595 3.27844 64.4873 3 63.7864 3Z" fill="white"/>
<path d="M23.8047 36.2344C22.4297 36.2344 21.2422 35.875 20.2422 35.1562C19.2422 34.4219 18.4766 33.4141 17.9453 32.1328C17.4297 30.8516 17.1719 29.4062 17.1719 27.7969C17.1719 26.1875 17.4297 24.7422 17.9453 23.4609C18.4766 22.1797 19.2422 21.1797 20.2422 20.4609C21.2422 19.7266 22.4297 19.3594 23.8047 19.3594C25.1797 19.3594 26.3672 19.7266 27.3672 20.4609C28.3672 21.1797 29.125 22.1797 29.6406 23.4609C30.1719 24.7422 30.4375 26.1875 30.4375 27.7969C30.4375 29.4062 30.1719 30.8516 29.6406 32.1328C29.125 33.4141 28.3672 34.4219 27.3672 35.1562C26.3672 35.875 25.1797 36.2344 23.8047 36.2344ZM23.8047 34.1719C25.2422 34.1719 26.3203 33.6016 27.0391 32.4609C27.7734 31.3047 28.1406 29.75 28.1406 27.7969C28.1406 25.8437 27.7734 24.2969 27.0391 23.1562C26.3203 22 25.2422 21.4219 23.8047 21.4219C22.3672 21.4219 21.2813 22 20.5469 23.1562C19.8281 24.2969 19.4688 25.8437 19.4688 27.7969C19.4688 29.75 19.8281 31.3047 20.5469 32.4609C21.2813 33.6016 22.3672 34.1719 23.8047 34.1719ZM34.902 22.7344C34.527 23.0625 34.1051 23.2891 33.6364 23.4141C33.1832 23.5234 32.5582 23.5781 31.7614 23.5781V21.7031H32.1364C32.9801 21.7031 33.6285 21.5391 34.0817 21.2109C34.5348 20.8672 34.8082 20.3281 34.902 19.5937H37.152V36H34.902V22.7344ZM46.6013 36.2344C45.2263 36.2344 44.0388 35.875 43.0388 35.1562C42.0388 34.4219 41.2732 33.4141 40.7419 32.1328C40.2263 30.8516 39.9685 29.4062 39.9685 27.7969C39.9685 26.1875 40.2263 24.7422 40.7419 23.4609C41.2732 22.1797 42.0388 21.1797 43.0388 20.4609C44.0388 19.7266 45.2263 19.3594 46.6013 19.3594C47.9763 19.3594 49.1638 19.7266 50.1638 20.4609C51.1638 21.1797 51.9216 22.1797 52.4373 23.4609C52.9685 24.7422 53.2341 26.1875 53.2341 27.7969C53.2341 29.4062 52.9685 30.8516 52.4373 32.1328C51.9216 33.4141 51.1638 34.4219 50.1638 35.1562C49.1638 35.875 47.9763 36.2344 46.6013 36.2344ZM46.6013 34.1719C48.0388 34.1719 49.1169 33.6016 49.8357 32.4609C50.5701 31.3047 50.9373 29.75 50.9373 27.7969C50.9373 25.8437 50.5701 24.2969 49.8357 23.1562C49.1169 22 48.0388 21.4219 46.6013 21.4219C45.1638 21.4219 44.0779 22 43.3435 23.1562C42.6248 24.2969 42.2654 25.8437 42.2654 27.7969C42.2654 29.75 42.6248 31.3047 43.3435 32.4609C44.0779 33.6016 45.1638 34.1719 46.6013 34.1719ZM57.6986 22.7344C57.3236 23.0625 56.9017 23.2891 56.433 23.4141C55.9799 23.5234 55.3549 23.5781 54.558 23.5781V21.7031H54.933C55.7767 21.7031 56.4252 21.5391 56.8783 21.2109C57.3314 20.8672 57.6049 20.3281 57.6986 19.5937H59.9486V36H57.6986V22.7344Z" fill="#031F88"/>
<path d="M2.24223 35.5626L39.0756 55.0117C39.655 55.3176 40.3474 55.3203 40.9292 55.0191L78.5004 35.5626" stroke="#031F88" stroke-width="2.5"/>
</svg>
