<svg width="17" height="17" viewBox="0 0 17 17" fill="none" xmlns="http://www.w3.org/2000/svg">
<path fill-rule="evenodd" clip-rule="evenodd" d="M11.4032 2.70188C11.1508 2.70188 10.9463 2.49731 10.9463 2.24496C10.9463 1.9926 11.1508 1.78803 11.4032 1.78803L14.6016 1.78803C14.854 1.78803 15.0586 1.9926 15.0586 2.24495L15.0585 2.253L15.0604 5.44572C15.0606 5.69808 14.8561 5.90252 14.6038 5.90237C14.3514 5.90222 14.1467 5.69753 14.1466 5.44518L14.1453 3.34484L10.5647 6.92546C10.3876 7.10252 10.1006 7.10252 9.92351 6.92547C9.74646 6.74841 9.74646 6.46136 9.92351 6.2843L13.5059 2.70188L11.4032 2.70188Z" fill="#86969E"/>
<path d="M14.836 11.0365C14.7993 11.0073 12.1312 9.08413 11.3988 9.22217C11.0492 9.28402 10.8493 9.52246 10.4482 9.99979C10.3837 10.0769 10.2286 10.2615 10.108 10.3929C9.85452 10.3102 9.60724 10.2095 9.36805 10.0917C8.13351 9.49065 7.13604 8.49318 6.53502 7.25864C6.41709 7.01949 6.31643 6.7722 6.23384 6.51867C6.3656 6.39766 6.55026 6.24258 6.62914 6.17625C7.10423 5.77736 7.34311 5.57746 7.40496 5.22698C7.5318 4.5009 5.60995 1.81443 5.58978 1.79023C5.50258 1.66566 5.38879 1.56204 5.25663 1.48685C5.12446 1.41166 4.97724 1.36679 4.82561 1.35548C4.04665 1.35548 1.82271 4.2405 1.82271 4.72635C1.82271 4.75458 1.8635 7.62481 5.40288 11.2252C8.99964 14.7605 11.8694 14.8013 11.8977 14.8013C12.3839 14.8013 15.2685 12.5773 15.2685 11.7984C15.2573 11.6473 15.2127 11.5006 15.1379 11.3688C15.0631 11.237 14.96 11.1235 14.836 11.0365Z" fill="#86969E"/>
</svg>
