<svg width="22" height="22" viewBox="0 0 22 22" fill="none" xmlns="http://www.w3.org/2000/svg">
<path d="M21.3125 4.81295H11.6875C11.308 4.81295 11 5.12095 11 5.50045C11 5.87995 11.308 6.18795 11.6875 6.18795H19.3091L15.0851 9.47283L12.056 7.54646L11.319 8.70696L14.7565 10.8932C14.8679 10.9647 14.9971 11.0005 15.125 11.0005C15.2735 11.0005 15.4234 10.9523 15.5471 10.8561L20.625 6.9057V15.813H11.6875C11.308 15.813 11 16.121 11 16.5005C11 16.88 11.308 17.188 11.6875 17.188H21.3125C21.692 17.188 22 16.88 22 16.5005V5.50045C22 5.12095 21.692 4.81295 21.3125 4.81295Z" fill="#1976D2"/>
<path d="M12.1261 0.846088C11.9694 0.715463 11.759 0.659088 11.561 0.700338L0.561 2.76284C0.235125 2.82334 0 3.10659 0 3.43796V18.563C0 18.893 0.235125 19.1776 0.561 19.2381L11.561 21.3006C11.6023 21.3088 11.6449 21.313 11.6875 21.313C11.847 21.313 12.0024 21.258 12.1261 21.1548C12.2843 21.0242 12.375 20.829 12.375 20.6255V1.37546C12.375 1.17059 12.2843 0.976713 12.1261 0.846088Z" fill="#2196F3"/>
<path d="M6.1875 15.813C4.29275 15.813 2.75 13.9622 2.75 11.688C2.75 9.4137 4.29275 7.56295 6.1875 7.56295C8.08225 7.56295 9.625 9.4137 9.625 11.688C9.625 13.9622 8.08225 15.813 6.1875 15.813ZM6.1875 8.93795C5.05037 8.93795 4.125 10.1713 4.125 11.688C4.125 13.2046 5.05037 14.438 6.1875 14.438C7.32463 14.438 8.25 13.2046 8.25 11.688C8.25 10.1713 7.32463 8.93795 6.1875 8.93795Z" fill="#FAFAFA"/>
</svg>
