<svg width="24" height="24" viewBox="0 0 24 24" fill="none" xmlns="http://www.w3.org/2000/svg">
<path fill-rule="evenodd" clip-rule="evenodd" d="M3.58661 4.5L10.4727 10.7601L12 12.1485L13.5273 10.7601L20.4134 4.5H3.58661ZM22.4106 2.85164L22.3273 2.76006L22.2923 2.79186C21.901 2.60476 21.4627 2.5 21 2.5H3C2.53727 2.5 2.09902 2.60476 1.70765 2.79186L1.67267 2.76006L1.58942 2.85164C0.643636 3.35644 0 4.35305 0 5.5V18.5C0 20.1569 1.34315 21.5 3 21.5H21C22.6569 21.5 24 20.1569 24 18.5V5.5C24 4.35305 23.3564 3.35644 22.4106 2.85164ZM22 5.76055L15.6891 11.4978L22 17.2004V5.76055ZM21.4459 19.3953L14.202 12.8496L13.3453 13.6284C12.5825 14.3219 11.4175 14.3219 10.6547 13.6284L9.79797 12.8496L2.55407 19.3953C2.68832 19.4623 2.83976 19.5 3 19.5H21C21.1602 19.5 21.3117 19.4623 21.4459 19.3953ZM2 17.2004L8.31093 11.4978L2 5.76055V17.2004Z" fill="#43D14F"/>
</svg>
