<svg width="16" height="16" viewBox="0 0 16 16" fill="none" xmlns="http://www.w3.org/2000/svg">
<path fill-rule="evenodd" clip-rule="evenodd" d="M5.19426 3.52584C4.202 3.83677 3.19044 3.9736 2.00207 4.00008C2.00814 6.67327 2.33962 8.60257 3.19704 10.1141C4.04633 11.6114 5.48891 12.8298 7.99928 13.909C10.5097 12.8298 11.9522 11.6114 12.8015 10.1141C13.659 8.60257 13.9904 6.67327 13.9965 4.00008C12.8081 3.9736 11.7966 3.83677 10.8043 3.52584C9.86072 3.23016 8.97387 2.78919 7.99929 2.19089C7.02471 2.78919 6.13785 3.23016 5.19426 3.52584ZM7.99929 0L7.46867 0.160156C6.33943 0.893719 5.47178 1.34299 4.59622 1.61735C3.72598 1.89004 2.79267 2.0071 1.51496 2.00494C0.711418 2.00358 0.0144512 2.64265 0.00458976 3.48734C-0.0307982 6.51854 0.281547 9.02794 1.45742 11.1009C2.64974 13.2029 4.64147 14.707 7.63673 15.9251L7.99928 16L8.36185 15.9251C11.3571 14.707 13.3488 13.2029 14.5412 11.1009C15.717 9.02794 16.0294 6.51854 15.994 3.48734C15.9841 2.64265 15.2872 2.00358 14.4836 2.00494C13.2059 2.0071 12.2726 1.89004 11.4024 1.61735C10.5268 1.34299 9.65914 0.893719 8.5299 0.160156L7.99929 0Z" fill="#86969E"/>
</svg>
