<svg width="50" height="50" viewBox="0 0 50 50" fill="none" xmlns="http://www.w3.org/2000/svg">
<rect x="1.4707" y="1.46875" width="47.0588" height="47.0588" rx="1" fill="white"/>
<path d="M6.46245 9.42107C6.60001 8.56906 7.67979 8.27973 8.22493 8.94882L9.23721 10.1913C9.46153 10.4666 9.81503 10.6023 10.166 10.5478L11.7496 10.3018C12.6024 10.1694 13.2112 11.1069 12.7434 11.8321L11.8745 13.1788C11.682 13.4772 11.6622 13.8553 11.8225 14.1722L12.5458 15.6023C12.9353 16.3725 12.2318 17.2412 11.3975 17.0204L9.84823 16.6102C9.50493 16.5193 9.13918 16.6173 8.88732 16.8677L7.7507 17.9975C7.13862 18.6059 6.09499 18.2053 6.04725 17.3436L5.95858 15.7434C5.93894 15.3889 5.73271 15.0713 5.41677 14.9091L3.991 14.1773C3.2232 13.7832 3.28171 12.6668 4.0865 12.3551L5.58095 11.7763C5.91211 11.6481 6.15041 11.3538 6.20701 11.0032L6.46245 9.42107Z" fill="#FCC12E"/>
<path d="M18.5877 8.03272C18.9411 7.24535 20.0589 7.24535 20.4123 8.03272L21.0686 9.49484C21.214 9.81883 21.5203 10.0414 21.8734 10.0796L23.4667 10.2519C24.3248 10.3446 24.6702 11.4078 24.0306 11.9872L22.8428 13.0631C22.5796 13.3015 22.4626 13.6617 22.5354 14.0093L22.8639 15.5779C23.0408 16.4226 22.1364 17.0796 21.3877 16.6504L19.9974 15.8532C19.6893 15.6766 19.3107 15.6766 19.0026 15.8532L17.6123 16.6504C16.8636 17.0796 15.9592 16.4226 16.1361 15.5779L16.4646 14.0093C16.5374 13.6617 16.4204 13.3015 16.1572 13.0631L14.9694 11.9872C14.3298 11.4078 14.6752 10.3446 15.5333 10.2519L17.1266 10.0796C17.4797 10.0414 17.786 9.81883 17.9315 9.49484L18.5877 8.03272Z" fill="#FCC12E"/>
<path d="M29.5877 8.03272C29.9411 7.24535 31.0589 7.24535 31.4123 8.03272L32.0686 9.49484C32.214 9.81883 32.5203 10.0414 32.8734 10.0796L34.4667 10.2519C35.3248 10.3446 35.6702 11.4078 35.0306 11.9872L33.8428 13.0631C33.5796 13.3015 33.4626 13.6617 33.5354 14.0093L33.8639 15.5779C34.0408 16.4226 33.1364 17.0796 32.3877 16.6504L30.9974 15.8532C30.6893 15.6766 30.3107 15.6766 30.0026 15.8532L28.6123 16.6504C27.8636 17.0796 26.9592 16.4226 27.1361 15.5779L27.4646 14.0093C27.5374 13.6617 27.4204 13.3015 27.1572 13.0631L25.9694 11.9872C25.3298 11.4078 25.6752 10.3446 26.5333 10.2519L28.1266 10.0796C28.4797 10.0414 28.786 9.81883 28.9315 9.49484L29.5877 8.03272Z" fill="#FCC12E"/>
<path d="M41.775 8.94872C42.3201 8.27964 43.3999 8.56896 43.5375 9.42097L43.7929 11.0031C43.8495 11.3537 44.0878 11.648 44.419 11.7762L45.9134 12.355C46.7182 12.6667 46.7767 13.7831 46.0089 14.1772L44.5831 14.909C44.2672 15.0712 44.061 15.3888 44.0413 15.7433L43.9527 17.3435C43.9049 18.2052 42.8613 18.6058 42.2492 17.9974L41.1126 16.8676C40.8607 16.6172 40.495 16.5192 40.1517 16.6101L38.6024 17.0203C37.7681 17.2411 37.0646 16.3724 37.4541 15.6022L38.1774 14.1721C38.3377 13.8552 38.3179 13.4771 38.1254 13.1787L37.2565 11.832C36.7887 11.1068 37.3975 10.1693 38.2503 10.3017L39.834 10.5477C40.1849 10.6022 40.5384 10.4665 40.7627 10.1912L41.775 8.94872Z" fill="#FCC12E"/>
<g clip-path="url(#clip0)">
<path d="M47.1602 43.4336L39.4411 43.4336C38.6043 43.4336 37.7798 43.6402 37.0423 44.0358L36.0404 44.5726C35.3029 44.9682 34.4784 45.1748 33.6416 45.1748L25.6045 45.1748L25.6045 30.0435L29.944 30.0435C30.1301 29.4349 30.1097 28.7662 29.8559 28.1482L28.8587 25.7191C28.6165 25.128 28.4917 24.4955 28.4917 23.8566L28.4917 23.4937C28.4917 23 28.6918 22.5531 29.0151 22.2298C29.3383 21.9065 29.7853 21.7064 30.2783 21.7064C30.9319 21.7064 31.5329 22.0629 31.8462 22.6359L32.9012 24.5644C33.1392 25.0003 33.4432 25.3976 33.8009 25.7431L37.1566 28.9762C37.8674 29.6613 38.8161 30.0435 39.8034 30.0435L41.013 30.0435L47.1602 30.0435L47.1602 43.4336Z" fill="#FFCEBF"/>
<path d="M28.4914 43.2837C28.4914 42.2392 27.6447 41.392 26.5997 41.392L24.1105 41.392C23.44 41.392 22.8513 41.7409 22.5152 42.2672C22.3273 42.5607 22.2188 42.9097 22.2188 43.2837C22.2188 44.3281 23.066 45.1748 24.1105 45.1748L26.5997 45.1748C27.1219 45.1748 27.5951 44.963 27.9376 44.6211C28.2796 44.2785 28.4914 43.8059 28.4914 43.2837Z" fill="#FFCEBF"/>
<path d="M29.8237 39.501C29.8237 38.4565 28.977 37.6093 27.9326 37.6093L22.8911 37.6093C22.2207 37.6093 21.6319 37.9582 21.2964 38.4845C21.1085 38.778 21 39.1269 21 39.501C21 40.5454 21.8467 41.3921 22.8911 41.3921L27.9326 41.3921C28.4548 41.3921 28.9274 41.1803 29.27 40.8383C29.6119 40.4958 29.8237 40.0232 29.8237 39.501Z" fill="#FFCEBF"/>
<path d="M29.2087 35.7178C29.2087 34.6733 28.362 33.8261 27.3176 33.8261L22.8911 33.826C22.2207 33.826 21.6319 34.175 21.2964 34.7013C21.1085 34.9948 21 35.3437 21 35.7178C21 36.7622 21.8467 37.6089 22.8911 37.6089L27.3176 37.6089C27.8398 37.6089 28.3124 37.3971 28.6549 37.0551C28.9969 36.7126 29.2087 36.24 29.2087 35.7178Z" fill="#FFCEBF"/>
<path d="M29.2084 31.935C29.2084 31.561 29.0999 31.2121 28.912 30.9186C28.5765 30.3923 27.9878 30.0433 27.3173 30.0433L23.7667 30.0433C23.0758 30.0433 22.4719 30.4133 22.1417 30.9658C21.9724 31.2494 21.875 31.5809 21.875 31.935C21.875 32.9795 22.7217 33.8262 23.7661 33.8262L27.3173 33.8262C27.8395 33.8262 28.3122 33.6144 28.6547 33.2724C28.9966 32.9299 29.2084 32.4573 29.2084 31.935Z" fill="#FFCEBF"/>
<path d="M43.8013 43.4341L47.1599 43.4341L47.1599 30.0439L43.8013 30.0439L43.8013 43.4341Z" fill="#FFB09E"/>
<path d="M29.9441 30.0438L23.7671 30.0438C23.0763 30.0438 22.4724 30.4137 22.1421 30.9663C22.2594 30.9354 22.3819 30.919 22.5085 30.919L28.7488 30.919C29.2918 30.919 29.7814 30.5721 29.9412 30.0532C29.9422 30.05 29.9431 30.047 29.9441 30.0438Z" fill="#FFB09E"/>
<path d="M39.2046 29.9962C38.4379 29.8742 37.7219 29.5212 37.1565 28.9762L33.8008 25.743C33.4431 25.3976 33.1391 25.0002 32.9011 24.5644L31.8461 22.6359C31.6897 22.3494 31.461 22.1172 31.1897 21.9561C30.9183 21.7957 30.605 21.7064 30.2782 21.7064C29.9935 21.7064 29.7245 21.7735 29.4858 21.8919C29.8091 22.0518 30.0828 22.308 30.2619 22.6359L31.3169 24.5644C31.5549 25.0002 31.8584 25.3976 32.2166 25.743L35.5723 28.9762C36.283 29.6613 37.2318 30.0435 38.2185 30.0435L39.2046 29.9962Z" fill="#FFB09E"/>
<path d="M50.0001 44.5499L50.0001 29.4282C50.0001 29.0172 49.667 28.6841 49.256 28.6841L46.1298 28.6841C45.7189 28.6841 45.3857 29.0172 45.3857 29.4282L45.3857 44.5499C45.3857 44.9608 45.7189 45.2939 46.1298 45.2939L49.256 45.2939C49.667 45.2939 50.0001 44.9608 50.0001 44.5499Z" fill="#3962FA"/>
<path d="M49.2557 45.2939L47.6714 45.2939C48.0824 45.2939 48.4155 44.9608 48.4155 44.5499L48.4155 29.4281C48.4155 29.0172 48.0824 28.6841 47.6714 28.6841L49.2557 28.6841C49.6666 28.6841 49.9998 29.0172 49.9998 29.4281L49.9998 44.5499C49.9998 44.9608 49.6666 45.2939 49.2557 45.2939Z" fill="#20AEF7"/>
<path d="M25.1761 38.1943L25.06 38.0782C24.7577 37.7759 24.3551 37.6091 23.9268 37.6091L22.8911 37.6091C22.2207 37.6091 21.6319 37.958 21.2964 38.4843L23.9268 38.4843C24.1211 38.4843 24.3038 38.5602 24.4415 38.6973L24.557 38.8134C24.7285 38.9844 25.0051 38.9838 25.1761 38.8134C25.3471 38.6424 25.3471 38.3653 25.1761 38.1943Z" fill="#FFB09E"/>
<path d="M25.6118 41.8622C25.3089 41.5593 24.9063 41.3924 24.478 41.3924L24.1104 41.3924C23.44 41.3924 22.8512 41.7414 22.5151 42.2677L24.478 42.2677C24.6723 42.2677 24.8556 42.3435 24.9927 42.4807C25.1636 42.6516 25.4408 42.6516 25.6118 42.4807C25.7827 42.3097 25.7827 42.0325 25.6118 41.8622Z" fill="#FFB09E"/>
<path d="M25.7783 34.3772L25.6966 34.2961C25.3943 33.9933 24.9917 33.8264 24.5634 33.8264L22.8911 33.8264C22.2207 33.8264 21.6319 34.1753 21.2964 34.7016L24.5634 34.7016C24.7577 34.7016 24.9404 34.7775 25.0781 34.9152L25.1592 34.9963C25.3301 35.1673 25.6073 35.1673 25.7783 34.9963C25.9492 34.8253 25.9492 34.5482 25.7783 34.3772Z" fill="#FFB09E"/>
<path d="M47.693 41.0515C47.9822 41.0515 48.2166 41.2859 48.2166 41.5751C48.2166 41.8642 47.9822 42.0986 47.693 42.0986C47.4038 42.0986 47.1694 41.8642 47.1694 41.5751C47.1694 41.2859 47.4038 41.0515 47.693 41.0515Z" fill="#3962FA"/>
</g>
<rect x="1" y="1" width="48" height="48" rx="3" stroke="#EFF2F9" stroke-width="2"/>
<rect opacity="0.4" x="12" y="19.6455" width="1" height="9.17635" rx="0.5" transform="rotate(-40.1861 12 19.6455)" fill="#FCC12E"/>
<rect opacity="0.4" x="40.9575" y="18.7158" width="1" height="7" rx="0.5" transform="rotate(30 40.9575 18.7158)" fill="#FCC12E"/>
<rect opacity="0.4" x="32" y="17.8213" width="1" height="2.69428" rx="0.5" transform="rotate(4.36067 32 17.8213)" fill="#FCC12E"/>
<rect opacity="0.4" x="21.7275" y="18.3457" width="1" height="4.15214" rx="0.5" transform="rotate(-15 21.7275 18.3457)" fill="#FCC12E"/>
<defs>
<clipPath id="clip0">
<rect width="29" height="29" fill="white" transform="matrix(1 8.74228e-08 8.74228e-08 -1 21 48)"/>
</clipPath>
</defs>
</svg>
