<svg width="139" height="21" viewBox="0 0 139 21" fill="none" xmlns="http://www.w3.org/2000/svg">
<path d="M135.428 20.1412C136.361 20.733 137.597 20.4566 138.189 19.5239C138.781 18.5913 138.504 17.3555 137.572 16.7637L135.428 20.1412ZM0.928496 16.7637C-0.00417519 17.3555 -0.280526 18.5913 0.311249 19.5239C0.903024 20.4566 2.13883 20.733 3.0715 20.1412L0.928496 16.7637ZM4.39634 19.3235C5.34326 18.7548 5.64985 17.5262 5.08114 16.5793C4.51243 15.6324 3.28377 15.3258 2.33686 15.8945L4.39634 19.3235ZM12.1599 10.8858C11.1465 11.3252 10.6812 12.503 11.1206 13.5164C11.56 14.5298 12.7378 14.9951 13.7512 14.5557L12.1599 10.8858ZM16.6782 13.3441C17.7056 12.9384 18.2095 11.7766 17.8037 10.7493C17.398 9.72191 16.2363 9.21799 15.2089 9.62373L16.6782 13.3441ZM25.5801 6.11562C24.5182 6.41983 23.904 7.52724 24.2082 8.58909C24.5124 9.65094 25.6198 10.2651 26.6817 9.96093L25.5801 6.11562ZM29.7514 9.12516C30.8209 8.84887 31.4639 7.75792 31.1876 6.68847C30.9113 5.61901 29.8204 4.97603 28.7509 5.25232L29.7514 9.12516ZM39.4267 2.95244C38.3387 3.14297 37.6111 4.17943 37.8016 5.26745C37.9922 6.35546 39.0286 7.08301 40.1166 6.89248L39.4267 2.95244ZM43.2581 6.37783C44.35 6.21107 45.1 5.19072 44.9332 4.09881C44.7664 3.0069 43.7461 2.25692 42.6542 2.42367L43.2581 6.37783ZM53.4817 1.14778C52.3811 1.24089 51.5643 2.20861 51.6574 3.30925C51.7505 4.40989 52.7183 5.22665 53.8189 5.13354L53.4817 1.14778ZM57.0012 4.8943C58.1034 4.82168 58.938 3.86932 58.8654 2.76714C58.7928 1.66496 57.8404 0.830337 56.7382 0.902952L57.0012 4.8943ZM67.6075 0.506686C66.5029 0.515703 65.6148 1.41841 65.6239 2.52295C65.6329 3.62748 66.5356 4.51557 67.6401 4.50655L67.6075 0.506686ZM70.8599 4.50655C71.9644 4.51557 72.8671 3.62748 72.8761 2.52295C72.8852 1.41841 71.9971 0.515703 70.8925 0.506686L70.8599 4.50655ZM81.7618 0.902951C80.6596 0.830337 79.7072 1.66496 79.6346 2.76714C79.562 3.86932 80.3966 4.82168 81.4988 4.8943L81.7618 0.902951ZM84.6811 5.13354C85.7817 5.22665 86.7495 4.40989 86.8426 3.30925C86.9357 2.20861 86.1189 1.24089 85.0183 1.14778L84.6811 5.13354ZM95.8458 2.42367C94.7539 2.25692 93.7336 3.0069 93.5668 4.09881C93.4 5.19072 94.15 6.21107 95.2419 6.37783L95.8458 2.42367ZM98.3833 6.89248C99.4714 7.08301 100.508 6.35546 100.698 5.26745C100.889 4.17943 100.161 3.14297 99.0733 2.95243L98.3833 6.89248ZM109.749 5.25232C108.68 4.97603 107.589 5.61901 107.312 6.68847C107.036 7.75792 107.679 8.84887 108.749 9.12516L109.749 5.25232ZM111.818 9.96093C112.88 10.2651 113.988 9.65094 114.292 8.58909C114.596 7.52724 113.982 6.41983 112.92 6.11562L111.818 9.96093ZM123.291 9.62373C122.264 9.218 121.102 9.72191 120.696 10.7493C120.291 11.7766 120.794 12.9384 121.822 13.3441L123.291 9.62373ZM124.749 14.5557C125.762 14.9951 126.94 14.5298 127.379 13.5164C127.819 12.503 127.354 11.3252 126.34 10.8858L124.749 14.5557ZM136.163 15.8945C135.216 15.3258 133.988 15.6324 133.419 16.5793C132.85 17.5262 133.157 18.7548 134.104 19.3235L136.163 15.8945ZM3.0715 20.1412C3.48707 19.8775 3.92856 19.6045 4.39634 19.3235L2.33686 15.8945C1.84081 16.1924 1.37147 16.4826 0.928496 16.7637L3.0715 20.1412ZM13.7512 14.5557C14.6829 14.1517 15.6583 13.7469 16.6782 13.3441L15.2089 9.62373C14.1479 10.0428 13.1318 10.4644 12.1599 10.8858L13.7512 14.5557ZM26.6817 9.96093C27.6769 9.67583 28.7 9.3968 29.7514 9.12516L28.7509 5.25232C27.6656 5.5327 26.6088 5.82091 25.5801 6.11562L26.6817 9.96093ZM40.1166 6.89248C41.1432 6.71271 42.1902 6.54091 43.2581 6.37783L42.6542 2.42367C41.5577 2.59114 40.4819 2.76765 39.4267 2.95244L40.1166 6.89248ZM53.8189 5.13354C54.8634 5.04518 55.9241 4.96526 57.0012 4.8943L56.7382 0.902952C55.6365 0.975538 54.551 1.05732 53.4817 1.14778L53.8189 5.13354ZM67.6401 4.50655C68.1733 4.5022 68.7099 4.5 69.25 4.5V0.5C68.6991 0.5 68.1516 0.502244 67.6075 0.506686L67.6401 4.50655ZM69.25 4.5C69.7901 4.5 70.3267 4.5022 70.8599 4.50655L70.8925 0.506686C70.3484 0.502244 69.8009 0.5 69.25 0.5V4.5ZM81.4988 4.8943C82.5759 4.96526 83.6366 5.04518 84.6811 5.13354L85.0183 1.14778C83.949 1.05732 82.8635 0.975538 81.7618 0.902951L81.4988 4.8943ZM95.2419 6.37783C96.3098 6.5409 97.3568 6.71271 98.3833 6.89248L99.0733 2.95243C98.0181 2.76765 96.9423 2.59114 95.8458 2.42367L95.2419 6.37783ZM108.749 9.12516C109.8 9.3968 110.823 9.67583 111.818 9.96093L112.92 6.11562C111.891 5.82091 110.834 5.5327 109.749 5.25232L108.749 9.12516ZM121.822 13.3441C122.842 13.7469 123.817 14.1517 124.749 14.5557L126.34 10.8858C125.368 10.4644 124.352 10.0428 123.291 9.62373L121.822 13.3441ZM134.104 19.3235C134.571 19.6045 135.013 19.8775 135.428 20.1412L137.572 16.7637C137.129 16.4826 136.659 16.1924 136.163 15.8945L134.104 19.3235Z" fill="#3962FA"/>
</svg>
