<svg width="139" height="21" viewBox="0 0 139 21" fill="none" xmlns="http://www.w3.org/2000/svg">
<path d="M3.0715 0.811211C2.13884 0.219435 0.903029 0.495787 0.311247 1.42846C-0.280534 2.36113 -0.00418221 3.59694 0.928496 4.18871L3.0715 0.811211ZM137.572 4.1887C138.504 3.59692 138.781 2.36112 138.189 1.42845C137.597 0.495775 136.361 0.219423 135.428 0.811199L137.572 4.1887ZM134.104 1.62885C133.157 2.19756 132.85 3.42622 133.419 4.37313C133.988 5.32004 135.216 5.62663 136.163 5.05792L134.104 1.62885ZM126.34 10.0666C127.354 9.62715 127.819 8.44941 127.379 7.436C126.94 6.4226 125.762 5.9573 124.749 6.39672L126.34 10.0666ZM121.822 7.60829C120.794 8.01403 120.291 9.17578 120.696 10.2031C121.102 11.2305 122.264 11.7344 123.291 11.3287L121.822 7.60829ZM112.92 14.8368C113.982 14.5326 114.596 13.4252 114.292 12.3633C113.988 11.3015 112.88 10.6873 111.818 10.9915L112.92 14.8368ZM108.749 11.8272C107.679 12.1035 107.036 13.1945 107.312 14.2639C107.589 15.3334 108.68 15.9764 109.749 15.7001L108.749 11.8272ZM99.0733 18C100.161 17.8094 100.889 16.773 100.698 15.6849C100.508 14.5969 99.4714 13.8694 98.3833 14.0599L99.0733 18ZM95.2419 14.5746C94.15 14.7413 93.4 15.7617 93.5668 16.8536C93.7336 17.9455 94.7539 18.6955 95.8458 18.5287L95.2419 14.5746ZM85.0183 19.8046C86.1189 19.7115 86.9357 18.7438 86.8426 17.6431C86.7495 16.5425 85.7817 15.7257 84.6811 15.8189L85.0183 19.8046ZM81.4988 16.0581C80.3966 16.1307 79.562 17.0831 79.6346 18.1853C79.7072 19.2874 80.6596 20.1221 81.7618 20.0494L81.4988 16.0581ZM70.8925 20.4457C71.9971 20.4367 72.8852 19.534 72.8761 18.4295C72.8671 17.3249 71.9644 16.4368 70.8599 16.4458L70.8925 20.4457ZM67.6401 16.4458C66.5356 16.4368 65.6329 17.3249 65.6239 18.4295C65.6148 19.534 66.5029 20.4367 67.6075 20.4457L67.6401 16.4458ZM56.7382 20.0494C57.8404 20.1221 58.7928 19.2874 58.8654 18.1853C58.938 17.0831 58.1034 16.1307 57.0012 16.0581L56.7382 20.0494ZM53.8189 15.8189C52.7183 15.7258 51.7505 16.5425 51.6574 17.6431C51.5643 18.7438 52.3811 19.7115 53.4817 19.8046L53.8189 15.8189ZM42.6542 18.5287C43.7461 18.6955 44.7664 17.9455 44.9332 16.8536C45.1 15.7617 44.35 14.7413 43.2581 14.5746L42.6542 18.5287ZM40.1167 14.0599C39.0286 13.8694 37.9922 14.5969 37.8016 15.685C37.6111 16.773 38.3387 17.8094 39.4267 18L40.1167 14.0599ZM28.7509 15.7001C29.8204 15.9764 30.9113 15.3334 31.1876 14.2639C31.4639 13.1945 30.8209 12.1035 29.7514 11.8272L28.7509 15.7001ZM26.6817 10.9915C25.6198 10.6873 24.5124 11.3015 24.2082 12.3633C23.904 13.4252 24.5182 14.5326 25.5801 14.8368L26.6817 10.9915ZM15.2089 11.3287C16.2363 11.7344 17.398 11.2305 17.8037 10.2031C18.2095 9.17578 17.7056 8.01404 16.6782 7.6083L15.2089 11.3287ZM13.7512 6.39673C12.7378 5.95731 11.56 6.42261 11.1206 7.43601C10.6812 8.44941 11.1465 9.62716 12.1599 10.0666L13.7512 6.39673ZM2.33685 5.05793C3.28377 5.62664 4.51242 5.32005 5.08113 4.37314C5.64984 3.42622 5.34325 2.19757 4.39635 1.62886L2.33685 5.05793ZM135.428 0.811199C135.013 1.07487 134.571 1.3479 134.104 1.62885L136.163 5.05792C136.659 4.75999 137.129 4.46976 137.572 4.1887L135.428 0.811199ZM124.749 6.39672C123.817 6.80072 122.842 7.20552 121.822 7.60829L123.291 11.3287C124.352 10.9096 125.368 10.488 126.34 10.0666L124.749 6.39672ZM111.818 10.9915C110.823 11.2766 109.8 11.5556 108.749 11.8272L109.749 15.7001C110.834 15.4197 111.891 15.1315 112.92 14.8368L111.818 10.9915ZM98.3833 14.0599C97.3568 14.2397 96.3098 14.4115 95.2419 14.5746L95.8458 18.5287C96.9423 18.3613 98.0181 18.1848 99.0733 18L98.3833 14.0599ZM84.6811 15.8189C83.6366 15.9072 82.5759 15.9871 81.4988 16.0581L81.7618 20.0494C82.8635 19.9769 83.949 19.8951 85.0183 19.8046L84.6811 15.8189ZM70.8599 16.4458C70.3267 16.4502 69.7901 16.4524 69.25 16.4524L69.25 20.4524C69.8009 20.4524 70.3484 20.4502 70.8925 20.4457L70.8599 16.4458ZM69.25 16.4524C68.7099 16.4524 68.1733 16.4502 67.6401 16.4458L67.6075 20.4457C68.1516 20.4502 68.6991 20.4524 69.25 20.4524L69.25 16.4524ZM57.0012 16.0581C55.9241 15.9871 54.8634 15.9072 53.8189 15.8189L53.4817 19.8046C54.551 19.8951 55.6365 19.9769 56.7382 20.0494L57.0012 16.0581ZM43.2581 14.5746C42.1902 14.4115 41.1432 14.2397 40.1167 14.0599L39.4267 18C40.4819 18.1848 41.5577 18.3613 42.6542 18.5287L43.2581 14.5746ZM29.7514 11.8272C28.7 11.5556 27.6769 11.2766 26.6817 10.9915L25.5801 14.8368C26.6088 15.1315 27.6656 15.4197 28.7509 15.7001L29.7514 11.8272ZM16.6782 7.6083C15.6583 7.20552 14.6829 6.80073 13.7512 6.39673L12.1599 10.0666C13.1318 10.488 14.1479 10.9096 15.2089 11.3287L16.6782 7.6083ZM4.39635 1.62886C3.92856 1.34791 3.48706 1.07488 3.0715 0.811211L0.928496 4.18871C1.37147 4.46978 1.8408 4.76 2.33685 5.05793L4.39635 1.62886Z" fill="#3962FA"/>
</svg>
