<svg width="17" height="18" viewBox="0 0 17 18" fill="none" xmlns="http://www.w3.org/2000/svg">
<circle cx="8.5" cy="9" r="7.75" stroke="#F8632D" stroke-width="1.5"/>
<path d="M8.44999 5C7.09906 5 6 6.10268 6 7.45805V7.48869C6 7.91845 6.34851 8.26805 6.7768 8.26805C6.89613 8.26805 7.01078 8.24151 7.11759 8.18915C7.38657 8.05726 7.55367 7.78887 7.55367 7.48869V7.45805C7.55367 6.96221 7.95578 6.55878 8.44999 6.55878C8.94427 6.55878 9.34637 6.96221 9.34637 7.45805C9.34637 7.95396 8.94427 8.35738 8.44999 8.35738H8.33188C7.90353 8.35738 7.55508 8.70698 7.55508 9.13674V10.4245C7.55508 10.8543 7.90353 11.2039 8.33188 11.2039C8.76024 11.2039 9.10869 10.8543 9.10869 10.4245V9.826C10.1581 9.5328 10.9 8.56778 10.9 7.45805C10.9 6.10268 9.80098 5 8.44999 5Z" fill="#F8632D"/>
<path d="M8.31904 11.5C7.79685 11.5 7.37207 11.9262 7.37207 12.4502C7.37207 12.974 7.79691 13.4002 8.31904 13.4002C8.84123 13.4002 9.26601 12.974 9.26601 12.4502C9.26601 11.9262 8.84123 11.5 8.31904 11.5Z" fill="#F8632D"/>
</svg>
