<svg width="28" height="28" viewBox="0 0 28 28" fill="none" xmlns="http://www.w3.org/2000/svg">
<path d="M3 9C3 7.89543 3.89543 7 5 7H26C27.1046 7 28 7.89543 28 9V24C28 25.1046 27.1046 26 26 26H3V9Z" fill="#3962FA" fill-opacity="0.4"/>
<path fill-rule="evenodd" clip-rule="evenodd" d="M8 0C7.44772 0 7 0.447715 7 1V4H5C2.23858 4 0 6.23858 0 9V10V23C0 25.7614 2.23858 28 5 28H23C25.7614 28 28 25.7614 28 23V10V9C28 6.23858 25.7614 4 23 4V1C23 0.447715 22.5523 0 22 0C21.4477 0 21 0.447715 21 1V4H9V1C9 0.447715 8.55229 0 8 0ZM2 23V11L26 11V23C26 24.6569 24.6569 26 23 26H5C3.34315 26 2 24.6569 2 23ZM2 9H26C26 7.34315 24.6569 6 23 6H5C3.34315 6 2 7.34315 2 9Z" fill="#031F88"/>
<mask id="path-3-inside-1" fill="white">
<path d="M14 23.7142C14.7588 23.7142 15.1814 23.2643 15.3465 22.7767C15.435 22.5151 15.2047 22.2856 14.9285 22.2856H13.0714C12.7953 22.2856 12.565 22.5151 12.6535 22.7767C12.8185 23.2643 13.2411 23.7142 14 23.7142Z"/>
</mask>
<path d="M14 23.7142C14.7588 23.7142 15.1814 23.2643 15.3465 22.7767C15.435 22.5151 15.2047 22.2856 14.9285 22.2856H13.0714C12.7953 22.2856 12.565 22.5151 12.6535 22.7767C12.8185 23.2643 13.2411 23.7142 14 23.7142Z" fill="#031F88"/>
<path d="M15.3465 22.7767L13.452 22.1355L13.452 22.1355L15.3465 22.7767ZM12.6535 22.7767L10.759 23.4178V23.4178L12.6535 22.7767ZM13.452 22.1355C13.4731 22.0731 13.5288 21.9587 13.6617 21.8546C13.7288 21.8019 13.8022 21.7632 13.873 21.7396C13.9431 21.7161 13.9899 21.7142 14 21.7142V25.7142C15.7527 25.7142 16.8474 24.5805 17.2409 23.4178L13.452 22.1355ZM14 21.7142C14.01 21.7142 14.0569 21.7161 14.127 21.7396C14.1978 21.7632 14.2711 21.8019 14.3383 21.8546C14.4711 21.9587 14.5268 22.0731 14.5479 22.1355L10.759 23.4178C11.1525 24.5805 12.2472 25.7142 14 25.7142V21.7142ZM14.9285 20.2856H13.0714V24.2856H14.9285V20.2856ZM14.5479 22.1355C14.7584 22.7575 14.565 23.3789 14.2125 23.7708C13.895 24.1236 13.471 24.2856 13.0714 24.2856V20.2856C12.3956 20.2856 11.7184 20.5624 11.2389 21.0954C10.7243 21.6673 10.46 22.5342 10.759 23.4178L14.5479 22.1355ZM17.2409 23.4178C17.5399 22.5342 17.2756 21.6673 16.761 21.0954C16.2815 20.5624 15.6043 20.2856 14.9285 20.2856V24.2856C14.5289 24.2856 14.1049 24.1236 13.7875 23.7708C13.4349 23.3789 13.2415 22.7575 13.452 22.1355L17.2409 23.4178Z" fill="#031F88" mask="url(#path-3-inside-1)"/>
<path d="M11.4815 16.4568C11.4815 15.1257 12.6231 14 14 14C15.3769 14 16.5185 15.1257 16.5185 16.4568V17.8335C16.5185 18.9861 16.9767 20.0803 17.7875 20.8889H10.2125C11.0233 20.0803 11.4815 18.9861 11.4815 17.8335V16.4568Z" stroke="#031F88" stroke-width="2"/>
</svg>
