<svg width="16" height="16" viewBox="0 0 16 16" fill="none" xmlns="http://www.w3.org/2000/svg">
<path d="M7.53004 1.79378C7.68953 1.35473 8.31047 1.35473 8.46996 1.79379L9.94312 5.84939C10.0128 6.04119 10.192 6.1714 10.3959 6.17839L14.7083 6.3262C15.1751 6.3422 15.367 6.93276 14.9987 7.22011L11.5969 9.87443C11.436 9.99995 11.3675 10.2106 11.4239 10.4068L12.6159 14.5537C12.745 15.0027 12.2426 15.3676 11.8555 15.1062L8.27986 12.691C8.11077 12.5768 7.88923 12.5768 7.72014 12.691L4.1445 15.1062C3.7574 15.3676 3.25504 15.0027 3.38409 14.5537L4.5761 10.4068C4.63247 10.2106 4.56402 9.99995 4.40314 9.87443L1.00126 7.22011C0.632973 6.93276 0.824856 6.3422 1.29171 6.3262L5.60405 6.17839C5.80799 6.1714 5.98721 6.04119 6.05688 5.84939L7.53004 1.79378Z" stroke="#86969E"/>
</svg>
