<svg width="52" height="52" viewBox="0 0 52 52" fill="none" xmlns="http://www.w3.org/2000/svg">
<path d="M42.25 52H9.75C4.36475 52 0 47.6352 0 42.25V9.75C0 4.36475 4.36475 0 9.75 0H42.25C47.6352 0 52 4.36475 52 9.75V42.25C52 47.6352 47.6352 52 42.25 52Z" fill="#3962FA" fill-opacity="0.2"/>
<path d="M27.0154 9.82627C27.145 9.32985 27.8489 9.32738 27.982 9.82287L31.0973 21.4183C31.1575 21.6426 31.3643 21.7959 31.5964 21.7883L45.271 21.3433C45.772 21.327 45.9827 21.976 45.5676 22.2571L34.2221 29.9403C34.0397 30.0638 33.9597 30.292 34.0248 30.5023L38.0406 43.4629C38.1843 43.9268 37.649 44.3025 37.2615 44.0098L26.3348 35.753C26.1412 35.6067 25.8704 35.6206 25.6928 35.7859L17.3246 43.5725C16.9428 43.9278 16.3403 43.5346 16.5118 43.0421L21.0515 30.0043C21.2114 29.545 21.0176 29.0371 20.5923 28.8011L11.5119 23.7617C10.9434 23.4462 11.2126 22.5782 11.8598 22.6398L22.5357 23.6555C23.024 23.7019 23.474 23.3873 23.5979 22.9126L27.0154 9.82627Z" fill="#3962FA" fill-opacity="0.6"/>
<path d="M27.4409 9.38247C27.0231 7.93824 24.9769 7.93824 24.5591 9.38247L21.1174 21.2797L8.73895 20.8765C7.2363 20.8275 6.60397 22.7736 7.84841 23.6173L18.0999 30.5669L13.8912 42.2149C13.3803 43.6289 15.0357 44.8317 16.2226 43.9089L15.6088 43.1194L16.2226 43.9089L26 36.3067L35.7774 43.9089C36.9643 44.8317 38.6197 43.6289 38.1088 42.2149L33.9001 30.5669L44.1516 23.6173C45.396 22.7736 44.7637 20.8275 43.2611 20.8765L30.8826 21.2797L27.4409 9.38247Z" stroke="#031F88" stroke-width="2" stroke-linejoin="round"/>
</svg>
