<svg width="20" height="20" viewBox="0 0 20 20" fill="none" xmlns="http://www.w3.org/2000/svg">
<path fill-rule="evenodd" clip-rule="evenodd" d="M0 8.80756C0 3.9512 3.9512 0 8.80756 0C13.6642 0 17.6151 3.9512 17.6151 8.80756C17.6151 10.9438 16.8507 12.9048 15.581 14.4314L19.7618 18.6122C20.0794 18.9295 20.0794 19.4444 19.7618 19.7618C19.603 19.9206 19.3949 20 19.187 20C18.9789 20 18.771 19.9206 18.6122 19.7618L14.4314 15.581C12.9048 16.8507 10.9438 17.6151 8.80756 17.6151C3.9512 17.6151 0 13.6642 0 8.80756ZM1.62601 8.8076C1.62601 12.7675 4.84769 15.9892 8.80756 15.9892C12.7674 15.9892 15.9891 12.7674 15.9891 8.80756C15.9891 4.84769 12.7674 1.62601 8.80756 1.62601C4.84769 1.62601 1.62601 4.84773 1.62601 8.8076Z" fill="black"/>
</svg>
