<svg width="16" height="16" viewBox="0 0 16 16" fill="none" xmlns="http://www.w3.org/2000/svg">
<path fill-rule="evenodd" clip-rule="evenodd" d="M13.313 4.49615C12.8379 3.78567 12.2276 3.17592 11.5168 2.70179L10.6514 2.12449C10.0544 1.72631 9.25937 1.8071 8.7546 2.31723L6.76981 4.32309C6.18712 4.91196 6.1917 5.86213 6.78004 6.44535L7.13671 6.79891C7.33282 6.99332 7.33435 7.31004 7.14012 7.50633C7.09212 7.55484 7.03666 7.59145 6.9774 7.61616L2.20924 12.3845C2.13323 12.4605 2.08372 12.5591 2.06805 12.6655L1.85283 14.127L3.32871 13.9712L3.49426 12.8579C3.54696 12.5034 3.85855 12.246 4.21627 12.2613L4.87119 12.2894L4.87823 11.5843C4.8822 11.1872 5.21488 10.8729 5.61118 10.8918L6.53111 10.9357L8.50179 8.92453C8.50968 8.91543 8.51795 8.90656 8.5266 8.89793C8.57506 8.84955 8.63096 8.8132 8.6906 8.78886C8.87007 8.71465 9.08424 8.7494 9.23164 8.8941C9.24428 8.9065 9.25612 8.91942 9.26716 8.93278L9.58936 9.25613C10.1745 9.84334 11.1245 9.8442 11.7106 9.25805L13.7076 7.26114C14.2141 6.75465 14.2921 5.96039 13.8939 5.36483L13.313 4.49615ZM6.05962 3.61908C5.09736 4.59155 5.09605 6.15521 6.05 7.12934L1.50276 11.6768C1.27473 11.9048 1.1262 12.2004 1.07919 12.5196L0.863969 13.9812C0.768763 14.6277 1.30836 15.1906 1.9577 15.122L3.66453 14.9418C3.98177 14.9083 4.23621 14.6642 4.28317 14.3484L4.44317 13.2724L5.13798 13.3022C5.53304 13.3192 5.86363 13.0053 5.86758 12.6096L5.87461 11.906L6.61779 11.9414C6.81706 11.9509 7.01092 11.8748 7.15062 11.7323L8.88315 9.96414C9.85845 10.9413 11.4407 10.9422 12.4171 9.96581L14.414 7.9689C15.2582 7.12474 15.3883 5.80097 14.7245 4.80839L14.1437 3.9397C13.5955 3.11991 12.8912 2.41635 12.0711 1.86928L11.2057 1.29199C10.2108 0.628346 8.8857 0.762999 8.04441 1.61322L6.05962 3.61908ZM9.79172 6.07169C10.1822 6.46222 10.8154 6.46222 11.2059 6.07169C11.5965 5.68117 11.5965 5.048 11.2059 4.65748C10.8154 4.26695 10.1822 4.26695 9.79172 4.65748C9.40119 5.048 9.40119 5.68117 9.79172 6.07169Z" fill="#86969E"/>
</svg>
