<svg width="16" height="16" viewBox="0 0 16 16" fill="none" xmlns="http://www.w3.org/2000/svg">
<path fill-rule="evenodd" clip-rule="evenodd" d="M13.3135 4.49615C12.8384 3.78567 12.228 3.17592 11.5173 2.70179L10.6519 2.12449C10.0549 1.72631 9.25986 1.8071 8.75509 2.31723L6.77029 4.32309C6.18761 4.91196 6.19219 5.86213 6.78053 6.44535L7.1372 6.79891C7.33331 6.99332 7.33484 7.31004 7.14061 7.50633C7.09261 7.55484 7.03715 7.59145 6.97789 7.61616L2.20973 12.3845C2.13372 12.4605 2.08421 12.5591 2.06854 12.6655L1.85332 14.127L3.3292 13.9712L3.49474 12.8579C3.54745 12.5034 3.85903 12.246 4.21676 12.2613L4.87168 12.2894L4.87872 11.5843C4.88269 11.1872 5.21537 10.8729 5.61167 10.8918L6.5316 10.9357L8.50228 8.92453C8.51017 8.91543 8.51844 8.90656 8.52709 8.89793C8.57555 8.84955 8.63145 8.8132 8.69109 8.78886C8.87056 8.71465 9.08473 8.7494 9.23212 8.8941C9.24476 8.9065 9.25661 8.91942 9.26765 8.93278L9.58985 9.25613C10.1749 9.84334 11.125 9.8442 11.7111 9.25805L13.7081 7.26114C14.2146 6.75465 14.2926 5.96039 13.8944 5.36483L13.3135 4.49615ZM6.06011 3.61908C5.09785 4.59155 5.09654 6.15521 6.05049 7.12934L1.50325 11.6768C1.27522 11.9048 1.12668 12.2004 1.07968 12.5196L0.864457 13.9812C0.769251 14.6277 1.30885 15.1906 1.95819 15.122L3.66502 14.9418C3.98226 14.9083 4.2367 14.6642 4.28366 14.3484L4.44366 13.2724L5.13846 13.3022C5.53353 13.3192 5.86412 13.0053 5.86807 12.6096L5.8751 11.906L6.61827 11.9414C6.81755 11.9509 7.01141 11.8748 7.15111 11.7323L8.88364 9.96414C9.85894 10.9413 11.4412 10.9422 12.4176 9.96581L14.4145 7.9689C15.2587 7.12474 15.3887 5.80097 14.725 4.80839L14.1442 3.9397C13.596 3.11991 12.8917 2.41635 12.0716 1.86928L11.2062 1.29199C10.2113 0.628346 8.88619 0.762999 8.0449 1.61322L6.06011 3.61908ZM9.79221 6.07169C10.1827 6.46222 10.8159 6.46222 11.2064 6.07169C11.5969 5.68117 11.5969 5.048 11.2064 4.65748C10.8159 4.26695 10.1827 4.26695 9.79221 4.65748C9.40168 5.048 9.40168 5.68117 9.79221 6.07169Z" fill="#3962FA"/>
</svg>
