<svg width="94" height="94" viewBox="0 0 94 94" fill="none" xmlns="http://www.w3.org/2000/svg">
<circle cx="5.08108" cy="47" r="3.83108" fill="#3962FA" stroke="#031F88" stroke-width="2.5"/>
<circle cx="47" cy="5.08108" r="3.83108" fill="#3962FA" stroke="#031F88" stroke-width="2.5"/>
<circle cx="47" cy="88.919" r="3.83108" fill="#3962FA" stroke="#031F88" stroke-width="2.5"/>
<path d="M26.0342 28.467L44.114 21.337C45.7642 20.6862 47.5999 20.6862 49.2501 21.337L67.33 28.4671C68.4761 28.9191 69.2294 30.02 69.2294 31.2521V53.9864C69.2294 64.1872 52.996 74.4536 48.0776 77.33C47.2089 77.8381 46.1553 77.8381 45.2865 77.33C40.3681 74.4536 24.1346 64.1872 24.1348 53.9864C24.1349 46.1314 24.1348 35.6201 24.1348 31.2521C24.1348 30.02 24.888 28.919 26.0342 28.467Z" fill="#3962FA"/>
<path d="M30.7685 31.8759L44.0457 26.4775C45.7362 25.7902 47.6283 25.7902 49.3188 26.4775L62.596 31.8759C63.7266 32.3356 64.466 33.433 64.466 34.6535V52.7791C64.466 60.8578 52.3218 68.9871 48.1045 71.5665C47.2226 72.1059 46.1418 72.1059 45.2599 71.5666C41.0426 68.9871 28.8983 60.8578 28.8984 52.7791C28.8985 46.599 28.8985 38.3969 28.8985 34.6536C28.8984 33.433 29.6379 32.3356 30.7685 31.8759Z" fill="#1F48DF"/>
<path d="M26.0342 28.467L44.114 21.337C45.7642 20.6862 47.5999 20.6862 49.2501 21.337L67.33 28.4671C68.4761 28.9191 69.2294 30.02 69.2294 31.2521V53.9864C69.2294 64.1872 52.996 74.4536 48.0776 77.33C47.2089 77.8381 46.1553 77.8381 45.2865 77.33C40.3681 74.4536 24.1346 64.1872 24.1348 53.9864C24.1349 46.1314 24.1348 35.6201 24.1348 31.2521C24.1348 30.02 24.888 28.919 26.0342 28.467Z" stroke="#031F88" stroke-width="2.5"/>
<path fill-rule="evenodd" clip-rule="evenodd" d="M38.6333 45.9738C37.6412 46.966 37.6412 48.5746 38.6333 49.5667L43.1244 54.0578C44.1166 55.0499 45.7252 55.0499 46.7173 54.0578C46.7279 54.0472 46.7384 54.0365 46.7488 54.0257L56.5975 44.177C57.5897 43.1849 57.5897 41.5763 56.5975 40.5841C55.6054 39.592 53.9968 39.592 53.0047 40.5841L44.9206 48.6682L42.2262 45.9738C41.2341 44.9817 39.6255 44.9817 38.6333 45.9738Z" fill="white"/>
<path d="M56.6475 6.2063C64.2928 8.01442 71.2761 11.9346 76.8011 17.5198C82.3261 23.105 86.1704 30.1305 87.8955 37.7949" stroke="#031F88" stroke-width="2.5" stroke-linecap="round"/>
<path d="M6.35156 37.5996C8.15969 29.9543 12.0799 22.971 17.6651 17.446C23.2503 11.921 30.2757 8.0767 37.9402 6.35156" stroke="#031F88" stroke-width="2.5" stroke-linecap="round"/>
<path d="M87.4805 57.1621C85.6723 64.8074 81.7521 71.7908 76.1669 77.3158C70.5817 82.8407 63.5563 86.685 55.8918 88.4102" stroke="#031F88" stroke-width="2.5" stroke-linecap="round"/>
<path d="M37.5996 87.48C29.9543 85.6719 22.971 81.7517 17.446 76.1664C11.921 70.5812 8.07671 63.5558 6.35156 55.8913" stroke="#031F88" stroke-width="2.5" stroke-linecap="round"/>
<circle cx="88.919" cy="47" r="3.83108" fill="#3962FA" stroke="#031F88" stroke-width="2.5"/>
</svg>
