<svg width="28" height="28" viewBox="0 0 28 28" fill="none" xmlns="http://www.w3.org/2000/svg">
<path d="M26.998 1.19553L0.546109 14.738C0.15435 14.9385 0.194113 15.5109 0.609844 15.6553L7.47103 18.0396C7.80283 18.1549 8.1708 18.0876 8.44038 17.8624L21.7527 6.74178C21.9417 6.58397 22.1934 6.84051 22.032 7.02638L11.7961 18.8166C11.5642 19.0837 11.6754 19.5006 12.0095 19.6167L24.4225 23.9301C24.7238 24.0348 25.0447 23.8345 25.083 23.5179L27.7222 1.70063C27.7703 1.30293 27.3546 1.01296 26.998 1.19553Z" fill="#3962FA"/>
<path d="M10.2012 21.3988L10.5028 26.3897C10.5296 26.8333 11.0786 27.0241 11.3747 26.6927L14.7062 22.9642C14.8013 22.8578 14.7575 22.6889 14.6227 22.6421L10.4665 21.1978C10.3317 21.1509 10.1926 21.2563 10.2012 21.3988Z" fill="#3962FA"/>
</svg>
