<svg width="50" height="50" viewBox="0 0 50 50" fill="none" xmlns="http://www.w3.org/2000/svg">
<g clip-path="url(#clip0)">
<path d="M0.00231934 2.47311V47.3799C0.00231934 48.7457 1.11418 49.853 2.48559 49.853H47.4843C48.8558 49.853 49.9675 48.7457 49.9675 47.3799V2.47311C49.9676 1.10727 48.8559 0 47.4844 0H2.48568C1.11418 0 0.00231934 1.10727 0.00231934 2.47311Z" fill="#0F9D58"/>
<path d="M47.4838 0H24.9476V49.8529H47.4838C48.8553 49.8529 49.9671 48.7456 49.9671 47.3798V2.47311C49.9671 1.10727 48.8553 0 47.4838 0V0Z" fill="#0F9D58"/>
<path d="M25.1105 24.7838L2.09167 49.6288V49.8529H46.9347L25.1105 24.7838Z" fill="#4285F4"/>
<path d="M48.5953 49.8529C49.3529 49.8529 49.9671 49.2412 49.9671 48.4866V2.16489L48.6463 1.14935L23.9423 23.8781L48.5953 49.8529Z" fill="#DFEBF1"/>
<path d="M20.2853 12.5683H15.711C14.8525 12.5683 14.1565 13.2614 14.1565 14.1165C14.1565 14.9715 14.8525 15.6647 15.711 15.6647H18.487C18.2361 16.4393 17.7966 17.147 17.1895 17.7329C16.1873 18.7003 14.8448 19.233 13.4095 19.233C10.4753 19.233 8.08824 16.9041 8.08824 14.0417C8.08824 11.1792 10.4753 8.85035 13.4095 8.85035C14.6964 8.85035 15.9382 9.30419 16.906 10.1284C17.5586 10.6838 18.5399 10.6076 19.0978 9.95761C19.6558 9.30781 19.5791 8.33046 18.9265 7.77483C17.3958 6.4717 15.4365 5.75391 13.4094 5.75391C8.7608 5.75391 4.979 9.47172 4.979 14.0417C4.979 18.6116 8.7609 22.3294 13.4094 22.3294C15.6568 22.3294 17.7677 21.4867 19.3532 19.9565C20.9568 18.409 21.8398 16.3349 21.8398 14.1166C21.8398 13.2614 21.1438 12.5683 20.2853 12.5683Z" fill="white"/>
<path d="M24.9476 49.8529H46.9347L25.1106 24.7838L24.9476 24.9596V49.8529Z" fill="#4285F4"/>
<path d="M49.9671 48.5252L26.1408 23.8885C25.5367 23.281 24.5523 23.2763 23.9423 23.8781C23.3323 24.4797 23.3275 25.46 23.9317 26.0675L46.9347 49.8529H48.634C49.3702 49.8529 49.9671 49.2585 49.9671 48.5252Z" fill="#FFF5F5"/>
<path d="M32.1091 37.2481L39.304 49.4677C39.7201 50.1744 40.7411 50.1779 41.1621 49.4741L48.5436 37.134C49.4956 35.5426 49.9982 33.723 49.9982 31.8686V31.4461C49.9982 26.2203 45.7878 22.0097 40.5942 22.0103H40.3034C34.9495 22.0108 30.6095 26.3513 30.6095 31.7052V31.7454C30.6094 33.6805 31.1272 35.5805 32.1091 37.2481Z" fill="#DB4437"/>
<path d="M40.5942 22.0103H40.3033C40.3011 22.0103 40.2988 22.0104 40.2965 22.0104V49.9962C40.6341 49.9772 40.9643 49.8048 41.162 49.4742L48.5435 37.1341C49.4955 35.5427 49.9982 33.7231 49.9982 31.8688V31.4463C49.9982 26.2204 45.7877 22.0098 40.5942 22.0103Z" fill="#DB4437"/>
<path d="M40.3038 35.5308C42.4083 35.5308 44.1143 33.8248 44.1143 31.7203C44.1143 29.6158 42.4083 27.9098 40.3038 27.9098C38.1993 27.9098 36.4933 29.6158 36.4933 31.7203C36.4933 33.8248 38.1993 35.5308 40.3038 35.5308Z" fill="white"/>
<path d="M40.3038 27.9097C40.3014 27.9097 40.299 27.9099 40.2965 27.9099V35.5306C40.299 35.5306 40.3014 35.5308 40.3038 35.5308C42.4084 35.5308 44.1144 33.8247 44.1144 31.7203C44.1144 29.6157 42.4084 27.9097 40.3038 27.9097Z" fill="#FFF5F5"/>
<path d="M49.9676 2.19158V2.18747C49.9676 0.979298 48.9842 0 47.7712 0L0.00231934 47.6614V47.9274C0.00231934 48.9908 0.86801 49.8529 1.93581 49.8529H2.19878L49.9676 2.19158Z" fill="#F4B400"/>
<path d="M47.7706 0L24.9476 22.7717V27.1547L49.9671 2.19158V2.18747C49.9671 0.979298 48.9837 0 47.7706 0Z" fill="#F4B400"/>
</g>
<defs>
<clipPath id="clip0">
<rect width="50" height="50" rx="7" fill="white"/>
</clipPath>
</defs>
</svg>
