<svg width="50" height="50" viewBox="0 0 50 50" fill="none" xmlns="http://www.w3.org/2000/svg">
<path d="M2.86133 11.1416H47.1388V44.8725C47.1388 45.9771 46.2434 46.8725 45.1388 46.8725H4.86133C3.75676 46.8725 2.86133 45.9771 2.86133 44.8725V11.1416Z" fill="#437CE9"/>
<path d="M46.274 6.15239C45.7511 4.35987 44.1081 3.12793 42.2413 3.12793H35.7534H25.0005H14.2444H7.75751C5.89076 3.12793 4.24775 4.35987 3.72487 6.15239L0 18.9098V19.3638C0 21.6039 1.20394 23.5621 3.00191 24.6252V24.6262C3.9132 25.1652 4.97627 25.474 6.11029 25.474C7.65537 25.474 9.0777 24.8973 10.1623 23.9376C11.2458 22.979 11.9903 21.6351 12.1764 20.1018L12.2787 19.267L12.3851 18.389C12.355 18.6461 12.3389 18.9034 12.3389 19.1562C12.3389 19.1938 12.3389 19.2304 12.3399 19.267C12.3991 22.6561 15.1718 25.474 18.6696 25.474C22.1245 25.474 24.9348 22.7057 24.9994 19.267C25.0004 19.2261 25.0004 19.1862 25.0004 19.1454C25.0004 19.1862 25.0004 19.2261 25.0014 19.267C25.066 22.7057 27.8742 25.474 31.329 25.474C34.8279 25.474 37.5996 22.6573 37.6598 19.267C37.6609 19.2293 37.6609 19.1917 37.6609 19.154C37.6609 18.9033 37.6458 18.6515 37.6146 18.3954L37.7211 19.267L37.8234 20.1018C38.0106 21.6351 38.754 22.979 39.8364 23.9376C40.921 24.8973 42.3445 25.474 43.8884 25.474C45.0225 25.474 46.0855 25.1652 46.9968 24.6262C48.7947 23.5621 49.9998 21.6039 49.9998 19.3638V18.9098L46.274 6.15239Z" fill="#4151B9"/>
<path d="M37.6608 19.154C37.6608 19.1917 37.6608 19.2293 37.6598 19.267C37.5996 22.6573 34.8279 25.474 31.329 25.474C27.8741 25.474 25.066 22.7057 25.0014 19.267C25.0004 19.2261 25.0004 19.1862 25.0004 19.1454V3.12793H35.7533L37.6136 18.3783C37.6146 18.3837 37.6146 18.3902 37.6146 18.3955C37.6458 18.6516 37.6608 18.9034 37.6608 19.154Z" fill="#7DABFA"/>
<path d="M14.2443 3.12793L12.3862 18.3783C12.3862 18.3826 12.3851 18.3848 12.3851 18.389L12.2787 19.267L12.1764 20.1018C11.9902 21.6351 11.2458 22.979 10.1623 23.9376C9.0777 24.8973 7.65537 25.474 6.11029 25.474C4.97627 25.474 3.9132 25.1652 3.00191 24.6262V24.6252C1.20404 23.5621 0 21.6039 0 19.3638V18.9098L3.72476 6.15239C4.24765 4.35987 5.89065 3.12793 7.75741 3.12793H14.2443Z" fill="#7DABFA"/>
<path d="M0 19.2686H12.2787L12.1764 20.1034C11.9902 21.6367 11.2458 22.9806 10.1623 23.9392C9.0777 24.8989 7.65537 25.4756 6.11029 25.4756C4.97627 25.4756 3.9132 25.1668 3.00191 24.6278V24.6267C1.20404 23.5637 0 21.6055 0 19.3653V19.2686Z" fill="#76A0E6"/>
<path d="M37.6602 19.2676C37.6 22.6579 34.8283 25.4747 31.3294 25.4747C27.8745 25.4747 25.0664 22.7063 25.0018 19.2676H37.6602Z" fill="#76A0E6"/>
<path d="M12.3398 19.2686H24.9994C24.9348 22.7073 22.1244 25.4756 18.6697 25.4756C15.1717 25.4756 12.3991 22.6577 12.3398 19.2686Z" fill="#3E4CAB"/>
<path d="M49.9998 19.2676V19.3644C49.9998 21.6045 48.7948 23.5627 46.9969 24.6268C46.0856 25.1658 45.0225 25.4747 43.8885 25.4747C42.3446 25.4747 40.9211 24.8979 39.8365 23.9382C38.7541 22.9796 38.0106 21.6357 37.8234 20.1025L37.7212 19.2676H49.9998Z" fill="#3E4CAB"/>
<path d="M43.3547 36.4782H40.6565H37.1546V39.0318H40.6061C40.2954 39.861 39.7056 40.5536 38.9508 40.9963C38.3823 41.33 37.7198 41.5211 37.0126 41.5211C35.3674 41.5211 33.9641 40.4855 33.4188 39.0308C33.2613 38.6119 33.1756 38.158 33.1756 37.6841C33.1756 37.2475 33.2486 36.828 33.3827 36.4371C33.9005 34.9302 35.3302 33.8471 37.0126 33.8471C37.7577 33.8471 38.4532 34.0595 39.0417 34.4274L41.1328 32.7155C40.0148 31.7874 38.5789 31.2295 37.0128 31.2295C34.5182 31.2295 32.3541 32.6445 31.2798 34.7158C30.8184 35.6045 30.5581 36.6138 30.5581 37.6843C30.5581 38.7913 30.8365 39.8329 31.3274 40.7432C32.4177 42.7651 34.5548 44.1389 37.0129 44.1389C38.5426 44.1389 39.9477 43.607 41.0538 42.7178C42.1912 41.8035 43.0122 40.5115 43.3264 39.0319C43.419 38.5972 43.4676 38.1462 43.4676 37.6842C43.4675 37.2719 43.4288 36.8687 43.3547 36.4782Z" fill="white"/>
<path d="M25.206 46.872H4.86133C3.75676 46.872 2.86133 45.9766 2.86133 44.872V24.5273L25.206 46.872Z" fill="#4989F8"/>
</svg>
