<svg width="29" height="30" viewBox="0 0 29 30" fill="none" xmlns="http://www.w3.org/2000/svg">
<path d="M14.5559 3.36533C14.6856 2.86892 15.3895 2.86644 15.5226 3.36194L17.4969 10.7109C17.5572 10.9352 17.764 11.0884 17.9961 11.0809L26.8092 10.7941C27.3102 10.7778 27.5208 11.4267 27.1058 11.7078L19.7863 16.6646C19.604 16.788 19.5239 17.0162 19.5891 17.2265L22.1941 25.634C22.3379 26.0979 21.8026 26.4737 21.4151 26.1809L14.3345 20.8305C14.1409 20.6842 13.8701 20.6981 13.6925 20.8634L8.44768 25.7437C8.0659 26.099 7.46339 25.7058 7.63488 25.2133L10.4886 17.0174C10.6486 16.558 10.4548 16.0502 10.0295 15.8142L4.74233 12.88C4.17383 12.5645 4.44305 11.6965 5.09031 11.758L11.3406 12.3527C11.829 12.3991 12.279 12.0845 12.4029 11.6098L14.5559 3.36533Z" fill="#FC2133" fill-opacity="0.6"/>
<path d="M15.4414 2.92153C15.0236 1.47731 12.9773 1.4773 12.5595 2.92153L10.3911 10.4174L2.59205 10.1633C1.08941 10.1144 0.457068 12.0605 1.70151 12.9041L8.16044 17.2828L5.50875 24.6216C4.99785 26.0356 6.65331 27.2383 7.84021 26.3155L14.0005 21.5258L20.1607 26.3155C21.3476 27.2383 23.0031 26.0356 22.4922 24.6216L19.8405 17.2828L26.2994 12.9041C27.5438 12.0605 26.9115 10.1144 25.4089 10.1633L17.6098 10.4174L15.4414 2.92153Z" stroke="#031F88" stroke-width="2" stroke-linejoin="round"/>
</svg>
