<svg width="49" height="48" viewBox="0 0 49 48" fill="none" xmlns="http://www.w3.org/2000/svg">
<rect x="0.5" width="48" height="48" rx="8" fill="#EFF2F9"/>
<path d="M23.5489 11.9271C23.8483 11.0057 25.1517 11.0057 25.4511 11.9271L27.6432 18.6738C27.7771 19.0858 28.161 19.3647 28.5943 19.3647H35.6882C36.6569 19.3647 37.0597 20.6044 36.2759 21.1738L30.5369 25.3435C30.1864 25.5981 30.0397 26.0495 30.1736 26.4615L32.3657 33.2082C32.6651 34.1295 31.6106 34.8956 30.8269 34.3262L25.0878 30.1565C24.7373 29.9019 24.2627 29.9019 23.9122 30.1565L18.1731 34.3262C17.3894 34.8956 16.3349 34.1295 16.6343 33.2082L18.8264 26.4615C18.9603 26.0495 18.8136 25.5981 18.4631 25.3435L12.7241 21.1738C11.9403 20.6044 12.3431 19.3647 13.3118 19.3647H20.4057C20.839 19.3647 21.2229 19.0858 21.3568 18.6738L23.5489 11.9271Z" fill="white"/>
</svg>
