<svg width="50" height="50" viewBox="0 0 50 50" fill="none" xmlns="http://www.w3.org/2000/svg">
<rect x="1" y="1" width="48" height="48" rx="3" fill="white" stroke="#EFF2F9" stroke-width="2"/>
<path d="M24.0877 12.0327C24.4411 11.2453 25.5589 11.2453 25.9123 12.0327L28.9267 18.7491C29.0722 19.0731 29.3785 19.2956 29.7316 19.3338L37.0507 20.1252C37.9087 20.218 38.2542 21.2812 37.6145 21.8606L32.1584 26.8029C31.8952 27.0413 31.7782 27.4014 31.851 27.749L33.3601 34.9545C33.537 35.7992 32.6326 36.4563 31.8839 36.027L25.4974 32.3652C25.1893 32.1886 24.8107 32.1886 24.5026 32.3652L18.1161 36.027C17.3674 36.4563 16.463 35.7992 16.6399 34.9545L18.149 27.749C18.2218 27.4014 18.1048 27.0413 17.8416 26.8029L12.3855 21.8606C11.7458 21.2812 12.0913 20.218 12.9493 20.1252L20.2684 19.3338C20.6215 19.2956 20.9278 19.0731 21.0733 18.7491L24.0877 12.0327Z" fill="#FCC12E"/>
</svg>
