<svg width="90" height="100" viewBox="0 0 90 100" fill="none" xmlns="http://www.w3.org/2000/svg">
<g filter="url(#filter0_d)">
<path d="M43.9999 11.1547C45.2375 10.4401 46.7623 10.4401 47.9999 11.1547L78.6409 28.8453C79.8785 29.5598 80.6409 30.8803 80.6409 32.3094V67.6906C80.6409 69.1196 79.8785 70.4401 78.6409 71.1547L47.9999 88.8453C46.7623 89.5598 45.2375 89.5598 43.9999 88.8453L13.3589 71.1547C12.1213 70.4401 11.3589 69.1196 11.3589 67.6906V32.3094C11.3589 30.8803 12.1213 29.5598 13.3589 28.8453L43.9999 11.1547Z" fill="white"/>
<path d="M43.9999 11.1547C45.2375 10.4401 46.7623 10.4401 47.9999 11.1547L78.6409 28.8453C79.8785 29.5598 80.6409 30.8803 80.6409 32.3094V67.6906C80.6409 69.1196 79.8785 70.4401 78.6409 71.1547L47.9999 88.8453C46.7623 89.5598 45.2375 89.5598 43.9999 88.8453L13.3589 71.1547C12.1213 70.4401 11.3589 69.1196 11.3589 67.6906V32.3094C11.3589 30.8803 12.1213 29.5598 13.3589 28.8453L43.9999 11.1547Z" fill="#3962FA" fill-opacity="0.2"/>
<path fill-rule="evenodd" clip-rule="evenodd" d="M76.6409 32.3094L45.9999 14.6188L15.3589 32.3094V67.6906L45.9999 85.3812L76.6409 67.6906V32.3094ZM47.9999 11.1547C46.7623 10.4401 45.2375 10.4401 43.9999 11.1547L13.3589 28.8453C12.1213 29.5598 11.3589 30.8803 11.3589 32.3094V67.6906C11.3589 69.1196 12.1213 70.4401 13.3589 71.1547L43.9999 88.8453C45.2375 89.5598 46.7623 89.5598 47.9999 88.8453L78.6409 71.1547C79.8785 70.4401 80.6409 69.1196 80.6409 67.6906V32.3094C80.6409 30.8803 79.8785 29.5598 78.6409 28.8453L47.9999 11.1547Z" fill="white"/>
<path d="M60 50.6286C60 58.0134 54.0134 64 46.6286 64C39.2437 64 34 58.0134 34 50.6286C34 43.9429 39.9429 38 46.6286 38C54.0134 38 60 43.2437 60 50.6286Z" fill="#3962FA" fill-opacity="0.5"/>
<path fill-rule="evenodd" clip-rule="evenodd" d="M52.7279 46.7071C53.1184 46.3166 53.1184 45.6834 52.7279 45.2929C52.3374 44.9024 51.7042 44.9024 51.3137 45.2929L43.8889 52.7177L40.7071 49.536C40.3166 49.1455 39.6834 49.1455 39.2929 49.536C38.9024 49.9265 38.9024 50.5597 39.2929 50.9502L43.182 54.8393C43.5725 55.2298 44.2057 55.2298 44.5962 54.8393C44.6023 54.8332 44.6083 54.8271 44.6141 54.8209L52.7279 46.7071Z" fill="#031F88"/>
<circle cx="46" cy="50" r="14" stroke="#031F88" stroke-width="2"/>
</g>
<defs>
<filter id="filter0_d" x="0" y="0" width="90" height="100" filterUnits="userSpaceOnUse" color-interpolation-filters="sRGB">
<feFlood flood-opacity="0" result="BackgroundImageFix"/>
<feColorMatrix in="SourceAlpha" type="matrix" values="0 0 0 0 0 0 0 0 0 0 0 0 0 0 0 0 0 0 127 0" result="hardAlpha"/>
<feOffset dx="-1"/>
<feGaussianBlur stdDeviation="5"/>
<feColorMatrix type="matrix" values="0 0 0 0 0.52549 0 0 0 0 0.588235 0 0 0 0 0.619608 0 0 0 0.2 0"/>
<feBlend mode="normal" in2="BackgroundImageFix" result="effect1_dropShadow"/>
<feBlend mode="normal" in="SourceGraphic" in2="effect1_dropShadow" result="shape"/>
</filter>
</defs>
</svg>
