<svg width="90" height="100" viewBox="0 0 90 100" fill="none" xmlns="http://www.w3.org/2000/svg">
<g filter="url(#filter0_d)">
<path d="M44 11.1546C45.2376 10.44 46.7624 10.44 48 11.1545L78.6411 28.8451C79.8787 29.5597 80.6411 30.8802 80.6411 32.3092V67.6904C80.6411 69.1195 79.8787 70.44 78.6411 71.1546L48 88.8451C46.7624 89.5597 45.2376 89.5597 44 88.8451L13.359 71.1546C12.1214 70.44 11.359 69.1195 11.359 67.6904V32.3093C11.359 30.8802 12.1214 29.5597 13.359 28.8451L44 11.1546Z" fill="white"/>
<path d="M44 11.1546C45.2376 10.44 46.7624 10.44 48 11.1545L78.6411 28.8451C79.8787 29.5597 80.6411 30.8802 80.6411 32.3092V67.6904C80.6411 69.1195 79.8787 70.44 78.6411 71.1546L48 88.8451C46.7624 89.5597 45.2376 89.5597 44 88.8451L13.359 71.1546C12.1214 70.44 11.359 69.1195 11.359 67.6904V32.3093C11.359 30.8802 12.1214 29.5597 13.359 28.8451L44 11.1546Z" fill="#3962FA" fill-opacity="0.2"/>
<path fill-rule="evenodd" clip-rule="evenodd" d="M76.6411 32.3092L46 14.6187L15.359 32.3093V67.6904L46 85.381L76.6411 67.6904V32.3092ZM48 11.1545C46.7624 10.44 45.2376 10.44 44 11.1546L13.359 28.8451C12.1214 29.5597 11.359 30.8802 11.359 32.3093V67.6904C11.359 69.1195 12.1214 70.44 13.359 71.1546L44 88.8451C45.2376 89.5597 46.7624 89.5597 48 88.8451L78.6411 71.1546C79.8787 70.44 80.6411 69.1195 80.6411 67.6904V32.3092C80.6411 30.8802 79.8787 29.5597 78.6411 28.8451L48 11.1545Z" fill="white"/>
<path d="M34 41.2803C34 40.1757 34.8954 39.2803 36 39.2803H60.2499V55.3301C60.2499 57.5393 58.4591 59.3301 56.2499 59.3301H49.7215C49.4027 59.3301 49.103 59.4822 48.9146 59.7394L46.7526 62.6924C46.3695 63.2157 45.5975 63.2415 45.1802 62.7451L42.5511 59.6169C42.3957 59.432 42.1786 59.3096 41.94 59.2723L34 58.0312V41.2803Z" fill="#3962FA" fill-opacity="0.5"/>
<rect x="37" y="44.2803" width="16" height="2" rx="1" fill="#031F88"/>
<rect x="37" y="49.2803" width="12" height="2" rx="1" fill="#031F88"/>
<path d="M32 40.2803C32 38.6234 33.3431 37.2803 35 37.2803H57C58.6569 37.2803 60 38.6234 60 40.2803V55.3295C60 56.9863 58.6569 58.3295 57 58.3295H49.7215C49.0839 58.3295 48.4845 58.6335 48.1078 59.148L45.9396 62.1094L43.3098 59.0305C42.9298 58.5857 42.3741 58.3295 41.789 58.3295H35C33.3431 58.3295 32 56.9863 32 55.3295V40.2803Z" stroke="#031F88" stroke-width="2"/>
</g>
<defs>
<filter id="filter0_d" x="0" y="0" width="90" height="100" filterUnits="userSpaceOnUse" color-interpolation-filters="sRGB">
<feFlood flood-opacity="0" result="BackgroundImageFix"/>
<feColorMatrix in="SourceAlpha" type="matrix" values="0 0 0 0 0 0 0 0 0 0 0 0 0 0 0 0 0 0 127 0" result="hardAlpha"/>
<feOffset dx="-1"/>
<feGaussianBlur stdDeviation="5"/>
<feColorMatrix type="matrix" values="0 0 0 0 0.52549 0 0 0 0 0.588235 0 0 0 0 0.619608 0 0 0 0.2 0"/>
<feBlend mode="normal" in2="BackgroundImageFix" result="effect1_dropShadow"/>
<feBlend mode="normal" in="SourceGraphic" in2="effect1_dropShadow" result="shape"/>
</filter>
</defs>
</svg>
