<svg width="90" height="100" viewBox="0 0 90 100" fill="none" xmlns="http://www.w3.org/2000/svg">
<g filter="url(#filter0_d)">
<path d="M43.9999 11.1547C45.2375 10.4401 46.7623 10.4401 47.9999 11.1547L78.6409 28.8453C79.8785 29.5598 80.6409 30.8803 80.6409 32.3094V67.6906C80.6409 69.1196 79.8785 70.4401 78.6409 71.1547L47.9999 88.8453C46.7623 89.5598 45.2375 89.5598 43.9999 88.8453L13.3589 71.1547C12.1213 70.4401 11.3589 69.1196 11.3589 67.6906V32.3094C11.3589 30.8803 12.1213 29.5598 13.3589 28.8453L43.9999 11.1547Z" fill="white"/>
<path d="M43.9999 11.1547C45.2375 10.4401 46.7623 10.4401 47.9999 11.1547L78.6409 28.8453C79.8785 29.5598 80.6409 30.8803 80.6409 32.3094V67.6906C80.6409 69.1196 79.8785 70.4401 78.6409 71.1547L47.9999 88.8453C46.7623 89.5598 45.2375 89.5598 43.9999 88.8453L13.3589 71.1547C12.1213 70.4401 11.3589 69.1196 11.3589 67.6906V32.3094C11.3589 30.8803 12.1213 29.5598 13.3589 28.8453L43.9999 11.1547Z" fill="#3962FA" fill-opacity="0.2"/>
<path fill-rule="evenodd" clip-rule="evenodd" d="M76.6409 32.3094L45.9999 14.6188L15.3589 32.3094V67.6906L45.9999 85.3812L76.6409 67.6906V32.3094ZM47.9999 11.1547C46.7623 10.4401 45.2375 10.4401 43.9999 11.1547L13.3589 28.8453C12.1213 29.5598 11.3589 30.8803 11.3589 32.3094V67.6906C11.3589 69.1196 12.1213 70.4401 13.3589 71.1547L43.9999 88.8453C45.2375 89.5598 46.7623 89.5598 47.9999 88.8453L78.6409 71.1547C79.8785 70.4401 80.6409 69.1196 80.6409 67.6906V32.3094C80.6409 30.8803 79.8785 29.5598 78.6409 28.8453L47.9999 11.1547Z" fill="white"/>
<path opacity="0.8" d="M44.9259 48.9706L31.5 59.9982L34 62.498C34.3606 62.8588 34.6316 62.7991 35.1073 62.9834C35.5829 63.1676 36.0918 63.2505 36.6013 63.2268C37.1109 63.203 37.6098 63.0732 38.0663 62.8455C38.5227 62.6178 38.9266 62.2974 39.2521 61.9046L47.3706 52.0819C47.4911 51.9371 47.6548 51.8346 47.8377 51.7895C48.0207 51.7444 48.2132 51.7591 48.3872 51.8313C49.6808 52.3712 51.0955 52.5542 52.4838 52.3613C53.8722 52.1685 55.1834 51.6067 56.2808 50.7347C57.3782 49.8627 58.2216 48.7123 58.7231 47.4035C59.2246 46.0947 59.3657 44.6753 59.1319 43.2933L54.6173 47.8217C54.5108 47.9277 54.3792 48.0049 54.2348 48.0463C54.0903 48.0876 53.9378 48.0917 53.7913 48.0582L49.5803 47.0805C49.4202 47.0426 49.2739 46.9607 49.1579 46.8441C49.0419 46.7275 48.9608 46.5808 48.9237 46.4205L47.9425 42.2097C47.9096 42.0633 47.914 41.9109 47.9553 41.7666C47.9966 41.6223 48.0735 41.4907 48.179 41.3838L52 37.9998C51.5774 37.9323 52.928 37.5004 52.5 37.4998C46.7336 37.4916 43.2763 42.1172 45.2351 47.8032C45.3788 48.2202 45.2667 48.6906 44.9259 48.9706Z" fill="#3962FA"/>
<path d="M36.4316 65H36.6893C37.4463 64.9644 38.1874 64.7704 38.8647 64.4305C39.542 64.0907 40.1405 63.6125 40.6215 63.027L48.3306 53.6913C50.045 54.2695 51.8879 54.3515 53.6469 53.9279C55.4058 53.5043 57.0093 52.5924 58.2725 51.2972C59.5357 50.002 60.4072 48.3763 60.7866 46.6073C61.1659 44.8384 61.0377 42.9983 60.4167 41.2991C60.3649 41.1622 60.28 41.0403 60.1694 40.9444C60.0588 40.8485 59.9262 40.7816 59.7833 40.7498C59.6405 40.7179 59.4919 40.7221 59.3511 40.7619C59.2102 40.8017 59.0815 40.876 58.9765 40.9779L53.7136 46.2263L50.505 45.4851L49.7637 42.2874L55.0231 37.0354C55.1285 36.9312 55.2058 36.802 55.2478 36.6599C55.2898 36.5178 55.2952 36.3674 55.2635 36.2227C55.2318 36.0779 55.164 35.9435 55.0665 35.832C54.9689 35.7205 54.8447 35.6354 54.7055 35.5848C53.0059 34.9628 51.1652 34.8339 49.3955 35.2128C47.6259 35.5917 45.9994 36.463 44.7036 37.7263C43.4077 38.9896 42.4953 40.5933 42.0716 42.3527C41.6479 44.112 41.7301 45.9553 42.3088 47.6699L32.9724 55.3855C32.1103 56.0973 31.4889 57.0579 31.1933 58.136C30.8976 59.2141 30.9421 60.3573 31.3205 61.4092C31.699 62.4612 32.3931 63.3706 33.3079 64.0133C34.2227 64.656 35.3136 65.0006 36.4316 65ZM34.0949 56.7444L43.9184 48.6264C44.0644 48.5061 44.1677 48.3417 44.2128 48.158C44.258 47.9742 44.2426 47.7807 44.169 47.6064C43.6745 46.4151 43.4818 45.1202 43.6079 43.8366C43.7341 42.5529 44.1751 41.3203 44.892 40.248C45.6089 39.1757 46.5794 38.297 47.7174 37.6898C48.8554 37.0826 50.1258 36.7656 51.4157 36.7671C51.8436 36.7678 52.2709 36.802 52.6935 36.8695L48.1788 41.3838C48.0734 41.4907 47.9965 41.6223 47.9552 41.7666C47.9139 41.9109 47.9095 42.0633 47.9423 42.2097L48.9236 46.4205C48.9607 46.5807 49.0418 46.7275 49.1578 46.8441C49.2738 46.9607 49.4201 47.0426 49.5802 47.0805L53.7912 48.0582C53.9377 48.0917 54.0902 48.0876 54.2347 48.0463C54.3791 48.0049 54.5107 47.9277 54.6172 47.8217L59.1318 43.2933C59.3656 44.6753 59.2244 46.0946 58.723 47.4035C58.2215 48.7123 57.3781 49.8627 56.2807 50.7347C55.1833 51.6067 53.8721 52.1684 52.4837 52.3613C51.0953 52.5542 49.6807 52.3711 48.3871 51.8313C48.2131 51.759 48.0205 51.7444 47.8376 51.7895C47.6547 51.8346 47.491 51.937 47.3705 52.0819L39.252 61.9046C38.9265 62.2973 38.5226 62.6178 38.0662 62.8455C37.6097 63.0732 37.1107 63.203 36.6012 63.2268C36.0917 63.2505 35.5828 63.1676 35.1071 62.9833C34.6315 62.7991 34.1996 62.5176 33.839 62.1568C33.4784 61.796 33.1972 61.3639 33.0132 60.8882C32.8293 60.4124 32.7467 59.9035 32.7708 59.394C32.7949 58.8846 32.9251 58.3857 33.1531 57.9294C33.3811 57.4732 33.7019 57.0695 34.0949 56.7444Z" fill="#031F88" stroke="#031F88" stroke-width="0.2"/>
</g>
<defs>
<filter id="filter0_d" x="0" y="0" width="90" height="100" filterUnits="userSpaceOnUse" color-interpolation-filters="sRGB">
<feFlood flood-opacity="0" result="BackgroundImageFix"/>
<feColorMatrix in="SourceAlpha" type="matrix" values="0 0 0 0 0 0 0 0 0 0 0 0 0 0 0 0 0 0 127 0" result="hardAlpha"/>
<feOffset dx="-1"/>
<feGaussianBlur stdDeviation="5"/>
<feColorMatrix type="matrix" values="0 0 0 0 0.52549 0 0 0 0 0.588235 0 0 0 0 0.619608 0 0 0 0.2 0"/>
<feBlend mode="normal" in2="BackgroundImageFix" result="effect1_dropShadow"/>
<feBlend mode="normal" in="SourceGraphic" in2="effect1_dropShadow" result="shape"/>
</filter>
</defs>
</svg>
