<svg width="90" height="100" viewBox="0 0 90 100" fill="none" xmlns="http://www.w3.org/2000/svg">
<g filter="url(#filter0_d)">
<path d="M43.9999 11.1547C45.2375 10.4401 46.7623 10.4401 47.9999 11.1547L78.6409 28.8453C79.8785 29.5598 80.6409 30.8803 80.6409 32.3094V67.6906C80.6409 69.1196 79.8785 70.4401 78.6409 71.1547L47.9999 88.8453C46.7623 89.5598 45.2375 89.5598 43.9999 88.8453L13.3589 71.1547C12.1213 70.4401 11.3589 69.1196 11.3589 67.6906V32.3094C11.3589 30.8803 12.1213 29.5598 13.3589 28.8453L43.9999 11.1547Z" fill="white"/>
<path d="M43.9999 11.1547C45.2375 10.4401 46.7623 10.4401 47.9999 11.1547L78.6409 28.8453C79.8785 29.5598 80.6409 30.8803 80.6409 32.3094V67.6906C80.6409 69.1196 79.8785 70.4401 78.6409 71.1547L47.9999 88.8453C46.7623 89.5598 45.2375 89.5598 43.9999 88.8453L13.3589 71.1547C12.1213 70.4401 11.3589 69.1196 11.3589 67.6906V32.3094C11.3589 30.8803 12.1213 29.5598 13.3589 28.8453L43.9999 11.1547Z" fill="#3962FA" fill-opacity="0.2"/>
<path fill-rule="evenodd" clip-rule="evenodd" d="M76.6409 32.3094L45.9999 14.6188L15.3589 32.3094V67.6906L45.9999 85.3812L76.6409 67.6906V32.3094ZM47.9999 11.1547C46.7623 10.4401 45.2375 10.4401 43.9999 11.1547L13.3589 28.8453C12.1213 29.5598 11.3589 30.8803 11.3589 32.3094V67.6906C11.3589 69.1196 12.1213 70.4401 13.3589 71.1547L43.9999 88.8453C45.2375 89.5598 46.7623 89.5598 47.9999 88.8453L78.6409 71.1547C79.8785 70.4401 80.6409 69.1196 80.6409 67.6906V32.3094C80.6409 30.8803 79.8785 29.5598 78.6409 28.8453L47.9999 11.1547Z" fill="white"/>
<path opacity="0.8" d="M46.6524 38.3283C46.782 37.8317 47.4861 37.8293 47.6192 38.3249L49.7334 46.203C49.7936 46.4273 50.0005 46.5807 50.2326 46.5731L59.6431 46.2665C60.144 46.2502 60.3548 46.8989 59.94 47.1801L52.14 52.4679C51.9508 52.5962 51.8726 52.8366 51.9504 53.0516L55.1526 61.9142C55.3229 62.3855 54.7711 62.7864 54.3754 62.4788L46.956 56.71C46.7664 56.5626 46.4989 56.5708 46.3187 56.7295L40.0569 62.243C39.6711 62.5828 39.0854 62.1891 39.2543 61.7035L42.3531 52.7943C42.5128 52.3351 42.3192 51.8277 41.8943 51.5916L36.1384 48.3939C35.5702 48.0782 35.8396 47.2105 36.4867 47.2721L43.2819 47.9193C43.7704 47.9658 44.2204 47.651 44.3443 47.1762L46.6524 38.3283Z" fill="#3962FA"/>
<path d="M47.5703 37.8825C47.1525 36.4382 45.1063 36.4382 44.6885 37.8825L42.3848 45.846L34.0991 45.5761C32.5965 45.5271 31.9642 47.4732 33.2086 48.3169L40.0705 52.9687L37.2534 60.7654C36.7425 62.1793 38.3979 63.3821 39.5848 62.4593L46.1294 57.3707L52.674 62.4593C53.8608 63.3821 55.5163 62.1793 55.0054 60.7654L52.1883 52.9687L59.0502 48.3169C60.2946 47.4732 59.6623 45.5271 58.1596 45.5761L49.874 45.846L47.5703 37.8825Z" stroke="#031F88" stroke-width="2" stroke-linejoin="round"/>
</g>
<defs>
<filter id="filter0_d" x="0" y="0" width="90" height="100" filterUnits="userSpaceOnUse" color-interpolation-filters="sRGB">
<feFlood flood-opacity="0" result="BackgroundImageFix"/>
<feColorMatrix in="SourceAlpha" type="matrix" values="0 0 0 0 0 0 0 0 0 0 0 0 0 0 0 0 0 0 127 0" result="hardAlpha"/>
<feOffset dx="-1"/>
<feGaussianBlur stdDeviation="5"/>
<feColorMatrix type="matrix" values="0 0 0 0 0.52549 0 0 0 0 0.588235 0 0 0 0 0.619608 0 0 0 0.2 0"/>
<feBlend mode="normal" in2="BackgroundImageFix" result="effect1_dropShadow"/>
<feBlend mode="normal" in="SourceGraphic" in2="effect1_dropShadow" result="shape"/>
</filter>
</defs>
</svg>
