<svg width="52" height="52" viewBox="0 0 52 52" fill="none" xmlns="http://www.w3.org/2000/svg">
<path d="M14.5441 23H6.75C3.98858 23 1.75 25.2386 1.75 28V41.52C1.75 44.2814 3.98857 46.52 6.75 46.52H9.09895C9.40766 46.52 9.69906 46.6626 9.8885 46.9063L12.2808 49.9842C12.6812 50.4993 13.4596 50.4993 13.8599 49.9842L16.2523 46.9063C16.4417 46.6626 16.7331 46.52 17.0418 46.52H26.75C29.5114 46.52 31.75 44.2814 31.75 41.52V30.3125" stroke="#031F88" stroke-width="3" stroke-linecap="round" stroke-linejoin="round"/>
<path d="M17.85 34.4C17.5739 34.4 17.35 34.6239 17.35 34.9V35.4C17.35 35.6761 17.5739 35.9 17.85 35.9H20.89C20.53 38 18.85 39.5 16.75 39.5C14.29 39.5 12.25 37.46 12.25 35C12.25 32.54 14.29 30.5 16.75 30.5C17.9339 30.5 18.9589 30.9767 19.7254 31.7311C19.8062 31.8106 19.9366 31.8134 20.0168 31.7332L20.8086 30.9414C20.8867 30.8633 20.8869 30.7364 20.8065 30.6607C19.7438 29.6585 18.3567 29 16.75 29C13.45 29 10.75 31.7 10.75 35C10.75 38.3 13.45 41 16.75 41C20.05 41 22.45 38.3 22.45 35V34.9C22.45 34.6239 22.2261 34.4 21.95 34.4H17.85Z" fill="#3962FA" stroke="#3962FA" stroke-width="1.5"/>
<path d="M50.25 7C50.25 3.96243 47.7876 1.5 44.75 1.5H24.75C21.7124 1.5 19.25 3.96243 19.25 7V19.88C19.25 22.9176 21.7124 25.38 24.75 25.38H34.6153C35.3907 25.38 36.1221 25.7397 36.5954 26.3538L38.6576 29.0292C38.8577 29.2888 39.2494 29.2888 39.4496 29.0292L41.5117 26.3538C41.985 25.7397 42.7165 25.38 43.4918 25.38H44.75C47.7876 25.38 50.25 22.9176 50.25 19.88V7Z" stroke="#031F88" stroke-width="3"/>
<path d="M38.1011 8.65816C38.1011 8.9342 37.8773 9.15801 37.6013 9.15813L36.8773 9.15845C35.9179 9.15845 35.7321 9.6144 35.7321 10.2835V11.7589H37.4339C37.7416 11.7589 37.9763 12.0342 37.9276 12.3381L37.7174 13.649C37.6786 13.8915 37.4693 14.0699 37.2237 14.0699H35.7321V19.5C35.7321 19.7761 35.5083 20 35.2321 20H33.8454C33.5692 20 33.3454 19.7761 33.3454 19.5V14.0699H31.85C31.5738 14.0699 31.35 13.846 31.35 13.5699V12.2589C31.35 11.9828 31.5738 11.7589 31.85 11.7589H33.3454V10.0548C33.3454 8.077 34.5535 7 36.3179 7L37.602 7.00204C37.8778 7.00248 38.1012 7.22623 38.1012 7.50207L38.1011 8.65816Z" fill="#3962FA" stroke="#3962FA" stroke-width="0.6"/>
</svg>
