<svg width="26" height="26" viewBox="0 0 26 26" fill="none" xmlns="http://www.w3.org/2000/svg">
<rect x="3" y="17.5" width="13" height="17" rx="4" transform="rotate(-90 3 17.5)" fill="#FED3D6"/>
<rect x="3.5" y="17" width="12" height="16" rx="3.5" transform="rotate(-90 3.5 17)" stroke="#031F88"/>
<rect x="6" y="21.5" width="13" height="17" rx="4" transform="rotate(-90 6 21.5)" fill="#FED3D6"/>
<path d="M8.5 20.5C7.94772 20.5 7.5 20.0523 7.5 19.5L7.5 13C7.5 11.3431 8.84315 10 10.5 10L19 10C20.6569 10 22 11.3431 22 13L22 17.5C22 19.1569 20.6569 20.5 19 20.5L8.5 20.5Z" fill="#FC2133"/>
<rect x="6.5" y="21" width="12" height="16" rx="3.5" transform="rotate(-90 6.5 21)" stroke="#031F88"/>
<circle cx="14.5" cy="15" r="2" stroke="#031F88"/>
</svg>
