<svg width="16" height="14" viewBox="0 0 16 14" fill="none" xmlns="http://www.w3.org/2000/svg">
<path fill-rule="evenodd" clip-rule="evenodd" d="M0 2C0 1.17157 0.671573 0.5 1.5 0.5H11.5C12.3284 0.5 13 1.17157 13 2V3.5H14.5C15.3284 3.5 16 4.17157 16 5V12C16 12.8284 15.3284 13.5 14.5 13.5H4.5C3.67157 13.5 3 12.8284 3 12V10.5H1.5C0.671573 10.5 0 9.82843 0 9V2ZM12 2V3.5H4.5C3.67157 3.5 3 4.17157 3 5V9.5H1.5C1.22386 9.5 1 9.27614 1 9V2C1 1.72386 1.22386 1.5 1.5 1.5H11.5C11.7761 1.5 12 1.72386 12 2ZM4.5 4.5C4.22386 4.5 4 4.72386 4 5V12C4 12.2761 4.22386 12.5 4.5 12.5H14.5C14.7761 12.5 15 12.2761 15 12V5C15 4.72386 14.7761 4.5 14.5 4.5H4.5ZM11 8.5C11 9.32843 10.3284 10 9.5 10C8.67157 10 8 9.32843 8 8.5C8 7.67157 8.67157 7 9.5 7C10.3284 7 11 7.67157 11 8.5ZM12 8.5C12 9.88071 10.8807 11 9.5 11C8.11929 11 7 9.88071 7 8.5C7 7.11929 8.11929 6 9.5 6C10.8807 6 12 7.11929 12 8.5Z" fill="#86969E"/>
</svg>
