<svg width="193" height="179" viewBox="0 0 193 179" fill="none" xmlns="http://www.w3.org/2000/svg">
<path d="M27.0527 48.1445H172.602" stroke="#C3C9ED" stroke-width="0.66" stroke-miterlimit="10"/>
<path d="M170.815 34.9414H28.8393C27.8526 34.9414 27.0527 35.7431 27.0527 36.7321V119.194C27.0527 120.183 27.8526 120.985 28.8393 120.985H170.815C171.802 120.985 172.602 120.183 172.602 119.194V36.7321C172.602 35.7431 171.802 34.9414 170.815 34.9414Z" stroke="#C3C9ED" stroke-width="0.66" stroke-miterlimit="10"/>
<path d="M45.4377 23.0508H16.4116C14.4756 23.0508 12.9062 24.6238 12.9062 26.5641V53.4357C12.9062 55.376 14.4756 56.949 16.4116 56.949H45.4377C47.3736 56.949 48.943 55.376 48.943 53.4357V26.5641C48.943 24.6238 47.3736 23.0508 45.4377 23.0508Z" fill="#F8632D"/>
<path d="M37.2622 35.3501C36.905 34.9903 36.4803 34.7048 36.0127 34.51C35.545 34.3151 35.0436 34.2148 34.5371 34.2148C34.0307 34.2148 33.5292 34.3151 33.0616 34.51C32.5939 34.7048 32.1693 34.9903 31.812 35.3501L30.8283 36.3588L29.8219 35.3614C29.4611 35.005 29.0338 34.7232 28.5643 34.5323C28.0948 34.3414 27.5925 34.245 27.0858 34.2487C26.5792 34.2524 26.0783 34.3561 25.6116 34.5538C25.145 34.7515 24.7217 35.0394 24.3661 35.4011C24.0105 35.7628 23.7294 36.1911 23.5389 36.6616C23.3484 37.1322 23.2523 37.6357 23.256 38.1435C23.2596 38.6513 23.3631 39.1534 23.5603 39.6211C23.7576 40.0888 24.0449 40.513 24.4057 40.8695L28.1371 44.6208C28.7084 45.1875 29.4452 45.5568 30.2403 45.6748C30.855 45.7726 31.4841 45.7206 32.0745 45.5234C32.6649 45.3261 33.1993 44.9893 33.6325 44.5415L37.3188 40.8015C37.6724 40.4399 37.9514 40.0121 38.1399 39.5423C38.3285 39.0726 38.4228 38.5703 38.4176 38.064C38.4123 37.5578 38.3076 37.0575 38.1093 36.5918C37.9111 36.1262 37.6232 35.7042 37.2622 35.3501Z" fill="white"/>
<path d="M180.007 18.8125H138.792C137.886 18.8125 137.152 19.5482 137.152 20.4558V53.4248C137.152 54.3324 137.886 55.0681 138.792 55.0681H180.007C180.913 55.0681 181.647 54.3324 181.647 53.4248V20.4558C181.647 19.5482 180.913 18.8125 180.007 18.8125Z" fill="white"/>
<path d="M180.007 18.8125H138.792C137.886 18.8125 137.152 19.5482 137.152 20.4558V53.4248C137.152 54.3324 137.886 55.0681 138.792 55.0681H180.007C180.913 55.0681 181.647 54.3324 181.647 53.4248V20.4558C181.647 19.5482 180.913 18.8125 180.007 18.8125Z" stroke="#C3C9ED" stroke-width="0.66" stroke-miterlimit="10"/>
<path d="M163.285 0H122.069C121.164 0 120.43 0.735751 120.43 1.64335V34.6123C120.43 35.5199 121.164 36.2556 122.069 36.2556H163.285C164.19 36.2556 164.924 35.5199 164.924 34.6123V1.64335C164.924 0.735751 164.19 0 163.285 0Z" fill="#3962FA"/>
<path d="M136.982 24.9336C137.282 24.9336 137.57 25.053 137.782 25.2655C137.994 25.4781 138.113 25.7664 138.113 26.0669C138.113 26.3675 137.994 26.6558 137.782 26.8683C137.57 27.0809 137.282 27.2003 136.982 27.2003C136.682 27.2003 136.395 27.0809 136.183 26.8683C135.971 26.6558 135.852 26.3675 135.852 26.0669C135.852 25.7664 135.971 25.4781 136.183 25.2655C136.395 25.053 136.682 24.9336 136.982 24.9336Z" fill="white"/>
<path d="M148.256 24.9336C148.479 24.9336 148.698 25.0001 148.884 25.1246C149.07 25.2491 149.215 25.4261 149.3 25.6332C149.386 25.8403 149.408 26.0682 149.365 26.288C149.321 26.5079 149.213 26.7098 149.055 26.8683C148.897 27.0268 148.696 27.1348 148.476 27.1785C148.257 27.2222 148.03 27.1998 147.823 27.114C147.616 27.0282 147.44 26.883 147.316 26.6966C147.191 26.5102 147.125 26.2911 147.125 26.0669C147.125 25.7664 147.244 25.4781 147.456 25.2655C147.668 25.053 147.956 24.9336 148.256 24.9336Z" fill="white"/>
<path d="M151.638 13.5998H136.69L136.181 11.7978C136.028 11.0315 135.616 10.3416 135.015 9.8441C134.413 9.34663 133.659 9.07199 132.879 9.06641H131.342C131.042 9.06641 130.754 9.18581 130.542 9.39835C130.33 9.6109 130.211 9.89917 130.211 10.1997C130.211 10.5003 130.33 10.7886 130.542 11.0011C130.754 11.2137 131.042 11.3331 131.342 11.3331H132.879C133.157 11.3311 133.426 11.4316 133.635 11.6156C133.843 11.7995 133.977 12.054 134.01 12.3304L135.876 22.7912C135.914 23.0635 136.05 23.3125 136.258 23.4918C136.466 23.6712 136.732 23.7686 137.007 23.7658H149.445C149.697 23.7759 149.946 23.701 150.151 23.5531C150.355 23.4053 150.505 23.1929 150.576 22.9498L152.837 15.0164C152.886 14.8475 152.895 14.6695 152.864 14.4964C152.833 14.3233 152.761 14.1599 152.656 14.0191C152.536 13.8681 152.38 13.7504 152.202 13.677C152.024 13.6036 151.83 13.577 151.638 13.5998ZM148.529 21.5332H137.957L137.154 15.8665H150.146L148.529 21.5332Z" fill="white"/>
<path d="M93.9251 133.566L86.0099 162.659C85.5713 164.3 85.4717 166.012 85.7172 167.693C85.9627 169.373 86.5481 170.985 87.4374 172.431C88.3268 173.876 89.5015 175.124 90.8893 176.098C92.2771 177.072 93.8489 177.752 95.5081 178.095C98.7379 178.765 102.101 178.122 104.857 176.307C107.614 174.492 109.539 171.654 110.208 168.417L116.585 137.352L93.9251 133.566Z" fill="#E3AF9A"/>
<path d="M119.445 106.081C119.038 106.081 105.334 102.59 97.9611 112.178C90.5887 121.766 89.3223 135.242 89.3223 135.242C89.3223 135.242 103.57 143.3 111.564 143.492L119.445 106.081Z" fill="#1D0300"/>
<path d="M116.133 106.308L102.609 131.071L104.656 173.934H177.182L166.078 122.141L139.211 103.758L116.133 106.308Z" fill="#1D0300"/>
<path d="M97.4971 161.183C96.8639 160.276 76.1374 120.02 76.1374 120.02L63.2695 121.074L79.0208 178.341H95.5635L97.4971 161.183Z" fill="#E3AF9A"/>
<path d="M44.8972 116.566L67.2927 103.606C68.5312 102.89 68.9555 101.302 68.2405 100.061L61.0489 87.5762C60.3339 86.3349 58.7502 85.9096 57.5118 86.6263L35.1163 99.586C33.8778 100.303 33.4535 101.89 34.1685 103.131L41.36 115.616C42.0751 116.857 43.6587 117.283 44.8972 116.566Z" fill="#3962FA"/>
<path d="M62.0373 89.2969L35.25 105.005L36.4034 107.011L63.1228 91.1782L62.0373 89.2969Z" fill="white"/>
<path d="M76.1387 120.021C76.1387 120.021 74.3748 107.384 65.8603 104.732C61.4165 103.35 59.3472 102.896 57.3345 102.352C56.9631 102.293 56.5836 102.307 56.2178 102.396C55.8521 102.484 55.5074 102.643 55.2036 102.866C54.8998 103.088 54.6429 103.368 54.4478 103.691C54.2526 104.013 54.1231 104.371 54.0666 104.744C54.0668 105.067 54.1389 105.387 54.2778 105.679C54.4167 105.971 54.6188 106.228 54.8695 106.432L58.2617 108.858L48.8652 114.298L63.3048 121.098L76.1387 120.021Z" fill="#E3AF9A"/>
<path d="M129.476 178.341H84.9922V172.855H124.941C125.461 172.854 125.971 172.997 126.414 173.269C126.858 173.542 127.217 173.932 127.452 174.397L129.476 178.341Z" fill="#D7DAE0"/>
<path d="M1.29405 130.686L18.9902 178.343H94.976L75.9909 129.609C75.5403 128.737 74.8588 128.005 74.0211 127.496C73.1834 126.986 72.2218 126.717 71.2417 126.719H3.72514C3.25808 126.716 2.79806 126.833 2.38961 127.06C1.98116 127.287 1.6381 127.616 1.39362 128.015C1.14914 128.414 1.01152 128.869 0.994081 129.337C0.976637 129.805 1.07996 130.269 1.29405 130.686Z" fill="#EFF2F9"/>
<path d="M48.605 149.317C49.4001 150.559 49.674 152.065 49.3669 153.509C49.0599 154.952 48.1968 156.215 46.9654 157.024C45.6407 157.614 44.1452 157.691 42.767 157.241C41.3887 156.792 40.2253 155.847 39.5007 154.589C38.7762 153.33 38.5418 151.848 38.8428 150.427C39.1437 149.006 39.9587 147.747 41.1308 146.892C42.4432 146.222 43.9669 146.102 45.368 146.556C46.7691 147.011 47.9331 148.004 48.605 149.317Z" fill="white"/>
<path d="M153.379 129.349L168.859 169.594C170.668 174.83 172.941 178.343 178.47 178.343C180.613 178.345 182.723 177.815 184.611 176.801C186.5 175.787 188.11 174.32 189.296 172.532C190.483 170.744 191.209 168.689 191.412 166.551C191.614 164.413 191.286 162.258 190.456 160.278L176.265 123.762L153.379 129.349Z" fill="#E3AF9A"/>
<path d="M134.326 104.858C134.326 104.858 147.16 96.1202 160.695 102.138C174.23 108.156 180.234 126.256 180.234 126.256C170.712 134.007 159.154 138.829 146.957 140.139L134.326 104.858Z" fill="#1D0300"/>
<path d="M179.284 178.344H118.914L120.327 169.889L172.771 156.414L179.284 178.344Z" fill="#E3AF9A"/>
<path d="M129.284 170.329C129.284 170.329 116.19 165.263 109.722 167.711C104.927 169.525 103.333 170.25 101.083 172.301C99.1155 174.092 98.4822 176.835 100.665 178.342H128.775L129.284 170.329Z" fill="#E3AF9A"/>
<path d="M120.936 86.5097C133.378 84.5434 141.947 73.3009 140.075 61.3989C138.202 49.4968 126.598 41.4422 114.156 43.4085C101.713 45.3748 93.1447 56.6173 95.017 68.5194C96.8893 80.4214 108.494 88.476 120.936 86.5097Z" fill="#954B55"/>
<path d="M101.55 80.4244C104.136 78.4358 104.625 74.7221 102.641 72.1296C100.657 69.5371 96.9516 69.0475 94.365 71.0361C91.7785 73.0247 91.29 76.7384 93.274 79.3309C95.258 81.9234 98.9632 82.4129 101.55 80.4244Z" fill="#D89C87"/>
<path d="M112.221 82.6426L118.508 115.294L135.31 104.244L126.287 71.7852L112.221 82.6426Z" fill="#E3AF9A"/>
<path d="M114.889 96.5285C117.937 95.2151 120.488 92.9621 122.172 90.0966C123.856 87.2312 124.584 83.9024 124.252 80.5938L113.137 87.8018L114.889 96.5285Z" fill="#1D0300"/>
<path d="M96.7743 55.1718C95.5201 56.6628 94.8102 58.5376 94.7616 60.4871C94.5241 66.2559 93.8796 76.4446 96.7856 82.0206C100.574 89.3307 107.686 93.8187 117.489 90.294C117.489 90.294 129.396 87.1547 129.475 71.4012C129.588 46.3204 107.686 42.5123 96.7743 55.1718Z" fill="#E3AF9A"/>
<path d="M102.621 74.6523L102.089 77.3384C102.079 77.4966 102.13 77.6526 102.231 77.7747C102.332 77.8968 102.475 77.9758 102.632 77.9957H104.113" stroke="black" stroke-width="0.48" stroke-linecap="round" stroke-linejoin="round"/>
<path d="M110.287 61.3357C110.287 61.3357 106.035 61.2564 106.114 63.1944C106.114 63.1944 106.205 64.5091 109.902 64.4977C113.6 64.4864 115.047 64.1691 115.296 62.9111C115.545 61.6531 112.266 61.1997 110.287 61.3357Z" fill="#1D0300"/>
<path d="M95.2137 63.7849C95.2137 63.7849 98.6964 62.4362 99.4992 64.1702C99.4992 64.1702 100.019 65.3715 96.955 66.4369C94.6936 67.2415 93.789 66.9809 93.4271 66.1762C93.0653 65.3715 93.8907 64.1929 95.2137 63.7849Z" fill="#1D0300"/>
<path d="M110.23 79.7656C109.219 80.5795 108.032 81.1449 106.763 81.4165C105.495 81.6881 104.181 81.6583 102.926 81.3296" stroke="black" stroke-width="0.48" stroke-linecap="round" stroke-linejoin="round"/>
<path d="M96.2547 71.9201C96.3289 72.2093 96.4864 72.4702 96.7077 72.6701C96.929 72.87 97.2041 73.0001 97.4988 73.0442C97.7934 73.0882 98.0945 73.0442 98.3643 72.9177C98.6342 72.7911 98.8608 72.5877 99.0159 72.3328C99.171 72.0778 99.2477 71.7827 99.2363 71.4843C99.225 71.1859 99.1261 70.8975 98.9522 70.6552C98.7782 70.4128 98.5368 70.2272 98.2581 70.1216C97.9795 70.016 97.6759 69.9951 97.3855 70.0614C97.188 70.1065 97.0017 70.1908 96.8373 70.3094C96.673 70.4279 96.534 70.5782 96.4286 70.7515C96.3231 70.9247 96.2535 71.1174 96.2236 71.3182C96.1937 71.5189 96.2043 71.7236 96.2547 71.9201Z" fill="#1D0300"/>
<path d="M107.868 70.1325C107.945 70.4227 108.106 70.6834 108.331 70.8818C108.556 71.0801 108.835 71.2071 109.132 71.2467C109.429 71.2864 109.731 71.2368 110 71.1043C110.269 70.9719 110.493 70.7625 110.643 70.5026C110.793 70.2427 110.863 69.944 110.844 69.6442C110.825 69.3445 110.717 69.0572 110.535 68.8186C110.353 68.5801 110.104 68.401 109.821 68.304C109.537 68.207 109.231 68.1965 108.942 68.2738C108.749 68.3251 108.569 68.4139 108.411 68.5351C108.253 68.6563 108.12 68.8075 108.02 68.9801C107.921 69.1527 107.856 69.3433 107.83 69.541C107.803 69.7388 107.816 69.9397 107.868 70.1325Z" fill="#1D0300"/>
<path d="M127.384 67.7608C126.49 68.3161 109.868 60.1561 117.003 47.168C117.003 47.168 128.22 48.5053 130.38 67.2735L127.384 67.7608Z" fill="#954B55"/>
<path d="M115.317 54.9311C115.317 54.9311 101.307 53.5824 95.0996 58.3311C95.0996 58.3311 95.0996 45.6603 113.191 43.5977L121.491 56.3251L115.317 54.9311Z" fill="#954B55"/>
<path d="M121.084 61.6328L125.109 74.3489L128.253 62.4488L121.084 61.6328Z" fill="#954B55"/>
<path d="M138.691 73.5212C138.498 74.9301 137.893 76.25 136.951 77.3137C136.009 78.3774 134.774 79.1371 133.401 79.4967C132.029 79.8562 130.58 79.7994 129.24 79.3335C127.899 78.8675 126.727 78.0133 125.871 76.8791C125.015 75.7448 124.514 74.3816 124.432 72.9619C124.35 71.5422 124.689 70.1299 125.408 68.9039C126.127 67.6779 127.193 66.6933 128.471 66.0747C129.748 65.4561 131.18 65.2315 132.585 65.4291C133.516 65.5586 134.413 65.8706 135.223 66.3473C136.034 66.8241 136.743 67.4562 137.31 68.2076C137.877 68.959 138.291 69.815 138.528 70.7267C138.765 71.6384 138.82 72.588 138.691 73.5212Z" fill="#E3AF9A"/>
<path d="M134.428 69.9631C133.686 69.8694 132.933 69.9358 132.218 70.1577C131.504 70.3797 130.845 70.7522 130.286 71.2502C129.727 71.7482 129.281 72.3602 128.977 73.0452C128.674 73.7301 128.52 74.4723 128.526 75.2218" stroke="black" stroke-width="0.48" stroke-linecap="round" stroke-linejoin="round"/>
<path d="M143.644 67.7954C151.063 67.7954 157.077 61.7673 157.077 54.3313C157.077 46.8953 151.063 40.8672 143.644 40.8672C136.225 40.8672 130.211 46.8953 130.211 54.3313C130.211 61.7673 136.225 67.7954 143.644 67.7954Z" fill="#954B55"/>
<path d="M9.33398 178.613H192.616" stroke="#1C2337" stroke-width="0.69" stroke-linecap="round" stroke-linejoin="round"/>
</svg>
