<svg width="245" height="148" viewBox="0 0 245 148" fill="none" xmlns="http://www.w3.org/2000/svg">
<circle cx="171.308" cy="73.6912" r="72.6913" fill="#EDF1FF" stroke="#3962FA" stroke-width="2"/>
<mask id="mask0" style="mask-type:alpha" maskUnits="userSpaceOnUse" x="99" y="1" width="145" height="145">
<circle cx="171.309" cy="73.6913" r="72.0537" fill="#DEF5EE"/>
<circle cx="171.309" cy="73.6913" r="71.0537" stroke="#86969E" stroke-opacity="0.2" stroke-width="2"/>
</mask>
<g mask="url(#mask0)">
<path d="M125.922 85.4102C135.515 73.6205 149.502 71.5572 149.502 71.5572C149.502 71.5572 155.358 85.7326 169.734 84.8207C188.321 83.6418 192.569 68.3151 192.569 68.3151C192.569 68.3151 209.903 73.0138 217.588 83.6418C221.922 89.6354 227.145 98.11 230.262 106.927L221.714 107.516C225.247 120.55 207.566 147.012 207.566 147.012H140.954L140.07 124.022L125.333 101.621L116.785 97.4947C118.77 93.7571 122.13 90.0702 125.922 85.4102Z" fill="white"/>
<path d="M173.965 40.0196L178.976 50.0409C178.976 50.0409 179.819 55.845 181.039 58.2937C182.21 60.6429 183.162 62.059 185.166 63.8939C188.013 66.5014 194.008 68.315 194.008 68.315C194.008 68.315 189.57 84.2823 172.492 85.1154C148.323 86.2944 149.502 71.2625 149.502 71.2625L159.228 67.7255V61.2412C169.479 60.0898 172.786 56.82 173.965 52.3988C175.144 47.9777 173.965 40.0196 173.965 40.0196Z" fill="#F6B192"/>
<path d="M170.723 58.5886L159.228 60.357V66.5467C159.228 66.5467 163.568 65.24 166.597 63.894C171.313 61.798 170.723 58.5886 170.723 58.5886Z" fill="#F18E73"/>
<path d="M178.315 13.6856C174.385 8.66369 167.872 13.2073 159.212 14.2994C150.552 15.3915 145.936 9.18201 142.34 14.15C138.743 19.118 147.144 24.6929 147.144 24.6929C147.144 24.6929 144.196 26.0752 144.196 29.114C144.196 33.83 149.502 41.1986 149.502 41.1986C149.502 41.1986 149.137 51.8034 152.453 56.4818C159.166 65.9514 173.376 62.1254 179.454 52.545C181.74 48.9414 180.814 42.7803 179.931 39.0392C179.431 36.9231 178.829 34.3682 180.506 32.9846C180.596 32.9103 180.691 32.84 180.792 32.7745C182.323 31.784 183.393 31.4199 183.987 30.2931C185.688 27.0656 185.934 23.7059 184.576 21.156C183.314 18.7864 180.45 18.5033 180.45 18.5033C180.45 18.5033 180.181 16.0702 178.315 13.6856Z" fill="#F7B293"/>
<path d="M188.058 32.1592C185.361 29.9663 179.854 31.8498 179.127 34.2787C178.4 36.7077 181.635 45.2579 181.635 45.2579C181.635 45.2579 186.295 45.222 189.07 42.4042C191.844 39.5864 190.755 34.3521 188.058 32.1592Z" fill="#F7B293"/>
<line x1="0.75" y1="-0.75" x2="6.44562" y2="-0.75" transform="matrix(-0.58963 0.807673 0.807673 0.58963 186.032 35.3438)" stroke="#F59C7F" stroke-width="1.5" stroke-linecap="round"/>
<path d="M187.015 39.026C185.141 38.9721 183.432 39.9622 181.694 40.8765" stroke="#F59C7F" stroke-width="1.5" stroke-linecap="round"/>
<path d="M148.322 37.0334C148.322 36.6998 148.522 36.3975 148.832 36.273C150.531 35.5894 151.761 35.2762 153.561 35.0917C154.074 35.0392 154.512 35.448 154.512 35.9631C154.512 36.4237 154.158 36.8057 153.7 36.8556C152.079 37.0322 150.922 37.3011 149.462 37.8212C148.911 38.0174 148.322 37.6181 148.322 37.0334Z" fill="#3E1908"/>
<path d="M159.743 35.1541C159.472 34.6127 159.746 33.9552 160.325 33.7784C162.539 33.102 164.091 32.8196 166.364 33.1545C166.683 33.2015 166.933 33.4487 166.996 33.7647C167.094 34.2539 166.716 34.7077 166.217 34.7179C163.655 34.7707 162.423 35.1788 160.903 35.6525C160.446 35.7948 159.957 35.5819 159.743 35.1541Z" fill="#3E1908"/>
<ellipse cx="152.744" cy="39.725" rx="1.47372" ry="1.76846" fill="#130502"/>
<ellipse cx="163.944" cy="37.9567" rx="1.47372" ry="1.76846" fill="#130502"/>
<path d="M157.459 39.7251C157.459 39.7251 154.551 44.2253 155.691 46.5042C156.428 47.9779 158.049 47.3884 158.049 47.3884" stroke="#F59C7F" stroke-width="2" stroke-linecap="round" stroke-linejoin="round"/>
<path d="M153.923 54.757L153.552 51.9747C153.425 51.0236 153.991 50.1165 154.902 49.813L164.491 46.6167C165.235 46.3687 166.055 46.5784 166.589 47.1532L169.544 50.3359C169.544 50.3359 176.228 48.0876 177.207 44.441C177.625 42.8846 177.207 40.3146 177.207 40.3146H180.155C180.155 40.3146 181.471 43.1074 181.629 45.0305C181.916 48.5497 180.657 50.6519 178.681 53.5781C175.277 58.6183 171.382 60.6381 165.418 61.8309C156.575 63.5994 151.859 55.6413 151.859 55.6413L153.923 54.757Z" fill="#562104"/>
<path d="M158.639 52.6936C161.399 53.2773 163.771 52.3725 165.123 49.7462" stroke="#F59C7F" stroke-width="2" stroke-linecap="round"/>
<path d="M141.543 15.8508C143.607 8.4822 150.536 14.377 156.87 14.3771C163.944 14.3771 169.899 10.6377 174.555 11.4296C180.044 12.3635 180.45 18.5034 180.45 18.5034C181.933 18.0793 184.182 19.3802 185.165 22.3351C185.956 24.7106 185.991 28.4678 183.692 30.8826C182.117 32.5375 179.861 35.3038 179.861 35.3038L180.155 40.3144H177.208L176.913 32.9458C176.913 32.9458 174.996 31.2774 171.903 30.8826C168.81 30.4878 167.545 31.9306 166.597 30.2931C165.381 28.1915 166.008 24.1035 166.008 24.1035C166.008 24.1035 163.384 26.3599 159.229 27.3457C155.369 28.2613 150.092 27.051 148.323 31.1774C147.285 33.6005 149.618 39.8983 150.092 40.6092C150.565 41.32 149.895 41.7882 149.502 41.1987C148.04 39.0052 143.442 32.7499 144.197 28.2299C144.655 25.484 147.144 24.693 147.144 24.693C147.144 24.693 140.233 20.5319 141.543 15.8508Z" fill="#562104"/>
<path d="M143.312 73.0312L145.965 72.1469L150.091 70.968V96.9054H143.607L143.312 73.0312Z" fill="#CCD6FA"/>
<path d="M195.187 68.9044L200.787 70.9676C195.327 83.0521 193.928 86.8237 193.279 98.0841H186.64C187.833 85.0768 189.278 80.322 195.187 68.9044Z" fill="#CCD6FA"/>
<path d="M122.385 100.147L141.839 108.99C141.839 108.99 133.88 141.412 123.27 145.538C112.659 149.664 79.6475 130.506 79.6475 130.506L69.6262 129.622C67.637 128.828 66.888 127.822 66.0893 125.201C62.9721 122.99 62.069 121.762 62.5524 119.6C60.9233 116.733 59.9864 115.125 59.6049 112.232C57.6735 110.203 56.2584 107.889 57.5417 106.926C58.8249 105.964 63.1418 111.937 63.1418 111.937H65.7945C65.7945 111.937 66.6787 110.463 68.4472 111.642C70.2157 112.821 74.4951 113.05 78.1737 115.474C81.6404 117.759 84.0686 122.548 84.0686 122.548L114.722 128.148L122.385 100.147Z" fill="#F6B192"/>
<path d="M114.832 127.874C116.872 130.098 118.199 130.437 120.726 130.232" stroke="#F18E73" stroke-linecap="round"/>
<path d="M130.923 100.211C130.861 113.354 132.157 121.719 133.586 132.569C135.723 127.874 136.82 125.169 138.596 120.19L162.47 103.979C153.373 103.811 136.725 100.255 132.133 99.2381C131.51 99.1 130.926 99.5728 130.923 100.211Z" fill="#F18E73"/>
<path d="M162.47 103.979C153.388 103.727 136.748 100.236 132.142 99.2347C131.516 99.0987 130.932 99.5779 130.932 100.219L130.933 103.979L144.491 110.169L162.47 103.979Z" fill="#EAE8E8"/>
<path d="M136.828 92.9088C136.828 92.1688 137.606 91.6717 138.285 91.9659C142.459 93.7749 155.07 98.6737 169.249 98.6737C182.279 98.6737 191.344 95.1988 195.07 93.4563C195.838 93.0973 196.778 93.7446 196.659 94.5836C195.694 101.415 192.916 123.029 195.187 131.096C197.489 139.274 207.861 147.012 207.861 147.012H140.387C137.168 129.36 136.844 110.703 136.828 92.9088Z" fill="#CCD6FA"/>
<path d="M152.744 126.38C152.154 126.085 151.565 109.579 151.565 109.579C162.419 110.248 168.557 110.221 179.566 109.579L180.155 136.401" stroke="#3962FA" stroke-width="2" stroke-linecap="round" stroke-linejoin="round"/>
<path d="M155.986 114.295C163.814 115.093 168.2 115.17 176.028 114.295" stroke="#3962FA" stroke-width="2" stroke-linecap="round" stroke-linejoin="round"/>
<path d="M202.556 108.695L227.314 106.926L225.251 136.106L226.135 171.475L209.335 172.065C209.335 172.065 209.906 150.226 208.156 136.401C206.77 125.45 202.556 108.695 202.556 108.695Z" fill="#F6B192"/>
<path d="M202.556 108.253L227.314 106.926L226.725 113.558L204.029 114.295L202.556 108.253Z" fill="#F18E73"/>
<path d="M221.036 137.714C220.785 137.6 220.489 137.711 220.374 137.962C220.26 138.214 220.371 138.51 220.623 138.625L221.036 137.714ZM220.623 138.625C221.616 139.076 222.382 139.077 223.116 138.965C223.861 138.852 224.415 138.669 225.251 138.669V137.669C224.319 137.669 223.547 137.889 222.966 137.977C222.375 138.066 221.814 138.067 221.036 137.714L220.623 138.625Z" fill="#F18E73"/>
</g>
<path d="M116.859 120.362L133.235 133.054C132.955 132.258 132.825 140.423 123 145.745C112.389 149.871 79.6475 130.506 79.6475 130.506L69.6262 129.622C67.6369 128.828 66.888 127.822 66.0893 125.201C62.972 122.99 62.069 121.762 62.5523 119.6C60.9232 116.733 59.9863 115.125 59.6049 112.232C57.6735 110.203 56.2584 107.889 57.5416 106.926C58.8248 105.964 63.1418 111.937 63.1418 111.937H65.7945C65.7945 111.937 66.6787 110.463 68.4472 111.642C70.2156 112.821 74.495 113.05 78.1737 115.474C81.6404 117.759 84.0686 122.548 84.0686 122.548L114.722 128.148L116.859 120.362Z" fill="#F6B192"/>
<path d="M68.8638 115.501C71.1011 117.805 72.5357 118.418 75.3481 118.448" stroke="#F18E73" stroke-linecap="round"/>
<path d="M114.832 127.874C116.872 130.098 118.199 130.438 120.726 130.232" stroke="#F18E73" stroke-linecap="round"/>
<path d="M67.5094 123.732C67.5094 123.732 75.5209 121.074 75.8158 122.548C76.0211 123.574 73.4994 124.831 72.2789 125.79C71.1887 126.646 71.6894 127.853 71.6894 127.853" stroke="#F18E73"/>
<path d="M64.91 124.022C64.91 124.022 61.8151 121.369 62.8466 120.19C64.9098 117.832 65.4992 116.358 67.2674 117.243C69.6256 119.011 66.3834 121.664 66.3834 121.664" stroke="#F18E73" stroke-linecap="round"/>
<path d="M59.8992 112.232C61.7532 110.829 63.7309 111.053 64.3206 115.474" stroke="#F18E73" stroke-linecap="round"/>
<path d="M55.773 104.274C53.7098 101.916 56.6574 100.147 56.6574 100.147L74.3421 122.548C74.3421 122.548 71.3946 124.611 69.626 121.959C67.8573 119.306 57.8362 106.632 55.773 104.274Z" fill="black"/>
<path d="M56.8591 71.3895C56.8591 75.1642 54.9632 81.2172 53.5839 84.4902C52.4286 87.2315 52.3524 90.7204 53.1393 94.2525C53.3079 95.0095 52.6328 95.7086 51.8815 95.5162C48.8833 94.7485 45.3754 93.9632 42.9396 95.1345C39.347 96.8621 33.6825 98.819 29.4295 98.819C14.2806 98.819 2 86.5384 2 71.3895C2 56.2406 14.2806 43.96 29.4295 43.96C44.5784 43.96 56.8591 56.2406 56.8591 71.3895Z" fill="#1944E4"/>
<path d="M54.8591 69.3895C54.8591 73.1642 52.9632 79.2172 51.5839 82.4902C50.4286 85.2315 50.3524 88.7204 51.1393 92.2525C51.308 93.0095 50.6328 93.7086 49.8815 93.5162C46.8833 92.7485 43.3754 91.9632 40.9396 93.1345C37.347 94.8621 31.6825 96.819 27.4295 96.819C12.2806 96.819 0 84.5384 0 69.3895C0 54.2406 12.2806 41.96 27.4295 41.96C42.5784 41.96 54.8591 54.2406 54.8591 69.3895Z" fill="#3962FA"/>
<path fill-rule="evenodd" clip-rule="evenodd" d="M24.2065 82.1276C24.3479 82.0291 24.4828 81.9173 24.6094 81.7923L42.9365 63.7081C44.1415 62.5191 44.148 60.5849 42.9509 59.3879C41.7539 58.1909 39.8067 58.1844 38.6018 59.3734L22.4042 75.3563L16.7781 69.6546C15.5891 68.4497 13.6549 68.4432 12.4579 69.6402C11.2609 70.8372 11.2544 72.7844 12.4434 73.9894L20.1937 81.8439C21.2855 82.9504 23.0058 83.0462 24.2065 82.1276Z" fill="white"/>
</svg>
