<svg width="274" height="24" viewBox="0 0 274 24" fill="none" xmlns="http://www.w3.org/2000/svg">
<g clip-path="url(#clip0)">
<path d="M38.2133 5.33073H32.7454V1.54736H48.3681V5.33073H42.9002V22.4758H38.2133V5.33073Z" fill="#333333"/>
<path d="M59.8976 1.54739C61.3299 1.48801 62.7555 1.77201 64.0532 2.37524C65.0986 2.87835 65.9788 3.66429 66.5919 4.64217C67.1805 5.66042 67.4751 6.81937 67.4434 7.99226V9.33849C67.482 10.5595 67.1441 11.7631 66.4748 12.7892C65.8348 13.7385 64.9276 14.4809 63.8658 14.9246L67.7715 22.4681H62.7878L59.5383 15.7369H56.9058V22.4681H52.2659V1.54739H59.8976ZM56.9058 5.1296V12.2553H59.757C60.5746 12.2926 61.375 12.0154 61.991 11.4816C62.2745 11.2094 62.4952 10.8797 62.6381 10.5152C62.781 10.1506 62.8427 9.7598 62.819 9.36944V7.96905C62.8436 7.58092 62.7822 7.19217 62.6391 6.83C62.4961 6.46783 62.2749 6.14099 61.991 5.87234C61.373 5.34207 60.574 5.06535 59.757 5.09865L56.9058 5.1296Z" fill="#333333"/>
<path d="M84.2927 22.4758L83.121 18.0038H76.6141L75.4424 22.4758H70.4822L76.5516 1.54736H83.1991L89.2451 22.5145L84.2927 22.4758ZM77.3953 14.3907H82.3555L79.8636 5.00578L77.3953 14.3907Z" fill="#333333"/>
<path d="M93.0961 1.54738H100.665C101.759 1.53667 102.848 1.69592 103.891 2.01934C104.826 2.30856 105.696 2.77352 106.454 3.38877C107.17 3.98336 107.739 4.73232 108.117 5.57833C108.515 6.47532 108.715 7.44599 108.703 8.42553V15.7679C108.768 16.7195 108.605 17.6728 108.226 18.5496C107.847 19.4265 107.264 20.2019 106.524 20.8124C104.824 22.0247 102.757 22.6253 100.665 22.5145H93.0961V1.54738ZM104.032 9.21469C104.126 8.12676 103.796 7.04449 103.11 6.18955C102.776 5.84097 102.37 5.56739 101.92 5.38722C101.47 5.20705 100.986 5.12448 100.501 5.14506H97.7829V18.8549H100.501C101.445 18.9051 102.375 18.6074 103.11 18.0193C103.418 17.717 103.659 17.3544 103.818 16.9548C103.976 16.5552 104.049 16.1273 104.032 15.6983V9.21469Z" fill="#333333"/>
<path d="M118.264 22.4758H113.578V1.54736H118.264V22.4758Z" fill="#333333"/>
<path d="M123.834 1.54736H136.895V5.41584H128.49V10.1431H136.574V13.7795H128.49V18.5686H137.223V22.4371H123.834V1.54736Z" fill="#333333"/>
<path d="M151.885 1.54736C153.323 1.49878 154.751 1.79611 156.048 2.4139C157.083 2.90887 157.957 3.68073 158.571 4.64214C159.163 5.65962 159.46 6.81861 159.43 7.99224V9.33846C159.465 10.559 159.128 11.7615 158.462 12.7891C157.817 13.7372 156.908 14.4791 155.845 14.9245L159.751 22.4681H154.728L151.541 15.7447H148.909V22.4758H144.269V1.54736H151.885ZM148.893 5.16825V12.294H151.744C152.562 12.3313 153.362 12.054 153.978 11.5203C154.262 11.248 154.482 10.9184 154.625 10.5538C154.768 10.1893 154.83 9.79845 154.806 9.4081V7.96903C154.831 7.58089 154.769 7.19214 154.626 6.82997C154.483 6.4678 154.262 6.14096 153.978 5.87231C153.36 5.34204 152.561 5.06532 151.744 5.09862L148.893 5.16825Z" fill="#3962FA"/>
<path d="M165.117 1.54736H178.178V5.41584H169.781V10.1431H177.865V13.7795H169.781V18.5686H178.506V22.4371H165.117V1.54736Z" fill="#3962FA"/>
<path d="M199.339 1.54736L193.769 22.5145H186.817L181.224 1.54736H186.208L190.293 18.2282L194.347 1.54736H199.339Z" fill="#3962FA"/>
<path d="M207.963 22.4758H203.276V1.54736H207.963V22.4758Z" fill="#3962FA"/>
<path d="M213.657 1.54736H226.718V5.41584H218.32V10.1431H226.405V13.7795H218.32V18.5686H227.046V22.4371H213.657V1.54736Z" fill="#3962FA"/>
<path d="M257.104 1.54736L252.417 22.5145H246.379L243.504 9.04446L240.591 22.4758H234.576L229.85 1.54736H234.795L238.075 17.7949L241.2 1.87231H245.676L248.879 17.7949L252.152 1.54736H257.104Z" fill="#3962FA"/>
<path d="M272.164 21.1838C270.938 22.2515 269.079 22.7853 266.571 22.7853C265.471 22.7793 264.372 22.6992 263.283 22.5455C262.165 22.3988 261.066 22.1395 260.002 21.7718L260.619 17.9807C262.293 18.5058 264.035 18.7873 265.79 18.8162C266.721 18.8639 267.651 18.6999 268.509 18.3366C268.818 18.1698 269.071 17.9166 269.236 17.6084C269.402 17.3003 269.472 16.9508 269.438 16.6035C269.452 16.3273 269.408 16.0512 269.308 15.7929C269.209 15.5345 269.056 15.2994 268.86 15.1025C268.116 14.5513 267.269 14.1516 266.368 13.9265C265.064 13.4932 264.165 13.1915 263.689 13.0135C262.626 12.6658 261.714 11.97 261.103 11.0406C260.489 9.9871 260.191 8.78206 260.244 7.56674C260.238 6.70275 260.402 5.8459 260.728 5.04449C261.036 4.27372 261.513 3.58102 262.127 3.01741C262.781 2.41967 263.556 1.96611 264.4 1.68666C265.373 1.35939 266.395 1.19976 267.423 1.21471C269.385 1.19688 271.339 1.45742 273.227 1.9884L272.68 5.85687C271.158 5.40894 269.581 5.16945 267.993 5.14507C267.143 5.09904 266.299 5.30079 265.564 5.72534C265.283 5.90031 265.053 6.14543 264.898 6.43606C264.743 6.7267 264.668 7.05262 264.681 7.38105C264.662 7.89551 264.816 8.40175 265.118 8.82012C265.629 9.32725 266.273 9.68128 266.978 9.8414L269.321 10.5687C270.695 10.9172 271.934 11.6601 272.883 12.7041C273.693 13.8283 274.09 15.1936 274.008 16.5725C274.064 17.4284 273.928 18.2859 273.609 19.0834C273.29 19.8808 272.797 20.5982 272.164 21.1838Z" fill="#3962FA"/>
<path d="M8.39724 8.34817L0.734274 15.9226C0.674184 15.9825 0.597479 16.0233 0.513914 16.0398C0.430349 16.0564 0.3437 16.048 0.264985 16.0156C0.18627 15.9833 0.119046 15.9285 0.0718615 15.8582C0.0246771 15.7879 -0.000335927 15.7053 3.40737e-06 15.6209V0.425535C3.40737e-06 0.312677 0.0452675 0.204442 0.125838 0.124639C0.206409 0.0448361 0.315686 3.3749e-06 0.42963 3.3749e-06H15.7478C15.833 -0.000332725 15.9164 0.0244419 15.9873 0.0711767C16.0583 0.117912 16.1136 0.184495 16.1463 0.26246C16.179 0.340425 16.1875 0.426248 16.1707 0.509017C16.154 0.591785 16.1128 0.667759 16.0524 0.727276L8.39724 8.34817Z" fill="#3962FA"/>
<path d="M9.53778 15.2418L16.982 22.5454C17.0961 22.6633 17.1736 22.8111 17.2052 22.9713C17.2367 23.1316 17.2212 23.2974 17.1602 23.4491C17.0993 23.6008 16.9956 23.7319 16.8615 23.8268C16.7274 23.9218 16.5686 23.9765 16.404 23.9845H0.976503C0.891283 23.9848 0.807887 23.9601 0.73692 23.9133C0.665954 23.8666 0.610623 23.8 0.577965 23.722C0.545307 23.6441 0.536796 23.5583 0.553516 23.4755C0.570235 23.3927 0.611429 23.3168 0.671859 23.2572L8.93631 15.2418C9.01661 15.1638 9.12459 15.1201 9.23704 15.1201C9.3495 15.1201 9.45747 15.1638 9.53778 15.2418Z" fill="#3962FA"/>
<path d="M13.6854 10.8317L20.3798 3.60539C20.4201 3.56075 20.4695 3.52504 20.5247 3.50059C20.5798 3.47614 20.6396 3.4635 20.7001 3.4635C20.7605 3.4635 20.8203 3.47614 20.8755 3.50059C20.9307 3.52504 20.98 3.56075 21.0203 3.60539C21.9108 4.64214 24.3636 7.73692 24.3636 11.675C24.3451 14.3511 23.4117 16.942 21.7156 19.0251C21.6753 19.0698 21.6259 19.1055 21.5707 19.1299C21.5155 19.1544 21.4557 19.167 21.3953 19.167C21.3348 19.167 21.2751 19.1544 21.2199 19.1299C21.1647 19.1055 21.1153 19.0698 21.075 19.0251L13.6854 11.3655C13.6226 11.2905 13.5881 11.1961 13.5881 11.0986C13.5881 11.0011 13.6226 10.9067 13.6854 10.8317Z" fill="#3962FA"/>
</g>
<defs>
<clipPath id="clip0">
<rect width="274" height="24" fill="white"/>
</clipPath>
</defs>
</svg>
