<svg width="44" height="44" viewBox="0 0 44 44" fill="none" xmlns="http://www.w3.org/2000/svg">
<path d="M35.75 44H8.25C3.69325 44 0 40.3068 0 35.75V8.25C0 3.69325 3.69325 0 8.25 0H35.75C40.3068 0 44 3.69325 44 8.25V35.75C44 40.3068 40.3068 44 35.75 44Z" fill="#3962fa" fill-opacity="0.2"/>
<path d="M18.1183 17.2254L8.23332 27.1508C8.15581 27.2293 8.05686 27.2827 7.94907 27.3044C7.84127 27.3261 7.7295 27.3151 7.62796 27.2727C7.52642 27.2303 7.4397 27.1585 7.37883 27.0664C7.31797 26.9743 7.2857 26.866 7.28614 26.7554V6.84375C7.28614 6.69586 7.34453 6.55403 7.44846 6.44946C7.55239 6.34489 7.69336 6.28614 7.84034 6.28614H27.6003C27.7102 6.2857 27.8178 6.31816 27.9093 6.3794C28.0009 6.44064 28.0723 6.52789 28.1144 6.63005C28.1565 6.73222 28.1675 6.84468 28.1459 6.95314C28.1244 7.0616 28.0712 7.16115 27.9933 7.23914L18.1183 17.2254Z" fill="#3962fa"/>
<path d="M19.5895 26.258L29.1923 35.8286C29.3395 35.983 29.4394 36.1768 29.4802 36.3867C29.5209 36.5967 29.5008 36.814 29.4222 37.0127C29.3436 37.2115 29.2099 37.3833 29.0369 37.5077C28.8639 37.6321 28.659 37.7039 28.4467 37.7143H8.54567C8.43574 37.7148 8.32816 37.6823 8.23662 37.6211C8.14507 37.5598 8.0737 37.4726 8.03157 37.3704C7.98944 37.2683 7.97846 37.1558 8.00003 37.0473C8.0216 36.9389 8.07474 36.8393 8.15269 36.7613L18.8136 26.258C18.9172 26.1559 19.0565 26.0986 19.2015 26.0986C19.3466 26.0986 19.4859 26.1559 19.5895 26.258Z" fill="#3962fa"/>
<path d="M24.94 20.4803L33.5755 11.0111C33.6275 10.9526 33.6912 10.9058 33.7624 10.8738C33.8335 10.8418 33.9107 10.8252 33.9886 10.8252C34.0666 10.8252 34.1437 10.8418 34.2149 10.8738C34.2861 10.9058 34.3498 10.9526 34.4018 11.0111C35.5505 12.3697 38.7145 16.425 38.7145 21.5854C38.6907 25.0921 37.4865 28.4871 35.2986 31.2168C35.2466 31.2753 35.1829 31.3221 35.1117 31.3542C35.0406 31.3862 34.9634 31.4028 34.8855 31.4028C34.8075 31.4028 34.7304 31.3862 34.6592 31.3542C34.588 31.3221 34.5243 31.2753 34.4723 31.2168L24.94 21.1799C24.8589 21.0816 24.8145 20.9579 24.8145 20.8301C24.8145 20.7023 24.8589 20.5786 24.94 20.4803Z" fill="#3962fa"/>
</svg>
