<svg width="10" height="8" viewBox="0 0 10 8" fill="none" xmlns="http://www.w3.org/2000/svg">
<path fill-rule="evenodd" clip-rule="evenodd" d="M9.72086 1.8984C10.0917 1.52756 10.0917 0.926311 9.72086 0.555473C9.35002 0.184634 8.74877 0.184634 8.37793 0.555473L3.67795 5.25546L1.66402 3.24153C1.29318 2.87069 0.691937 2.87069 0.321098 3.24153C-0.0497407 3.61237 -0.0497412 4.21362 0.321098 4.58446L2.98785 7.25121C2.99387 7.25757 3 7.26387 3.00623 7.2701C3.12294 7.3868 3.26246 7.46678 3.41044 7.51003C3.73286 7.60454 4.09555 7.52463 4.34987 7.27031C4.3583 7.26188 4.36654 7.25333 4.37459 7.24467L9.72086 1.8984Z" fill="white"/>
</svg>
