<svg width="111" height="62" viewBox="0 0 111 62" fill="none" xmlns="http://www.w3.org/2000/svg">
<rect x="76.1582" y="8.61237" width="34.8915" height="44.6121" rx="3.5" transform="rotate(15 76.1582 8.61237)" fill="#EFF2F9" stroke="#86969E"/>
<mask id="mask0" mask-type="alpha" maskUnits="userSpaceOnUse" x="65" y="9" width="44" height="51">
<rect x="76.6875" y="9.52888" width="33.396" height="43.1166" rx="2.5" transform="rotate(15 76.6875 9.52888)" fill="#3962FA" stroke="#031F88"/>
</mask>
<g mask="url(#mask0)">
<rect opacity="0.3" x="77.8385" y="34.8246" width="31.9005" height="52.8372" rx="3.5" transform="rotate(60 77.8385 34.8246)" fill="#C9D8DF" stroke="#86969E"/>
<rect x="92.0006" y="33.9745" width="31.9005" height="52.8372" rx="3.5" transform="rotate(60 92.0006 33.9745)" fill="#C9D8DF" stroke="#86969E"/>
</g>
<circle cx="94.7622" cy="23.9186" r="3.98643" transform="rotate(15 94.7622 23.9186)" fill="#C9D8DF" stroke="#86969E"/>
<rect x="0.612372" y="17.3536" width="34.8915" height="44.6121" rx="3.5" transform="rotate(-15 0.612372 17.3536)" fill="#EFF2F9" stroke="#86969E"/>
<mask id="mask1" mask-type="alpha" maskUnits="userSpaceOnUse" x="1" y="9" width="44" height="51">
<rect x="1.52839" y="17.8829" width="33.396" height="43.1166" rx="2.5" transform="rotate(-15 1.52839 17.8829)" fill="#3962FA" stroke="#031F88"/>
</mask>
<g mask="url(#mask1)">
<rect opacity="0.3" x="15.1732" y="39.2138" width="31.9005" height="52.8372" rx="3.5" transform="rotate(30 15.1732 39.2138)" fill="#C9D8DF" stroke="#86969E"/>
<rect x="27.0131" y="31.3964" width="31.9005" height="52.8372" rx="3.5" transform="rotate(30 27.0131 31.3964)" fill="#C9D8DF" stroke="#86969E"/>
</g>
<circle cx="24.3775" cy="21.3067" r="3.98643" transform="rotate(-15 24.3775 21.3067)" fill="#C9D8DF" stroke="#86969E"/>
<rect x="31.5" y="0.5" width="47" height="60" rx="3.5" fill="url(#paint0_linear)" stroke="#031F88"/>
<mask id="mask2" mask-type="alpha" maskUnits="userSpaceOnUse" x="32" y="1" width="46" height="59">
<rect x="32.5" y="1.5" width="45" height="58" rx="2.5" fill="#3962FA" stroke="#031F88"/>
</mask>
<g mask="url(#mask2)">
<rect opacity="0.3" x="42.9121" y="33.7071" width="43" height="71" rx="3.5" transform="rotate(45 42.9121 33.7071)" fill="url(#paint1_linear)" stroke="#031F88"/>
<rect x="60.9121" y="27.7071" width="43" height="71" rx="3.5" transform="rotate(45 60.9121 27.7071)" fill="url(#paint2_linear)" stroke="#031F88"/>
</g>
<circle cx="61" cy="14" r="5.5" fill="#16BDC8" stroke="#031F88"/>
<defs>
<linearGradient id="paint0_linear" x1="55" y1="0" x2="55" y2="72.9141" gradientUnits="userSpaceOnUse">
<stop stop-color="#E7F8F9"/>
<stop offset="1" stop-color="#D1E6F9"/>
</linearGradient>
<linearGradient id="paint1_linear" x1="76.9156" y1="66.1716" x2="45.0958" y2="34.3518" gradientUnits="userSpaceOnUse">
<stop stop-color="#376CFB"/>
<stop offset="1" stop-color="#16BDC8"/>
</linearGradient>
<linearGradient id="paint2_linear" x1="94.9156" y1="60.1716" x2="63.0958" y2="28.3518" gradientUnits="userSpaceOnUse">
<stop stop-color="#376CFB"/>
<stop offset="1" stop-color="#16BDC8"/>
</linearGradient>
</defs>
</svg>
