<svg width="12" height="12" viewBox="0 0 12 12" fill="none" xmlns="http://www.w3.org/2000/svg">
<path fill-rule="evenodd" clip-rule="evenodd" d="M0.504741 0.25782C0.162966 0.602432 0.161096 1.163 0.500565 1.50989L4.76321 5.86566L0.259211 10.3468C-0.0848565 10.6892 -0.0867152 11.246 0.255061 11.5906C0.596837 11.9352 1.15282 11.9371 1.49689 11.5948L5.99258 7.12188L10.5089 11.7369C10.8484 12.0838 11.4007 12.0856 11.7424 11.741C12.0842 11.3964 12.0861 10.8358 11.7466 10.489L7.23846 5.88231L11.6396 1.50348C11.9837 1.16116 11.9855 0.604289 11.6437 0.259677C11.302 -0.084935 10.746 -0.0867892 10.4019 0.255535L6.00909 4.62609L1.73824 0.261936C1.39877 -0.0849491 0.846517 -0.0867917 0.504741 0.25782Z" fill="black"/>
</svg>
