<svg xmlns="http://www.w3.org/2000/svg">
<defs>
<font id="KetimunDEMO-Regular" horiz-adv-x="942" >
  <font-face 
    font-family="Ketimun DEMO"
    font-weight="400"
    font-stretch="normal"
    units-per-em="2048"
    panose-1="0 0 0 0 0 0 0 0 0 0"
    ascent="1638"
    descent="-410"
    x-height="637"
    cap-height="1432"
    bbox="-156 -500 1530 1779.18"
    underline-thickness="0"
    underline-position="0"
    unicode-range="U+000D-20AC"
  />
<missing-glyph horiz-adv-x="1519" 
d="M61 489q0 17 5.5 52t5.5 53q0 15 -5.5 41t-5.5 39v4q0 3 2.5 19t2.5 18q10 44 55 155q1 6 10.5 24t13.5 24q0 3 15 18q5 9 10 28t6 23q4 12 20.5 37.5t20.5 34.5l80 47q7 5 13.5 10.5t12.5 13l10 12.5t9 15.5t7.5 14.5t8 16.5t7.5 15.5q4 2 4 4q7 5 29.5 23t34 26
t30 19.5t35.5 17.5q31 9 92 19q34 6 116.5 22t136.5 22.5t120 6.5q40 0 76 -10t59.5 -21t53.5 -38.5t44 -43t46.5 -54.5t45.5 -54q41 -41 67.5 -81t39.5 -63.5t28 -33.5q0 -4 3 -15t7 -22.5t5 -14.5q5 -23 6 -46t0 -54t0 -51q1 -9 7.5 -31t6.5 -33q-4 -18 -12.5 -42.5
t-13.5 -44.5t-5 -44q0 -13 2.5 -37t2.5 -36q0 -19 -2.5 -35t-4.5 -26.5t-9.5 -25t-11.5 -21.5t-15.5 -25t-16.5 -27q-2 -2 -16.5 -32t-16.5 -32q-9 -17 -35 -40t-32 -29q-115 -115 -176 -170q0 -4 -9 -4q-46 -12 -165 -29q-14 -2 -44 -10t-51 -8q-36 0 -79 9.5t-72.5 20.5
t-79 30.5t-70.5 27.5q-12 4 -33.5 9.5t-39 11.5t-33.5 15l-133 78l-22 11t-27 16q-13 11 -32 33.5t-30 31.5q-47 40 -51 45q-4 8 -34 86.5t-30 83.5zM782 131q0 -7 17 -17t24 -10q2 0 11 4.5t10 4.5q6 6 22 6q5 0 13 -5t14 -5h4q6 3 6 18q6 -4 8 -4q2 -2 4 -2l3 2q2 8 4 8
q4 4 22 4q7 3 21.5 13t23.5 12q3 0 16 -0.5t13 4.5l4 8q14 11 44.5 23t47.5 12v10h21q0 4 -2 6q0 1 -2.5 6.5t-2.5 6.5h25q0 4 -2 6q0 4 -4 4q3 10 22 10q-3 12 3.5 27t13.5 23.5t22.5 24t16.5 17.5q3 3 15.5 47.5t27.5 44.5l-2 4l-4 5q0 37 30 40q0 3 -3 13.5t-3 13.5v2
l2 4q4 4 4 15q0 12 -4 16l4 2v-2l6 -6q0 -4 2 -4q0 24 10.5 46t10.5 29q-8 0 -8 11q0 6 8 9t8 9q2 1 -4 8v11q0 2 -2 26.5t-2 26.5q0 3 2 15t2 14l-8 -5v2q0 5 2 12.5t2 12.5h-12q0 16 -5.5 21t-5.5 10q0 3 2.5 8t2.5 8q0 7 -13 16t-14 11q2 6 12 6q0 2 -1 13.5t-1 13.5

<glyph glyph-name=".notdef" horiz-adv-x="1519" 
d="M61 489q0 17 5.5 52t5.5 53q0 15 -5.5 41t-5.5 39v4q0 3 2.5 19t2.5 18q10 44 55 155q1 6 10.5 24t13.5 24q0 3 15 18q5 9 10 28t6 23q4 12 20.5 37.5t20.5 34.5l80 47q7 5 13.5 10.5t12.5 13l10 12.5t9 15.5t7.5 14.5t8 16.5t7.5 15.5q4 2 4 4q7 5 29.5 23t34 26
t30 19.5t35.5 17.5q31 9 92 19q34 6 116.5 22t136.5 22.5t120 6.5q40 0 76 -10t59.5 -21t53.5 -38.5t44 -43t46.5 -54.5t45.5 -54q41 -41 67.5 -81t39.5 -63.5t28 -33.5q0 -4 3 -15t7 -22.5t5 -14.5q5 -23 6 -46t0 -54t0 -51q1 -9 7.5 -31t6.5 -33q-4 -18 -12.5 -42.5
t-13.5 -44.5t-5 -44q0 -13 2.5 -37t2.5 -36q0 -19 -2.5 -35t-4.5 -26.5t-9.5 -25t-11.5 -21.5t-15.5 -25t-16.5 -27q-2 -2 -16.5 -32t-16.5 -32q-9 -17 -35 -40t-32 -29q-115 -115 -176 -170q0 -4 -9 -4q-46 -12 -165 -29q-14 -2 -44 -10t-51 -8q-36 0 -79 9.5t-72.5 20.5
t-79 30.5t-70.5 27.5q-12 4 -33.5 9.5t-39 11.5t-33.5 15l-133 78l-22 11t-27 16q-13 11 -32 33.5t-30 31.5q-47 40 -51 45q-4 8 -34 86.5t-30 83.5zM782 131q0 -7 17 -17t24 -10q2 0 11 4.5t10 4.5q6 6 22 6q5 0 13 -5t14 -5h4q6 3 6 18q6 -4 8 -4q2 -2 4 -2l3 2q2 8 4 8
q4 4 22 4q7 3 21.5 13t23.5 12q3 0 16 -0.5t13 4.5l4 8q14 11 44.5 23t47.5 12v10h21q0 4 -2 6q0 1 -2.5 6.5t-2.5 6.5h25q0 4 -2 6q0 4 -4 4q3 10 22 10q-3 12 3.5 27t13.5 23.5t22.5 24t16.5 17.5q3 3 15.5 47.5t27.5 44.5l-2 4l-4 5q0 37 30 40q0 3 -3 13.5t-3 13.5v2
l2 4q4 4 4 15q0 12 -4 16l4 2v-2l6 -6q0 -4 2 -4q0 24 10.5 46t10.5 29q-8 0 -8 11q0 6 8 9t8 9q2 1 -4 8v11q0 2 -2 26.5t-2 26.5q0 3 2 15t2 14l-8 -5v2q0 5 2 12.5t2 12.5h-12q0 16 -5.5 21t-5.5 10q0 3 2.5 8t2.5 8q0 7 -13 16t-14 11q2 6 12 6q0 2 -1 13.5t-1 13.5
l-10 10v26q0 5 -10 15l-4 8v43l-13 12l-6 -10q4 24 -2.5 32.5t-28.5 8.5v35l-20 -10h-4q4 0 4 6v4q-22 5 -27 16q4 4 4 6v2q0 12 -17 26.5t-17 22.5q-3 -6 -11 -6v15h-4q-1 0 -5 -2t-5 -2q-4 0 -9 7.5t-10.5 17t-7.5 11.5q2 5 4 5v4l-14 14q1 -7 -2 -8.5t-10 -1.5
q-18 0 -19.5 23.5t-15.5 23.5l-2 -5q-3 -6 -8 -12t-12 -6q0 3 3 7.5t3 7.5q-8 0 -25 -25l-2 2q-8 5 -8 10t6 10t6 9l-2 2q0 2 -3.5 5t-6.5 3l-2 -4q5 -2 3 -4q-1 -2 -1 -4l-6 -2q-1 0 -5.5 3t-5.5 3q-4 0 -7 -7t-7 -7q-11 0 -21 12t-12 24h-4q-4 0 -5.5 -1t-2.5 -5t-4 -8h-6
l-8 6q-1 -1 -5 -4t-7 -6t-3 -4h-2q-8 0 -8 16l-4 -2q-5 -3 -11.5 -10.5t-13 -10.5t-18.5 -3h-2q-2 0 -6 4q9 0 11.5 2t2.5 8q0 10 -4 10q-10 0 -18 -4.5t-7 -15.5q-5 0 -26 -6t-27 -9l-18 -6h-2q-11 0 -11 21q-19 0 -39 -21.5t-32 -23.5q-6 0 -21 3t-16 7q-7 -6 -18.5 -29
t-26.5 -26v8q0 1 2 9t2 9h-4q-3 -3 -6 -9t-7 -9.5t-10 -3.5t-6 4q0 -4 -4 -4q-8 -24 -8 -37h-12q-5 0 -12 2t-11 2h-4q-2 -14 -18.5 -33.5t-20.5 -30.5l-4 -18q-5 -7 -32.5 -31t-31.5 -24h-2l-8 4h-6l-8 -8q-16 -30 -30 -34.5t-17 -8.5q-2 -2 -2 -15q-6 0 -13.5 -4.5
t-7.5 -11.5q0 -8 6 -14q-14 3 -19 -3t-6 -18.5t-3 -15.5q0 -1 -7.5 -7.5t-7.5 -7.5q-8 -8 -8 -18q4 -8 10 -8l-16 -35v-2q0 -1 3 -9.5t3 -9.5v-6q0 -6 -6 -8q-6 9 -6 23h-12q0 -3 3 -6.5t3 -6.5q0 -18 -19 -18v4q-12 -6 -14 -6q0 -11 -6 -17v-4l24 -24q1 0 4.5 1t4.5 1
q0 -7 -5.5 -22t-5.5 -23q0 -1 1 -6.5t1 -6.5l9 7v-4q0 -4 -2 -12.5t-2 -12.5q0 -14 8 -14q22 11 24 14q-4 -15 4 -23q-24 0 -24 -8q7 0 16 -12l-6 -2v-4q0 -12 12.5 -41t20.5 -33q-4 -6 -4 -20q5 0 8 4t0 10q13 -10 29 -37q29 -57 30 -63q4 -6 32.5 -11t43.5 -22q0 -1 1 -5
t1 -5q0 -3 -5.5 -4t-11 -6.5t-5.5 -20.5h6l8 4q4 -4 6 -4v-14h8l-6 -9q4 4 10 4q17 0 40 -20.5t36 -20.5q4 0 12 2.5t13 2.5q6 0 11 -5t5 -12l-2 -2l-4 -4l-8 4l-6 2q0 -13 20 -24t33 -11q17 0 31 7q4 -2 4 -17q8 0 13 7t11 7q0 -1 -0.5 -4t-0.5 -4.5t1.5 -2.5t5.5 -1h2
q5 0 5 15q2 -7 9 -13.5t7 -11.5h-4l-8 -18h-4v-5q0 -4 18 -10h14q2 -1 6 -9.5t11 -8.5l6 2q-6 0 -6 4l6 12q0 2 2 12.5t2 12.5q10 -1 43 -10t47 -9h2l8 9h4q-4 -6 -4 -19zM825 729q2 4 3 4.5t3 0t3 -0.5q2 4 0 6l-3 9q0 3 11 5.5t16 2.5h31l2 6l-14 14q18 14 40.5 10t42 -16
t35.5 -29h-18l14 -12l2 -2q-3 0 -22 -1t-23 -1l-6 -4q4 -6 35 -6q22 0 22 -4v-4q-3 0 -25 -2.5t-26 -2.5h-2q-3 0 -28 2.5t-27 2.5q-14 0 -37.5 6.5t-28.5 15.5zM756 547q-2 4 -11 4l-2 -2q-2 0 -14 -12h-4q6 30 26.5 65t45.5 35q8 0 8 -12q0 -16 -18.5 -40.5t-20.5 -29.5h4
q4 0 6 2t4 6t4 6l27 21l2 2q12 0 12 -19v-4q0 -22 -36.5 -53t-61.5 -31q0 21 25 58zM694 870q1 0 8.5 1t8.5 1q6 3 6 5q0 9 -14.5 25t-14.5 26q9 0 19 -10q43 -43 47 -46v2q0 8 -7.5 16t-7.5 13q0 10 11 10q8 0 26.5 -13.5t18.5 -20.5l-2 -2q0 -2 -9 -11q1 -2 3 -3.5t5 -2
t6 -0.5h5h2q0 -2 -2 -2q-1 0 -7.5 -2t-7.5 -2q-6 4 -8 4q-1 0 -7 4t-7 4l-2 2l-4 -2l-4 -4q3 -3 13 -14.5t14.5 -18t9 -17t4.5 -19.5q-9 0 -23 14q-20 -15 -20 -31q-2 3 -19 27.5t-26 40.5q0 -4 -2 -4q-3 0 -3.5 4t1.5 6q-11 15 -11 20zM897 647h-39q0 5 6.5 10t11 9t1.5 8
l14 -8l8 8l84 10q1 0 6 2t6 2q11 0 11 -10q0 -12 -19 -12q7 -11 19 -15q-4 -11 -32.5 -26t-39.5 -15h-2q-6 0 -6 4q-28 -4 -43 -4q0 9 7 19t7 18zM682 578q4 0 4 -4.5t-4 -4.5t-4 2q0 -1 -1 -4t-1 -4t-1 -2t-1 -2q-2 -10 -14 -30.5t-15 -28.5q0 -4 -4 -4h-4q-8 3 -8 30
q0 1 -0.5 8.5t-1 17.5t-0.5 15q0 2 1 18t1 19q4 19 17 41.5t28 22.5q0 -9 5 -26.5t5 -25.5q0 -29 -4 -41zM641 844v14q2 -2 20 -16.5t21 -20.5q7 -10 11 -22.5t8 -31t6 -26.5q-3 1 -10 1t-9 -1l-10 -2q-15 3 -26 44.5t-11 60.5zM530 606v19l37 -11q5 0 15 -10h6q8 -27 8 -61
q-32 0 -49 16.5t-17 46.5zM926 557q0 25 43 39l41 14l10 -6q-8 -9 -17 -23.5t-17.5 -21t-27.5 -10.5v8q-17 0 -22 -14q0 3 -2.5 6t-5.5 5l-2 1v2zM563 748q0 45 21 45q15 0 30 -5q0 -5 -4 -8t-10 0q0 -10 -6 -37.5t-14 -27.5q-4 0 -10.5 13t-6.5 20zM788 938q32 0 43 -20h-4
q-11 0 -25 5t-14 15zM672 913h6q3 0 9.5 -14.5t6.5 -21.5h-6q-3 0 -9.5 14.5t-6.5 21.5zM795 621q-9 -1 -15 -7q2 -4 4 -4h2q9 0 9 11zM973 666q-8 0 -10 -4q4 -3 6 -3q8 0 8 7h-4zM666 662q-4 0 -4 -5.5t4 -5.5q3 0 3 5.5t-3 5.5zM600 537q3 0 3 -5.5t-3 -5.5t-3 5.5t3 5.5
zM633 610q-3 0 -3 -5t3 -5t3 5t-3 5zM725 932q3 0 3 -4t-3 -4t-4 2t0 4t4 2zM668 766q0 -7 6 -10v10h-6zM1024 604q3 0 3 -4t-3 -4t-3 4t3 4zM578 756q-3 0 -3 -4t3 -4t3 4t-3 4zM264 844q-2 -2 -5 -2t-5 2q-1 2 2 3q7 1 8 -3zM729 924q4 0 4 -6v-5q-4 0 -4 5v6zM909 655
q-3 0 -3 -4t3 -4q1 0 1 4t-1 4zM766 788q4 0 4 -4v-4l-4 4v4zM573 541q1 0 1 -2t-1 -2q-3 0 -3 2t3 2z" />
    <glyph glyph-name=".null" horiz-adv-x="0" 
 />
    <glyph glyph-name="nonmarkingreturn" horiz-adv-x="682" 
 />
    <glyph glyph-name="NULL" horiz-adv-x="0" 
 />
    <glyph glyph-name="NULL" horiz-adv-x="0" 
 />
    <glyph glyph-name="CR" unicode="&#xd;" horiz-adv-x="471" 
 />
    <glyph glyph-name="space" unicode=" " horiz-adv-x="471" 
 />
    <glyph glyph-name="exclam" unicode="!" horiz-adv-x="376" 
d="M61 98q0 43 34 77t77 34q30 0 50 -21t20 -51q0 -50 -19 -91.5t-63 -41.5q-40 0 -69.5 27.5t-29.5 66.5zM68 428v23l98 780q9 74 80 74q69 0 69 -84v-35l-82 -766q-3 -39 -23.5 -63.5t-55.5 -24.5q-40 0 -63 28t-23 68z" />
    <glyph glyph-name="quotedbl" unicode="&#x22;" horiz-adv-x="526" 
d="M61 989q4 19 20 79t19 95q4 10 5 53.5t3 83t19.5 72.5t50.5 33q24 0 42 -14.5t18 -38.5q-1 -10 -2 -63t-5 -109t-13.5 -114.5t-34.5 -96t-62 -37.5q-25 0 -42.5 14.5t-17.5 42.5zM289 995q4 19 20 79t19 95q4 10 5 53.5t3 83t19.5 72.5t50.5 33q23 0 40 -17t17 -42
q0 -16 0.5 -55t0.5 -61t-1 -60t-4 -61.5t-8 -54.5t-14 -50t-21 -37t-29 -26.5t-39 -8.5q-25 0 -42 14.5t-17 42.5z" />
    <glyph glyph-name="dollar" unicode="$" horiz-adv-x="790" 
d="M367 53v148l-154 -74q-6 -1 -28.5 -8.5t-26.5 -7.5h-25q-92 0 -92 71q0 34 22 64t56 33h35q1 0 8 3t8 3q123 46 199 96l2 192q-2 0 -2 2q-20 12 -57.5 33t-58 33t-51.5 32.5t-49 36.5t-39 40.5t-32.5 49t-19 57t-7.5 69.5q0 139 94 264t230 184l2 66q2 42 11 68t24 26
q13 0 21.5 -19t8.5 -53v-63q61 14 105 14q92 0 155.5 -54.5t63.5 -144.5q0 -51 -17 -99t-51.5 -93.5t-63 -75.5t-75.5 -74l-14 -12q-29 -29 -64 -29q-23 0 -45 15q0 -18 -1 -65t-1 -68q87 -47 133.5 -97t46.5 -129q0 -140 -186 -254q-2 -66 -2 -174q0 -29 -11 -49t-22 -20
q-10 0 -20 19.5t-10 43.5zM217 883q19 -42 57.5 -73.5t98.5 -64.5l6 449q-73 -47 -118.5 -119.5t-45.5 -148.5q0 -2 1 -20t1 -23zM549 1249q-53 0 -105 -22q-1 -38 -2 -133.5t-2 -143.5l84 90q88 97 88 166v4q0 11 -0.5 16t-5.5 12t-16 11h-41zM438 545v-135q20 8 35.5 33
t9.5 55.5t-45 46.5z" />
    <glyph glyph-name="quotesingle" unicode="'" horiz-adv-x="301" 
d="M61 989q4 19 20 79t19 95q4 10 5 53.5t3 83t19.5 72.5t50.5 33q23 0 42.5 -19.5t19.5 -44.5q-1 -20 -2 -60.5t-2 -74.5t-4 -76.5t-11 -75.5t-19.5 -62t-32.5 -44.5t-48 -15.5q-25 0 -42.5 14.5t-17.5 42.5z" />
    <glyph glyph-name="parenleft" unicode="(" horiz-adv-x="471" 
d="M63 604q-2 16 -2 119q0 113 2 119q0 29 15 123q1 8 5 31.5t8.5 49.5t4.5 27q2 5 17 60.5t18 64.5q11 37 26 70t43 63.5t58 30.5q24 0 38.5 -18t14.5 -48q0 -22 -29 -76.5t-34 -72.5q-53 -189 -53 -430q0 -235 88 -430q19 -47 43 -68q10 -9 34 -15t37 -19t13 -46
q0 -35 -25.5 -57.5t-56.5 -22.5q-58 0 -109 64.5t-82.5 157.5t-50.5 178t-23 145z" />
    <glyph glyph-name="parenright" unicode=")" horiz-adv-x="493" 
d="M61 41q0 21 12 45.5t29 49t21 34.5q71 133 117.5 317t46.5 338q0 194 -90 342q-11 17 -37.5 46.5t-42 55.5t-15.5 56q0 32 15 51t43 19q24 0 33 -6q239 -247 239 -564q0 -183 -70 -417q-1 -11 -13 -52.5t-17 -52.5q-38 -118 -58 -158q-76 -174 -151 -174q-26 0 -44 20.5
t-18 49.5z" />
    <glyph glyph-name="comma" unicode="," horiz-adv-x="288" 
d="M61 -176q3 14 18.5 67t18.5 84q3 8 3 67t14.5 102.5t54.5 43.5q22 0 39.5 -16.5t17.5 -38.5q4 -37 3.5 -85t-7 -116.5t-34 -113.5t-72.5 -45q-24 0 -40 13t-16 38z" />
    <glyph glyph-name="hyphen" unicode="-" horiz-adv-x="649" 
d="M63 412q5 56 70 69h17q95 2 133 2t130.5 -2.5t123.5 -3.5q30 -14 40 -28t9 -41q-3 -32 -26.5 -51t-57.5 -21q-27 1 -182.5 2t-182.5 2q-8 0 -12 2q-29 1 -47 21.5t-15 48.5z" />
    <glyph glyph-name="period" unicode="." horiz-adv-x="266" 
d="M61 78q2 33 22 58.5t52 25.5q29 0 49.5 -20t20.5 -48q0 -32 -23 -59t-55 -27q-27 0 -46.5 20t-19.5 50z" />
    <glyph glyph-name="slash" unicode="/" horiz-adv-x="608" 
d="M63 68q-2 19 3 41l335 1253q6 26 25 46.5t43 23.5q29 1 51 -21.5t25 -56.5q1 -16 -23 -97q-120 -410 -317 -1183q-17 -69 -66 -74q-27 -3 -50 17t-26 51z" />
    <glyph glyph-name="zero" unicode="0" horiz-adv-x="743" 
d="M61 422q0 55 9 129t33 167.5t59.5 171t96 131t134.5 54.5q71 1 129 -49t91.5 -125t51 -151t17.5 -138q0 -76 -24 -174t-67.5 -194.5t-118 -162t-163.5 -65.5q-58 0 -103 27.5t-71.5 70t-44 98.5t-23.5 107t-6 103zM233 424q0 -10 0.5 -30.5t1.5 -37.5l1 -16
q0 -39 21.5 -97.5t53.5 -58.5t68.5 44t58 88t33.5 79q17 61 25 80q14 61 14 133q0 31 -5 72t-17 94t-39.5 88t-65.5 35q-43 -19 -78 -103t-52.5 -182.5t-19.5 -187.5z" />
    <glyph glyph-name="one" unicode="1" horiz-adv-x="573" 
d="M342 57v103q0 80 3 239t3 238v166l-6 -6q-4 0 -121 -164q-7 -9 -17 -27t-16.5 -27.5t-21 -17.5t-33.5 -8q-33 0 -52.5 21.5t-19.5 54.5q0 20 3.5 28.5t17.5 28.5l260 375q36 45 76 45q33 0 60.5 -17t33.5 -47v-124q0 -130 -6 -390t-6 -389q0 -10 3 -29.5t3 -29.5
q0 -34 -26.5 -57t-61.5 -23q-26 0 -47 16t-29 41z" />
    <glyph glyph-name="two" unicode="2" horiz-adv-x="694" 
d="M125 127v35q0 38 6 53l168 389q49 110 49 242q0 115 -47 115q-34 0 -64 -37t-30 -72q0 -16 14.5 -26t29.5 -24.5t15 -39.5q0 -32 -23.5 -51t-56.5 -19q-60 0 -92.5 50.5t-32.5 115.5q0 101 75 180.5t175 79.5q52 0 91 -24.5t60.5 -65.5t31.5 -86t10 -94q0 -166 -53 -291
l-146 -342h264q23 0 43.5 -26.5t20.5 -49.5q0 -35 -29 -58.5t-65 -23.5h-326q-27 0 -53.5 21.5t-34.5 48.5z" />
    <glyph glyph-name="three" unicode="3" horiz-adv-x="665" 
d="M61 115q0 31 21.5 48t52.5 17q9 0 25.5 -3t25.5 -3q16 0 34.5 6t32 13t33 18.5t27.5 15.5q26 14 44.5 26t42 32t36.5 43.5t13 48.5q0 13 -7 26t-13.5 19.5t-20.5 19.5q-23 20 -68 29t-82.5 12t-66.5 25t-29 67q0 32 12 54q2 2 5 7t5 7q31 37 45 54.5t41.5 56t41 65.5
t25 63.5t11.5 69.5q0 26 -4 33h-22q-27 0 -67 -23t-40 -51q0 -9 9 -26t9 -27q0 -29 -20.5 -48t-48.5 -19q-46 0 -71 37t-25 83q0 93 83.5 161.5t180.5 68.5q83 0 128.5 -53t45.5 -136q0 -113 -51 -202q-3 -5 -21.5 -31t-32 -48t-18.5 -38v-2v-2q96 -30 158.5 -96.5
t62.5 -159.5q0 -55 -21.5 -102.5t-63 -86t-79 -64.5t-92.5 -57q-89 -51 -168 -51q-46 0 -82.5 29t-36.5 74z" />
    <glyph glyph-name="seven" unicode="7" horiz-adv-x="677" 
d="M264 84q0 29 6 49l154 531q29 100 29 180v30q-3 4 -14.5 7.5t-14.5 3.5h-236q-18 -6 -34 -6q-38 0 -65.5 19.5t-27.5 55.5q0 54 58 72q36 2 87 6.5t91 7t78 2.5q102 0 171.5 -44.5t69.5 -139.5q0 -106 -34 -225l-170 -586q-11 -41 -72 -41q-34 0 -55 22t-21 56z" />
    <glyph glyph-name="eight" unicode="8" horiz-adv-x="651" 
d="M61 317q0 80 34.5 152.5t99.5 118.5v4q-89 193 -89 328q0 60 18.5 125t52.5 122t89 94t121 37q68 0 115.5 -40.5t67.5 -98.5t20 -125q0 -224 -193 -487v-19q64 -178 64 -278q0 -86 -44 -150.5t-126 -64.5q-68 0 -122 44.5t-81 108t-27 129.5zM211 324q0 -72 65 -127h7
q8 0 12 6t5 15t1 17t-1 17l-1 8q0 85 -41 182q-2 2 -4 2q-16 0 -29.5 -48.5t-13.5 -71.5zM270 920q0 -135 45 -205l7 6q2 2 6 9t7.5 13t4.5 7q45 89 68.5 156.5t23.5 137.5q0 91 -45 91q-31 0 -57.5 -29t-39 -59.5t-20.5 -61.5v-65z" />
    <glyph glyph-name="nine" unicode="9" horiz-adv-x="747" 
d="M61 90q0 32 19.5 50t50.5 18q17 0 47 -6.5t45 -6.5q71 0 163.5 47t117.5 105q24 56 24 152q0 5 -0.5 16t-1 19.5t-0.5 9.5q0 17 -3.5 66t-6.5 63q-104 -88 -188 -88q-70 0 -116 51.5t-46 122.5q0 119 95.5 212t213.5 93q88 0 137.5 -40t42.5 -126q5 -36 16.5 -157
t12.5 -156q2 -4 2 -82q0 -132 -37 -220.5t-139 -150.5q-154 -94 -281 -94q-30 0 -56.5 4t-53 14.5t-42.5 31.5t-16 52zM487 870q-63 0 -111 -54.5t-48 -117.5q42 0 100.5 65t58.5 107z" />
    <glyph glyph-name="colon" unicode=":" horiz-adv-x="266" 
d="M61 627q2 33 22 58.5t52 25.5q29 0 49.5 -20t20.5 -48q0 -32 -23 -59t-55 -27q-27 0 -46.5 20t-19.5 50zM61 78q2 33 22 58.5t52 25.5q29 0 49.5 -20t20.5 -48q0 -32 -23 -59t-55 -27q-27 0 -46.5 20t-19.5 50z" />
    <glyph glyph-name="semicolon" unicode=";" horiz-adv-x="288" 
d="M61 627q2 33 22 58.5t52 25.5q29 0 49.5 -20t20.5 -48q0 -32 -23 -59t-55 -27q-27 0 -46.5 20t-19.5 50zM61 -176q3 14 18.5 67t18.5 84q3 8 3 67t14.5 102.5t54.5 43.5q22 0 39.5 -16.5t17.5 -38.5q-1 -18 -1.5 -56t-1.5 -67t-3.5 -67t-9.5 -65.5t-18.5 -53t-30.5 -38.5
t-45 -13q-24 0 -40 13t-16 38z" />
    <glyph glyph-name="question" unicode="?" horiz-adv-x="575" 
d="M166 92q0 39 30 70t68 31q32 0 52 -17.5t20 -50.5q0 -37 -29 -68.5t-67 -31.5q-33 0 -53.5 17.5t-20.5 49.5zM174 496q0 3 -1 24t-1 25q0 85 33 186q11 37 59.5 175.5t65.5 183.5q10 40 10 51q1 2 0.5 4.5t-1.5 6.5t-1 5q-24 0 -72 -37q-20 -15 -33 -49.5t-19.5 -64.5
t-26.5 -54t-54 -24q-32 0 -52 21t-20 52q0 127 90.5 228.5t217.5 101.5q65 0 105 -43t40 -110q0 -69 -18 -119l-136 -404q-20 -59 -20 -159q-6 -31 -29 -53.5t-55 -22.5q-29 0 -51.5 22.5t-30.5 53.5z" />
    <glyph glyph-name="at" unicode="@" horiz-adv-x="1417" 
d="M606 70q88 -6 189 34q53 21 86.5 -12.5t19.5 -66.5q-138 -58 -289 -58q-94 0 -176 34.5t-140 90.5t-103.5 131.5t-72.5 152.5t-42 159q-13 72 -15 148t9 155t34 152.5t63.5 139.5t94 116.5t129.5 84t166 41.5q111 10 219 -10.5t203 -69.5t171.5 -121.5t127.5 -172
t68 -214.5q18 -125 -4 -244.5t-87 -199.5q-44 -60 -101 -83t-111 -9.5t-101.5 47.5t-79 87t-37.5 110q-29 -23 -67 -44.5t-90 -37.5t-99 -14.5t-90.5 35t-66.5 101.5q-13 38 6.5 77.5t60.5 70t89 53t94 31.5t73 2q-19 40 -40 66.5t-39 41t-44 21.5t-45 8.5t-53 1.5
q-84 0 -84 47q0 62 72 80h47q77 1 138 -24.5t98.5 -68.5t68.5 -99t48 -115.5t36 -118t33 -106.5t39 -81t54.5 -41t78.5 13q55 52 80 156t12 205q-12 97 -56 183t-108 149t-145.5 106.5t-166.5 61.5t-172.5 8.5t-162.5 -48.5q-73 -38 -125 -108.5t-78.5 -156.5t-32.5 -185
t8.5 -195.5t49.5 -186t85 -158t121 -110t152 -42.5zM756 668q-65 0 -142 -45.5t-67 -87.5q6 -17 25.5 -18.5t47.5 9t57 24t63 27.5t57 19q0 42 -23 72h-18z" />
    <glyph glyph-name="A" unicode="A" 
d="M639 358l-293 -67q-2 -4 -2 -6q0 -94 18 -135q4 -7 11.5 -19.5t10.5 -21.5t3 -21q0 -31 -23.5 -55.5t-52.5 -24.5q-36 0 -58.5 28t-29.5 66q-13 49 -30 148h-7l-96 -23q-29 0 -49.5 20.5t-20.5 51.5q0 45 24 63t68.5 26t63.5 20q-2 38 -2 167.5t2 167.5q0 37 17 177
q13 88 30 151q12 63 51 111.5t97 48.5q130 0 227 -223q39 -87 281 -928q2 -15 2 -19q0 -36 -21 -58.5t-57 -22.5q-23 0 -43.5 10t-26.5 30zM332 569q0 -11 1 -47t1 -37l6 -34l256 63l-127 387q-5 19 -47 100q-23 38 -35 48l-6 -7q-38 -112 -47 -358q0 -2 -1 -50.5t-1 -64.5z
" />
    <glyph glyph-name="B" unicode="B" horiz-adv-x="919" 
d="M211 158q0 45 6 78l2 860q1 21 23.5 34t44.5 13q80 0 82 -41l4 -172q56 19 97 99.5t38 166.5q-1 41 -19 52.5t-63 11.5q-62 0 -146.5 -32.5t-111.5 -80.5q-6 -9 -16 -32.5t-21 -30.5t-37 -7q-35 0 -54.5 21.5t-19.5 58.5q0 26 15 52.5t30.5 43t40.5 39.5q1 1 4.5 4t4.5 4
q60 55 148 86t173 31q230 0 230 -225q0 -72 -24.5 -137.5t-70.5 -141.5l7 -6q56 -4 107 -19.5t96 -43.5t71.5 -74t26.5 -104q0 -73 -22.5 -153.5t-67.5 -157t-105.5 -135t-144.5 -87.5t-177 -14h-2l-26 -19q-25 -18 -47 -18q-34 0 -55 21t-21 55zM379 737
q-1 -47 -0.5 -126.5t1.5 -191t1 -126.5v-29q68 -14 133.5 26t109 106.5t70 140.5t25.5 131q-1 38 -39 66.5t-90.5 39t-112 2t-98.5 -38.5z" />
    <glyph glyph-name="C" unicode="C" horiz-adv-x="745" 
d="M61 530q0 69 16 157t51.5 184t83.5 176t120 132t153 52q50 0 89 -24t61 -63t32.5 -83.5t10.5 -91.5q0 -46 -14 -113t-39 -137.5t-70 -120t-98 -49.5q-29 0 -48.5 19.5t-19.5 49.5q0 28 29.5 55t36.5 40q65 120 65 241q0 4 -1 29t-1 29q-2 19 -11.5 39t-25.5 20
q-13 0 -51 -22q-100 -72 -152.5 -221t-52.5 -293v-80q7 -42 23.5 -86t42 -87t63 -70.5t80.5 -27.5q35 0 91 36t87 36q32 0 52 -22t20 -54q0 -43 -49 -80.5t-105.5 -55t-95.5 -17.5q-72 0 -134.5 32t-105.5 84t-73.5 118t-45 135t-14.5 134z" />
    <glyph glyph-name="D" unicode="D" horiz-adv-x="1058" 
d="M336 33q0 12 7 34t7 37v27l-47 1122h-6q-63 0 -119 -12q-3 -1 -31.5 -9t-31.5 -9h-21q-34 0 -54 19t-20 52q0 36 25 60.5t66 36t73 15.5t66 5q1 0 23 0.5t49 1t40 0.5q118 0 211.5 -14t179 -49.5t142 -93t90 -149t33.5 -212.5q0 -120 -27 -246.5t-78 -247t-135 -222
t-188 -159.5q-91 -53 -170 -53h-35q-49 16 -49 66zM508 172l6 -22q2 0 6 2.5t4 3.5q44 29 111 106q109 117 164 287.5t55 345.5v82q-12 66 -39 115t-62 78.5t-85.5 48t-101 26t-117.5 10.5z" />
    <glyph glyph-name="E" unicode="E" horiz-adv-x="813" 
d="M94 895q0 43 6 129t6 129q0 10 -16 20t-32.5 26t-16.5 40q0 38 70.5 65t175 37.5t175 14.5t120.5 4h75h76q26 -7 43 -29.5t17 -48.5q0 -24 -17.5 -49.5t-42.5 -26.5l-463 -28q-2 0 -5 -5t-5 -9l-2 -5q-6 -47 -6 -196q0 -147 6 -191h12q10 0 164 59q14 5 68 37.5t76 32.5
q32 0 50.5 -21.5t18.5 -52.5q0 -29 -12.5 -52t-36.5 -39t-45 -25.5t-53 -20.5q-116 -37 -207 -65q-2 0 -6 -3t-4 -4v-2v-2q6 -41 17 -76.5t30 -72.5t51.5 -58.5t73.5 -21.5q20 0 39.5 6t33.5 13t32.5 22t28 24t29 29.5t27.5 28.5q14 12 41 12q31 0 51.5 -20t20.5 -51
q0 -28 -33 -80l-2 -2q-48 -66 -117 -104t-147 -38q-68 0 -124 25t-93 64.5t-65 97.5t-43.5 115.5t-25 127.5t-12 124.5t-2.5 115.5z" />
    <glyph glyph-name="F" unicode="F" horiz-adv-x="829" 
d="M121 596q0 18 14.5 40.5t14.5 29.5v8q-4 83 -27 305q-82 11 -82 74q0 24 12.5 43.5t36.5 33t42 21t46 16.5q8 4 15 4q128 24 279.5 41t252.5 17q37 0 60.5 -21t23.5 -57q0 -22 -16 -43.5t-37 -24.5l-457 -34q-23 -5 -23 -19q0 -3 -1 -22.5t-1 -22.5q0 -5 0.5 -16.5
t1 -20.5t0.5 -10q6 -87 27 -229q-2 -19 10 -19q31 0 90.5 9.5t90.5 9.5q40 0 69 -20t29 -60q0 -23 -15.5 -45t-37.5 -23l-183 -16q-18 -6 -24 -6v-11v-14l35 -346v-94q0 -24 -26 -39t-50 -15q-26 0 -49.5 20t-26.5 46l-47 440q0 4 -23.5 24t-23.5 46z" />
    <glyph glyph-name="G" unicode="G" horiz-adv-x="901" 
d="M41 643q0 74 12 168t42.5 206t75.5 204t119 153.5t165 61.5q53 0 99.5 -29.5t77.5 -74.5t48.5 -98.5t17.5 -103.5v-204q0 -23 -23.5 -38.5t-45.5 -15.5q-32 0 -50.5 21.5t-21.5 54.5q0 7 -2 71t-2 71q-2 25 -7.5 52.5t-17 58.5t-32 51t-47.5 20q-36 0 -73 -37
t-63.5 -91.5t-44.5 -101.5t-26 -81q-43 -162 -43 -324q0 -8 0.5 -25t0.5 -31l1 -14q0 -29 6 -65q0 -30 10 -70q11 -56 25 -88q6 -22 20.5 -52.5t37.5 -59.5t44 -29q50 0 106 104.5t56 159.5v18q-31 0 -141 11q-32 3 -55 24.5t-23 52.5q0 47 49 64q76 0 225 12.5t225 12.5h41
q24 -8 39 -27t15 -43q0 -32 -19.5 -56.5t-50.5 -27.5l-135 -12q-8 -66 -32.5 -139.5t-64 -145.5t-101.5 -119t-134 -47q-62 0 -112 31.5t-81.5 85t-54.5 115.5t-34 132.5t-16 126.5t-5 107z" />
    <glyph glyph-name="H" unicode="H" horiz-adv-x="825" 
d="M659 23q-31 0 -56 25t-25 58v289q-35 -5 -91.5 -13t-90.5 -12.5t-38 -4.5q-14 -7 -18 -7v-18q0 -30 9 -92t9 -94q0 -101 -75 -101q-26 0 -50.5 17t-27.5 41l-29 213h-6q-8 0 -23.5 -3.5t-23.5 -3.5q-29 0 -49.5 21t-20.5 49q0 25 16 42t34.5 24.5t34.5 15t16 14.5v11
l-113 796v4q0 36 21 64t55 28q43 0 59 -33t12 -79l123 -746l1.5 -6t1.5 -3.5t3 -2t3.5 -0.5h4.5h3h12l238 33l26 713q6 159 88 159q28 0 50 -21t22 -50q0 -17 -5.5 -56t-6.5 -51q-3 -47 -8 -215.5t-5 -218.5q-1 -80 -1 -359.5t1 -361.5q-8 -30 -29 -47.5t-51 -17.5z" />
    <glyph glyph-name="I" unicode="I" horiz-adv-x="370" 
d="M61 217l2 29l82 1028q2 31 5.5 52t12.5 48.5t29 42.5t50 15q31 0 49 -18.5t18 -49.5q0 -4 -2 -19q-23 -233 -86 -1146q-1 -30 -26.5 -51t-55.5 -21q-39 0 -58.5 25t-19.5 65z" />
    <glyph glyph-name="J" unicode="J" horiz-adv-x="874" 
d="M41 276q0 32 19.5 54t52.5 22q25 0 44 -17t37.5 -42t34.5 -35q10 -6 60 -6q65 0 114.5 30t77 80.5t41 107.5t13.5 120v14q-2 21 -14.5 138.5t-14.5 138.5q-1 3 -7 36.5t-13.5 75t-10.5 58.5q0 16 -6 22q-1 0 -11 1t-12 1q-41 -5 -160.5 -33t-179.5 -28q-32 0 -48.5 21
t-16.5 55q0 22 9.5 39t21 27t34.5 19t36 12t40 9q1 0 3 1t3 1q12 2 42.5 7t61 10.5t32.5 5.5l362 28h88q27 0 43.5 -24t16.5 -51q0 -28 -13 -46.5t-37.5 -26t-46 -10.5t-53 -3.5t-43.5 -2.5q-5 0 -11.5 -2.5t-6.5 -3.5l63 -352q8 -39 8 -135q0 -99 -24 -186.5t-71 -158
t-127 -112t-183 -41.5q-59 0 -113 17t-94.5 60t-40.5 105z" />
    <glyph glyph-name="K" unicode="K" horiz-adv-x="907" 
d="M41 1251q0 117 76 117q21 0 42.5 -16t22.5 -37l23 -524q88 49 185.5 143t162.5 174.5t134.5 172.5t86.5 112q24 24 48 16t41.5 -31t17.5 -43q0 -22 -13 -45q-99 -154 -195 -261.5t-274 -276.5q-2 -2 -18.5 -15.5t-18.5 -15.5l-4 -4l23 -19l440 -276q66 -40 66 -96
q0 -32 -21 -50t-53 -18h-20q-26 9 -48 25l-522 350q0 -3 -1 -24t-1 -25q0 -52 10.5 -157t10.5 -157q0 -33 -20.5 -55t-53.5 -22q-88 0 -92 124l-35 916v18z" />
    <glyph glyph-name="L" unicode="L" horiz-adv-x="733" 
d="M43 154q0 15 -1 107t-1 110q0 32 1 124t1 93q0 53 6.5 247t9.5 257q7 45 27.5 69.5t63.5 24.5q28 0 48.5 -19.5t20.5 -48.5q0 -58 -9 -381.5t-9 -390.5v-41v-41l422 88h14q33 0 54.5 -20.5t21.5 -52.5q0 -36 -30 -59t-71 -32l-336 -71q-8 -3 -31 -10.5t-37.5 -12
t-34.5 -8.5t-36 -4q-34 0 -59.5 19.5t-34.5 52.5z" />
    <glyph glyph-name="M" unicode="M" horiz-adv-x="1550" 
d="M41 47l78 1032q0 36 20.5 63t55.5 27q23 0 38 -11t21.5 -31.5t8 -36.5t1.5 -39l234 -402l618 553q22 19 62 19q29 0 55 -19t35 -47l241 -749v-27q0 -35 -19 -60.5t-54 -25.5q-26 0 -49 17t-31 42l-205 670h-2h-4q-6 -6 -12 -6q-295 -233 -598 -557q-21 -15 -50 -15
q-30 0 -50.5 17t-41.5 49q-12 21 -75.5 135.5t-75.5 134.5l-47 -721q-1 -27 -25 -46t-51 -19q-26 0 -52 14t-26 39z" />
    <glyph glyph-name="N" unicode="N" horiz-adv-x="821" 
d="M61 322q0 8 7 36l63 693q3 30 26 52.5t52 22.5q19 0 33.5 -9t20.5 -19.5t16 -30t16 -29.5l250 -417l4 -5q8 205 59 441q12 57 80 57q34 0 53 -21.5t19 -56.5v-26q-1 -5 -3 -16.5t-3 -16.5q-43 -253 -43 -410q0 -39 4 -115t4 -114q0 -36 -25 -68t-61 -32q-18 0 -38.5 10
t-27.5 24l-305 529l-37 -482q-3 -40 -24.5 -64t-59.5 -24q-33 0 -56.5 28.5t-23.5 62.5z" />
    <glyph glyph-name="O" unicode="O" horiz-adv-x="741" 
d="M41 487q0 133 56 259t159 196q87 59 169.5 67t142 -28t96 -113.5t36.5 -183.5q0 -56 -10.5 -118.5t-31 -126.5t-53.5 -122t-74.5 -103t-98.5 -72t-121 -27q-71 0 -125.5 33.5t-84.5 89.5t-45 118.5t-15 130.5zM199 483q0 -29 4.5 -60.5t15 -68t34 -59.5t56.5 -23
q43 0 76 29q152 141 152 375v61q-15 71 -54 103q-3 0 -20 1t-21 1q-59 0 -107.5 -36t-77 -91.5t-43.5 -115.5t-15 -116z" />
    <glyph glyph-name="P" unicode="P" horiz-adv-x="716" 
d="M242 63l-109 934q-72 22 -72 90q0 44 30 77.5t76.5 51t91 25.5t83.5 8q133 0 223 -76.5t90 -205.5q0 -91 -38 -185.5t-101 -160.5q-8 -9 -110 -111q-7 -7 -23 -18.5t-23.5 -21.5t-7.5 -26q0 -1 1 -10t1 -10l45 -338v-27q0 -34 -20.5 -59t-54.5 -25t-54.5 25.5t-27.5 62.5
zM270 1085l54 -430q7 7 12 7q2 1 35 34q129 137 129 271q0 65 -48 98t-116 33h-2q-64 0 -64 -13z" />
    <glyph glyph-name="Q" unicode="Q" horiz-adv-x="1198" 
d="M61 719q0 81 19 169.5t58.5 177t94.5 158.5t134 114t170 44q13 0 26 -1.5t23 -3t24 -5.5t20.5 -6t23 -8.5t20.5 -8.5t23 -10.5t22 -9.5q10 0 22 -6q129 -38 219.5 -141t90.5 -230q0 -123 -78 -256q-2 -6 -31.5 -50.5t-30.5 -47.5q-1 -2 -3 -4.5t-3.5 -4.5t-1.5 -3t3 -3.5
t5 -2.5q48 -32 138 -86q27 -18 41.5 -28.5t30.5 -33t16 -47.5q0 -31 -20 -54.5t-52 -23.5q-27 0 -45 12l-215 138l-10 6q-9 0 -19 -10q-56 -44 -91.5 -69t-88 -55.5t-104.5 -44.5t-107 -14q-88 0 -153.5 40.5t-101.5 108t-52.5 143t-16.5 157.5zM217 715q0 -47 7 -92
t24.5 -91.5t53 -75t85.5 -28.5q45 0 150.5 48.5t105.5 78.5v2l-158 105q-36 22 -36 69q0 31 18.5 47.5t50.5 16.5q20 0 33.5 -5.5t33.5 -21t29 -20.5q5 -3 66 -38t72 -42q2 -2 4 -2q19 0 60 73.5t52 108.5q19 44 19 51v51v47q-11 45 -74.5 107.5t-107.5 62.5q-6 0 -30 -14
t-40 -14q-76 0 -76 96q-83 0 -131 -45q-103 -92 -157 -214t-54 -261z" />
    <glyph glyph-name="R" unicode="R" 
d="M182 61l-100 893q-41 33 -41 84q0 57 46 112.5t111.5 93.5t135.5 61.5t121 23.5q117 0 192.5 -68.5t75.5 -183.5q0 -197 -174 -389q-21 -23 -69 -65.5t-70 -67.5l471 -256q41 -25 41 -70q0 -34 -21.5 -54.5t-56.5 -20.5q-26 0 -40 4t-36 20q-66 37 -406 232
q-56 28 -59 28h-14l45 -325v-27q0 -36 -19 -60t-55 -24q-27 0 -51 16.5t-27 42.5zM227 1059v-21l37 -385h10q3 0 30.5 22.5t39.5 35.5q44 41 77.5 77.5t69 84.5t55 101t19.5 105q0 47 -32.5 68.5t-83.5 21.5q-31 0 -81.5 -13t-95.5 -40t-45 -57z" />
    <glyph glyph-name="S" unicode="S" horiz-adv-x="790" 
d="M41 182q0 34 22 64t56 33h35q1 0 8 3t8 3q287 112 287 202q0 2 -1 9.5t-1 9.5q-26 34 -86 69q-20 12 -57.5 33t-58 33t-51.5 32.5t-49 36.5t-39 40.5t-32.5 49t-19 57t-7.5 69.5q0 122 73 235.5t188.5 182.5t234.5 69q92 0 155.5 -54.5t63.5 -144.5q0 -51 -17 -99
t-51.5 -93.5t-63 -75.5t-75.5 -74q-2 -2 -7 -6t-7 -6q-29 -29 -64 -29q-29 0 -50 19t-21 47q0 21 12 39q56 56 98 104q88 97 88 166v4q0 11 -0.5 16t-5.5 12t-16 11h-41q-122 0 -228 -101t-106 -222q0 -2 1 -20t1 -23q19 -45 68.5 -82t104 -64t107.5 -58.5t87 -79.5t34 -112
q0 -85 -65 -154.5t-156 -117.5q-91 -45 -184 -88q-6 -1 -28.5 -8.5t-26.5 -7.5h-25q-92 0 -92 71z" />
    <glyph glyph-name="T" unicode="T" horiz-adv-x="915" 
d="M356 242q-24 569 -16 1005l-221 13q-29 2 -53.5 22.5t-24.5 48.5q0 59 78 74h223h223q83 0 170 -6q56 -2 97.5 -24.5t41.5 -74.5q0 -55 -75 -55q-188 0 -305 -4q0 -166 10 -496t10 -495v-47q-6 -27 -27 -43.5t-49 -16.5q-74 0 -82 99z" />
    <glyph glyph-name="U" unicode="U" horiz-adv-x="716" 
d="M41 788q0 46 5.5 102.5t19.5 132.5t47 125.5t80 49.5q34 0 59 -21.5t16 -50.5q-1 -3 -8.5 -25t-10 -31t-10 -31.5t-11 -36.5t-9.5 -36t-9 -39t-6.5 -37.5t-5 -39t-1.5 -35.5v-61q1 -3 5.5 -36.5t6.5 -43.5q21 -117 70 -117q34 0 74 50.5t64.5 100.5t35.5 83q6 11 17 48
t11 42q28 139 29 157q2 11 4.5 39t6 46.5t11.5 40t24.5 33t41.5 11.5q29 0 49.5 -18.5t26.5 -46.5q0 -2 1 -21t1 -22q0 -6 -1 -24l-1 -19q-11 -89 -29 -176q-14 -70 -42.5 -146t-73 -155t-111 -130t-142.5 -51q-67 0 -116 38.5t-73.5 101t-35 124t-10.5 125.5z" />
    <glyph glyph-name="V" unicode="V" horiz-adv-x="778" 
d="M20 1276q0 34 20.5 58t55.5 24q33 0 51.5 -26t20.5 -60l184 -682q0 -2 2.5 -6t3.5 -4l242 686q23 82 92 82q36 0 51 -22t15 -64q0 -21 -11.5 -59t-79.5 -221.5t-216 -563.5q-12 -33 -38 -57.5t-57 -24.5q-48 0 -80 40.5t-47 94.5l-206 789q-3 12 -3 16z" />
    <glyph glyph-name="W" unicode="W" horiz-adv-x="1550" 
d="M180 326q-7 144 -30 286t-56.5 307.5t-50.5 274.5q-6 43 14.5 74.5t63.5 31.5q54 0 67 -55q9 -62 70.5 -366t63.5 -359q18 21 67.5 93t91.5 130.5t99.5 108t103.5 49.5q67 0 107 -65q102 -167 151 -238q4 -8 27.5 -38t31.5 -38q2 -3 68 -69q23 -19 41 -19q48 0 100 107
l70 137q93 232 98 244q19 55 76 55q34 0 55 -22t21 -56v-18l-66 -174q-3 -10 -67 -156q-19 -38 -31 -60t-35 -60.5t-44 -62t-48.5 -49t-59 -37.5t-65.5 -12q-77 0 -149 58t-121 135l-162 252q-1 0 -4 2t-4 2h-4l-58 -57q-8 -7 -70 -87t-93 -122q-12 -16 -34.5 -55.5
t-39.5 -66t-47 -49t-64 -22.5q-66 0 -84 66z" />
    <glyph glyph-name="X" unicode="X" horiz-adv-x="839" 
d="M113 283v10.5v9t0.5 6t1.5 7t3 6t5 8.5l188 278l-254 310q-19 29 -12.5 58.5t31 51t47.5 16.5q35 -7 81 -54.5t82 -101t69 -97t44 -43.5h4q5 6 7 6l225 319q22 31 70 31q26 0 45.5 -21.5t19.5 -48.5q0 -28 -34.5 -83t-219.5 -322l260 -246q23 -26 23 -61
q0 -33 -21.5 -53.5t-54.5 -20.5q-35 0 -47 12l-250 232l-168 -242q-30 -41 -68 -41q-35 0 -56 20t-21 54z" />
    <glyph glyph-name="Y" unicode="Y" horiz-adv-x="888" 
d="M61 113q0 29 19 57l317 451v6q0 9 -10 16q-4 4 -60 53.5t-63 57.5q-10 9 -61.5 61t-71.5 74q-90 104 -90 176q0 30 25 54t55 24t46 -17.5t28.5 -49.5t21.5 -44q21 -29 45.5 -57.5t57 -60.5t51.5 -49.5t60.5 -54.5t51.5 -46h9q102 149 227 434q9 13 31.5 22t42.5 9
q26 0 40.5 -19t14.5 -49v-14q-23 -65 -55.5 -136t-61 -127.5t-78.5 -138t-78 -126.5t-92 -137l-88 -126.5t-98 -137t-92 -128.5q-30 -41 -78 -41q-29 0 -47.5 16.5t-18.5 47.5z" />
    <glyph glyph-name="Z" unicode="Z" horiz-adv-x="690" 
d="M74 250q0 38 18 78q159 333 196.5 429.5t28.5 149.5q-20 3 -94 -8.5t-110 -13.5q-27 -1 -49.5 24t-22.5 52q0 94 256 94q80 0 131 -45t51 -125q0 -94 -80 -267q-1 -2 -2 -5t-2 -5q-6 -12 -71 -147.5t-78 -161.5v-6l325 39h4q31 0 52.5 -21.5t21.5 -50.5q0 -31 -18 -52
t-47 -24l-344 -45h-33q-60 0 -96.5 27t-36.5 84z" />
    <glyph glyph-name="underscore" unicode="_" horiz-adv-x="1173" 
d="M63 70q0 29 17 45t43 18l893 -2q2 -2 35 -2h32q22 -8 28 -44t-17 -44q-1 0 -3.5 -1t-3.5 -1q-461 -6 -985 -6q-16 0 -28 11t-11 26z" />
    <glyph glyph-name="a" unicode="a" horiz-adv-x="714" 
d="M479 295q-3 0 -21 -15.5t-22 -19.5q-50 -34 -106 -50t-110 -12.5t-96 42t-58 108.5q-12 54 19.5 101.5t85.5 77t104.5 47t86.5 20.5q-36 60 -71 74t-105 14h-20q-33 0 -57.5 22t-24.5 52q0 62 72 80h47q132 0 230 -96.5t142 -235.5q8 -24 72 -244q6 -6 6 -27v-6
q0 -30 -22.5 -50.5t-52.5 -20.5q-36 0 -58.5 34.5t-31 69.5t-9.5 35zM408 471q-69 0 -127.5 -34.5t-42.5 -84.5q14 -19 23.5 -26t32 -8t60 19.5t95.5 61.5q0 42 -23 72h-18z" />
    <glyph glyph-name="b" unicode="b" horiz-adv-x="591" 
d="M61 129q0 24 5 49l38 785q1 22 27.5 38.5t50.5 16.5q30 0 48 -20t18 -50q0 -45 -3 -136t-3 -136v-29q8 -4 18 -4q4 -1 12.5 -3t12.5 -3q44 -10 68 -16.5t63 -23t60 -34.5t37.5 -48.5t16.5 -68.5q0 -60 -34 -130t-86 -127t-119 -95.5t-127 -38.5h-37q-66 26 -66 74z
M229 496q-23 -276 -24 -291q56 0 106 67.5t62 161.5q4 29 -54 55q-55 24 -82 17q-9 -3 -8 -10z" />
    <glyph glyph-name="c" unicode="c" horiz-adv-x="550" 
d="M61 393q0 56 18 122t51.5 130t92 108t129.5 48q53 3 95 -34.5t42 -90.5q0 -27 -20 -45.5t-47 -18.5q-24 0 -47 17.5t-27 17.5q-54 0 -91.5 -87.5t-30 -176.5t62.5 -92q23 -1 64.5 18t62.5 19q26 0 46.5 -22.5t20.5 -47.5q0 -40 -37.5 -67.5t-79.5 -37.5t-79 -10
q-100 0 -163 73.5t-63 176.5z" />
    <glyph glyph-name="d" unicode="d" horiz-adv-x="720" 
d="M504 186l-6 19q-185 -101 -291 -101q-68 0 -107 46t-39 114q0 57 14.5 116.5t44.5 116.5t72.5 103t103 78.5t130.5 42.5l-66 426q-4 27 22.5 49.5t57.5 22.5q50 0 66 -43q1 -5 16 -100.5t49.5 -328t87.5 -602.5v-16q0 -33 -21.5 -56.5t-53.5 -23.5q-31 0 -51 21t-25 51
q-2 16 -2 32.5t-2 32.5zM438 590q-58 -8 -120 -69.5t-94 -138.5t-9 -124q7 -17 70.5 6.5t124.5 61t61 53.5v2z" />
    <glyph glyph-name="e" unicode="e" horiz-adv-x="686" 
d="M61 379q0 102 47.5 197t135.5 157t192 62q77 0 133 -49.5t56 -124.5q0 -98 -81 -175t-184 -106q-17 -4 -38.5 -5.5t-31.5 -1.5t-40.5 1.5t-32.5 1.5q5 -53 42 -109.5t83 -79.5q15 -8 40.5 -9.5t43 -2t31.5 -15t14 -46.5q0 -41 -33.5 -61.5t-75.5 -20.5q-84 0 -155.5 64.5
t-108.5 152.5t-37 170zM238 489q0 -16 38 -16h5q54 0 124 47t70 101q0 18 -47 18h-2q-51 0 -119.5 -51t-68.5 -99z" />
    <glyph glyph-name="f" unicode="f" horiz-adv-x="659" 
d="M262 -121l-59 674q-45 -10 -105 -10h-32q-46 16 -46 59q0 18 6.5 32.5t20.5 24t26.5 15.5t34.5 10l33 6t34.5 4t27.5 2q7 0 11.5 8t4.5 15q18 124 29 172q8 46 23.5 95t41.5 101.5t66 85.5t88 33q53 0 93 -42t40 -97q0 -28 -17.5 -48t-43.5 -20q-43 0 -72 56
q-18 -9 -33.5 -48t-19.5 -67q-4 -12 -29 -133q-1 -3 -5.5 -36t-6.5 -42q2 -8 2 -10q23 0 70.5 3t72.5 3h66q55 -12 55 -72q0 -26 -14.5 -46.5t-40.5 -24.5q-15 -1 -94.5 -5.5t-94.5 -5.5q-12 -6 -33 -6v-137q6 -148 26 -272t69 -318q0 -37 -23 -64.5t-61 -27.5q-46 0 -74 40
t-37 93z" />
    <glyph glyph-name="g" unicode="g" horiz-adv-x="761" 
d="M104 -238q0 29 17 49.5t47 20.5q16 0 47 -8t47 -8q73 0 146 39q32 17 56 40.5t38.5 54.5t24 61.5t13.5 72t5.5 74.5t1.5 80q0 24 -7.5 87.5t-15.5 63.5q-130 -98 -282 -98q-73 0 -127 40.5t-54 112.5q0 71 45 124.5t109 78.5t133 25q107 0 189 -43q25 14 55 14
q25 0 47.5 -18t22.5 -43v-82q19 -69 29 -152.5t6 -179.5t-25 -181t-70.5 -157.5t-122.5 -108.5q-126 -61 -225 -61q-52 0 -101 26.5t-49 75.5zM215 449q10 -27 65.5 -23.5t124.5 36t82 66.5q-15 10 -58.5 15.5t-92 2t-85.5 -28.5t-36 -68z" />
    <glyph glyph-name="h" unicode="h" horiz-adv-x="786" 
d="M61 1022q0 24 2.5 42t10 36.5t24.5 28.5t43 10q28 0 47 -19t19 -47q0 -19 -1 -43q-1 -44 9 -124.5t70 -506.5l4 4q1 2 16 27q25 42 39.5 65.5t44.5 63t55 61t60 39t71 17.5q65 0 100 -57.5t40 -131.5q1 -22 5 -146.5t5 -145.5v-19q0 -30 -19.5 -51t-48.5 -21
q-50 0 -82 70q0 84 -10 279q-4 16 -4 47q-1 0 -2.5 2t-3 4.5t-2.5 3.5q-70 -65 -121 -150q-9 -16 -42.5 -82t-43.5 -90q-5 -11 -16 -37.5t-18 -39.5t-24 -25t-40 -12q-41 0 -63.5 39.5t-28.5 85.5q-95 755 -95 823z" />
    <glyph glyph-name="i" unicode="i" horiz-adv-x="387" 
d="M61 98v15q8 38 30 160t26 155q2 13 2 45t2.5 57.5t10.5 52.5t30.5 41.5t58.5 12.5q25 -2 44.5 -14.5t19.5 -36.5v-133q0 -43 -33 -287q-3 -27 -7.5 -46.5t-14 -42.5t-28 -35.5t-44.5 -12.5q-34 0 -65.5 19.5t-31.5 49.5zM174 885q0 32 20.5 49.5t53.5 17.5q30 0 54 -19.5
t24 -47.5q0 -32 -27 -49t-61 -17q-30 0 -47 18.5t-17 47.5z" />
    <glyph glyph-name="j" unicode="j" horiz-adv-x="382" 
d="M-156 -264q0 28 20 47.5t46 19.5q28 0 61.5 -35.5t59.5 -35.5q53 0 83 39.5t40.5 131.5t-4.5 250t-56 390v18q0 44 26.5 82.5t72.5 38.5q18 0 39.5 -11.5t21.5 -29.5l59 -502q49 -403 -143 -512q-85 -47 -137 -47q-69 0 -129 44t-60 112zM82 893q0 34 21 58t55 24
q36 0 61 -34t25 -73q0 -27 -20 -43t-48 -16q-37 0 -65.5 24t-28.5 60z" />
    <glyph glyph-name="k" unicode="k" horiz-adv-x="763" 
d="M41 1208q0 33 27 61.5t63 28.5q43 0 60.5 -90.5t56.5 -502.5q1 -9 3 -29t3 -29q1 -12 4 -37t4 -39q0 -2 2 -2l4 2q4 2 6 4l258 322q45 55 103 55q29 0 49.5 -17.5t20.5 -47.5q0 -13 -6 -24t-30 -39.5t-57.5 -66.5t-103.5 -124.5t-152 -194.5v-4q0 -4 9.5 -11t13.5 -7
q29 -15 160 -78q16 -7 56.5 -19.5t69.5 -22.5t53.5 -33.5t24.5 -55.5q0 -31 -20 -46.5t-51 -15.5q-77 0 -213 64q-1 1 -4 2t-4 2q-3 2 -11.5 5t-11.5 5q-11 4 -70 33t-69 33v-23q0 -20 3 -58.5t3 -57.5q0 -28 -21.5 -50t-50.5 -22q-26 0 -50.5 23t-27.5 51l-102 1034l-1 9
q-1 9 -1 13z" />
    <glyph glyph-name="l" unicode="l" horiz-adv-x="677" 
d="M41 387q0 110 54 385.5t95 380.5q9 39 74 39q30 0 47 -18.5t17 -49.5q-2 -12 -2 -14q-30 -99 -78.5 -364t-48.5 -355q0 -54 35.5 -89t91.5 -46q4 0 27.5 -1t27.5 -1q39 0 106 17.5t101 17.5q32 0 50.5 -16.5t18.5 -47.5q0 -35 -33 -61.5t-82 -39t-91.5 -18.5t-73.5 -6
q-88 0 -163.5 32.5t-124 99.5t-48.5 155z" />
    <glyph glyph-name="m" unicode="m" horiz-adv-x="1222" 
d="M967 487q0 1 -11 45l-6 11h-4q-18 -6 -39.5 -20.5t-37.5 -27t-40.5 -39t-33.5 -36.5t-34.5 -39.5t-25.5 -30.5l-88 -117q-50 -61 -102 -61q-36 0 -64 24t-37 60l-61 193q-74 -66 -168 -224l-10 -18q-10 -14 -31 -23.5t-41 -9.5q-25 0 -44.5 15t-27.5 38v183q0 63 7 143
q10 123 79 123q27 0 44 -9t23.5 -22.5t7 -35t-2.5 -39t-8 -43.5t-6 -40q12 12 14 15q34 35 53 53t55 38.5t68 20.5q42 0 76.5 -29t48.5 -71q4 -10 22.5 -69t22.5 -68l4 4q17 25 95 119q90 90 110 108q39 37 87.5 63.5t94.5 26.5q69 0 110 -57t50 -131l33 -277q12 -37 12 -65
q0 -31 -17.5 -52.5t-47.5 -21.5q-42 0 -66 35t-31 82q-17 172 -32 276z" />
    <glyph glyph-name="n" unicode="n" horiz-adv-x="794" 
d="M465 481h-4q-37 14 -70.5 -14.5t-59 -80t-49.5 -105t-53 -93.5t-59 -41q-32 -1 -57 24t-27 58q-1 11 -6 50.5t-8.5 77.5t-7 88t-1 91.5t10.5 77.5t26.5 56t46.5 18q30 -1 49 -22.5t19 -51.5v-170q43 99 111.5 155t146.5 56q71 0 115.5 -56.5t62.5 -135.5q6 -26 29.5 -134
t26.5 -126l26 -72v-16q0 -31 -22.5 -52.5t-53.5 -21.5q-41 0 -70.5 34.5t-39.5 80.5q-4 14 -24.5 113t-24.5 120q-8 40 -33 92z" />
    <glyph glyph-name="o" unicode="o" horiz-adv-x="634" 
d="M43 356q-2 62 15 123t54 114.5t105.5 83.5t159.5 23q145 -12 195 -126q43 -99 -1 -224q-43 -120 -139 -181q-71 -45 -153 -42q-57 2 -103 23.5t-73.5 55.5t-42.5 72t-17 78zM334 563q-68 5 -106.5 -68.5t-23.5 -150t75 -80.5q74 -4 120 69t29.5 149t-94.5 81z" />
    <glyph glyph-name="p" unicode="p" horiz-adv-x="636" 
d="M41 487q0 76 61.5 144t145.5 104.5t158 36.5q99 0 154.5 -39t55.5 -133q0 -117 -88 -222t-206 -169l98 -485v-19q0 -35 -22.5 -61.5t-57.5 -26.5q-30 0 -50 17t-26 47l-137 696q0 3 -22 14.5t-43 36t-21 59.5zM252 541v-17l29 -168q2 -2 4 -2q19 0 57 29t73 69.5t52 85
t-6 76.5q-9 15 -43 16t-71 -9t-66 -32t-29 -48z" />
    <glyph glyph-name="q" unicode="q" horiz-adv-x="782" 
d="M557 -395q-23 358 -37 903q0 64 -4 92q-68 -90 -153 -147.5t-179 -57.5q-164 24 -164 164q0 60 29 114.5t76 91.5t106.5 63.5t120.5 31t119 -5.5q21 38 42 58t54 20q31 0 50 -12.5t27.5 -38.5t11 -46.5t3.5 -56.5q7 -180 13 -335.5t11.5 -265t10 -200t8 -148t7 -101
t5.5 -66.5t3.5 -38t2.5 -22t1 -12q0 -37 -27.5 -63.5t-64.5 -26.5q-27 0 -42.5 14.5t-19.5 30.5t-8 47q0 2 -1 6.5t-1 6.5zM463 745q-121 0 -210 -63t-89 -121q5 -77 143 31q84 66 143 134q17 19 13 19z" />
    <glyph glyph-name="r" unicode="r" horiz-adv-x="815" 
d="M154 111l-80 567q10 48 73 55q26 3 42.5 -2.5t25.5 -15.5t15 -33.5t8.5 -46t8 -65t11.5 -78.5q124 184 344 184q54 0 104.5 -31t47.5 -72q-3 -35 -23 -57t-51 -22q-18 0 -46 12t-46 12q-67 0 -134 -35t-112.5 -103.5t-40.5 -150.5q1 -8 9.5 -66t8.5 -69q-4 -30 -26 -46.5
t-51 -16.5q-70 0 -88 80z" />
    <glyph glyph-name="s" unicode="s" horiz-adv-x="753" 
d="M63 25q-4 31 14.5 49t49.5 18q19 0 44 -11t42 -11q66 0 128 23.5t95 68.5v8q-3 19 -18 37l-2 2q-9 7 -46 36t-53.5 44.5t-42.5 42.5t-39 54t-16 56q-12 106 78.5 183t239.5 71q57 -2 102 -37t51 -88q3 -33 -8.5 -48t-42.5 -15q-26 0 -55 20t-35 21q-81 11 -128 -26
t-42 -77l4 -10q3 -3 10 -8t10 -8q40 -33 62.5 -53.5t56 -56t52 -71t22.5 -71.5q14 -105 -114 -177t-267 -64t-152 98z" />
    <glyph glyph-name="t" unicode="t" horiz-adv-x="761" 
d="M182 483h-104q-20 0 -39 27t-19 47q0 33 17.5 49.5t42 19t49 1.5t42 1.5t17.5 14.5l25 371q0 37 18 64.5t52 27.5q31 0 53 -22.5t22 -53.5q0 -36 -12 -184t-12 -195v-12q34 0 101.5 6t101.5 6h61q33 -10 47 -23.5t14 -41.5q0 -71 -49 -74l-276 -18v-27v-21
q0 -35 0.5 -51.5t3 -50.5t10 -52.5t19.5 -40.5t33 -32t49 -10q50 0 124 22.5t99 22.5q20 0 29.5 -1t20.5 -5t15 -13.5t4 -25.5q0 -41 -32.5 -72t-81.5 -46.5t-94.5 -22.5t-83.5 -7q-71 0 -121 22.5t-76 51t-41 87t-19 98t-8 115.5v1q0 8 -1 23.5t-1 23.5z" />
    <glyph glyph-name="u" unicode="u" horiz-adv-x="905" 
d="M61 328q0 29 2 61t10 79t20.5 82.5t37 61t57.5 25.5q34 0 54 -20.5t20 -55.5l-2 -22q0 -3 -18 -39q-17 -57 -17 -166q0 -35 8 -51h7q18 0 82 43q11 9 126 97t138 107q5 3 13 7l12 6t11 4t15 2q27 0 47.5 -9.5t36 -30.5t23.5 -36.5t20.5 -47t17.5 -42.5q1 -4 31.5 -56.5
t30.5 -82.5q0 -34 -19 -59t-53 -25q-52 0 -86 63q-4 7 -18.5 33t-30.5 55.5t-19 34.5q0 2 -2 4t-4 2t-7 -2.5t-5 -3.5q-128 -102 -168 -129q-57 -44 -107 -69t-104 -25q-81 0 -120.5 59.5t-39.5 145.5z" />
    <glyph glyph-name="v" unicode="v" horiz-adv-x="663" 
d="M309 55q-29 9 -91.5 118t-119.5 240t-75 205q-8 35 18 59.5t63 14.5q45 -12 85 -81.5t79.5 -174.5t53.5 -131l153 338q20 43 45 66.5t64 23.5q38 0 53 -41t-2 -76q-49 -115 -88.5 -201.5t-86.5 -178t-86 -139t-65 -42.5z" />
    <glyph glyph-name="w" unicode="w" horiz-adv-x="1271" 
d="M41 203l61 405q4 28 25 44t47 16q33 0 54.5 -24t21.5 -58v-6l-41 -277v-24q137 145 210 215t107.5 91t65.5 21q30 0 56.5 -13.5t48 -39.5t36 -48.5t33 -56.5t27.5 -47q79 -118 159 -118q28 0 47 12t28.5 27.5t14.5 43.5t6 46t1 49q0 37 -11.5 109.5t-11.5 109.5
q0 32 21.5 56t52.5 24q33 0 55.5 -20t30.5 -56q21 -151 24 -197v-28q0 -68 -12 -123t-39 -103t-79 -75t-124 -27q-52 0 -101.5 21t-86.5 52t-75 78t-62.5 85t-52.5 88l-310 -314q-73 -61 -129 -61q-45 0 -71.5 37t-26.5 86z" />
    <glyph glyph-name="x" unicode="x" horiz-adv-x="753" 
d="M76 193q0 5 1 10.5t2 9.5t4 10t4.5 8.5t6 9t6 8.5t7 9t6.5 8q9 12 67.5 77t67.5 77q-13 14 -63 50.5t-87 73t-37 68.5q0 29 22.5 51.5t53.5 22.5q37 0 74 -33q10 -7 70.5 -54t70.5 -54h8q1 0 10.5 9.5t12.5 14.5q10 8 62.5 69t60.5 73q6 6 23.5 25.5t27 28t26 17.5
t33.5 9q34 0 55 -20t21 -54q0 -23 -12 -37l-197 -248q-1 0 3 -4l12 -12l8 -8q2 -2 36.5 -31t65 -55t35.5 -31q43 -37 43 -78q0 -31 -23.5 -54.5t-54.5 -23.5q-15 0 -36 8t-33 19l-162 135h-10q-100 -112 -105 -119q-4 -4 -15.5 -16.5t-15.5 -16.5t-14.5 -13t-17 -12
t-17.5 -6t-22 -3q-34 0 -59 23.5t-25 58.5z" />
    <glyph glyph-name="y" unicode="y" horiz-adv-x="770" 
d="M59 -209v-2q-16 40 -16 100q0 52 17 94t53 56h-2q30 11 61 -2t41 -43q9 -28 2 -74q-7 -40 4 -67q15 -39 80 -39q31 0 63 8q102 29 159 130t57 222q0 138 -56 250q-17 -73 -59 -121t-87 -65t-95 -17q-42 0 -66 8q-84 24 -129 86.5t-45 141.5q0 27 2 54.5t9.5 65.5
t19.5 66.5t35.5 49t54.5 20.5q29 0 51.5 -23.5t22.5 -52.5q0 -21 -15 -64q-20 -58 -20 -102q0 -42 16.5 -66.5t38.5 -27.5q34 -3 60 6.5t41.5 24.5t27 41t17 47.5t10.5 52.5t7.5 44.5t9.5 37t15.5 33.5t23 19t34.5 9q43 0 65 -28l31 -50q131 -215 131 -454
q0 -164 -74.5 -291.5t-234.5 -190.5q-62 -24 -133 -24q-77 0 -138.5 34t-89.5 103z" />
    <glyph glyph-name="z" unicode="z" horiz-adv-x="833" 
d="M145 166q0 51 35 123q5 13 51.5 92t51.5 90q4 10 16 38t24 56.5t25 63t20.5 62t7.5 50t-11 29.5q-40 0 -66.5 -10.5t-38 -23t-34 -25.5t-54.5 -17l-12 -1q-12 -1 -17 -1q-36 0 -59 21.5t-23 58.5q0 48 57.5 86t121 54t106.5 16q85 0 132.5 -53t47.5 -140q0 -119 -69 -264
q-13 -26 -73.5 -140.5t-70.5 -133.5h70l285 45q1 0 9 1t9 1q39 0 62.5 -19t23.5 -57q0 -60 -82 -82q-133 -26 -284 -47q-35 -6 -84 -6q-72 0 -124.5 32.5t-52.5 100.5z" />
    <glyph glyph-name="Agrave" unicode="&#xc0;" 
d="M639 358l-293 -67q-2 -4 -2 -6q0 -94 18 -135q4 -7 11.5 -19.5t10.5 -21.5t3 -21q0 -31 -23.5 -55.5t-52.5 -24.5q-36 0 -58.5 28t-29.5 66q-13 49 -30 148h-7l-96 -23q-29 0 -49.5 20.5t-20.5 51.5q0 45 24 63t68.5 26t63.5 20q-2 38 -2 167.5t2 167.5q0 37 17 177
q13 88 30 151q12 63 51 111.5t97 48.5q130 0 227 -223q39 -87 281 -928q2 -15 2 -19q0 -36 -21 -58.5t-57 -22.5q-23 0 -43.5 10t-26.5 30zM332 569q0 -11 1 -47t1 -37l6 -34l256 63l-127 387q-5 19 -47 100q-23 38 -35 48l-6 -7q-38 -112 -47 -358q0 -2 -1 -50.5t-1 -64.5z
M469 1421q7 -21 -3.5 -41t-31.5 -26q-34 -11 -115.5 61t-93.5 103q-7 22 1.5 43t31.5 28q19 7 68.5 -27.5t93 -77.5t49.5 -63z" />
    <glyph glyph-name="Aacute" unicode="&#xc1;" 
d="M639 358l-293 -67q-2 -4 -2 -6q0 -94 18 -135q4 -7 11.5 -19.5t10.5 -21.5t3 -21q0 -31 -23.5 -55.5t-52.5 -24.5q-36 0 -58.5 28t-29.5 66q-13 49 -30 148h-7l-96 -23q-29 0 -49.5 20.5t-20.5 51.5q0 45 24 63t68.5 26t63.5 20q-2 38 -2 167.5t2 167.5q0 37 17 177
q13 88 30 151q12 63 51 111.5t97 48.5q130 0 227 -223q39 -87 281 -928q2 -15 2 -19q0 -36 -21 -58.5t-57 -22.5q-23 0 -43.5 10t-26.5 30zM332 569q0 -11 1 -47t1 -37l6 -34l256 63l-127 387q-5 19 -47 100q-23 38 -35 48l-6 -7q-38 -112 -47 -358q0 -2 -1 -50.5t-1 -64.5z
M225 1421q6 20 49.5 63t93 77.5t68.5 27.5q23 -7 31.5 -28t1.5 -43q-12 -31 -93.5 -103t-115.5 -61q-21 6 -31.5 26t-3.5 41z" />
    <glyph glyph-name="Acircumflex" unicode="&#xc2;" 
d="M639 358l-293 -67q-2 -4 -2 -6q0 -94 18 -135q4 -7 11.5 -19.5t10.5 -21.5t3 -21q0 -31 -23.5 -55.5t-52.5 -24.5q-36 0 -58.5 28t-29.5 66q-13 49 -30 148h-7l-96 -23q-29 0 -49.5 20.5t-20.5 51.5q0 45 24 63t68.5 26t63.5 20q-2 38 -2 167.5t2 167.5q0 37 17 177
q13 88 30 151q12 63 51 111.5t97 48.5q130 0 227 -223q39 -87 281 -928q2 -15 2 -19q0 -36 -21 -58.5t-57 -22.5q-23 0 -43.5 10t-26.5 30zM332 569q0 -11 1 -47t1 -37l6 -34l256 63l-127 387q-5 19 -47 100q-23 38 -35 48l-6 -7q-38 -112 -47 -358q0 -2 -1 -50.5t-1 -64.5z
M348 1464q-14 -6 -38 -22.5t-36 -28.5q-8 -7 -21.5 -24t-26.5 -27t-29 -10q-25 0 -43.5 15.5t-18.5 39.5q0 9 2.5 17.5t9 17.5t10.5 14t13.5 15t11.5 12q17 10 50.5 39.5t63.5 48t56 18.5q22 0 70.5 -30.5t91.5 -77.5t43 -84q0 -26 -14 -42t-39 -16q-28 0 -43 15l-103 106
q-1 0 -3.5 1.5t-4.5 2.5t-2 0z" />
    <glyph glyph-name="Atilde" unicode="&#xc3;" 
d="M639 358l-293 -67q-2 -4 -2 -6q0 -94 18 -135q4 -7 11.5 -19.5t10.5 -21.5t3 -21q0 -31 -23.5 -55.5t-52.5 -24.5q-36 0 -58.5 28t-29.5 66q-13 49 -30 148h-7l-96 -23q-29 0 -49.5 20.5t-20.5 51.5q0 45 24 63t68.5 26t63.5 20q-2 38 -2 167.5t2 167.5q0 37 17 177
q13 88 30 151q12 63 51 111.5t97 48.5q130 0 227 -223q39 -87 281 -928q2 -15 2 -19q0 -36 -21 -58.5t-57 -22.5q-23 0 -43.5 10t-26.5 30zM332 569q0 -11 1 -47t1 -37l6 -34l256 63l-127 387q-5 19 -47 100q-23 38 -35 48l-6 -7q-38 -112 -47 -358q0 -2 -1 -50.5t-1 -64.5z
M84 1409q0 72 71 136.5t144 64.5q42 0 71.5 -19t41.5 -41.5t24 -41.5t23 -19q20 0 44.5 25.5t45.5 25.5q25 0 40 -14t15 -37q0 -52 -45.5 -86.5t-99.5 -34.5q-37 0 -66 19.5t-42.5 43t-24 43t-15.5 19.5q-38 0 -64.5 -21.5t-38.5 -48t-31 -48t-44 -21.5q-24 0 -36.5 15.5
t-12.5 39.5z" />
    <glyph glyph-name="Adieresis" unicode="&#xc4;" 
d="M639 358l-293 -67q-2 -4 -2 -6q0 -94 18 -135q4 -7 11.5 -19.5t10.5 -21.5t3 -21q0 -31 -23.5 -55.5t-52.5 -24.5q-36 0 -58.5 28t-29.5 66q-13 49 -30 148h-7l-96 -23q-29 0 -49.5 20.5t-20.5 51.5q0 45 24 63t68.5 26t63.5 20q-2 38 -2 167.5t2 167.5q0 37 17 177
q13 88 30 151q12 63 51 111.5t97 48.5q130 0 227 -223q39 -87 281 -928q2 -15 2 -19q0 -36 -21 -58.5t-57 -22.5q-23 0 -43.5 10t-26.5 30zM332 569q0 -11 1 -47t1 -37l6 -34l256 63l-127 387q-5 19 -47 100q-23 38 -35 48l-6 -7q-38 -112 -47 -358q0 -2 -1 -50.5t-1 -64.5z
M395 1415q2 29 19.5 53.5t44.5 24.5q25 0 47 -22t22 -48q0 -31 -24.5 -47t-57.5 -16q-21 0 -36 17t-15 38zM160 1417q0 28 18 48t47 20q28 0 48 -21t20 -49q0 -30 -24 -44.5t-56 -14.5q-25 0 -39 17.5t-14 43.5z" />
    <glyph glyph-name="Aring" unicode="&#xc5;" 
d="M639 358l-293 -67q-2 -4 -2 -6q0 -94 18 -135q4 -7 11.5 -19.5t10.5 -21.5t3 -21q0 -31 -23.5 -55.5t-52.5 -24.5q-36 0 -58.5 28t-29.5 66q-13 49 -30 148h-7l-96 -23q-29 0 -49.5 20.5t-20.5 51.5q0 45 24 63t68.5 26t63.5 20q-2 38 -2 167.5t2 167.5q0 37 17 177
q13 88 30 151q12 63 51 111.5t97 48.5q130 0 227 -223q39 -87 281 -928q2 -15 2 -19q0 -36 -21 -58.5t-57 -22.5q-23 0 -43.5 10t-26.5 30zM332 569q0 -11 1 -47t1 -37l6 -34l256 63l-127 387q-5 19 -47 100q-23 38 -35 48l-6 -7q-38 -112 -47 -358q0 -2 -1 -50.5t-1 -64.5z
M332 1356q-71 0 -109.5 42t-38.5 101q0 71 55.5 119t147.5 29q55 -11 88 -43t33 -76q0 -75 -50.5 -123.5t-125.5 -48.5zM287 1497q0 -22 17 -36.5t42 -14.5t42.5 14.5t17.5 36.5t-17.5 36.5t-42.5 14.5t-42 -14.5t-17 -36.5z" />
    <glyph glyph-name="AE" unicode="&#xc6;" horiz-adv-x="1325" 
d="M371 1231q159 0 245 -291q0 12 1 33t1 33q0 36 7.5 64.5t25 50t37.5 36.5t55 25t67 16t82.5 9t93.5 4t108 1h151q26 -8 43 -29.5t17 -47.5q0 -24 -17.5 -49.5t-42.5 -26.5l-463 -29q-2 0 -5 -4.5t-5 -9.5l-2 -4q-6 -47 -6 -197q0 -146 6 -190h12q10 0 164 59
q14 5 68 37.5t76 32.5q32 0 50.5 -21.5t18.5 -52.5q0 -29 -12.5 -52t-36.5 -39t-45 -25.5t-53 -20.5l-207 -66q-2 0 -6 -2.5t-4 -3.5v-4q6 -41 17 -76.5t30 -72.5t51.5 -58.5t73.5 -21.5q24 0 44.5 5.5t44 23t32 24t38 37t31.5 32.5q15 13 41 13q31 0 51.5 -20.5t20.5 -51.5
q0 -28 -33 -80l-2 -2q-48 -66 -117 -103.5t-147 -37.5q-237 0 -322 287l-303 -74q-2 -4 -2 -6q0 -94 18 -135q4 -7 11.5 -19.5t10.5 -21.5t3 -21q0 -31 -23.5 -55.5t-52.5 -24.5q-36 0 -58.5 28t-29.5 66q-13 49 -30 148h-7l-96 -23q-29 0 -49.5 20.5t-20.5 51.5q0 45 24 63
t68.5 26t63.5 20q-2 38 -2 167.5t2 167.5q0 37 17 177q13 88 30 151q12 63 51 111.5t97 48.5zM332 569q0 -11 1 -47t1 -37l6 -34l256 63l-127 387q-5 19 -47 100q-23 38 -35 48l-6 -7q-38 -112 -47 -358q0 -2 -1 -50.5t-1 -64.5z" />
    <glyph glyph-name="Ccedilla" unicode="&#xc7;" horiz-adv-x="745" 
d="M236 -317q0 21 16.5 34.5t39 19t52.5 21t49 39.5q-45 13 -72.5 44t-34 69t-2.5 75.5t17 69.5q-77 38 -133 120t-81.5 173.5t-25.5 181.5q0 69 16 157t51.5 184t83.5 176t120 132t153 52q50 0 89 -24t61 -63t32.5 -83.5t10.5 -91.5q0 -46 -14 -113t-39 -137.5t-70 -120
t-98 -49.5q-29 0 -48.5 19.5t-19.5 49.5q0 28 29.5 55t36.5 40q65 120 65 241q0 4 -1 29t-1 29q-2 19 -11.5 39t-25.5 20q-13 0 -51 -22q-100 -72 -152.5 -221t-52.5 -293v-80q7 -42 23.5 -86t42 -87t63 -70.5t80.5 -27.5q35 0 91 36t87 36q32 0 52 -22t20 -54
q0 -43 -49 -80.5t-105.5 -55t-95.5 -17.5q-20 0 -28 2q-1 -7 -4 -24t-5 -27.5t-3.5 -24t0 -22.5t5.5 -13q1 0 3.5 -1t3.5 -1q30 -11 43 -16.5t33.5 -18t29 -30t8.5 -41.5q0 -43 -26.5 -80.5t-63 -59.5t-67.5 -34.5t-46 -12.5q-41 0 -61 13t-20 47z" />
    <glyph glyph-name="Egrave" unicode="&#xc8;" horiz-adv-x="813" 
d="M94 895q0 43 6 129t6 129q0 10 -16 20t-32.5 26t-16.5 40q0 38 70.5 65t175 37.5t175 14.5t120.5 4h75h76q26 -7 43 -29.5t17 -48.5q0 -24 -17.5 -49.5t-42.5 -26.5l-463 -28q-2 0 -5 -5t-5 -9l-2 -5q-6 -47 -6 -196q0 -147 6 -191h12q10 0 164 59q14 5 68 37.5t76 32.5
q32 0 50.5 -21.5t18.5 -52.5q0 -29 -12.5 -52t-36.5 -39t-45 -25.5t-53 -20.5q-116 -37 -207 -65q-2 0 -6 -3t-4 -4v-2v-2q6 -41 17 -76.5t30 -72.5t51.5 -58.5t73.5 -21.5q20 0 39.5 6t33.5 13t32.5 22t28 24t29 29.5t27.5 28.5q14 12 41 12q31 0 51.5 -20t20.5 -51
q0 -28 -33 -80l-2 -2q-48 -66 -117 -104t-147 -38q-68 0 -124 25t-93 64.5t-65 97.5t-43.5 115.5t-25 127.5t-12 124.5t-2.5 115.5zM539 1524q7 -21 -3.5 -41.5t-31.5 -26.5q-34 -11 -115.5 61t-93.5 103q-7 22 1.5 43.5t31.5 28.5q19 7 68.5 -27.5t93 -77.5t49.5 -63z" />
    <glyph glyph-name="Eacute" unicode="&#xc9;" horiz-adv-x="813" 
d="M94 895q0 43 6 129t6 129q0 10 -16 20t-32.5 26t-16.5 40q0 38 70.5 65t175 37.5t175 14.5t120.5 4h75h76q26 -7 43 -29.5t17 -48.5q0 -24 -17.5 -49.5t-42.5 -26.5l-463 -28q-2 0 -5 -5t-5 -9l-2 -5q-6 -47 -6 -196q0 -147 6 -191h12q10 0 164 59q14 5 68 37.5t76 32.5
q32 0 50.5 -21.5t18.5 -52.5q0 -29 -12.5 -52t-36.5 -39t-45 -25.5t-53 -20.5q-116 -37 -207 -65q-2 0 -6 -3t-4 -4v-2v-2q6 -41 17 -76.5t30 -72.5t51.5 -58.5t73.5 -21.5q20 0 39.5 6t33.5 13t32.5 22t28 24t29 29.5t27.5 28.5q14 12 41 12q31 0 51.5 -20t20.5 -51
q0 -28 -33 -80l-2 -2q-48 -66 -117 -104t-147 -38q-68 0 -124 25t-93 64.5t-65 97.5t-43.5 115.5t-25 127.5t-12 124.5t-2.5 115.5zM295 1524q6 20 49.5 63t93 77.5t68.5 27.5q23 -7 31.5 -28.5t1.5 -43.5q-12 -31 -93.5 -103t-115.5 -61q-21 6 -31.5 26.5t-3.5 41.5z" />
    <glyph glyph-name="Ecircumflex" unicode="&#xca;" horiz-adv-x="813" 
d="M94 895q0 43 6 129t6 129q0 10 -16 20t-32.5 26t-16.5 40q0 38 70.5 65t175 37.5t175 14.5t120.5 4h75h76q26 -7 43 -29.5t17 -48.5q0 -24 -17.5 -49.5t-42.5 -26.5l-463 -28q-2 0 -5 -5t-5 -9l-2 -5q-6 -47 -6 -196q0 -147 6 -191h12q10 0 164 59q14 5 68 37.5t76 32.5
q32 0 50.5 -21.5t18.5 -52.5q0 -29 -12.5 -52t-36.5 -39t-45 -25.5t-53 -20.5q-116 -37 -207 -65q-2 0 -6 -3t-4 -4v-2v-2q6 -41 17 -76.5t30 -72.5t51.5 -58.5t73.5 -21.5q20 0 39.5 6t33.5 13t32.5 22t28 24t29 29.5t27.5 28.5q14 12 41 12q31 0 51.5 -20t20.5 -51
q0 -28 -33 -80l-2 -2q-48 -66 -117 -104t-147 -38q-68 0 -124 25t-93 64.5t-65 97.5t-43.5 115.5t-25 127.5t-12 124.5t-2.5 115.5zM418 1567q-14 -6 -38 -22.5t-36 -28.5q-8 -7 -21.5 -24t-27 -27.5t-29.5 -10.5q-25 0 -43 15.5t-18 39.5q0 9 2.5 17.5t9 17.5t10.5 14
t13.5 15t11.5 12q17 10 50.5 39.5t63.5 48.5t56 19q22 0 70.5 -31t91.5 -78t43 -84q0 -26 -14.5 -41.5t-39.5 -15.5q-29 0 -43 14l-102 107q-1 0 -3.5 1.5t-4.5 2.5t-2 0z" />
    <glyph glyph-name="Edieresis" unicode="&#xcb;" horiz-adv-x="813" 
d="M94 895q0 43 6 129t6 129q0 10 -16 20t-32.5 26t-16.5 40q0 38 70.5 65t175 37.5t175 14.5t120.5 4h75h76q26 -7 43 -29.5t17 -48.5q0 -24 -17.5 -49.5t-42.5 -26.5l-463 -28q-2 0 -5 -5t-5 -9l-2 -5q-6 -47 -6 -196q0 -147 6 -191h12q10 0 164 59q14 5 68 37.5t76 32.5
q32 0 50.5 -21.5t18.5 -52.5q0 -29 -12.5 -52t-36.5 -39t-45 -25.5t-53 -20.5q-116 -37 -207 -65q-2 0 -6 -3t-4 -4v-2v-2q6 -41 17 -76.5t30 -72.5t51.5 -58.5t73.5 -21.5q20 0 39.5 6t33.5 13t32.5 22t28 24t29 29.5t27.5 28.5q14 12 41 12q31 0 51.5 -20t20.5 -51
q0 -28 -33 -80l-2 -2q-48 -66 -117 -104t-147 -38q-68 0 -124 25t-93 64.5t-65 97.5t-43.5 115.5t-25 127.5t-12 124.5t-2.5 115.5zM465 1518q2 29 19 53t44 24q25 0 47.5 -21.5t22.5 -47.5q0 -31 -24.5 -47.5t-57.5 -16.5q-21 0 -36 17.5t-15 38.5zM229 1520
q0 28 18.5 47.5t47.5 19.5q28 0 47.5 -20.5t19.5 -48.5q0 -30 -23.5 -45t-55.5 -15q-25 0 -39.5 18t-14.5 44z" />
    <glyph glyph-name="Igrave" unicode="&#xcc;" horiz-adv-x="370" 
d="M61 217l2 29l82 1028q2 31 5.5 52t12.5 48.5t29 42.5t50 15q31 0 49 -18.5t18 -49.5q0 -4 -2 -19q-23 -233 -86 -1146q-1 -30 -26.5 -51t-55.5 -21q-39 0 -58.5 25t-19.5 65zM367 1610q7 -21 -3.5 -41.5t-31.5 -26.5q-34 -11 -115.5 61t-93.5 103q-7 22 1.5 43.5
t31.5 28.5q19 7 68.5 -27.5t93 -77.5t49.5 -63z" />
    <glyph glyph-name="Iacute" unicode="&#xcd;" horiz-adv-x="370" 
d="M61 217l2 29l82 1028q2 31 5.5 52t12.5 48.5t29 42.5t50 15q31 0 49 -18.5t18 -49.5q0 -4 -2 -19q-23 -233 -86 -1146q-1 -30 -26.5 -51t-55.5 -21q-39 0 -58.5 25t-19.5 65zM123 1610q6 20 49.5 63t93 77.5t68.5 27.5q23 -7 31.5 -28.5t1.5 -43.5q-12 -31 -93.5 -103
t-115.5 -61q-21 6 -31.5 26.5t-3.5 41.5z" />
    <glyph glyph-name="Icircumflex" unicode="&#xce;" horiz-adv-x="370" 
d="M61 217l2 29l82 1028q2 31 5.5 52t12.5 48.5t29 42.5t50 15q31 0 49 -18.5t18 -49.5q0 -4 -2 -19q-23 -233 -86 -1146q-1 -30 -26.5 -51t-55.5 -21q-39 0 -58.5 25t-19.5 65zM246 1653q-14 -6 -38 -22.5t-36 -28.5q-8 -7 -21.5 -24t-27 -27.5t-29.5 -10.5q-25 0 -43 15.5
t-18 39.5q0 9 2.5 17.5t9 17.5t10.5 14t13.5 15t11.5 12q17 10 50.5 39.5t63.5 48.5t56 19q22 0 70.5 -31t91.5 -78t43 -84q0 -26 -14.5 -41.5t-39.5 -15.5q-29 0 -43 14l-102 107q-1 0 -3.5 1.5t-4.5 2.5t-2 0z" />
    <glyph glyph-name="Idieresis" unicode="&#xcf;" horiz-adv-x="370" 
d="M61 217l2 29l82 1028q2 31 5.5 52t12.5 48.5t29 42.5t50 15q31 0 49 -18.5t18 -49.5q0 -4 -2 -19q-23 -233 -86 -1146q-1 -30 -26.5 -51t-55.5 -21q-39 0 -58.5 25t-19.5 65zM293 1604q2 29 19 53t44 24q25 0 47.5 -21.5t22.5 -47.5q0 -31 -24.5 -47.5t-57.5 -16.5
q-21 0 -36 17.5t-15 38.5zM57 1606q0 28 18.5 47.5t47.5 19.5q28 0 47.5 -20.5t19.5 -48.5q0 -30 -23.5 -45t-55.5 -15q-25 0 -39.5 18t-14.5 44z" />
    <glyph glyph-name="Ograve" unicode="&#xd2;" horiz-adv-x="741" 
d="M41 487q0 133 56 259t159 196q87 59 169.5 67t142 -28t96 -113.5t36.5 -183.5q0 -56 -10.5 -118.5t-31 -126.5t-53.5 -122t-74.5 -103t-98.5 -72t-121 -27q-71 0 -125.5 33.5t-84.5 89.5t-45 118.5t-15 130.5zM199 483q0 -29 4.5 -60.5t15 -68t34 -59.5t56.5 -23
q43 0 76 29q152 141 152 375v61q-15 71 -54 103q-3 0 -20 1t-21 1q-59 0 -107.5 -36t-77 -91.5t-43.5 -115.5t-15 -116zM555 1208q7 -21 -3.5 -41t-31.5 -26q-34 -11 -115.5 61t-93.5 103q-7 22 1.5 43t31.5 28q19 7 68.5 -27.5t93 -77.5t49.5 -63z" />
    <glyph glyph-name="Oacute" unicode="&#xd3;" horiz-adv-x="741" 
d="M41 487q0 133 56 259t159 196q87 59 169.5 67t142 -28t96 -113.5t36.5 -183.5q0 -56 -10.5 -118.5t-31 -126.5t-53.5 -122t-74.5 -103t-98.5 -72t-121 -27q-71 0 -125.5 33.5t-84.5 89.5t-45 118.5t-15 130.5zM199 483q0 -29 4.5 -60.5t15 -68t34 -59.5t56.5 -23
q43 0 76 29q152 141 152 375v61q-15 71 -54 103q-3 0 -20 1t-21 1q-59 0 -107.5 -36t-77 -91.5t-43.5 -115.5t-15 -116zM311 1208q6 20 49.5 63t93 77.5t68.5 27.5q23 -7 31.5 -28t1.5 -43q-12 -31 -93.5 -103t-115.5 -61q-21 6 -31.5 26t-3.5 41z" />
    <glyph glyph-name="Ocircumflex" unicode="&#xd4;" horiz-adv-x="741" 
d="M41 487q0 133 56 259t159 196q87 59 169.5 67t142 -28t96 -113.5t36.5 -183.5q0 -56 -10.5 -118.5t-31 -126.5t-53.5 -122t-74.5 -103t-98.5 -72t-121 -27q-71 0 -125.5 33.5t-84.5 89.5t-45 118.5t-15 130.5zM199 483q0 -29 4.5 -60.5t15 -68t34 -59.5t56.5 -23
q43 0 76 29q152 141 152 375v61q-15 71 -54 103q-3 0 -20 1t-21 1q-59 0 -107.5 -36t-77 -91.5t-43.5 -115.5t-15 -116zM434 1251q-14 -6 -38 -22.5t-36 -28.5q-8 -7 -21.5 -24t-26.5 -27t-29 -10q-25 0 -43.5 15.5t-18.5 39.5q0 9 2.5 17.5t9 17.5t10.5 14t13.5 15t11.5 12
q17 10 50.5 39.5t63.5 48t56 18.5q22 0 70.5 -30.5t91.5 -77.5t43 -84q0 -26 -14 -42t-39 -16q-28 0 -43 15l-103 106q-1 0 -3.5 1.5t-4.5 2.5t-2 0z" />
    <glyph glyph-name="Otilde" unicode="&#xd5;" horiz-adv-x="741" 
d="M41 487q0 133 56 259t159 196q87 59 169.5 67t142 -28t96 -113.5t36.5 -183.5q0 -56 -10.5 -118.5t-31 -126.5t-53.5 -122t-74.5 -103t-98.5 -72t-121 -27q-71 0 -125.5 33.5t-84.5 89.5t-45 118.5t-15 130.5zM199 483q0 -29 4.5 -60.5t15 -68t34 -59.5t56.5 -23
q43 0 76 29q152 141 152 375v61q-15 71 -54 103q-3 0 -20 1t-21 1q-59 0 -107.5 -36t-77 -91.5t-43.5 -115.5t-15 -116zM170 1196q0 72 71 136.5t144 64.5q42 0 71.5 -19t41.5 -41.5t24 -41.5t23 -19q21 0 45 25.5t45 25.5q25 0 40 -14t15 -37q0 -52 -45.5 -86.5
t-99.5 -34.5q-37 0 -66 19.5t-42.5 43t-24 43t-15.5 19.5q-38 0 -64.5 -21.5t-38.5 -48t-31 -48t-44 -21.5q-24 0 -36.5 15.5t-12.5 39.5z" />
    <glyph glyph-name="Odieresis" unicode="&#xd6;" horiz-adv-x="741" 
d="M41 487q0 133 56 259t159 196q87 59 169.5 67t142 -28t96 -113.5t36.5 -183.5q0 -56 -10.5 -118.5t-31 -126.5t-53.5 -122t-74.5 -103t-98.5 -72t-121 -27q-71 0 -125.5 33.5t-84.5 89.5t-45 118.5t-15 130.5zM199 483q0 -29 4.5 -60.5t15 -68t34 -59.5t56.5 -23
q43 0 76 29q152 141 152 375v61q-15 71 -54 103q-3 0 -20 1t-21 1q-59 0 -107.5 -36t-77 -91.5t-43.5 -115.5t-15 -116zM481 1202q2 29 19.5 53.5t44.5 24.5q25 0 47 -22t22 -48q0 -31 -24.5 -47t-57.5 -16q-21 0 -36 17t-15 38zM246 1204q0 28 18 48t47 20q28 0 48 -21
t20 -49q0 -30 -24 -44.5t-56 -14.5q-25 0 -39 17.5t-14 43.5z" />
    <glyph glyph-name="Oslash" unicode="&#xd8;" horiz-adv-x="741" 
d="M180 82q0 19 2 31l8 32q-76 44 -112.5 138.5t-36.5 203.5q0 133 56 259t159 196q92 62 178 68l23 77q15 50 55 56q24 0 42 -17.5t21 -44.5q0 -10 -24 -92q69 -35 109 -114t40 -191q0 -56 -10.5 -118.5t-31 -126.5t-53.5 -122t-74.5 -103t-98.5 -72t-121 -27h-8l-6 -29
q-13 -52 -53 -57q-22 -3 -41.5 12t-22.5 41zM537 737q-10 53 -37 84q-92 -321 -152 -540q19 5 37 20q152 141 152 375v61zM199 483q0 -114 39 -170l147 518q-60 -20 -104 -81.5t-63 -131t-19 -135.5z" />
    <glyph glyph-name="Ugrave" unicode="&#xd9;" horiz-adv-x="716" 
d="M41 788q0 46 5.5 102.5t19.5 132.5t47 125.5t80 49.5q34 0 59 -21.5t16 -50.5q-1 -3 -8.5 -25t-10 -31t-10 -31.5t-11 -36.5t-9.5 -36t-9 -39t-6.5 -37.5t-5 -39t-1.5 -35.5v-61q1 -3 5.5 -36.5t6.5 -43.5q21 -117 70 -117q34 0 74 50.5t64.5 100.5t35.5 83q6 11 17 48
t11 42q28 139 29 157q2 11 4.5 39t6 46.5t11.5 40t24.5 33t41.5 11.5q29 0 49.5 -18.5t26.5 -46.5q0 -2 1 -21t1 -22q0 -6 -1 -24l-1 -19q-11 -89 -29 -176q-14 -70 -42.5 -146t-73 -155t-111 -130t-142.5 -51q-67 0 -116 38.5t-73.5 101t-35 124t-10.5 125.5zM522 1380
q7 -21 -3.5 -41t-31.5 -26q-34 -11 -115 61t-93 103q-7 22 1 43t31 28q19 7 68.5 -27.5t93 -77.5t49.5 -63z" />
    <glyph glyph-name="Uacute" unicode="&#xda;" horiz-adv-x="716" 
d="M41 788q0 46 5.5 102.5t19.5 132.5t47 125.5t80 49.5q34 0 59 -21.5t16 -50.5q-1 -3 -8.5 -25t-10 -31t-10 -31.5t-11 -36.5t-9.5 -36t-9 -39t-6.5 -37.5t-5 -39t-1.5 -35.5v-61q1 -3 5.5 -36.5t6.5 -43.5q21 -117 70 -117q34 0 74 50.5t64.5 100.5t35.5 83q6 11 17 48
t11 42q28 139 29 157q2 11 4.5 39t6 46.5t11.5 40t24.5 33t41.5 11.5q29 0 49.5 -18.5t26.5 -46.5q0 -2 1 -21t1 -22q0 -6 -1 -24l-1 -19q-11 -89 -29 -176q-14 -70 -42.5 -146t-73 -155t-111 -130t-142.5 -51q-67 0 -116 38.5t-73.5 101t-35 124t-10.5 125.5zM279 1380
q6 20 49 63t92.5 77.5t68.5 27.5q23 -7 31.5 -28t1.5 -43q-12 -31 -93.5 -103t-115.5 -61q-21 6 -31 26t-3 41z" />
    <glyph glyph-name="Ucircumflex" unicode="&#xdb;" horiz-adv-x="716" 
d="M41 788q0 46 5.5 102.5t19.5 132.5t47 125.5t80 49.5q34 0 59 -21.5t16 -50.5q-1 -3 -8.5 -25t-10 -31t-10 -31.5t-11 -36.5t-9.5 -36t-9 -39t-6.5 -37.5t-5 -39t-1.5 -35.5v-61q1 -3 5.5 -36.5t6.5 -43.5q21 -117 70 -117q34 0 74 50.5t64.5 100.5t35.5 83q6 11 17 48
t11 42q28 139 29 157q2 11 4.5 39t6 46.5t11.5 40t24.5 33t41.5 11.5q29 0 49.5 -18.5t26.5 -46.5q0 -2 1 -21t1 -22q0 -6 -1 -24l-1 -19q-11 -89 -29 -176q-14 -70 -42.5 -146t-73 -155t-111 -130t-142.5 -51q-67 0 -116 38.5t-73.5 101t-35 124t-10.5 125.5zM401 1423
q-40 -18 -73 -51q-8 -6 -21.5 -23.5t-27 -27.5t-29.5 -10q-26 0 -44 15.5t-18 39.5q0 11 6 23.5t10 18t18 20.5l14 14q17 10 50.5 39.5t63.5 48t56 18.5q22 0 70.5 -30.5t91 -77.5t42.5 -84q0 -26 -14 -42t-39 -16q-28 0 -43 15l-102 106q-1 0 -3.5 1.5t-5 2.5t-2.5 0z" />
    <glyph glyph-name="Udieresis" unicode="&#xdc;" horiz-adv-x="716" 
d="M41 788q0 46 5.5 102.5t19.5 132.5t47 125.5t80 49.5q34 0 59 -21.5t16 -50.5q-1 -3 -8.5 -25t-10 -31t-10 -31.5t-11 -36.5t-9.5 -36t-9 -39t-6.5 -37.5t-5 -39t-1.5 -35.5v-61q1 -3 5.5 -36.5t6.5 -43.5q21 -117 70 -117q34 0 74 50.5t64.5 100.5t35.5 83q6 11 17 48
t11 42q28 139 29 157q2 11 4.5 39t6 46.5t11.5 40t24.5 33t41.5 11.5q29 0 49.5 -18.5t26.5 -46.5q0 -2 1 -21t1 -22q0 -6 -1 -24l-1 -19q-11 -89 -29 -176q-14 -70 -42.5 -146t-73 -155t-111 -130t-142.5 -51q-67 0 -116 38.5t-73.5 101t-35 124t-10.5 125.5zM449 1374
q2 29 19 53.5t44 24.5q25 0 47.5 -22t22.5 -48q0 -31 -24.5 -47t-57.5 -16q-21 0 -36 17t-15 38zM213 1376q0 28 18.5 48t47.5 20q27 0 47 -21t20 -49q0 -30 -24 -44.5t-56 -14.5q-25 0 -39 17.5t-14 43.5z" />
    <glyph glyph-name="germandbls" unicode="&#xdf;" horiz-adv-x="819" 
d="M41 219q0 451 127 821q16 50 38.5 98t56 100t79.5 84t96 32q69 0 106.5 -51.5t49.5 -128.5q0 -5 1 -39t1 -39q0 -215 -107 -434v-7q67 -17 119.5 -40.5t97 -59.5t69 -89.5t24.5 -121.5q0 -114 -76 -185.5t-199 -103.5q-77 -17 -116 -22h-29q-49 0 -83 22t-34 70
q0 22 12.5 41.5t34.5 23.5q41 -3 94 3t108 22t92.5 51t37.5 82q0 144 -274 150q-33 9 -53.5 33.5t-20.5 58.5q0 25 5.5 43t22 48.5t23.5 45.5q94 208 94 367v51q0 17 -6 29l-6 6q-47 -10 -92.5 -105t-77 -238.5t-50.5 -303t-16.5 -315.5t27.5 -259q7 -28 -19.5 -50
t-58.5 -22q-96 0 -96 193q0 1 -1 59.5t-1 79.5z" />
    <glyph glyph-name="agrave" unicode="&#xe0;" horiz-adv-x="714" 
d="M479 295q-3 0 -21 -15.5t-22 -19.5q-50 -34 -106 -50t-110 -12.5t-96 42t-58 108.5q-12 54 19.5 101.5t85.5 77t104.5 47t86.5 20.5q-36 60 -71 74t-105 14h-20q-33 0 -57.5 22t-24.5 52q0 62 72 80h47q132 0 230 -96.5t142 -235.5q8 -24 72 -244q6 -6 6 -27v-6
q0 -30 -22.5 -50.5t-52.5 -20.5q-36 0 -58.5 34.5t-31 69.5t-9.5 35zM408 471q-69 0 -127.5 -34.5t-42.5 -84.5q14 -19 23.5 -26t32 -8t60 19.5t95.5 61.5q0 42 -23 72h-18zM428 1008q7 -21 -3.5 -41.5t-31.5 -26.5q-34 -11 -115.5 61t-93.5 103q-7 22 1.5 43.5t31.5 28.5
q19 7 68.5 -27.5t93 -77.5t49.5 -63z" />
    <glyph glyph-name="aacute" unicode="&#xe1;" horiz-adv-x="714" 
d="M479 295q-3 0 -21 -15.5t-22 -19.5q-50 -34 -106 -50t-110 -12.5t-96 42t-58 108.5q-12 54 19.5 101.5t85.5 77t104.5 47t86.5 20.5q-36 60 -71 74t-105 14h-20q-33 0 -57.5 22t-24.5 52q0 62 72 80h47q132 0 230 -96.5t142 -235.5q8 -24 72 -244q6 -6 6 -27v-6
q0 -30 -22.5 -50.5t-52.5 -20.5q-36 0 -58.5 34.5t-31 69.5t-9.5 35zM408 471q-69 0 -127.5 -34.5t-42.5 -84.5q14 -19 23.5 -26t32 -8t60 19.5t95.5 61.5q0 42 -23 72h-18zM184 1008q6 20 49.5 63t93 77.5t68.5 27.5q23 -7 31.5 -28.5t1.5 -43.5q-12 -31 -93.5 -103
t-115.5 -61q-21 6 -31.5 26.5t-3.5 41.5z" />
    <glyph glyph-name="acircumflex" unicode="&#xe2;" horiz-adv-x="714" 
d="M479 295q-3 0 -21 -15.5t-22 -19.5q-50 -34 -106 -50t-110 -12.5t-96 42t-58 108.5q-12 54 19.5 101.5t85.5 77t104.5 47t86.5 20.5q-36 60 -71 74t-105 14h-20q-33 0 -57.5 22t-24.5 52q0 62 72 80h47q132 0 230 -96.5t142 -235.5q8 -24 72 -244q6 -6 6 -27v-6
q0 -30 -22.5 -50.5t-52.5 -20.5q-36 0 -58.5 34.5t-31 69.5t-9.5 35zM408 471q-69 0 -127.5 -34.5t-42.5 -84.5q14 -19 23.5 -26t32 -8t60 19.5t95.5 61.5q0 42 -23 72h-18zM307 1051q-14 -6 -38 -23t-36 -29q-8 -7 -21.5 -24t-26.5 -27t-29 -10q-26 0 -44 15.5t-18 39.5
q0 9 2.5 17.5t9 17.5t10.5 14t13.5 15t11.5 12q17 10 50.5 39.5t63.5 48.5t56 19q22 0 70.5 -31t91.5 -78t43 -84q0 -26 -14 -41.5t-39 -15.5q-29 0 -43 14l-103 107q-1 0 -3.5 1.5t-4.5 2.5t-2 0z" />
    <glyph glyph-name="atilde" unicode="&#xe3;" horiz-adv-x="714" 
d="M479 295q-3 0 -21 -15.5t-22 -19.5q-50 -34 -106 -50t-110 -12.5t-96 42t-58 108.5q-12 54 19.5 101.5t85.5 77t104.5 47t86.5 20.5q-36 60 -71 74t-105 14h-20q-33 0 -57.5 22t-24.5 52q0 62 72 80h47q132 0 230 -96.5t142 -235.5q8 -24 72 -244q6 -6 6 -27v-6
q0 -30 -22.5 -50.5t-52.5 -20.5q-36 0 -58.5 34.5t-31 69.5t-9.5 35zM408 471q-69 0 -127.5 -34.5t-42.5 -84.5q14 -19 23.5 -26t32 -8t60 19.5t95.5 61.5q0 42 -23 72h-18zM43 995q0 72 71 136.5t144 64.5q42 0 71.5 -19t41.5 -41.5t24 -41.5t23 -19q20 0 45 25.5t45 25.5
q25 0 40 -14t15 -37q0 -52 -45.5 -86.5t-99.5 -34.5q-37 0 -66 19.5t-42.5 43t-24 43t-15.5 19.5q-38 0 -64.5 -21.5t-38.5 -48t-31 -48t-44 -21.5q-24 0 -36.5 15.5t-12.5 39.5z" />
    <glyph glyph-name="adieresis" unicode="&#xe4;" horiz-adv-x="714" 
d="M479 295q-3 0 -21 -15.5t-22 -19.5q-50 -34 -106 -50t-110 -12.5t-96 42t-58 108.5q-12 54 19.5 101.5t85.5 77t104.5 47t86.5 20.5q-36 60 -71 74t-105 14h-20q-33 0 -57.5 22t-24.5 52q0 62 72 80h47q132 0 230 -96.5t142 -235.5q8 -24 72 -244q6 -6 6 -27v-6
q0 -30 -22.5 -50.5t-52.5 -20.5q-36 0 -58.5 34.5t-31 69.5t-9.5 35zM408 471q-69 0 -127.5 -34.5t-42.5 -84.5q14 -19 23.5 -26t32 -8t60 19.5t95.5 61.5q0 42 -23 72h-18zM354 1001q2 29 19.5 53.5t44.5 24.5q25 0 47 -21.5t22 -47.5q0 -31 -24 -47.5t-57 -16.5
q-21 0 -36.5 17t-15.5 38zM119 1004q0 28 18 47.5t47 19.5q28 0 48 -21t20 -49q0 -30 -24 -44.5t-56 -14.5q-25 0 -39 18t-14 44z" />
    <glyph glyph-name="aring" unicode="&#xe5;" horiz-adv-x="714" 
d="M479 295q-3 0 -21 -15.5t-22 -19.5q-50 -34 -106 -50t-110 -12.5t-96 42t-58 108.5q-12 54 19.5 101.5t85.5 77t104.5 47t86.5 20.5q-36 60 -71 74t-105 14h-20q-33 0 -57.5 22t-24.5 52q0 62 72 80h47q132 0 230 -96.5t142 -235.5q8 -24 72 -244q6 -6 6 -27v-6
q0 -30 -22.5 -50.5t-52.5 -20.5q-36 0 -58.5 34.5t-31 69.5t-9.5 35zM408 471q-69 0 -127.5 -34.5t-42.5 -84.5q14 -19 23.5 -26t32 -8t60 19.5t95.5 61.5q0 42 -23 72h-18zM291 942q-71 0 -109.5 42t-38.5 101q0 71 55.5 119t147.5 29q55 -11 88 -43t33 -76
q0 -75 -50.5 -123.5t-125.5 -48.5zM246 1083q0 -22 17 -36.5t42 -14.5t42.5 14.5t17.5 36.5t-17.5 37t-42.5 15t-42 -15t-17 -37z" />
    <glyph glyph-name="ae" unicode="&#xe6;" horiz-adv-x="1095" 
d="M498 315q-10 -24 -49.5 -53t-94 -46.5t-110.5 -18.5t-105 37t-71 114q-12 43 7 81.5t55.5 64.5t83.5 46t86 29.5t67 12.5q1 0 -3 8l-8 16l-4 8l-4 4l-27.5 27.5t-24.5 18.5t-19.5 11t-22 5.5t-22.5 2t-29.5 0t-34.5 -0.5q-33 0 -57.5 22t-24.5 52q0 62 72 80h47
q103 0 186.5 -62t138.5 -162q52 89 134.5 144t181.5 55q77 0 132.5 -49.5t55.5 -124.5q0 -98 -80.5 -175t-183.5 -106q-17 -4 -38.5 -5.5t-31.5 -1.5t-40.5 1.5t-32.5 1.5q4 -52 41.5 -108.5t83.5 -79.5q16 -8 52.5 -8.5t56.5 -12.5t20 -53q0 -42 -34.5 -64.5t-74.5 -17.5
q-72 7 -140 70t-103 131.5t-31 105.5zM410 471q-43 0 -95.5 -17.5t-88.5 -49.5t-25 -66q58 -77 250 61q0 42 -23 72h-18zM647 506q0 -17 39 -17h4q54 0 124.5 47t70.5 101q0 18 -47 18h-2q-51 0 -120 -50.5t-69 -98.5z" />
    <glyph glyph-name="ccedilla" unicode="&#xe7;" horiz-adv-x="550" 
d="M145 -211q0 21 17 34.5t39.5 19.5t52.5 21.5t49 39.5q-44 13 -71.5 43t-34.5 67t-3.5 73.5t15.5 68.5q-68 26 -108 91t-40 146q0 73 36.5 166.5t106.5 167.5t148 74q54 0 95.5 -36t41.5 -89q0 -27 -20 -45.5t-47 -18.5q-18 0 -32.5 11.5t-23.5 23t-14 10.5
q-52 -7 -101 -97t-45 -178.5t83 -90.5q23 -1 64.5 18t62.5 19q26 0 46.5 -22.5t20.5 -47.5q0 -50 -52.5 -78.5t-115.5 -34.5q-1 -9 -4.5 -31.5t-5.5 -38t-1.5 -30.5t5.5 -20q1 0 3 -1t3 -1q24 -8 34.5 -12.5t29.5 -14t27.5 -19.5t16 -25.5t7.5 -35.5q0 -43 -26.5 -80.5
t-63 -59t-67.5 -34t-46 -12.5q-41 0 -61.5 13t-20.5 46z" />
    <glyph glyph-name="egrave" unicode="&#xe8;" horiz-adv-x="686" 
d="M61 379q0 102 47.5 197t135.5 157t192 62q77 0 133 -49.5t56 -124.5q0 -98 -81 -175t-184 -106q-17 -4 -38.5 -5.5t-31.5 -1.5t-40.5 1.5t-32.5 1.5q5 -53 42 -109.5t83 -79.5q15 -8 40.5 -9.5t43 -2t31.5 -15t14 -46.5q0 -41 -33.5 -61.5t-75.5 -20.5q-84 0 -155.5 64.5
t-108.5 152.5t-37 170zM238 489q0 -16 38 -16h5q54 0 124 47t70 101q0 18 -47 18h-2q-51 0 -119.5 -51t-68.5 -99zM526 975q7 -21 -3 -41.5t-31 -26.5q-34 -11 -115.5 61t-93.5 103q-7 22 1 43.5t31 28.5q19 7 68.5 -27.5t93 -77.5t49.5 -63z" />
    <glyph glyph-name="eacute" unicode="&#xe9;" horiz-adv-x="686" 
d="M61 379q0 102 47.5 197t135.5 157t192 62q77 0 133 -49.5t56 -124.5q0 -98 -81 -175t-184 -106q-17 -4 -38.5 -5.5t-31.5 -1.5t-40.5 1.5t-32.5 1.5q5 -53 42 -109.5t83 -79.5q15 -8 40.5 -9.5t43 -2t31.5 -15t14 -46.5q0 -41 -33.5 -61.5t-75.5 -20.5q-84 0 -155.5 64.5
t-108.5 152.5t-37 170zM238 489q0 -16 38 -16h5q54 0 124 47t70 101q0 18 -47 18h-2q-51 0 -119.5 -51t-68.5 -99zM283 975q6 20 49.5 63t93 77.5t68.5 27.5q23 -7 31 -28.5t1 -43.5q-12 -31 -93.5 -103t-115.5 -61q-21 6 -31 26.5t-3 41.5z" />
    <glyph glyph-name="ecircumflex" unicode="&#xea;" horiz-adv-x="686" 
d="M61 379q0 102 47.5 197t135.5 157t192 62q77 0 133 -49.5t56 -124.5q0 -98 -81 -175t-184 -106q-17 -4 -38.5 -5.5t-31.5 -1.5t-40.5 1.5t-32.5 1.5q5 -53 42 -109.5t83 -79.5q15 -8 40.5 -9.5t43 -2t31.5 -15t14 -46.5q0 -41 -33.5 -61.5t-75.5 -20.5q-84 0 -155.5 64.5
t-108.5 152.5t-37 170zM238 489q0 -16 38 -16h5q54 0 124 47t70 101q0 18 -47 18h-2q-51 0 -119.5 -51t-68.5 -99zM406 1018q-14 -6 -38 -22.5t-36 -28.5q-8 -7 -21.5 -24t-27 -27.5t-29.5 -10.5q-25 0 -43 16t-18 40q0 11 6 23t10 17.5t17 20.5l14 14q17 10 50.5 39.5
t63.5 48.5t56 19q22 0 70.5 -31t91 -78t42.5 -84q0 -26 -14 -41.5t-39 -15.5q-29 0 -43 14l-102 107q-1 0 -3.5 1.5t-4.5 2.5t-2 0z" />
    <glyph glyph-name="edieresis" unicode="&#xeb;" horiz-adv-x="686" 
d="M61 379q0 102 47.5 197t135.5 157t192 62q77 0 133 -49.5t56 -124.5q0 -98 -81 -175t-184 -106q-17 -4 -38.5 -5.5t-31.5 -1.5t-40.5 1.5t-32.5 1.5q5 -53 42 -109.5t83 -79.5q15 -8 40.5 -9.5t43 -2t31.5 -15t14 -46.5q0 -41 -33.5 -61.5t-75.5 -20.5q-84 0 -155.5 64.5
t-108.5 152.5t-37 170zM238 489q0 -16 38 -16h5q54 0 124 47t70 101q0 18 -47 18h-2q-51 0 -119.5 -51t-68.5 -99zM453 969q2 29 19 53.5t44 24.5q25 0 47.5 -22t22.5 -48q0 -31 -24.5 -47.5t-57.5 -16.5q-21 0 -36 17.5t-15 38.5zM217 971q0 28 18.5 47.5t47.5 19.5
q28 0 47.5 -20.5t19.5 -48.5q0 -30 -24 -45t-56 -15q-25 0 -39 18t-14 44z" />
    <glyph glyph-name="igrave" unicode="&#xec;" horiz-adv-x="387" 
d="M61 98v15q8 38 30 160t26 155q2 13 2 45t2.5 57.5t10.5 52.5t30.5 41.5t58.5 12.5q25 -2 47.5 -20.5t22.5 -51.5q0 -65 -9.5 -143t-23.5 -160.5t-16 -95.5q-5 -48 -28 -89.5t-56 -47.5q-32 -5 -64.5 16.5t-32.5 52.5zM346 872q7 -21 -3.5 -41t-31.5 -26
q-34 -11 -115.5 61t-93.5 103q-7 22 1.5 43t31.5 28q19 7 68.5 -27.5t93 -77.5t49.5 -63z" />
    <glyph glyph-name="iacute" unicode="&#xed;" horiz-adv-x="387" 
d="M61 98v15q8 38 30 160t26 155q2 13 2 45t2.5 57.5t10.5 52.5t30.5 41.5t58.5 12.5q25 -2 47.5 -20.5t22.5 -51.5q0 -65 -9.5 -143t-23.5 -160.5t-16 -95.5q-5 -48 -28 -89.5t-56 -47.5q-32 -5 -64.5 16.5t-32.5 52.5zM102 872q6 20 49.5 63t93 77.5t68.5 27.5
q23 -7 31.5 -28t1.5 -43q-12 -31 -93.5 -103t-115.5 -61q-21 6 -31.5 26t-3.5 41z" />
    <glyph glyph-name="icircumflex" unicode="&#xee;" horiz-adv-x="387" 
d="M61 98v15q8 38 30 160t26 155q2 13 2 45t2.5 57.5t10.5 52.5t30.5 41.5t58.5 12.5q25 -2 47.5 -20.5t22.5 -51.5q0 -65 -9.5 -143t-23.5 -160.5t-16 -95.5q-5 -48 -28 -89.5t-56 -47.5q-32 -5 -64.5 16.5t-32.5 52.5zM225 915q-40 -18 -73 -51q-8 -6 -21.5 -23.5
t-27 -27.5t-29.5 -10q-26 0 -44 15.5t-18 39.5q0 9 2.5 17.5t9 17.5t10.5 14t13.5 15t11.5 12q17 10 50.5 39.5t63.5 48t56 18.5q22 0 70.5 -30.5t91.5 -77.5t43 -84q0 -26 -14 -41.5t-39 -15.5q-29 0 -43 14l-102 106q-1 0 -3.5 1.5t-5 2.5t-2.5 0z" />
    <glyph glyph-name="idieresis" unicode="&#xef;" horiz-adv-x="387" 
d="M61 98v15q8 38 30 160t26 155q2 13 2 45t2.5 57.5t10.5 52.5t30.5 41.5t58.5 12.5q25 -2 47.5 -20.5t22.5 -51.5q0 -65 -9.5 -143t-23.5 -160.5t-16 -95.5q-5 -48 -28 -89.5t-56 -47.5q-32 -5 -64.5 16.5t-32.5 52.5zM272 866q2 29 19.5 53.5t44.5 24.5q25 0 47.5 -22
t22.5 -48q0 -31 -24.5 -47t-57.5 -16q-21 0 -36.5 17t-15.5 38zM37 868q0 28 18 48t47 20q28 0 48 -21t20 -49q0 -30 -24 -44.5t-56 -14.5q-25 0 -39 17.5t-14 43.5z" />
    <glyph glyph-name="ograve" unicode="&#xf2;" horiz-adv-x="634" 
d="M43 356q-2 62 15 123t54 114.5t105.5 83.5t159.5 23q145 -12 195 -126q43 -99 -1 -224q-43 -120 -139 -181q-71 -45 -153 -42q-57 2 -103 23.5t-73.5 55.5t-42.5 72t-17 78zM334 563q-68 5 -106.5 -68.5t-23.5 -150t75 -80.5q74 -4 120 69t29.5 149t-94.5 81zM481 881
q7 -21 -3.5 -41.5t-31.5 -26.5q-34 -11 -115 61t-93 103q-7 22 1 43.5t31 28.5q19 7 68.5 -27.5t93 -77.5t49.5 -63z" />
    <glyph glyph-name="oacute" unicode="&#xf3;" horiz-adv-x="634" 
d="M43 356q-2 62 15 123t54 114.5t105.5 83.5t159.5 23q145 -12 195 -126q43 -99 -1 -224q-43 -120 -139 -181q-71 -45 -153 -42q-57 2 -103 23.5t-73.5 55.5t-42.5 72t-17 78zM334 563q-68 5 -106.5 -68.5t-23.5 -150t75 -80.5q74 -4 120 69t29.5 149t-94.5 81zM238 881
q6 20 49.5 63t93 77.5t68.5 27.5q23 -7 31 -28.5t1 -43.5q-12 -31 -93.5 -103t-115.5 -61q-21 6 -31 26.5t-3 41.5z" />
    <glyph glyph-name="ocircumflex" unicode="&#xf4;" horiz-adv-x="634" 
d="M43 356q-2 62 15 123t54 114.5t105.5 83.5t159.5 23q145 -12 195 -126q43 -99 -1 -224q-43 -120 -139 -181q-71 -45 -153 -42q-57 2 -103 23.5t-73.5 55.5t-42.5 72t-17 78zM334 563q-68 5 -106.5 -68.5t-23.5 -150t75 -80.5q74 -4 120 69t29.5 149t-94.5 81zM360 924
q-13 -6 -37 -23t-36 -29q-8 -6 -21.5 -23.5t-27 -27.5t-29.5 -10q-25 0 -43.5 15.5t-18.5 39.5q0 11 6 23.5t10 18t18 20.5l14 14q17 10 50.5 39.5t63.5 48.5t56 19q22 0 70.5 -31t91 -78t42.5 -84q0 -26 -14 -41.5t-39 -15.5q-29 0 -43 14l-102 107q-1 0 -3.5 1.5t-5 2.5
t-2.5 0z" />
    <glyph glyph-name="otilde" unicode="&#xf5;" horiz-adv-x="634" 
d="M43 356q-2 62 15 123t54 114.5t105.5 83.5t159.5 23q145 -12 195 -126q43 -99 -1 -224q-43 -120 -139 -181q-71 -45 -153 -42q-57 2 -103 23.5t-73.5 55.5t-42.5 72t-17 78zM334 563q-68 5 -106.5 -68.5t-23.5 -150t75 -80.5q74 -4 120 69t29.5 149t-94.5 81zM96 868
q0 72 71 136.5t144 64.5q42 0 71.5 -19t41.5 -41.5t24 -41.5t23 -19q20 0 44.5 25.5t45.5 25.5q25 0 40 -14t15 -37q0 -52 -45.5 -86.5t-99.5 -34.5q-37 0 -66 19.5t-42 43t-23.5 43t-15.5 19.5q-31 0 -54 -14.5t-36.5 -35t-25 -40.5t-27 -34.5t-36.5 -14.5
q-24 0 -36.5 15.5t-12.5 39.5z" />
    <glyph glyph-name="odieresis" unicode="&#xf6;" horiz-adv-x="634" 
d="M43 356q-2 62 15 123t54 114.5t105.5 83.5t159.5 23q145 -12 195 -126q43 -99 -1 -224q-43 -120 -139 -181q-71 -45 -153 -42q-57 2 -103 23.5t-73.5 55.5t-42.5 72t-17 78zM334 563q-68 5 -106.5 -68.5t-23.5 -150t75 -80.5q74 -4 120 69t29.5 149t-94.5 81zM408 874
q2 29 19 53.5t44 24.5q25 0 47.5 -21.5t22.5 -47.5q0 -31 -24.5 -47.5t-57.5 -16.5q-21 0 -36 17t-15 38zM172 877q0 28 18.5 47.5t47.5 19.5q27 0 47 -21t20 -49q0 -30 -24 -44.5t-56 -14.5q-25 0 -39 18t-14 44z" />
    <glyph glyph-name="oslash" unicode="&#xf8;" horiz-adv-x="616" 
d="M162 -33q-3 13 0 29l37 156q-64 26 -99 84t-37 124q-2 57 11.5 113t43 107t84 83t126.5 33l39 166q12 46 41 49q18 1 31 -14t16 -39q0 -7 -41 -172q61 -19 96 -68.5t41.5 -110t-10 -127t-51 -120.5t-89 -89.5t-116.5 -35.5q-27 -114 -37 -164q-10 -49 -41 -51
q-16 -2 -30 11.5t-15 35.5zM317 279q64 28 86 121t-24 139zM295 559q-43 -13 -68.5 -66t-24 -112t28.5 -90z" />
    <glyph glyph-name="ugrave" unicode="&#xf9;" horiz-adv-x="905" 
d="M61 328q0 29 2 61t10 79t20.5 82.5t37 61t57.5 25.5q34 0 54 -20.5t20 -55.5l-2 -22q0 -3 -18 -39q-17 -57 -17 -166q0 -35 8 -51h7q18 0 82 43q11 9 126 97t138 107q5 3 13 7l12 6t11 4t15 2q27 0 47.5 -9.5t36 -30.5t23.5 -36.5t20.5 -47t17.5 -42.5q1 -4 31.5 -56.5
t30.5 -82.5q0 -34 -19 -59t-53 -25q-52 0 -86 63q-4 7 -18.5 33t-30.5 55.5t-19 34.5q0 2 -2 4t-4 2t-7 -2.5t-5 -3.5q-128 -102 -168 -129q-57 -44 -107 -69t-104 -25q-81 0 -120.5 59.5t-39.5 145.5zM555 786q7 -21 -3.5 -41t-31.5 -26q-34 -11 -115.5 61t-93.5 103
q-7 22 1.5 43t31.5 28q19 7 68.5 -27.5t93 -77.5t49.5 -63z" />
    <glyph glyph-name="uacute" unicode="&#xfa;" horiz-adv-x="905" 
d="M61 328q0 29 2 61t10 79t20.5 82.5t37 61t57.5 25.5q34 0 54 -20.5t20 -55.5l-2 -22q0 -3 -18 -39q-17 -57 -17 -166q0 -35 8 -51h7q18 0 82 43q11 9 126 97t138 107q5 3 13 7l12 6t11 4t15 2q27 0 47.5 -9.5t36 -30.5t23.5 -36.5t20.5 -47t17.5 -42.5q1 -4 31.5 -56.5
t30.5 -82.5q0 -34 -19 -59t-53 -25q-52 0 -86 63q-4 7 -18.5 33t-30.5 55.5t-19 34.5q0 2 -2 4t-4 2t-7 -2.5t-5 -3.5q-128 -102 -168 -129q-57 -44 -107 -69t-104 -25q-81 0 -120.5 59.5t-39.5 145.5zM311 786q6 20 49.5 63t93 77.5t68.5 27.5q23 -7 31.5 -28t1.5 -43
q-12 -31 -93.5 -103t-115.5 -61q-21 6 -31.5 26t-3.5 41z" />
    <glyph glyph-name="ucircumflex" unicode="&#xfb;" horiz-adv-x="905" 
d="M61 328q0 29 2 61t10 79t20.5 82.5t37 61t57.5 25.5q34 0 54 -20.5t20 -55.5l-2 -22q0 -3 -18 -39q-17 -57 -17 -166q0 -35 8 -51h7q18 0 82 43q11 9 126 97t138 107q5 3 13 7l12 6t11 4t15 2q27 0 47.5 -9.5t36 -30.5t23.5 -36.5t20.5 -47t17.5 -42.5q1 -4 31.5 -56.5
t30.5 -82.5q0 -34 -19 -59t-53 -25q-52 0 -86 63q-4 7 -18.5 33t-30.5 55.5t-19 34.5q0 2 -2 4t-4 2t-7 -2.5t-5 -3.5q-128 -102 -168 -129q-57 -44 -107 -69t-104 -25q-81 0 -120.5 59.5t-39.5 145.5zM434 829q-14 -6 -38 -22.5t-36 -28.5q-8 -7 -21.5 -24t-26.5 -27
t-29 -10q-25 0 -43.5 15.5t-18.5 39.5q0 9 2.5 17.5t9 17.5t10.5 14t13.5 15t11.5 12q17 10 50.5 39.5t63.5 48t56 18.5q22 0 70.5 -30.5t91.5 -77.5t43 -84q0 -26 -14 -41.5t-39 -15.5q-29 0 -43 14l-103 106q-1 0 -3.5 1.5t-4.5 2.5t-2 0z" />
    <glyph glyph-name="udieresis" unicode="&#xfc;" horiz-adv-x="905" 
d="M61 328q0 29 2 61t10 79t20.5 82.5t37 61t57.5 25.5q34 0 54 -20.5t20 -55.5l-2 -22q0 -3 -18 -39q-17 -57 -17 -166q0 -35 8 -51h7q18 0 82 43q11 9 126 97t138 107q5 3 13 7l12 6t11 4t15 2q27 0 47.5 -9.5t36 -30.5t23.5 -36.5t20.5 -47t17.5 -42.5q1 -4 31.5 -56.5
t30.5 -82.5q0 -34 -19 -59t-53 -25q-52 0 -86 63q-4 7 -18.5 33t-30.5 55.5t-19 34.5q0 2 -2 4t-4 2t-7 -2.5t-5 -3.5q-128 -102 -168 -129q-57 -44 -107 -69t-104 -25q-81 0 -120.5 59.5t-39.5 145.5zM481 780q2 29 19.5 53.5t44.5 24.5q25 0 47 -22t22 -48
q0 -31 -24.5 -47t-57.5 -16q-21 0 -36 17t-15 38zM246 782q0 28 18 48t47 20q28 0 48 -21t20 -49q0 -30 -24 -44.5t-56 -14.5q-25 0 -39 17.5t-14 43.5z" />
    <glyph glyph-name="Euro" unicode="&#x20ac;" horiz-adv-x="802" 
d="M53 725q5 30 84 37h15q23 86 57 163t82 146t113 112t139 48q51 3 91 -18.5t62 -57.5t31 -82t4 -90.5t-24.5 -84t-49.5 -60.5q-24 -17 -50 -10t-44 34q-11 25 -8.5 38t9.5 36.5t5 40.5v14l6 4v17q-7 59 -36 59q-13 0 -52 -22q-114 -81 -174 -285q57 0 164 -2t154 -2
q33 -6 47 -18.5t12 -28.5q-3 -17 -31.5 -27t-70.5 -10h-293q-12 -70 -12 -133q42 0 122 -2t117 -2q28 -6 39.5 -17t9.5 -26q-3 -17 -26.5 -27t-57.5 -10h-204v-4q7 -42 23.5 -86t42 -87t63 -70.5t80.5 -27.5q35 0 91 36t87 36t51 -22t20 -54q0 -43 -48.5 -80.5t-105 -55
t-95.5 -17.5q-80 0 -148 39t-112.5 102.5t-72 138.5t-36.5 154h-4q-9 0 -13 2q-29 0 -47.5 14t-15.5 29q6 28 72 35h4q0 48 14 137q-4 0 -6 2q-33 0 -56 15.5t-18 29.5z" />
    </font>
</defs>
</svg>
