<svg width="66" height="56" viewBox="0 0 66 56" fill="none" xmlns="http://www.w3.org/2000/svg">
<path d="M8.70248 4.39722C8.84004 3.54521 9.91982 3.25588 10.465 3.92496L12.3289 6.21275C12.5532 6.48806 12.9068 6.62376 13.2577 6.56926L16.1737 6.11634C17.0265 5.98388 17.6354 6.92141 17.1675 7.64662L15.5677 10.1263C15.3751 10.4247 15.3553 10.8029 15.5156 11.1198L16.8474 13.7531C17.237 14.5233 16.5335 15.392 15.6992 15.1711L12.8464 14.4159C12.5031 14.325 12.1374 14.423 11.8855 14.6734L9.79263 16.7538C9.18054 17.3622 8.13692 16.9616 8.08917 16.0999L7.92591 13.1534C7.90627 12.7988 7.70004 12.4813 7.3841 12.3191L4.75877 10.9715C3.99096 10.5774 4.04947 9.46107 4.85426 9.14938L7.60607 8.0836C7.93723 7.95534 8.17552 7.66107 8.23213 7.31048L8.70248 4.39722Z" fill="#FCC12E"/>
<path d="M24.7106 2.63526C25.064 1.84789 26.1819 1.84789 26.5353 2.63526L27.7436 5.32752C27.889 5.65152 28.1954 5.87408 28.5484 5.91226L31.4823 6.2295C32.3404 6.32228 32.6858 7.38544 32.0462 7.96485L29.8591 9.946C29.5959 10.1844 29.4789 10.5445 29.5516 10.8921L30.1566 13.7805C30.3335 14.6252 29.4291 15.2822 28.6804 14.853L26.1203 13.3851C25.8123 13.2085 25.4336 13.2085 25.1255 13.3851L22.5655 14.853C21.8168 15.2822 20.9124 14.6252 21.0893 13.7805L21.6942 10.8921C21.767 10.5445 21.65 10.1844 21.3868 9.946L19.1997 7.96485C18.5601 7.38544 18.9055 6.32228 19.7636 6.2295L22.6975 5.91226C23.0505 5.87408 23.3569 5.65152 23.5023 5.32752L24.7106 2.63526Z" fill="#FCC12E"/>
<path d="M39.0784 2.63526C39.4318 1.84789 40.5497 1.84789 40.9031 2.63526L42.1114 5.32752C42.2568 5.65152 42.5631 5.87408 42.9162 5.91226L45.8501 6.2295C46.7081 6.32228 47.0536 7.38544 46.414 7.96485L44.2269 9.946C43.9637 10.1844 43.8467 10.5445 43.9194 10.8921L44.5244 13.7805C44.7013 14.6252 43.7969 15.2822 43.0482 14.853L40.4881 13.3851C40.1801 13.2085 39.8014 13.2085 39.4933 13.3851L36.9333 14.853C36.1846 15.2822 35.2802 14.6252 35.4571 13.7805L36.062 10.8921C36.1348 10.5445 36.0178 10.1844 35.7546 9.946L33.5675 7.96485C32.9279 7.38544 33.2733 6.32228 34.1314 6.2295L37.0653 5.91226C37.4183 5.87408 37.7247 5.65152 37.8701 5.32752L39.0784 2.63526Z" fill="#FCC12E"/>
<path d="M55.1486 3.92521C55.6937 3.25613 56.7735 3.54545 56.9111 4.39746L57.3814 7.31073C57.438 7.66132 57.6763 7.95559 58.0075 8.08385L60.7593 9.14963C61.5641 9.46132 61.6226 10.5777 60.8548 10.9718L58.2295 12.3194C57.9135 12.4815 57.7073 12.7991 57.6876 13.1537L57.5244 16.1001C57.4766 16.9619 56.433 17.3625 55.8209 16.754L53.728 14.6736C53.4762 14.4233 53.1104 14.3253 52.7671 14.4162L49.9144 15.1714C49.0801 15.3923 48.3766 14.5235 48.7661 13.7534L50.098 11.12C50.2582 10.8031 50.2384 10.425 50.0459 10.1266L48.4461 7.64687C47.9782 6.92166 48.587 5.98413 49.4399 6.11659L52.3559 6.5695C52.7068 6.62401 53.0603 6.48831 53.2846 6.213L55.1486 3.92521Z" fill="#FCC12E"/>
<g clip-path="url(#clip0)">
<path d="M61.7515 49.4967L51.6691 49.4967C50.5762 49.4967 49.4993 49.7665 48.5359 50.2833L47.2273 50.9845C46.2639 51.5012 45.187 51.771 44.0941 51.771L33.5963 51.771L33.5963 32.007L39.2644 32.007C39.5075 31.2121 39.4808 30.3386 39.1493 29.5315L37.8468 26.3587C37.5305 25.5866 37.3674 24.7605 37.3674 23.9259L37.3674 23.4519C37.3674 22.8071 37.6288 22.2233 38.051 21.8011C38.4733 21.3788 39.0571 21.1174 39.7011 21.1174C40.5547 21.1174 41.3397 21.5831 41.749 22.3315L43.1269 24.8504C43.4379 25.4197 43.835 25.9388 44.3022 26.3899L48.6853 30.613C49.6136 31.5078 50.8528 32.007 52.1424 32.007L53.7223 32.007L61.7515 32.007L61.7515 49.4967Z" fill="#FFCEBF"/>
<path d="M37.3674 49.3009C37.3674 47.9366 36.2615 46.83 34.8965 46.83L31.6452 46.83C30.7695 46.83 30.0005 47.2858 29.5615 47.9732C29.3161 48.3566 29.1743 48.8123 29.1743 49.3009C29.1743 50.6651 30.281 51.771 31.6452 51.771L34.8965 51.771C35.5786 51.771 36.1967 51.4943 36.6441 51.0477C37.0907 50.6003 37.3674 49.983 37.3674 49.3009Z" fill="#FFCEBF"/>
<path d="M39.1074 44.36C39.1074 42.9957 38.0015 41.8891 36.6373 41.8891L30.0523 41.8891C29.1766 41.8891 28.4076 42.3448 27.9694 43.0323C27.7239 43.4157 27.5822 43.8714 27.5822 44.36C27.5822 45.7242 28.6881 46.8301 30.0523 46.8301L36.6373 46.8301C37.3194 46.8301 37.9367 46.5534 38.3841 46.1068C38.8307 45.6594 39.1074 45.0421 39.1074 44.36Z" fill="#FFCEBF"/>
<path d="M38.3041 39.419C38.3041 38.0548 37.1982 36.9482 35.834 36.9482L30.0523 36.9482C29.1766 36.9482 28.4076 37.4039 27.9694 38.0914C27.7239 38.4747 27.5822 38.9305 27.5822 39.419C27.5822 40.7833 28.6881 41.8892 30.0523 41.8892L35.834 41.8892C36.5161 41.8892 37.1334 41.6125 37.5808 41.1659C38.0274 40.7185 38.3041 40.1012 38.3041 39.419Z" fill="#FFCEBF"/>
<path d="M38.304 34.4776C38.304 33.9891 38.1623 33.5333 37.9169 33.15C37.4786 32.4625 36.7096 32.0068 35.8339 32.0068L31.1963 32.0068C30.2939 32.0068 29.505 32.49 29.0737 33.2117C28.8527 33.5821 28.7254 34.015 28.7254 34.4776C28.7254 35.8419 29.8312 36.9478 31.1955 36.9478L35.8339 36.9478C36.516 36.9478 37.1334 36.6711 37.5808 36.2245C38.0274 35.7771 38.304 35.1598 38.304 34.4776Z" fill="#FFCEBF"/>
<path d="M57.3647 49.4966L61.7516 49.4966L61.7516 32.0068L57.3647 32.0068L57.3647 49.4966Z" fill="#FFB09E"/>
<path d="M39.2643 32.0065L31.1963 32.0065C30.2939 32.0065 29.505 32.4897 29.0737 33.2114C29.2269 33.171 29.3869 33.1497 29.5523 33.1497L37.7032 33.1497C38.4124 33.1497 39.0519 32.6965 39.2606 32.0188C39.2618 32.0146 39.2631 32.0106 39.2643 32.0065Z" fill="#FFB09E"/>
<path d="M51.3604 31.9451C50.359 31.7858 49.4238 31.3247 48.6853 30.6129L44.3022 26.3898C43.835 25.9386 43.4379 25.4196 43.127 24.8503L41.749 22.3314C41.5447 21.9571 41.246 21.6538 40.8916 21.4434C40.5372 21.2339 40.1279 21.1172 39.7011 21.1172C39.3292 21.1172 38.9778 21.2049 38.6661 21.3596C39.0883 21.5684 39.4458 21.903 39.6798 22.3314L41.0577 24.8503C41.3687 25.4196 41.765 25.9386 42.233 26.3898L46.6161 30.6129C47.5444 31.5076 48.7836 32.0068 50.0724 32.0068L51.3604 31.9451Z" fill="#FFB09E"/>
<path d="M65.461 50.9544L65.461 31.203C65.461 30.6662 65.0259 30.2311 64.4891 30.2311L60.4058 30.2311C59.869 30.2311 59.4339 30.6662 59.4339 31.203L59.4339 50.9544C59.4339 51.4912 59.869 51.9263 60.4058 51.9263L64.4891 51.9263C65.0259 51.9263 65.461 51.4912 65.461 50.9544Z" fill="#3962FA"/>
<path d="M33.0369 42.6531L32.8852 42.5014C32.4905 42.1066 31.9646 41.8886 31.4052 41.8886L30.0523 41.8886C29.1766 41.8886 28.4076 42.3444 27.9694 43.0319L31.4052 43.0319C31.6589 43.0319 31.8975 43.1309 32.0774 43.31L32.2283 43.4617C32.4523 43.685 32.8136 43.6843 33.0369 43.4617C33.2602 43.2384 33.2602 42.8764 33.0369 42.6531Z" fill="#FFB09E"/>
<path d="M33.6062 47.4436C33.2107 47.048 32.6848 46.8301 32.1254 46.8301L31.6452 46.8301C30.7695 46.8301 30.0005 47.2858 29.5615 47.9733L32.1254 47.9733C32.3792 47.9733 32.6185 48.0724 32.7976 48.2515C33.0209 48.4748 33.3829 48.4748 33.6062 48.2515C33.8296 48.0282 33.8296 47.6661 33.6062 47.4436Z" fill="#FFB09E"/>
<path d="M33.8234 37.6669L33.7167 37.561C33.322 37.1655 32.7961 36.9475 32.2367 36.9475L30.0523 36.9475C29.1766 36.9475 28.4076 37.4032 27.9694 38.0907L32.2367 38.0907C32.4905 38.0907 32.729 38.1898 32.9089 38.3696L33.0148 38.4756C33.2381 38.6989 33.6001 38.6989 33.8234 38.4756C34.0468 38.2523 34.0468 37.8903 33.8234 37.6669Z" fill="#FFB09E"/>
<path d="M62.4474 46.3847C62.8251 46.3847 63.1313 46.6909 63.1313 47.0686C63.1313 47.4463 62.8251 47.7524 62.4474 47.7524C62.0697 47.7524 61.7635 47.4463 61.7635 47.0686C61.7635 46.6909 62.0697 46.3847 62.4474 46.3847Z" fill="#3962FA"/>
</g>
<rect opacity="0.4" x="15.8267" y="18.4253" width="1.30616" height="11.9858" rx="0.653082" transform="rotate(-40.1861 15.8267 18.4253)" fill="#FCC12E"/>
<rect opacity="0.4" x="53.65" y="17.2109" width="1.30616" height="9.14315" rx="0.653082" transform="rotate(30 53.65 17.2109)" fill="#FCC12E"/>
<rect opacity="0.4" x="41.95" y="16.0425" width="1.30616" height="3.51917" rx="0.653082" transform="rotate(4.36067 41.95 16.0425)" fill="#FCC12E"/>
<rect opacity="0.4" x="28.5325" y="16.7275" width="1.30616" height="5.42338" rx="0.653082" transform="rotate(-15 28.5325 16.7275)" fill="#FCC12E"/>
<defs>
<clipPath id="clip0">
<rect width="37.8787" height="37.8787" fill="white" transform="matrix(1 8.74228e-08 8.74228e-08 -1 27.5822 55.4609)"/>
</clipPath>
</defs>
</svg>
