<svg width="12" height="12" viewBox="0 0 12 12" fill="none" xmlns="http://www.w3.org/2000/svg">
<path d="M10.9497 1.05071C10.5592 0.660181 9.92602 0.660182 9.5355 1.05071L5.99996 4.58624L2.46443 1.05071C2.07391 0.660181 1.44074 0.660181 1.05022 1.05071C0.659693 1.44123 0.659693 2.0744 1.05022 2.46492L4.58575 6.00045L1.05022 9.53599C0.659693 9.92651 0.659693 10.5597 1.05022 10.9502C1.44074 11.3407 2.07391 11.3407 2.46443 10.9502L5.99997 7.41467L9.5355 10.9502C9.92602 11.3407 10.5592 11.3407 10.9497 10.9502C11.3402 10.5597 11.3402 9.92651 10.9497 9.53599L7.41418 6.00045L10.9497 2.46492C11.3402 2.07439 11.3402 1.44123 10.9497 1.05071Z" fill="#FC2133"/>
</svg>
