<svg width="431" height="102" viewBox="0 0 431 102" fill="none" xmlns="http://www.w3.org/2000/svg">
<path d="M118.23 75.9444C129.72 57.6384 147.114 42.7564 157.616 24.1725C159.303 21.1876 157.145 29.0498 156.941 29.952C154.804 39.4416 154.541 50.7364 154.664 60.4779C154.771 68.9234 156.138 67.3263 162.423 62.92C173.369 55.2463 184.452 48.3574 196.327 42.081C198.245 41.0672 201.424 39.4814 203.411 38.1737C204.122 37.7058 204.719 36.1663 205.435 36.627C206.775 37.4894 202.187 46.4009 201.724 47.4536C199.893 51.6204 199.253 55.4424 198.604 59.8267C197.772 65.4493 215.421 46.014 215.724 45.7441C219.462 42.4165 237.318 22.3008 244.736 23.6027C246.997 23.9994 244.308 40.8519 244.23 42.3252C243.601 54.3257 242.768 66.4152 244.146 78.3865C244.285 79.5929 253.136 67.6212 254.351 66.0947C262.652 55.6637 270.759 45.0558 279.652 35.0804C281.37 33.1537 289.633 21.0951 289.773 29.0566C289.961 39.798 289.682 50.5493 289.773 61.292C289.912 77.8461 296.357 60.6783 301.242 54.1286C308.552 44.3299 317.77 31.2255 328.652 24.6609C332.263 22.4827 330.816 38.4877 330.845 39.5575C330.987 44.9081 329.52 57.9756 332.447 62.92C333.907 65.3855 336.658 58.9518 338.688 56.8962C345.675 49.8213 352.977 43.0659 360.363 36.3828C363.093 33.9122 372.857 22.3043 377.989 23.0328C380.571 23.3993 377.753 41.3971 377.483 43.7091C377.36 44.7662 374.373 53.7989 376.64 51.5237C380.015 48.1363 382.071 43.6425 385.074 39.9645C387.216 37.3397 385.932 63.3371 387.267 66.6645C387.559 67.3939 398.872 51.7071 399.917 49.8956C402.501 45.4151 404.007 40.8707 408.182 37.8481" stroke="#3962FA" stroke-width="45.3481" stroke-linecap="round" stroke-linejoin="round"/>
<path d="M22.9997 75.9446C20.9988 57.2646 46.5 27.3434 62.3852 24.1727C64.072 21.1878 61.9137 29.05 61.7105 29.9523C59.5732 39.4418 59.3103 50.7366 59.4334 60.4782C59.5401 68.9237 60.907 67.3266 67.1924 62.9203C78.1386 55.2466 89.2216 48.3577 101.096 42.0812C103.014 41.0674 106.193 39.4816 108.18 38.1739C108.891 37.706 109.489 36.1666 110.205 36.6273C111.545 37.4897 106.956 46.4011 106.494 47.4538C104.662 51.6207 104.022 55.4427 103.373 59.827C102.541 65.4495 120.191 46.0143 120.494 45.7444" stroke="#3962FA" stroke-width="45.3481" stroke-linecap="round" stroke-linejoin="round"/>
</svg>
