<svg width="28" height="28" viewBox="0 0 28 28" fill="none" xmlns="http://www.w3.org/2000/svg">
<circle cx="15" cy="14" r="3" fill="#3962FA" fill-opacity="0.4"/>
<circle cx="14" cy="14" r="4" stroke="#031F88" stroke-width="2"/>
<circle cx="5" cy="4" r="2" fill="#3962FA" fill-opacity="0.4"/>
<circle cx="4" cy="4" r="3" stroke="#031F88" stroke-width="2"/>
<circle cx="5" cy="24" r="2" fill="#3962FA" fill-opacity="0.4"/>
<circle cx="4" cy="24" r="3" stroke="#031F88" stroke-width="2"/>
<circle cx="25" cy="4" r="2" fill="#3962FA" fill-opacity="0.4"/>
<circle cx="24" cy="4" r="3" stroke="#031F88" stroke-width="2"/>
<circle cx="25" cy="24" r="2" fill="#3962FA" fill-opacity="0.4"/>
<circle cx="24" cy="24" r="3" stroke="#031F88" stroke-width="2"/>
<rect x="6.41418" y="5" width="8.37173" height="2" transform="rotate(45 6.41418 5)" fill="#031F88"/>
<rect x="23.3339" y="6.41406" width="8.37173" height="2" transform="rotate(135 23.3339 6.41406)" fill="#031F88"/>
<rect x="21.4052" y="22.8193" width="7.64415" height="2" transform="rotate(-135 21.4052 22.8193)" fill="#031F88"/>
<rect x="5" y="21.4053" width="7.64415" height="2" transform="rotate(-45 5 21.4053)" fill="#031F88"/>
</svg>
