<svg width="52" height="52" viewBox="0 0 52 52" fill="none" xmlns="http://www.w3.org/2000/svg">
<path d="M42.25 52H9.75C4.36475 52 0 47.6352 0 42.25V9.75C0 4.36475 4.36475 0 9.75 0H42.25C47.6352 0 52 4.36475 52 9.75V42.25C52 47.6352 47.6352 52 42.25 52Z" fill="#3962FA" fill-opacity="0.2"/>
<path d="M43.3745 27.62L44.8792 31.6933L40.5992 30.9598L43.3745 27.62Z" fill="#031F88" stroke="#031F88"/>
<path d="M42.9744 30.6016C42.0784 33.9285 40.222 36.9178 37.6372 39.1961C35.0524 41.4743 31.8537 42.9406 28.4406 43.4118" stroke="#031F88" stroke-width="2" stroke-linecap="round"/>
<path d="M27.6207 8.62634L31.6939 7.12163L30.9604 11.4016L27.6207 8.62634Z" fill="#031F88" stroke="#031F88"/>
<path d="M30.6028 9.02568C33.9298 9.92173 36.919 11.7781 39.1973 14.3629C41.4756 16.9477 42.9418 20.1464 43.413 23.5596" stroke="#031F88" stroke-width="2" stroke-linecap="round"/>
<path d="M8.62567 24.2999L7.12096 20.2266L11.4009 20.9601L8.62567 24.2999Z" fill="#031F88" stroke="#031F88"/>
<path d="M9.02568 21.3184C9.92173 17.9914 11.7781 15.0021 14.3629 12.7238C16.9477 10.4456 20.1464 8.9793 23.5596 8.50811" stroke="#031F88" stroke-width="2" stroke-linecap="round"/>
<path d="M24.2995 43.3141L20.2262 44.8188L20.9597 40.5389L24.2995 43.3141Z" fill="#031F88" stroke="#031F88"/>
<path d="M21.3174 42.9138C17.9904 42.0177 15.0011 40.1614 12.7229 37.5766C10.4446 34.9918 8.97832 31.793 8.50713 28.3799" stroke="#031F88" stroke-width="2" stroke-linecap="round"/>
<path d="M23.2097 26.2785L27.2353 18L25.6471 24.9677H32L24.5882 36L28.1301 27.1208C28.2087 26.9238 28.0636 26.7097 27.8515 26.7097H23.4795C23.2579 26.7097 23.1128 26.4777 23.2097 26.2785Z" fill="#3962FA" fill-opacity="0.6"/>
<path d="M20 27.8L28.7273 14L25.4545 24.8H32L23.2727 38L26.5455 27.8H20Z" stroke="#031F88" stroke-width="2" stroke-linecap="round" stroke-linejoin="round"/>
</svg>
