<svg width="28" height="28" viewBox="0 0 28 28" fill="none" xmlns="http://www.w3.org/2000/svg">
<path d="M3 4C3 3.44772 3.44772 3 4 3H23V22C23 23.1046 22.1046 24 21 24H3V4Z" fill="#3962FA" fill-opacity="0.4"/>
<rect x="11" y="5" width="2" height="14" rx="1" fill="#031F88"/>
<rect x="5" y="13" width="2" height="14" rx="1" transform="rotate(-90 5 13)" fill="#031F88"/>
<rect x="1" y="1" width="22" height="22" rx="2" stroke="#031F88" stroke-width="2"/>
<path fill-rule="evenodd" clip-rule="evenodd" d="M7.5 25C7.22386 25 6.99563 25.2255 7.04113 25.4979C7.2783 26.9178 8.51277 28 10 28H25C26.6569 28 28 26.6569 28 25V7C28 5.51277 26.9178 4.2783 25.4979 4.04113C25.2255 3.99563 25 4.22386 25 4.5V5.5C25 5.77614 25.2373 5.98964 25.4795 6.12224C25.7897 6.29203 26 6.62145 26 7V25C26 25.5523 25.5523 26 25 26H10C9.62145 26 9.29203 25.7897 9.12224 25.4795C8.98964 25.2373 8.77614 25 8.5 25H7.5Z" fill="#031F88"/>
</svg>
