<svg width="286" height="69" viewBox="0 0 286 69" fill="none" xmlns="http://www.w3.org/2000/svg">
<path d="M79 51.2881C86.6006 38.7412 98.1078 28.541 105.055 15.8036C106.171 13.7578 104.744 19.1465 104.609 19.7649C103.195 26.2691 103.021 34.0105 103.103 40.6874C103.173 46.476 104.078 45.3813 108.236 42.3612C115.477 37.1016 122.809 32.38 130.665 28.0781C131.933 27.3833 134.037 26.2964 135.351 25.4001C135.822 25.0794 136.217 24.0242 136.69 24.34C137.577 24.9311 134.541 31.039 134.235 31.7605C133.024 34.6165 132.6 37.2361 132.171 40.2411C131.62 44.0948 143.296 30.7738 143.497 30.5888C145.97 28.3081 157.782 14.5208 162.69 15.4131C164.185 15.685 162.406 27.2357 162.355 28.2455C161.939 36.4707 161.388 44.7568 162.299 52.9619C162.391 53.7888 168.247 45.5834 169.05 44.5371C174.542 37.3877 179.905 30.117 185.788 23.2799C186.925 21.9594 192.391 13.6944 192.483 19.1512C192.608 26.5134 192.424 33.8823 192.483 41.2453C192.576 52.5916 196.839 40.8247 200.071 36.3355C204.907 29.6195 211.005 20.6377 218.204 16.1384C220.593 14.6455 219.636 25.6153 219.655 26.3485C219.749 30.0158 218.778 38.9723 220.715 42.3612C221.681 44.0511 223.501 39.6414 224.844 38.2325C229.465 33.3833 234.296 28.7532 239.182 24.1726C240.989 22.4792 247.448 14.5232 250.843 15.0225C252.551 15.2737 250.687 27.6094 250.508 29.194C250.427 29.9186 248.451 36.1096 249.951 34.5502C252.183 32.2285 253.544 29.1484 255.53 26.6275C256.947 24.8284 256.098 42.6471 256.98 44.9277C257.174 45.4276 264.658 34.6759 265.349 33.4343C267.059 30.3633 268.055 27.2486 270.817 25.1769" stroke="#3962FA" stroke-width="30" stroke-linecap="round" stroke-linejoin="round"/>
<path d="M16 51.2884C23.6006 38.7414 35.1078 28.5413 42.0555 15.8039C43.1714 13.758 41.7435 19.1468 41.6091 19.7652C40.1952 26.2693 40.0213 34.0108 40.1027 40.6877C40.1733 46.4762 41.0776 45.3815 45.2357 42.3614C52.4771 37.1019 59.809 32.3802 67.6646 28.0784C68.9334 27.3835 71.0366 26.2966 72.3512 25.4003C72.8216 25.0796 73.2166 24.0244 73.6902 24.3402C74.5768 24.9313 71.5414 31.0392 71.2353 31.7607C70.0237 34.6167 69.6003 37.2363 69.171 40.2413C68.6205 44.095 80.2964 30.7741 80.497 30.5891" stroke="#3962FA" stroke-width="30" stroke-linecap="round" stroke-linejoin="round"/>
</svg>
