<svg width="126" height="142" viewBox="0 0 126 142" fill="none" xmlns="http://www.w3.org/2000/svg">
<g filter="url(#filter0_d)">
<path d="M62.5 10.866C63.4282 10.3301 64.5718 10.3301 65.5 10.866L115.328 39.634C116.256 40.1699 116.828 41.1603 116.828 42.2321V99.768C116.828 100.84 116.256 101.83 115.328 102.366L65.5 131.134C64.5718 131.67 63.4282 131.67 62.5 131.134L12.6725 102.366C11.7442 101.83 11.1725 100.84 11.1725 99.768V42.2321C11.1725 41.1603 11.7442 40.1699 12.6725 39.634L62.5 10.866Z" fill="white"/>
</g>
<g clip-path="url(#clip0)">
<path d="M47.2973 77.2586L45.2088 85.0553L37.5753 85.2168C35.294 80.9855 34 76.1444 34 70.9998C34 66.0251 35.2098 61.3339 37.3544 57.2031H37.356L44.152 58.4491L47.129 65.2042C46.5059 67.0207 46.1663 68.9707 46.1663 70.9998C46.1665 73.202 46.5654 75.312 47.2973 77.2586Z" fill="#FBBB00"/>
<path d="M93.4759 65.396C93.8204 67.2108 94 69.0849 94 71.0004C94 73.1482 93.7742 75.2433 93.344 77.2642C91.8836 84.1411 88.0677 90.146 82.7815 94.3955L82.7798 94.3938L74.22 93.9571L73.0085 86.3944C76.5161 84.3372 79.2574 81.118 80.7014 77.2642H64.6596V65.396H80.9354H93.4759Z" fill="#518EF8"/>
<path d="M82.7799 94.3934L82.7815 94.395C77.6404 98.5274 71.1095 101 64.0002 101C52.5755 101 42.6425 94.6143 37.5755 85.217L47.2975 77.2588C49.8309 84.0203 56.3535 88.8335 64.0002 88.8335C67.287 88.8335 70.3662 87.945 73.0084 86.3939L82.7799 94.3934Z" fill="#28B446"/>
<path d="M83.1489 47.9066L73.4302 55.8631C70.6956 54.1538 67.4631 53.1664 64 53.1664C56.1802 53.1664 49.5357 58.2004 47.1291 65.2044L37.356 57.2033H37.3544C42.3473 47.5769 52.4055 41 64 41C71.2791 41 77.9533 43.5929 83.1489 47.9066Z" fill="#F14336"/>
</g>
<defs>
<filter id="filter0_d" x="0.172455" y="0.463867" width="125.655" height="141.072" filterUnits="userSpaceOnUse" color-interpolation-filters="sRGB">
<feFlood flood-opacity="0" result="BackgroundImageFix"/>
<feColorMatrix in="SourceAlpha" type="matrix" values="0 0 0 0 0 0 0 0 0 0 0 0 0 0 0 0 0 0 127 0" result="hardAlpha"/>
<feOffset dx="-1"/>
<feGaussianBlur stdDeviation="5"/>
<feColorMatrix type="matrix" values="0 0 0 0 0.52549 0 0 0 0 0.588235 0 0 0 0 0.619608 0 0 0 0.2 0"/>
<feBlend mode="normal" in2="BackgroundImageFix" result="effect1_dropShadow"/>
<feBlend mode="normal" in="SourceGraphic" in2="effect1_dropShadow" result="shape"/>
</filter>
<clipPath id="clip0">
<rect width="60" height="60" fill="white" transform="translate(34 41)"/>
</clipPath>
</defs>
</svg>
