<svg width="28" height="28" viewBox="0 0 28 28" fill="none" xmlns="http://www.w3.org/2000/svg">
<path fill-rule="evenodd" clip-rule="evenodd" d="M18.1284 7.57552C17.1263 6.81408 15.9311 6.41583 14.7112 6.43686C13.3722 6.45473 12.0719 6.93136 10.9932 7.79975C9.91468 8.66801 8.41433 9.40394 8.00005 10.7972C7.5513 12.2523 7.05154 13.8421 7.50005 15.2972L7.79275 15.9209C8.10802 16.9443 9.12285 18.7142 9.81614 19.4828C10.5094 20.2514 11.7715 19.842 12.7025 20.2003C13.6335 20.5585 14.6269 20.68 15.6072 20.5555C16.5859 20.4311 17.5259 20.0649 18.3561 19.4844V19.4828C18.9144 19.0782 19.3919 18.5539 19.7599 17.9417C20.1278 17.3295 20.3786 16.6421 20.4971 15.9209H15.7616C15.4831 15.9208 15.2161 15.7997 15.0192 15.5842C14.8224 15.3688 14.7117 15.0766 14.7116 14.7719V12.556C14.7116 12.2513 14.8222 11.959 15.0191 11.7436C15.216 11.5281 15.4831 11.407 15.7616 11.407C17.7471 11.407 22.0222 11.407 23.8991 11.4093C24.1596 11.4091 24.4109 11.5152 24.6039 11.7068C24.7969 11.8985 24.9177 12.1619 24.9428 12.4457C24.9811 12.8921 25.5 13.3497 25.5 13.7972C25.5 17.3624 24.5256 20.256 22.5 22.2972L22 22.7972C20.0489 24.6954 17.3211 25.3206 14.7115 25.2403C12.726 25.2404 10.7795 24.6368 9.0892 23.4967C7.39918 22.3568 5.89225 20.7379 5.00005 18.7972C2.48834 13.3338 4.98355 6.76638 10.5 4.29723C12.1498 3.55878 13.0331 3.29699 15.0191 3.29727C17.2702 3.27059 19.2613 3.62462 21.0758 5.08283C21.1939 5.18261 21.4299 5.11201 21.5 5.25621C21.5701 5.40041 21.3718 4.67708 21.3814 4.84007C21.3909 5.00306 21.3686 5.16639 21.3159 5.31919C21.2632 5.47199 21.1813 5.61074 21.0758 5.7262C20.5781 6.27083 19.9465 6.96195 19.4661 7.46062C19.2923 7.65112 19.062 7.76739 18.8167 7.78845C18.5714 7.80952 18.3273 7.73401 18.1284 7.57552Z" fill="#3962FA" fill-opacity="0.4"/>
<path fill-rule="evenodd" clip-rule="evenodd" d="M14.2364 0.756557C17.0238 0.727547 19.7454 1.60388 21.9923 3.25397L22.0018 3.261L22.0112 3.26827C22.2588 3.4593 22.4628 3.70092 22.6097 3.97702C22.7565 4.25311 22.8428 4.55734 22.8627 4.8694C22.8827 5.18146 22.836 5.49421 22.7255 5.78678C22.6151 6.07934 22.4436 6.34501 22.2225 6.56607L22.2167 6.57181C21.6546 7.13389 20.9301 7.85844 20.3725 8.38773C20.0067 8.74889 19.5248 8.96923 19.012 9.00949C18.4984 9.0498 17.9874 8.9069 17.5693 8.60642C16.5974 7.93388 15.4394 7.58223 14.2575 7.60085L14.2539 7.6009C12.9326 7.61701 11.6495 8.04681 10.5851 8.82986C9.56163 9.58279 8.78977 10.6259 8.36855 11.8222L8.31616 11.9774L8.31522 11.9802L8.2739 12.1072C7.89754 13.3072 7.88751 14.5915 8.24383 15.796L8.32052 16.0235C8.63231 16.9483 9.15069 17.79 9.83631 18.4846C10.5219 19.1792 11.3568 19.7085 12.2775 20.0323C13.1982 20.3561 14.1806 20.4658 15.1501 20.3533C16.0898 20.2442 16.9935 19.929 17.7967 19.4306L17.8547 19.3921C18.3801 19.0441 18.8295 18.5933 19.1758 18.0668C19.2941 17.8869 19.3996 17.6994 19.4916 17.5058H15.4418C14.8585 17.5056 14.2987 17.2738 13.8863 16.8613C13.4738 16.4488 13.242 15.8895 13.2418 15.3061V12.9916C13.2418 12.4081 13.4736 11.8485 13.8861 11.436C14.2987 11.0234 14.8583 10.7916 15.4418 10.7916C17.7107 10.7916 22.5972 10.7916 24.7429 10.794C25.2888 10.7941 25.8151 10.9973 26.2194 11.3641C26.6241 11.7314 26.8774 12.2363 26.93 12.7802L26.9302 12.7828C26.977 13.2807 27 13.7811 27 14.2792C27 17.7958 25.8822 20.8893 23.8539 23.1798L23.0206 24.0311C20.604 26.1796 17.4598 27.3267 14.2277 27.2394C11.7781 27.2369 9.37702 26.5551 7.29151 25.2697C5.54571 24.1936 4.07841 22.73 2.99965 20.9986L2.40808 19.9464C1.48216 18.1013 1 16.0654 1 14.001C1 12.2128 1.36175 10.4461 2.06028 8.80615L2.40826 8.0548C2.41742 8.03655 2.42663 8.01832 2.43588 8.00012L2.70129 7.50403C3.79976 5.55175 5.37758 3.90689 7.29001 2.72742C9.37818 1.43957 11.7831 0.757255 14.2364 0.756557ZM3.93732 9.50403C3.31995 10.9206 3 12.4513 3 14.001C3 15.7175 3.39259 17.4108 4.14713 18.9515L4.19569 19.0481C5.13208 20.9093 6.56719 22.4739 8.3409 23.5671C10.1149 24.6605 12.1578 25.2395 14.2417 25.2394H14.2558L14.2699 25.2398C16.9628 25.3155 19.5841 24.3743 21.613 22.6058L21.677 22.5468C23.7609 20.6279 25 17.76 25 14.2792C25 13.8425 24.9798 13.4045 24.939 12.9699L25.9346 12.8764L24.9392 12.9725C24.9345 12.9236 24.9117 12.8782 24.8754 12.8452C24.839 12.8122 24.7916 12.7939 24.7425 12.794L24.7407 12.794C22.5964 12.7916 17.7113 12.7916 15.4418 12.7916C15.3887 12.7916 15.3379 12.8127 15.3003 12.8502C15.2628 12.8877 15.2418 12.9385 15.2418 12.9916V15.3054C15.2418 15.3586 15.2629 15.4095 15.3005 15.4471C15.338 15.4847 15.389 15.5058 15.4421 15.5058H22.0496L21.838 16.6827C21.6787 17.5689 21.3415 18.4136 20.8467 19.1659C20.4534 19.7638 19.967 20.2935 19.407 20.7354V20.7758L18.9454 21.0707C17.8688 21.7586 16.6498 22.1926 15.3807 22.3399C14.1095 22.4875 12.8213 22.3436 11.614 21.919C10.4067 21.4944 9.31198 20.8004 8.41293 19.8896C7.68514 19.1523 7.10106 18.2886 6.68807 17.3429H6.65014L6.42065 16.6625C5.8562 14.9889 5.83887 13.1807 6.36866 11.4988L6.65014 10.7916L6.9516 10.0761C7.53606 8.9546 8.3715 7.97543 9.39993 7.21885C10.8006 6.1884 12.489 5.62265 14.2277 5.60107C15.8305 5.57618 17.4007 6.05451 18.7175 6.96876L18.7267 6.97517L18.7358 6.98179C18.7704 7.00697 18.8128 7.01897 18.8554 7.01562C18.8981 7.01227 18.9381 6.9938 18.9684 6.96354L18.9779 6.95398L18.9877 6.94468C19.5251 6.4349 20.2365 5.72355 20.8084 5.15166C20.8285 5.13157 20.8443 5.10722 20.8544 5.08063C20.8644 5.05404 20.8687 5.0256 20.8668 4.99722C20.865 4.96884 20.8572 4.94119 20.8438 4.9161C20.8316 4.8931 20.815 4.87272 20.795 4.8561C18.8985 3.46776 16.6031 2.73103 14.2526 2.7565L14.2416 2.75662C12.1573 2.75635 10.1139 3.33558 8.33988 4.42971C6.79825 5.38049 5.51274 6.6875 4.58856 8.23593C4.31418 8.69693 4.16704 8.99753 3.93732 9.50403Z" fill="#031F88"/>
</svg>
