<svg width="110" height="140" viewBox="0 0 110 140" fill="none" xmlns="http://www.w3.org/2000/svg">
<circle cx="47.5471" cy="95.3152" r="44.5471" fill="#43D14F"/>
<path d="M52.127 67.9531L53.7302 51.739C53.8187 50.8436 54.6164 50.1894 55.5119 50.278L100.101 54.6869C102.787 54.9525 105.179 53.0012 105.445 50.3147C106.074 43.9541 107.168 32.8872 107.776 26.7397C108.042 24.0467 105.984 22.5158 103.292 22.2403L82.2809 20.0898" stroke="#031F88" stroke-width="1.62932"/>
<path d="M34.7249 20.3886L69.015 21.3233L73.6005 21.7767L103.875 24.7703C104.771 24.8588 105.425 25.6565 105.336 26.552L103.092 49.2517C102.915 51.0427 101.319 52.351 99.5283 52.1739L54.9396 47.765C53.1486 47.5879 51.5532 48.8962 51.3761 50.6871L50.1737 62.8477" stroke="#031F88" stroke-width="1.62932"/>
<rect x="45.2208" y="54.9905" width="14.6638" height="66.802" rx="7.33192" transform="rotate(5.64702 45.2208 54.9905)" fill="white" stroke="#031F88" stroke-width="1.62932"/>
<rect x="10.5627" y="30.0761" width="29.3277" height="87.9831" rx="13.8492" transform="rotate(-84.353 10.5627 30.0761)" fill="white" stroke="#031F88" stroke-width="1.62932"/>
<path d="M24.4264 30.6283C17.2625 29.9199 12.0293 23.5383 12.7377 16.3744L12.898 14.753C13.6063 7.58919 19.988 2.35599 27.1519 3.06434L87.144 8.99634C94.3078 9.70469 99.541 16.0864 98.8327 23.2502L98.6724 24.8716C97.964 32.0354 91.5823 37.2686 84.4185 36.5603L24.4264 30.6283Z" fill="#43D14F"/>
<path d="M25.5299 2.90381C8.9952 4.54279 10.4745 22.6989 17.37 27.4739C9.3158 1.30056 40.773 6.04771 87.9541 9.07628C84.7914 7.94498 41.0134 3.61625 25.5299 2.90381Z" fill="#35BB40"/>
<ellipse cx="46.4727" cy="13.8258" rx="3.99179" ry="4.56205" transform="rotate(5.64702 46.4727 13.8258)" fill="white"/>
<ellipse cx="46.4761" cy="13.8255" rx="1.71077" ry="2.28102" transform="rotate(5.64702 46.4761 13.8255)" fill="#031F88"/>
<ellipse cx="65.7677" cy="15.7345" rx="3.99179" ry="4.56205" transform="rotate(5.64702 65.7677 15.7345)" fill="white"/>
<ellipse cx="65.769" cy="15.7342" rx="1.71077" ry="2.28102" transform="rotate(5.64702 65.769 15.7342)" fill="#031F88"/>
<path opacity="0.6" d="M53.7908 109.049L58.3107 63.3379C58.4939 61.4855 57.8251 59.6501 56.4929 58.3499C55.4408 57.3229 54.0706 56.6846 52.6075 56.54L52.4355 56.5229C52.251 58.3893 56.465 59.343 56.3505 61.0851C55.2929 77.171 53.3776 91.1188 50.0075 108.675L53.7908 109.049Z" fill="#376CFB"/>
<rect x="37.7227" y="89.4443" width="8.89804" height="22.2451" rx="4.44902" transform="rotate(-74.353 37.7227 89.4443)" fill="white" stroke="#031F88" stroke-width="1.62932"/>
<rect x="36.877" y="97.9424" width="8.89804" height="22.2451" rx="4.44902" transform="rotate(-74.353 36.877 97.9424)" fill="white" stroke="#031F88" stroke-width="1.62932"/>
<rect x="36.0469" y="106.373" width="8.89804" height="22.2451" rx="4.44902" transform="rotate(-74.353 36.0469 106.373)" fill="white" stroke="#031F88" stroke-width="1.62932"/>
<path d="M48.0561 23.4596C48.1082 22.9329 48.5774 22.5481 49.1042 22.6002L61.7893 23.8545C62.3161 23.9066 62.7009 24.3758 62.6488 24.9025C62.2581 28.8532 58.7388 31.7391 54.7882 31.3485L54.502 31.3202C50.5514 30.9296 47.6654 27.4103 48.0561 23.4596Z" fill="#031F88"/>
<path d="M51.4639 30.3012C51.0117 30.0658 50.7048 29.8068 50.7309 29.5428C51.0297 26.5209 59.1367 27.3228 58.8379 30.3446C58.8118 30.6087 58.4601 30.8026 57.9705 30.9448C55.8307 31.5666 53.4405 31.33 51.4639 30.3012Z" fill="#FB275D"/>
</svg>
