<svg width="137" height="186" viewBox="0 0 137 186" fill="none" xmlns="http://www.w3.org/2000/svg">
<circle cx="57.6369" cy="133.181" r="39.0041" fill="#3962FA"/>
<rect x="80.7681" y="11.1695" width="19.3292" height="164.501" rx="9.66461" transform="rotate(15 80.7681 11.1695)" fill="white" stroke="#031F88" stroke-width="1.20012"/>
<path opacity="0.6" d="M60.8034 157.009L79.7797 86.1883L75.5305 85.0497L71.2812 83.9111C70.5766 86.5408 76.5787 86.5037 75.9981 88.9703C70.6365 111.747 64.655 131.287 55.8459 155.681L60.8034 157.009Z" fill="#376CFB"/>
<path opacity="0.6" d="M93.4428 35.1987L96.5129 23.7407C97.5422 19.8993 95.2626 15.9509 91.4212 14.9216L89.1699 14.3184C93.4685 17.0029 98.0353 22.3349 89.9017 34.2499L93.4428 35.1987Z" fill="#376CFB"/>
<rect x="121.415" y="41.7954" width="45.7241" height="75.0517" rx="1.80019" transform="rotate(105 121.415 41.7954)" fill="white" stroke="#031F88" stroke-width="1.20012"/>
<rect x="118.559" y="43.4453" width="42.5251" height="70.3863" rx="1.20012" transform="rotate(105 118.559 43.4453)" fill="#3962FA"/>
<rect x="130.193" y="48.7026" width="45.7241" height="95.5811" rx="4.20044" transform="rotate(105 130.193 48.7026)" fill="white" stroke="#031F88" stroke-width="1.20012"/>
<rect x="128.008" y="50.5332" width="42.0625" height="91.6114" rx="3.60037" transform="rotate(105 128.008 50.5332)" fill="#3962FA"/>
<rect x="45.9102" y="129.313" width="13.1786" height="29.3276" rx="6.58933" transform="rotate(-65 45.9102 129.313)" fill="#87A7FD"/>
<rect x="43.2559" y="139.227" width="13.1786" height="29.3276" rx="6.58933" transform="rotate(-65 43.2559 139.227)" fill="#87A7FD"/>
<rect x="40.2168" y="150.56" width="13.1786" height="29.3276" rx="6.58933" transform="rotate(-65 40.2168 150.56)" fill="#87A7FD"/>
<rect x="43.6387" y="127.35" width="11.7311" height="29.3276" rx="5.86553" transform="rotate(-65 43.6387 127.35)" fill="white" stroke="#031F88" stroke-width="1.20012"/>
<rect x="54.897" y="79.3848" width="3.66775" height="33.993" rx="0.600062" transform="rotate(-75 54.897 79.3848)" fill="white" stroke="#031F88" stroke-width="1.20012"/>
<rect x="68.6822" y="27.9409" width="3.7545" height="33.993" rx="0.600062" transform="rotate(-75 68.6822 27.9409)" fill="white" stroke="#031F88" stroke-width="1.20012"/>
<rect x="40.7227" y="138.225" width="11.7311" height="29.3276" rx="5.86553" transform="rotate(-65 40.7227 138.225)" fill="white" stroke="#031F88" stroke-width="1.20012"/>
<rect x="37.832" y="149.012" width="11.7311" height="29.3276" rx="5.86553" transform="rotate(-65 37.832 149.012)" fill="white" stroke="#031F88" stroke-width="1.20012"/>
<circle cx="68.6786" cy="48.2995" r="7.33191" transform="rotate(15 68.6786 48.2995)" fill="white"/>
<ellipse cx="65.5971" cy="50.0636" rx="2.65623" ry="2.4144" transform="rotate(15 65.5971 50.0636)" fill="#031F88"/>
<circle cx="92.7587" cy="54.7507" r="7.33191" transform="rotate(15 92.7587 54.7507)" fill="white"/>
<ellipse cx="89.9314" cy="56.4048" rx="2.62361" ry="2.41193" transform="rotate(15 89.9314 56.4048)" fill="#031F88"/>
<path d="M68.1855 67.1426C73.4992 71.6525 76.8335 72.8512 83.7661 71.3174" stroke="#031F88" stroke-width="1.20012" stroke-linecap="round"/>
<path d="M85.5469 67.9985C84.1501 70.2074 84.1965 71.4797 85.136 73.8497" stroke="#031F88" stroke-width="1.20012" stroke-linecap="round" stroke-linejoin="bevel"/>
<path d="M66.0586 68.6606C68.2819 67.287 68.7976 66.1229 68.9914 63.5809" stroke="#031F88" stroke-width="1.20012" stroke-linecap="round" stroke-linejoin="bevel"/>
</svg>
