<svg width="28" height="28" viewBox="0 0 28 28" fill="none" xmlns="http://www.w3.org/2000/svg">
<path d="M12 28C15.2872 28 16.7717 25.5878 16.9754 23.4989C17.0022 23.224 16.7761 23 16.5 23H7.5C7.22386 23 6.99776 23.224 7.02457 23.4989C7.22826 25.5878 8.71276 28 12 28Z" fill="#3962FA" fill-opacity="0.4"/>
<path d="M12.5634 6C10.0657 6 7.21127 7.37799 7.21127 10.4785V13.5789C7.21127 15.6411 6.76018 16.8008 5.78404 18.0574C4.71361 19.4354 4.5 19.6429 4.5 20.1764C4.5 20.8654 4.74261 21.1579 5.78404 21.1579L21.1114 22C22.1528 22 23 21.1821 23 20.1764C23 19.6429 22.7593 19.1375 22.3396 18.7916C20.698 17.4516 19.7623 15.5051 19.7623 13.443V10.5379C17.5587 6.3445 14.7042 6 12.5634 6Z" fill="#3962FA" fill-opacity="0.4"/>
<path d="M15.88 24C15.7207 24.6691 15.4015 25.3276 14.9134 25.85C14.3002 26.5063 13.3743 27 12 27C10.6257 27 9.69985 26.5063 9.08662 25.85C8.59846 25.3276 8.27929 24.6691 8.11998 24H15.88Z" stroke="#031F88" stroke-width="2"/>
<path d="M5.25926 10.3888C5.25926 6.91608 8.30805 4 12 4L22.3352 18.7498L21.6968 19.5196C21.6973 19.52 21.6978 19.5204 21.6983 19.5208C21.8944 19.6842 22 19.9152 22 20.1527C22 20.5922 21.6222 21 21.0988 21H2.90117C2.3778 21 2 20.5922 2 20.1527C2 19.9152 2.10554 19.6842 2.30165 19.5208C4.17866 17.978 5.25926 15.726 5.25926 13.3317V10.3888Z" stroke="#031F88" stroke-width="2"/>
<circle cx="21" cy="6" r="5" fill="#D7E0FE" stroke="#031F88" stroke-width="2"/>
<path d="M26 7.17391C26 9.4791 23.8758 11 21.6667 11C19.4575 11 18 9.4791 18 7.17391C18 4.86872 19.7909 3 22 3C24.2091 3 26 4.86872 26 7.17391Z" fill="#3962FA" fill-opacity="0.4"/>
<circle cx="21" cy="6" r="5" stroke="#031F88" stroke-width="2"/>
</svg>
