<svg width="104" height="84" viewBox="0 0 104 84" fill="none" xmlns="http://www.w3.org/2000/svg">
<path d="M92.3098 26.6624C93.6937 26.8606 94.9776 25.928 95.1775 24.5795C95.3774 23.231 94.4177 21.9771 93.0339 21.779L92.3098 26.6624ZM42.9178 31.0211L41.2675 29.1456L42.9178 31.0211ZM27.7067 82.1002C28.7309 83.0305 30.3328 82.977 31.2846 81.9808L46.7947 65.7465C47.7465 64.7503 47.6878 63.1886 46.6636 62.2583C45.6393 61.3281 44.0375 61.3816 43.0857 62.3778L29.2988 76.8083L14.4626 63.3335C13.4384 62.4032 11.8365 62.4567 10.8847 63.4529C9.93294 64.4491 9.99166 66.0108 11.0159 66.9411L27.7067 82.1002ZM92.6719 24.2207C93.0339 21.779 93.0333 21.7789 93.0325 21.7788C93.0321 21.7787 93.0312 21.7786 93.0303 21.7785C93.0286 21.7782 93.0264 21.7779 93.0235 21.7775C93.0179 21.7767 93.0102 21.7756 93.0003 21.7742C92.9805 21.7715 92.9523 21.7675 92.9157 21.7625C92.8426 21.7525 92.7365 21.7382 92.5989 21.7203C92.3238 21.6844 91.9231 21.6341 91.4107 21.5747C90.3861 21.4558 88.9135 21.3005 87.1045 21.1523C83.4909 20.8561 78.5136 20.5862 73.0717 20.6955C67.6399 20.8046 61.679 21.2924 56.121 22.538C50.5921 23.7771 45.2595 25.81 41.2675 29.1456L44.568 32.8965C47.6896 30.2881 52.1331 28.4991 57.2667 27.3486C62.3714 26.2046 67.9599 25.7353 73.1882 25.6303C78.4065 25.5255 83.2001 25.7845 86.6924 26.0708C88.4364 26.2137 89.8505 26.363 90.8244 26.476C91.3112 26.5324 91.6877 26.5798 91.9399 26.6126C92.0661 26.6291 92.1611 26.6419 92.2233 26.6504C92.2544 26.6547 92.2774 26.6579 92.2919 26.6599C92.2991 26.6609 92.3042 26.6616 92.3072 26.6621C92.3088 26.6623 92.3097 26.6624 92.3102 26.6625C92.3104 26.6625 92.3103 26.6625 92.3104 26.6625C92.3102 26.6625 92.3098 26.6624 92.6719 24.2207ZM41.2675 29.1456C37.0901 32.6362 34.1954 37.7071 32.1592 43.107C30.1128 48.5337 28.8589 54.4938 28.0881 59.9785C27.3159 65.4739 27.0194 70.5615 26.9152 74.2713C26.863 76.1285 26.8589 77.646 26.868 78.7035C26.8725 79.2324 26.8803 79.6466 26.8871 79.9311C26.8905 80.0733 26.8937 80.1832 26.896 80.2588C26.8972 80.2966 26.8981 80.3258 26.8988 80.3462C26.8992 80.3564 26.8995 80.3645 26.8997 80.3703C26.8998 80.3731 26.8999 80.3755 26.8999 80.3773C26.9 80.3781 26.9 80.3791 26.9 80.3795C26.9 80.3803 26.9001 80.3809 29.43 80.2964C31.96 80.212 31.96 80.2123 31.96 80.2125C31.96 80.2124 31.96 80.2125 31.96 80.2122C31.96 80.2118 31.9599 80.2107 31.9599 80.2092C31.9597 80.206 31.9596 80.2007 31.9593 80.1931C31.9588 80.178 31.958 80.1542 31.957 80.1219C31.955 80.0573 31.9522 79.9587 31.949 79.8281C31.9428 79.5668 31.9354 79.1772 31.9311 78.6742C31.9225 77.6681 31.9263 76.2098 31.9766 74.4184C32.0774 70.831 32.3641 65.93 33.1046 60.66C33.8466 55.3794 35.0351 49.7974 36.912 44.8199C38.7991 39.8155 41.3088 35.6199 44.568 32.8965L41.2675 29.1456Z" fill="black"/>
</svg>
