<svg width="257" height="69" viewBox="0 0 257 69" fill="none" xmlns="http://www.w3.org/2000/svg">
<path d="M85.4629 51.2884C93.9637 38.7414 106.834 28.5413 114.605 15.8039C115.853 13.758 114.256 19.1468 114.105 19.7652C112.524 26.2693 112.33 34.0108 112.421 40.6877C112.5 46.4762 113.511 45.3815 118.162 42.3614C126.261 37.1019 134.461 32.3802 143.247 28.0784C144.666 27.3835 147.019 26.2966 148.489 25.4003C149.015 25.0796 149.457 24.0244 149.987 24.3402C150.978 24.9313 147.583 31.0392 147.241 31.7607C145.886 34.6167 145.412 37.2363 144.932 40.2413C144.316 44.095 157.375 30.7741 157.6 30.5891C160.365 28.3083 173.577 14.521 179.066 15.4133C180.739 15.6852 178.749 27.2359 178.692 28.2458C178.226 36.4709 177.61 44.757 178.629 52.9622C178.732 53.789 185.281 45.5836 186.18 44.5374C192.322 37.388 198.32 30.1173 204.9 23.2802C206.171 21.9596 212.285 13.6947 212.389 19.1515C212.528 26.5136 212.322 33.8825 212.389 41.2456C212.492 52.5918 217.26 40.825 220.875 36.3358C226.284 29.6198 233.104 20.638 241.156 16.1386" stroke="#43D14F" stroke-width="30" stroke-linecap="round" stroke-linejoin="round"/>
<path d="M15 51.2884C29 34 31.5 28.0784 44.1418 15.8039C45.3899 13.758 43.7929 19.1468 43.6425 19.7652C42.0611 26.2693 41.8666 34.0108 41.9577 40.6877C42.0366 46.4762 43.0481 45.3815 47.6987 42.3614C55.7979 37.1019 63.9982 32.3802 72.7843 28.0784C74.2035 27.3835 76.5558 26.2966 78.0261 25.4003C78.5522 25.0796 78.994 24.0244 79.5237 24.3402C80.5154 24.9313 77.1204 31.0392 76.778 31.7607C75.4229 34.6167 74.9493 37.2363 74.4692 40.2413C73.8534 44.095 86.9125 30.7741 87.1368 30.5891" stroke="#43D14F" stroke-width="30" stroke-linecap="round" stroke-linejoin="round"/>
</svg>
