<svg width="28" height="28" viewBox="0 0 28 28" fill="none" xmlns="http://www.w3.org/2000/svg">
<path d="M3 4C3 3.44772 3.44772 3 4 3H12V25C12 26.1046 11.1046 27 10 27H3V4Z" fill="#3962FA" fill-opacity="0.4"/>
<path d="M17 4C17 3.44772 17.4477 3 18 3H27V6C27 7.10457 26.1046 8 25 8H17V4Z" fill="#3962FA" fill-opacity="0.4"/>
<path d="M17 15C17 14.4477 17.4477 14 18 14H27V25C27 26.1046 26.1046 27 25 27H17V15Z" fill="#3962FA" fill-opacity="0.4"/>
<rect x="1" y="1" width="10" height="26" rx="2" stroke="#031F88" stroke-width="2"/>
<rect x="15" y="1" width="12" height="7" rx="2" stroke="#031F88" stroke-width="2"/>
<rect x="15" y="12" width="12" height="15" rx="2" stroke="#031F88" stroke-width="2"/>
</svg>
