<svg width="28" height="28" viewBox="0 0 28 28" fill="none" xmlns="http://www.w3.org/2000/svg">
<path d="M3 4C3 3.44772 3.44772 3 4 3H12V13C12 14.1046 11.1046 15 10 15H3V4Z" fill="#3962FA" fill-opacity="0.4"/>
<path d="M3 21C3 20.4477 3.44772 20 4 20H12V25C12 26.1046 11.1046 27 10 27H3V21Z" fill="#3962FA" fill-opacity="0.4"/>
<path d="M18 4C18 3.44772 18.4477 3 19 3H27V9C27 10.1046 26.1046 11 25 11H18V4Z" fill="#3962FA" fill-opacity="0.4"/>
<path d="M18 17C18 16.4477 18.4477 16 19 16H27V26C27 27.1046 26.1046 28 25 28H18V17Z" fill="#3962FA" fill-opacity="0.4"/>
<rect x="1" y="1" width="11" height="13" rx="2" stroke="#031F88" stroke-width="2"/>
<rect x="1" y="18" width="11" height="9" rx="2" stroke="#031F88" stroke-width="2"/>
<rect x="16" y="1" width="11" height="9" rx="2" stroke="#031F88" stroke-width="2"/>
<rect x="16" y="14" width="11" height="13" rx="2" stroke="#031F88" stroke-width="2"/>
</svg>
