<svg width="52" height="52" viewBox="0 0 52 52" fill="none" xmlns="http://www.w3.org/2000/svg">
<path d="M42.25 52H9.75C4.36475 52 0 47.6352 0 42.25V9.75C0 4.36475 4.36475 0 9.75 0H42.25C47.6352 0 52 4.36475 52 9.75V42.25C52 47.6352 47.6352 52 42.25 52Z" fill="#3962FA" fill-opacity="0.2"/>
<path opacity="0.8" d="M13.7039 12.9869C13.7671 12.7763 14.0744 12.807 14.0946 13.026L14.3337 15.6174C14.358 15.8809 14.5833 16.0798 14.8478 16.0712L19.0504 15.9343L15.5018 18.34C15.3125 18.4683 15.2344 18.7087 15.3121 18.9237L16.769 22.9558L13.4481 20.3737C13.2398 20.2117 12.9414 20.2395 12.7666 20.4372L11.1496 22.2655C11.0053 22.4286 10.7412 22.2763 10.81 22.0697L11.9771 18.5684C11.9908 18.5275 11.9767 18.4826 11.9423 18.4568L10.4799 17.36C10.3262 17.2447 10.4077 17 10.5999 17H12.4255C12.4697 17 12.5086 16.971 12.5213 16.9287L13.7039 12.9869Z" fill="#3962FA" fill-opacity="0.6"/>
<path d="M7.29873 17.2752L7.29873 17.2752L9.70356 18.9055L8.71627 21.6379C8.30755 22.7691 9.63192 23.7313 10.5814 22.993L12.8751 21.2097L15.1687 22.993C16.1182 23.7313 17.4426 22.7691 17.0338 21.6379L16.0465 18.9055L18.4514 17.2752C19.4469 16.6003 18.9411 15.0434 17.7389 15.0826L14.8351 15.1772L14.0278 12.3863L13.0672 12.6641L14.0278 12.3863C13.6936 11.2309 12.0565 11.2309 11.7223 12.3863L10.915 15.1772L8.01116 15.0826C6.80905 15.0434 6.30318 16.6003 7.29873 17.2752Z" stroke="#031F88" stroke-width="2" stroke-linejoin="round"/>
<path opacity="0.8" d="M26.7039 8.9869C26.7671 8.77629 27.0744 8.80705 27.0946 9.026L27.3337 11.6174C27.358 11.8809 27.5833 12.0798 27.8478 12.0712L32.0504 11.9343L28.5018 14.34C28.3125 14.4683 28.2344 14.7087 28.3121 14.9237L29.769 18.9558L26.4481 16.3737C26.2398 16.2117 25.9414 16.2395 25.7666 16.4372L24.1496 18.2655C24.0053 18.4286 23.7412 18.2763 23.81 18.0697L24.9771 14.5684C24.9908 14.5275 24.9767 14.4826 24.9423 14.4568L23.4799 13.36C23.3262 13.2447 23.4077 13 23.5999 13H25.4255C25.4697 13 25.5086 12.971 25.5213 12.9287L26.7039 8.9869Z" fill="#3962FA" fill-opacity="0.6"/>
<path d="M20.2987 13.2752L20.2987 13.2752L22.7036 14.9055L21.7163 17.6379C21.3075 18.7691 22.6319 19.7313 23.5814 18.993L25.8751 17.2097L28.1687 18.993C29.1182 19.7313 30.4426 18.7691 30.0338 17.6379L29.0465 14.9055L31.4514 13.2752C32.4469 12.6003 31.9411 11.0434 30.7389 11.0826L27.8351 11.1772L27.0278 8.38626L26.0672 8.66414L27.0278 8.38625C26.6936 7.23087 25.0565 7.23087 24.7223 8.38626L23.915 11.1772L21.0112 11.0826C19.809 11.0434 19.3032 12.6003 20.2987 13.2752Z" stroke="#031F88" stroke-width="2" stroke-linejoin="round"/>
<path opacity="0.8" d="M39.7039 12.9869C39.7671 12.7763 40.0744 12.807 40.0946 13.026L40.3337 15.6174C40.358 15.8809 40.5833 16.0798 40.8478 16.0712L45.0504 15.9343L41.5018 18.34C41.3125 18.4683 41.2344 18.7087 41.3121 18.9237L42.769 22.9558L39.4481 20.3737C39.2398 20.2117 38.9414 20.2395 38.7666 20.4372L37.1496 22.2655C37.0053 22.4286 36.7412 22.2763 36.81 22.0697L37.9771 18.5684C37.9908 18.5275 37.9767 18.4826 37.9423 18.4568L36.4799 17.36C36.3262 17.2447 36.4077 17 36.5999 17H38.4255C38.4697 17 38.5086 16.971 38.5213 16.9287L39.7039 12.9869Z" fill="#3962FA" fill-opacity="0.6"/>
<path d="M33.2987 17.2752L33.2987 17.2752L35.7036 18.9055L34.7163 21.6379C34.3075 22.7691 35.6319 23.7313 36.5814 22.993L38.8751 21.2097L41.1687 22.993C42.1182 23.7313 43.4426 22.7691 43.0338 21.6379L42.0465 18.9055L44.4514 17.2752C45.4469 16.6003 44.9411 15.0434 43.7389 15.0826L40.8351 15.1772L40.0278 12.3863L39.0672 12.6641L40.0278 12.3863C39.6936 11.2309 38.0565 11.2309 37.7223 12.3863L36.915 15.1772L34.0112 15.0826C32.809 15.0434 32.3032 16.6003 33.2987 17.2752Z" stroke="#031F88" stroke-width="2" stroke-linejoin="round"/>
<path opacity="0.8" d="M21 43.5C21 39.9101 23.9101 37 27.5 37C31.0899 37 34 39.9101 34 43.5V44.3846C34 44.7245 33.7245 45 33.3846 45H21V43.5Z" fill="#3962FA" fill-opacity="0.6"/>
<path d="M18 43C18 38.5817 21.5817 35 26 35V35C30.4183 35 34 38.5817 34 43V44C34 44.5523 33.5523 45 33 45H19C18.4477 45 18 44.5523 18 44V43Z" stroke="#031F88" stroke-width="2"/>
<circle opacity="0.8" cx="27.5" cy="28.5" r="2.5" fill="#3962FA" fill-opacity="0.6"/>
<circle cx="26" cy="28" r="4" stroke="#031F88" stroke-width="2"/>
</svg>
