<svg width="53" height="52" viewBox="0 0 53 52" fill="none" xmlns="http://www.w3.org/2000/svg">
<rect x="1.75" y="9.75" width="42" height="24" rx="3.5" stroke="#3962FA" stroke-width="3"/>
<path d="M47.75 19.75H48.75C49.8546 19.75 50.75 20.6454 50.75 21.75V35.75C50.75 38.5114 48.5114 40.75 45.75 40.75H13.75C12.6454 40.75 11.75 39.8546 11.75 38.75V38.25" stroke="#3962FA" stroke-width="3" stroke-linecap="round"/>
<path fill-rule="evenodd" clip-rule="evenodd" d="M39.4513 17.5199C39.9131 17.634 40.25 18.0396 40.25 18.5152V24.9848C40.25 25.4604 39.9131 25.866 39.4513 25.9801C37.181 26.5409 36.5023 27.2891 35.978 29.4517C35.866 29.9139 35.4604 30.25 34.9848 30.25H10.5152C10.0396 30.25 9.634 29.9131 9.51995 29.4513C8.95915 27.181 8.21086 26.5023 6.0483 25.978C5.58609 25.866 5.25 25.4604 5.25 24.9848V18.5152C5.25 18.0396 5.58695 17.634 6.04867 17.5199C8.31898 16.9591 8.99766 16.2109 9.52198 14.0483C9.63405 13.5861 10.0396 13.25 10.5152 13.25H34.9848C35.4604 13.25 35.866 13.5861 35.978 14.0483C36.5023 16.2109 37.181 16.9591 39.4513 17.5199ZM8.25 20.5587C8.25 20.3209 8.41846 20.1186 8.64682 20.0523C10.2852 19.5766 11.5766 18.2852 12.0523 16.6468C12.1186 16.4185 12.3209 16.25 12.5587 16.25H32.9413C33.1791 16.25 33.3814 16.4185 33.4477 16.6468C33.9234 18.2852 35.2148 19.5766 36.8532 20.0523C37.0815 20.1186 37.25 20.3209 37.25 20.5587V22.9413C37.25 23.1791 37.0815 23.3814 36.8532 23.4477C35.2148 23.9234 33.9234 25.2148 33.4477 26.8532C33.3814 27.0815 33.1791 27.25 32.9413 27.25H12.5587C12.3209 27.25 12.1186 27.0815 12.0523 26.8532C11.5766 25.2148 10.2852 23.9234 8.64682 23.4477C8.41846 23.3814 8.25 23.1791 8.25 22.9413V20.5587Z" fill="#43D14F"/>
<circle cx="22.75" cy="21.75" r="3" stroke="#43D14F" stroke-width="3"/>
</svg>
