<svg width="28" height="28" viewBox="0 0 28 28" fill="none" xmlns="http://www.w3.org/2000/svg">
<circle cx="12.5" cy="12.5" r="9.5" fill="#3962FA" fill-opacity="0.4"/>
<circle cx="11.5" cy="11.5" r="10.5" stroke="#031F88" stroke-width="2"/>
<path d="M21.0636 18.2353L20.3564 17.5282L19.6493 18.2353L18.2351 19.6495L17.528 20.3566L18.2351 21.0637L23.3058 26.1343C24.0868 26.9154 25.3531 26.9154 26.1342 26.1343C26.9152 25.3533 26.9152 24.0869 26.1342 23.3059L21.0636 18.2353Z" stroke="#031F88" stroke-width="2"/>
<path d="M20.3564 18.9424L25.4271 24.013C25.8176 24.4035 25.8176 25.0367 25.4271 25.4272C25.0365 25.8177 24.4034 25.8177 24.0129 25.4272L18.9422 20.3566L20.3564 18.9424Z" fill="#3962FA" fill-opacity="0.4"/>
<rect x="20" y="22.1211" width="3" height="2" transform="rotate(-45 20 22.1211)" fill="#031F88"/>
<rect x="1" y="11.5" width="4" height="2" fill="#031F88"/>
<path d="M13.365 8.57617L16.2672 10.9527L15.0001 12.5001L12.0979 10.1236L13.365 8.57617Z" fill="#031F88"/>
<rect x="6.97449" y="10.5615" width="3.75108" height="2" transform="rotate(-42.4469 6.97449 10.5615)" fill="#031F88"/>
<path d="M16.9919 11.6533L22.0384 9.97071L22.671 11.868L17.6246 13.5506L16.9919 11.6533Z" fill="#031F88"/>
<circle cx="6.5" cy="12.5" r="1.5" stroke="#031F88" stroke-width="2"/>
<circle cx="11.5" cy="8.5" r="1.5" stroke="#031F88" stroke-width="2"/>
<circle cx="16.5" cy="12.5" r="1.5" stroke="#031F88" stroke-width="2"/>
</svg>
