<svg width="16" height="16" viewBox="0 0 16 16" fill="none" xmlns="http://www.w3.org/2000/svg">
<circle cx="8" cy="8" r="8" fill="#3962FA"/>
<path fill-rule="evenodd" clip-rule="evenodd" d="M10.8898 4.99506C10.5351 4.64036 9.95999 4.64036 9.60529 4.99506L7.99943 6.60092L6.39383 4.99532C6.03913 4.64062 5.46405 4.64062 5.10935 4.99532C4.75465 5.35003 4.75465 5.92511 5.10935 6.27981L6.71495 7.88541L5.1096 9.49076C4.7549 9.84546 4.7549 10.4205 5.1096 10.7752C5.4643 11.1299 6.03938 11.1299 6.39408 10.7752L7.99943 9.16989L9.60504 10.7755C9.95974 11.1302 10.5348 11.1302 10.8895 10.7755C11.2442 10.4208 11.2442 9.84572 10.8895 9.49102L9.28391 7.88541L10.8898 6.27955C11.2445 5.92485 11.2445 5.34976 10.8898 4.99506Z" fill="white"/>
</svg>
