<svg width="28" height="28" viewBox="0 0 28 28" fill="none" xmlns="http://www.w3.org/2000/svg">
<path d="M26.3808 15.4612L27.2864 17.9126L24.7106 17.4711L26.3808 15.4612Z" fill="#031F88" stroke="#031F88"/>
<path d="M26.1427 17.3135C25.5018 19.6935 24.1738 21.8319 22.3247 23.4617C20.4757 25.0914 18.1874 26.1403 15.7458 26.4774" stroke="#031F88" stroke-width="2" stroke-linecap="round"/>
<path d="M15.4399 1.64052L17.8913 0.734945L17.4498 3.3107L15.4399 1.64052Z" fill="#031F88" stroke="#031F88"/>
<path d="M17.2926 1.87843C19.6726 2.51943 21.811 3.84738 23.4408 5.69645C25.0706 7.54552 26.1195 9.83375 26.4565 12.2754" stroke="#031F88" stroke-width="2" stroke-linecap="round"/>
<path d="M1.61915 12.5251L0.713583 10.0737L3.28934 10.5152L1.61915 12.5251Z" fill="#031F88" stroke="#031F88"/>
<path d="M1.85725 10.6729C2.49825 8.29286 3.8262 6.15446 5.67527 4.52468C7.52434 2.8949 9.81257 1.84598 12.2542 1.50891" stroke="#031F88" stroke-width="2" stroke-linecap="round"/>
<path d="M12.503 26.3595L10.0516 27.2651L10.493 24.6893L12.503 26.3595Z" fill="#031F88" stroke="#031F88"/>
<path d="M10.6503 26.1216C8.27028 25.4806 6.13187 24.1526 4.50209 22.3036C2.87232 20.4545 1.8234 18.1663 1.48633 15.7246" stroke="#031F88" stroke-width="2" stroke-linecap="round"/>
<path d="M12.2258 13.8272L15.4775 9.50098L14.2423 13.1461H18.4776L12.9776 20.001L14.8372 14.7069C14.9058 14.5117 14.761 14.3074 14.5542 14.3074H12.4656C12.2182 14.3074 12.0772 14.0249 12.2258 13.8272Z" fill="#3962FA" fill-opacity="0.4"/>
<path d="M8.97748 15.201L15.7957 6.00098L14.6138 12.201H18.9775L12.1593 22.001L13.3411 15.201H8.97748Z" stroke="#031F88" stroke-width="2" stroke-linecap="round" stroke-linejoin="round"/>
</svg>
