<svg width="68" height="68" viewBox="0 0 68 68" fill="none" xmlns="http://www.w3.org/2000/svg">
<rect x="2" y="2" width="64" height="64" rx="1" fill="#EFF2F9"/>
<path d="M23.9939 44.0605L50.0573 45.8457C50.0573 45.8457 53.1277 48.2086 54.6987 50.4871C58.2602 55.6527 55.4128 66.5536 55.4128 66.5536H4L23.9939 44.0605Z" fill="#DBE0ED"/>
<path d="M23 45L28 39.5V66H23V45Z" fill="#F8632D"/>
<path d="M46 48.5L51 43V66H46V48.5Z" fill="#F8632D"/>
<rect x="41.8457" y="8" width="0.714066" height="1.42813" rx="0.357033" fill="#43D14F"/>
<path d="M29.3494 17.2827C30.7777 13.7123 36.4903 8.71387 42.2028 8.71387C48.9857 8.71387 53.6284 16.2116 53.6284 20.1386V22.9948L28.9931 22.9941C28.9931 22.9941 27.921 20.853 29.3494 17.2827Z" fill="#83E68B"/>
<path d="M30.4205 22.9955L36.1337 21.5674L35.776 44.7745H27.3979C25.6526 44.7745 23.9274 44.2263 22.7324 42.9542C21.3354 41.4668 19.7097 39.2381 19.7095 36.9198C19.7088 29.4221 30.4205 22.9955 30.4205 22.9955Z" fill="#1E2130"/>
<circle cx="27.9213" cy="34.0634" r="3.2133" fill="#E57E70"/>
<circle cx="50.7714" cy="34.0634" r="3.2133" fill="#E57E70"/>
<path d="M28.9917 31.9212C28.9918 29.6553 37.0285 25.9329 36.8464 23.7095L51.8422 24.4235V42.2752C51.8422 42.2752 36.8171 44.9674 32.5624 41.5611C30.7785 40.133 28.9915 36.9197 28.9917 31.9212Z" fill="#F9AE9B"/>
<circle cx="48.9862" cy="29.4218" r="1.42813" fill="#1E2130"/>
<circle cx="40.4174" cy="29.4218" r="1.42813" fill="#1E2130"/>
<rect x="43.9878" y="32.9922" width="1.42813" height="1.42813" rx="0.714066" fill="#E57E70"/>
<path d="M28.3473 47.607L28.3472 22.281C28.3472 22.281 28.5832 21.1463 28.9922 24.7806C29.5319 29.5767 29.3492 39.4189 33.8588 41.3673C37.846 43.0899 42.5207 39.3506 46.3517 37.6968C48.1242 36.9317 51.1277 38.0639 51.1277 38.0639L51.1277 53.4797C51.1277 57.151 48.5564 61.5546 44.5146 61.5546C36.0316 61.5546 28.3473 53.8467 28.3473 47.607Z" fill="#363B4F"/>
<path d="M35.274 41.1765C35.9606 41.9163 37.2027 42.989 38.6324 42.989C40.7746 42.989 42.9168 40.4898 43.6309 40.4898C44.345 40.4898 46.3143 41.8649 47.9146 42.632C50.5352 43.8881 53.274 42.9196 54.6097 41.1939C54.9054 40.8119 54.7733 40.2791 54.3869 39.9892L49.5147 36.3346C48.4761 35.5554 47.2127 35.1343 45.9144 35.1343H43.0428C41.5808 35.1343 40.169 35.6681 39.0728 36.6355L35.3742 39.8993C34.993 40.2357 34.9282 40.8038 35.274 41.1765Z" fill="#1E2130"/>
<rect x="27.564" y="19.4253" width="27.8486" height="5.71253" rx="2.85626" fill="#43D14F"/>
<rect x="1" y="1" width="66" height="66" rx="3" stroke="#43D14F" stroke-width="2"/>
</svg>
