<svg width="68" height="68" viewBox="0 0 68 68" fill="none" xmlns="http://www.w3.org/2000/svg">
<path d="M30.3105 8.8088C31.6814 5.53585 36.3186 5.53585 37.6895 8.8088L42.0945 19.3261C42.6712 20.703 43.9667 21.6442 45.4544 21.7672L56.8181 22.7066C60.3545 22.999 61.7875 27.4092 59.0984 29.7244L50.4571 37.1638C49.3257 38.1378 48.8309 39.6607 49.1737 41.1136L51.7919 52.2115C52.6066 55.6651 48.855 58.3908 45.8222 56.5487L36.0765 50.6293C34.8006 49.8543 33.1994 49.8543 31.9235 50.6293L22.1778 56.5487C19.145 58.3908 15.3934 55.6651 16.2081 52.2115L18.8263 41.1136C19.1691 39.6607 18.6743 38.1378 17.5429 37.1638L8.90164 29.7244C6.21249 27.4092 7.64547 22.999 11.1819 22.7066L22.5456 21.7672C24.0333 21.6442 25.3288 20.703 25.9055 19.3261L30.3105 8.8088Z" fill="#FCC12E"/>
<mask id="mask0_8303:197560" style="mask-type:alpha" maskUnits="userSpaceOnUse" x="7" y="6" width="54" height="52">
<path d="M30.3105 8.8088C31.6814 5.53585 36.3186 5.53585 37.6895 8.8088L42.0945 19.3261C42.6712 20.703 43.9667 21.6442 45.4544 21.7672L56.8181 22.7066C60.3545 22.999 61.7875 27.4092 59.0984 29.7244L50.4571 37.1638C49.3257 38.1378 48.8309 39.6607 49.1737 41.1136L51.7919 52.2115C52.6066 55.6651 48.855 58.3908 45.8222 56.5487L36.0765 50.6293C34.8006 49.8543 33.1994 49.8543 31.9235 50.6293L22.1778 56.5487C19.145 58.3908 15.3934 55.6651 16.2081 52.2115L18.8263 41.1136C19.1691 39.6607 18.6743 38.1378 17.5429 37.1638L8.90164 29.7244C6.21249 27.4092 7.64547 22.999 11.1819 22.7066L22.5456 21.7672C24.0333 21.6442 25.3288 20.703 25.9055 19.3261L30.3105 8.8088Z" fill="#FCC12E"/>
</mask>
<g mask="url(#mask0_8303:197560)">
<path d="M23.0419 28H28.0157C28.0157 28 29.6022 32.7154 29.5079 35.75C29.4125 38.8158 28.675 40.4389 28.5131 43.5C28.1912 49.5859 31 59 31 59H25.0314C25.0314 59 22.6587 49.5537 23.0419 43.5C23.2354 40.442 24.0366 38.8183 24.0366 35.75C24.0366 32.6817 23.0419 28 23.0419 28Z" fill="#90C1FF"/>
<path d="M44.9581 28H39.9843C39.9843 28 38.3978 32.7154 38.4921 35.75C38.5875 38.8158 39.325 40.4389 39.4869 43.5C39.8088 49.5859 37 59 37 59H42.9686C42.9686 59 45.3413 49.5537 44.9581 43.5C44.7646 40.442 43.9634 38.8183 43.9634 35.75C43.9634 32.6817 44.9581 28 44.9581 28Z" fill="#90C1FF"/>
</g>
<path d="M23 28.0002C25.3431 27.1581 26.6572 27.0924 29 28.0002" stroke="#5C678B" stroke-width="2" stroke-linecap="round"/>
<path d="M39 28.0002C41.3431 27.1581 42.6572 27.0924 45 28.0002" stroke="#5C678B" stroke-width="2" stroke-linecap="round"/>
<circle cx="34" cy="39" r="4" fill="#5D6788"/>
<mask id="mask1_8303:197560" style="mask-type:alpha" maskUnits="userSpaceOnUse" x="30" y="35" width="8" height="8">
<circle cx="34" cy="39" r="4" fill="#5D6788"/>
</mask>
<g mask="url(#mask1_8303:197560)">
<path d="M30 42L31.5397 40.1523C32.1482 39.4222 33.0495 39 34 39C34.9505 39 35.8518 39.4222 36.4603 40.1523L38 42L39 44H29L30 42Z" fill="#E57051"/>
</g>
</svg>
