<svg width="52" height="52" viewBox="0 0 52 52" fill="none" xmlns="http://www.w3.org/2000/svg">
<path d="M42.25 52H9.75C4.36475 52 0 47.6352 0 42.25V9.75C0 4.36475 4.36475 0 9.75 0H42.25C47.6352 0 52 4.36475 52 9.75V42.25C52 47.6352 47.6352 52 42.25 52Z" fill="#3962FA" fill-opacity="0.2"/>
<path d="M10 18C10 16.8954 10.8954 16 12 16H45V42C45 43.1046 44.1046 44 43 44H10V18Z" fill="#3962FA" fill-opacity="0.6"/>
<path fill-rule="evenodd" clip-rule="evenodd" d="M17 7C16.4477 7 16 7.44772 16 8V12H11C8.23858 12 6 14.2386 6 17V21V40C6 42.7614 8.23858 45 11 45H41C43.7614 45 46 42.7614 46 40V21V17C46 14.2386 43.7614 12 41 12H38V8C38 7.44772 37.5523 7 37 7C36.4477 7 36 7.44772 36 8V12H18V8C18 7.44772 17.5523 7 17 7ZM37 14H17H11C9.34315 14 8 15.3431 8 17V20L44 20V17C44 15.3431 42.6569 14 41 14H37ZM8 40V22L44 22V40C44 41.6569 42.6569 43 41 43H11C9.34315 43 8 41.6569 8 40Z" fill="#031F88"/>
<mask id="path-4-inside-1" fill="white">
<path d="M26 40C27.1616 40 27.7605 39.2469 27.9405 38.4953C28.0048 38.2267 27.7761 38 27.5 38H24.5C24.2239 38 23.9952 38.2267 24.0595 38.4953C24.2395 39.2469 24.8384 40 26 40Z"/>
</mask>
<path d="M26 40C27.1616 40 27.7605 39.2469 27.9405 38.4953C28.0048 38.2267 27.7761 38 27.5 38H24.5C24.2239 38 23.9952 38.2267 24.0595 38.4953C24.2395 39.2469 24.8384 40 26 40Z" fill="#031F88"/>
<path d="M27.9405 38.4953L25.9955 38.0295L25.9955 38.0295L27.9405 38.4953ZM24.0595 38.4953L26.0045 38.0295L24.0595 38.4953ZM25.9955 38.0295C25.9933 38.0384 25.9908 38.0463 25.9883 38.0528C25.9858 38.0593 25.9839 38.0628 25.9834 38.0637C25.9824 38.0654 25.9893 38.0527 26.0094 38.0349C26.0194 38.026 26.0309 38.0174 26.0433 38.0099C26.0559 38.0024 26.0664 37.9976 26.0733 37.9951C26.0801 37.9926 26.0796 37.9935 26.0696 37.9953C26.0594 37.997 26.0369 38 26 38V42C27.0458 42 27.9655 41.6481 28.6673 41.0241C29.3411 40.425 29.7173 39.6633 29.8855 38.961L25.9955 38.0295ZM26 38C25.9631 38 25.9406 37.997 25.9304 37.9953C25.9204 37.9935 25.9199 37.9926 25.9267 37.9951C25.9336 37.9976 25.9441 38.0024 25.9567 38.0099C25.9691 38.0174 25.9806 38.026 25.9906 38.0349C26.0107 38.0527 26.0176 38.0654 26.0166 38.0637C26.0161 38.0628 26.0142 38.0593 26.0117 38.0528C26.0092 38.0463 26.0067 38.0384 26.0045 38.0295L22.1145 38.961C22.2827 39.6633 22.6589 40.425 23.3327 41.0241C24.0345 41.6481 24.9542 42 26 42V38ZM27.5 36H24.5V40H27.5V36ZM26.0045 38.0295C26.1417 38.6021 25.9486 39.1508 25.619 39.5064C25.3123 39.8374 24.901 40 24.5 40V36C23.2837 36 21.6719 37.1129 22.1145 38.961L26.0045 38.0295ZM29.8855 38.961C30.3281 37.1129 28.7163 36 27.5 36V40C27.099 40 26.6877 39.8374 26.381 39.5064C26.0514 39.1508 25.8583 38.6021 25.9955 38.0295L29.8855 38.961Z" fill="#031F88" mask="url(#path-4-inside-1)"/>
<path d="M22.0741 29.8395C22.0741 27.7459 23.8606 26 26 26C28.1394 26 29.9259 27.7459 29.9259 29.8395V31.7669C29.9259 33.4294 30.6548 34.9988 31.9287 36.0771C31.9736 36.1159 32 36.1725 32 36.2345C32 36.3495 31.905 36.4444 31.7902 36.4444H20.2098C20.095 36.4444 20 36.3495 20 36.2345C20 36.1721 20.0268 36.1151 20.0723 36.0763L19.4231 35.3157L20.0687 36.0793C21.3442 35.001 22.0741 33.4305 22.0741 31.7669V29.8395Z" stroke="#031F88" stroke-width="2"/>
</svg>
