<svg width="52" height="52" viewBox="0 0 52 52" fill="none" xmlns="http://www.w3.org/2000/svg">
<path d="M42.25 52H9.75C4.36475 52 0 47.6352 0 42.25V9.75C0 4.36475 4.36475 0 9.75 0H42.25C47.6352 0 52 4.36475 52 9.75V42.25C52 47.6352 47.6352 52 42.25 52Z" fill="#3962FA" fill-opacity="0.2"/>
<path d="M15.6328 16.4568C12.7987 16.2469 10.5 19.1237 10.5 22.0011C10.5 26.4717 12.4995 28.5443 15.7833 29.6477C16.2132 29.7922 16.309 30.4413 16.005 30.7778C13.3904 33.6724 17.6434 39.1671 25.5513 33.3411C25.7899 33.1654 26.1353 33.2235 26.3282 33.4484C29.0425 36.6127 36.3368 34.0859 37.3944 30.5031C37.4742 30.233 37.7318 30.0395 38.0134 30.0449C44.2084 30.1633 49.035 15.3079 36.4297 14.0379C36.1881 14.0136 35.9854 13.8222 35.9407 13.5836C35.1363 9.28421 28.9982 10.4803 26.3408 13.567C26.1479 13.7911 25.8069 13.8296 25.5737 13.6479C21.829 10.7303 18.1467 12.5318 16.1708 16.1732C16.0661 16.3662 15.8518 16.4731 15.6328 16.4568Z" fill="#3962FA" fill-opacity="0.6"/>
<path d="M14.0751 13.9609C11.147 13.8935 7.62185 17.9191 7.5 22C7.36544 26.5067 11.3958 30.0004 15.1842 30.0452C15.558 30.0496 15.8497 30.4223 15.7668 30.7868C14.6649 35.6284 20.4196 38.0871 25.544 33.4353C25.7821 33.2192 26.1631 33.2642 26.3774 33.5039C29.1295 36.5817 36.3431 34.0637 37.3944 30.5024C37.4742 30.2322 37.7315 30.0385 38.0131 30.0462C44.2374 30.2157 49.5445 16.2451 37.3925 14.0657C37.168 14.0254 36.9868 13.8401 36.9457 13.6157C36.1239 9.13247 29.0981 7.71603 26.3526 10.5762C26.1479 10.7895 25.8074 10.8302 25.5714 10.6521C21.7089 7.7375 16.2987 9.53671 14.6481 13.5996C14.5555 13.8276 14.3212 13.9666 14.0751 13.9609Z" stroke="#031F88" stroke-width="2"/>
<circle cx="11.5" cy="39.5" r="2.5" stroke="#031F88" stroke-width="2"/>
<path d="M18 17.5H22.7757C23.043 17.5 23.1769 17.8231 22.9879 18.0121L19.0121 21.9879C18.8231 22.1769 18.957 22.5 19.2243 22.5H23.5" stroke="#031F88" stroke-width="2" stroke-linecap="round"/>
<path d="M28 19.5H34.7016C34.9786 19.5 35.1076 19.8434 34.8991 20.0258L28.1009 25.9742C27.8924 26.1566 28.0214 26.5 28.2984 26.5H34.5" stroke="#031F88" stroke-width="2" stroke-linecap="round"/>
</svg>
