<svg width="40" height="38" viewBox="0 0 40 38" fill="none" xmlns="http://www.w3.org/2000/svg">
<path d="M19.0877 1.03272C19.4411 0.245348 20.5589 0.245348 20.9123 1.03272L25.8688 12.0761C26.0142 12.4001 26.3205 12.6226 26.6736 12.6608L38.7081 13.9621C39.5661 14.0549 39.9116 15.118 39.2719 15.6974L30.3007 23.8239C30.0375 24.0623 29.9205 24.4224 29.9933 24.77L32.4746 36.6176C32.6515 37.4623 31.7471 38.1194 30.9984 37.6901L20.4974 31.6692C20.1893 31.4926 19.8107 31.4926 19.5026 31.6692L9.00162 37.6901C8.25291 38.1194 7.34853 37.4623 7.52544 36.6176L10.0067 24.77C10.0795 24.4224 9.96248 24.0623 9.69928 23.8239L0.728068 15.6974C0.0884321 15.118 0.433874 14.0549 1.29192 13.9621L13.3264 12.6608C13.6795 12.6226 13.9858 12.4001 14.1312 12.0761L19.0877 1.03272Z" fill="#FCC12E"/>
</svg>
