<svg width="52" height="52" viewBox="0 0 52 52" fill="none" xmlns="http://www.w3.org/2000/svg">
<path d="M16.7142 32.4293C16.7142 27.3009 20.8716 23.1436 25.9999 23.1436V23.1436C31.1283 23.1436 35.2857 27.3009 35.2857 32.4293V33.4905C35.2857 33.9301 34.9293 34.2864 34.4897 34.2864H17.5102C17.0706 34.2864 16.7142 33.9301 16.7142 33.4905V32.4293Z" stroke="#3962FA" stroke-width="3"/>
<circle cx="26" cy="13.8576" r="4.07143" stroke="#3962FA" stroke-width="3"/>
<path d="M1.5 11.8574C1.5 7.16299 5.30558 3.35742 10 3.35742H42C46.6944 3.35742 50.5 7.163 50.5 11.8574V32.4174C50.5 37.1119 46.6944 40.9174 42 40.9174H32.0592C31.2896 40.9174 30.5629 41.2719 30.0891 41.8783L25.9297 47.2023C25.7295 47.4586 25.3419 47.4586 25.1417 47.2023L20.9823 41.8783C20.5085 41.2719 19.7818 40.9174 19.0123 40.9174H10C5.30558 40.9174 1.5 37.1118 1.5 32.4174V11.8574Z" stroke="#031F88" stroke-width="3"/>
</svg>
