<svg width="52" height="53" viewBox="0 0 52 53" fill="none" xmlns="http://www.w3.org/2000/svg">
<path fill-rule="evenodd" clip-rule="evenodd" d="M5.48417 10.4043L6.03083 8.58288C6.91477 5.63773 11.0852 5.63774 11.9691 8.58288L12.5158 10.4043L14.5498 10.3404C17.681 10.2421 18.9653 14.3204 16.3428 16.034L14.7646 17.0652L15.3973 18.7529C16.4846 21.6535 13.1143 24.1795 10.6355 22.3218L8.99999 21.0961L7.36452 22.3218C4.88564 24.1795 1.51536 21.6535 2.60272 18.7529L3.23538 17.0652L1.65721 16.034C-0.965345 14.3204 0.318966 10.2421 3.45018 10.3404L5.48417 10.4043ZM3.35602 13.339C3.25502 13.3358 3.21359 13.4673 3.29819 13.5226L6.82093 15.8244C6.86013 15.85 6.8763 15.8994 6.85987 15.9432L5.41182 19.806C5.37674 19.8995 5.48546 19.981 5.56542 19.9211L8.94002 17.3921C8.97556 17.3655 9.02441 17.3655 9.05996 17.3921L12.4346 19.9211C12.5145 19.981 12.6232 19.8995 12.5882 19.806L11.1401 15.9432C11.1237 15.8994 11.1399 15.85 11.179 15.8244L14.7018 13.5226C14.7864 13.4673 14.745 13.3358 14.644 13.339L10.3821 13.4728C10.3368 13.4742 10.2962 13.445 10.2832 13.4016L9.09577 9.44528C9.06725 9.35027 8.93272 9.35027 8.90421 9.44528L7.71679 13.4016C7.70377 13.445 7.66317 13.4742 7.61788 13.4728L3.35602 13.339Z" fill="#3962FA"/>
<path fill-rule="evenodd" clip-rule="evenodd" d="M22.4842 5.4043L23.0308 3.58288C23.9148 0.637731 28.0852 0.637742 28.9691 3.58288L29.5158 5.4043L31.5498 5.34044C34.681 5.24212 35.9653 9.32044 33.3428 11.034L31.7646 12.0652L32.3973 13.7529C33.4846 16.6535 30.1143 19.1795 27.6355 17.3218L26 16.0961L24.3645 17.3218C21.8856 19.1795 18.5154 16.6535 19.6027 13.7529L20.2354 12.0652L18.6572 11.034C16.0347 9.32045 17.319 5.24212 20.4502 5.34044L22.4842 5.4043ZM20.356 8.33896C20.255 8.33579 20.2136 8.46735 20.2982 8.52262L23.8209 10.8244C23.8601 10.85 23.8763 10.8994 23.8599 10.9432L22.4118 14.806C22.3767 14.8995 22.4855 14.981 22.5654 14.9211L25.94 12.3921C25.9756 12.3655 26.0244 12.3655 26.06 12.3921L29.4346 14.9211C29.5145 14.981 29.6232 14.8995 29.5882 14.806L28.1401 10.9432C28.1237 10.8994 28.1399 10.85 28.179 10.8244L31.7018 8.52262C31.7864 8.46735 31.745 8.33579 31.644 8.33896L27.3821 8.47278C27.3368 8.4742 27.2962 8.44498 27.2832 8.40158L26.0958 4.44528C26.0673 4.35027 25.9327 4.35027 25.9042 4.44528L24.7168 8.40158C24.7038 8.44498 24.6632 8.4742 24.6179 8.47278L20.356 8.33896Z" fill="#3962FA"/>
<path fill-rule="evenodd" clip-rule="evenodd" d="M39.4842 10.4043L40.0308 8.58288C40.9148 5.63773 45.0852 5.63774 45.9691 8.58288L46.5158 10.4043L48.5498 10.3404C51.681 10.2421 52.9653 14.3204 50.3428 16.034L48.7646 17.0652L49.3973 18.7529C50.4846 21.6535 47.1143 24.1795 44.6355 22.3218L43 21.0961L41.3645 22.3218C38.8856 24.1795 35.5154 21.6535 36.6027 18.7529L37.2354 17.0652L35.6572 16.034C33.0347 14.3204 34.319 10.2421 37.4502 10.3404L39.4842 10.4043ZM37.356 13.339C37.255 13.3358 37.2136 13.4673 37.2982 13.5226L40.8209 15.8244C40.8601 15.85 40.8763 15.8994 40.8599 15.9432L39.4118 19.806C39.3767 19.8995 39.4855 19.981 39.5654 19.9211L42.94 17.3921C42.9756 17.3655 43.0244 17.3655 43.06 17.3921L46.4346 19.9211C46.5145 19.981 46.6232 19.8995 46.5882 19.806L45.1401 15.9432C45.1237 15.8994 45.1399 15.85 45.179 15.8244L48.7018 13.5226C48.7864 13.4673 48.745 13.3358 48.644 13.339L44.3821 13.4728C44.3368 13.4742 44.2962 13.445 44.2832 13.4016L43.0958 9.44528C43.0673 9.35027 42.9327 9.35027 42.9042 9.44528L41.7168 13.4016C41.7038 13.445 41.6632 13.4742 41.6179 13.4728L37.356 13.339Z" fill="#3962FA"/>
<path d="M15.6699 48.0318C15.6699 42.2999 20.3165 37.6533 26.0484 37.6533V37.6533C31.7803 37.6533 36.4269 42.2999 36.4269 48.0318V49.6998C36.4269 50.2116 36.012 50.6264 35.5002 50.6264H16.5966C16.0848 50.6264 15.6699 50.2116 15.6699 49.6998V48.0318Z" stroke="#031F88" stroke-width="3"/>
<circle cx="26.0484" cy="28.5725" r="4.98655" stroke="#031F88" stroke-width="3"/>
</svg>
