<svg width="52" height="52" viewBox="0 0 52 52" fill="none" xmlns="http://www.w3.org/2000/svg">
<path d="M6.53864 11.9551C9.8828 7.3213 14.7706 4.03281 20.323 2.68111C25.8753 1.3294 31.7278 2.00321 36.8276 4.58131C41.9275 7.15942 45.9402 11.4726 48.1438 16.7451C50.3474 22.0177 50.5974 27.9034 48.8488 33.3438C47.1002 38.7842 43.4678 43.4221 38.6048 46.4234C33.7419 49.4247 27.9677 50.5923 22.3207 49.7163C16.6738 48.8402 11.5247 45.9781 7.79967 41.6445C4.07464 37.311 2.01811 31.7905 1.99999 26.0761" stroke="#3962FA" stroke-width="3" stroke-linecap="round"/>
<path d="M4.61703 16.0417L4.35128 9.66029L10.0106 12.6208L4.61703 16.0417Z" fill="#3962FA" stroke="#3962FA"/>
<path d="M42.4999 26C42.4999 35.4278 35.0741 43 25.9999 43C16.9256 43 9.49987 35.4278 9.49987 26C9.49987 16.5722 16.9256 9 25.9999 9C35.0741 9 42.4999 16.5722 42.4999 26Z" stroke="#3962FA" stroke-width="3"/>
<rect x="24.9999" y="11.5" width="2" height="4" rx="1" fill="#43D14F" stroke="#43D14F"/>
<rect x="19.1093" y="20.0234" width="2" height="6.49917" rx="1" transform="rotate(-45 19.1093 20.0234)" fill="#43D14F" stroke="#43D14F"/>
<rect x="33.3561" y="16.9316" width="2" height="9.22153" rx="1" transform="rotate(45 33.3561 16.9316)" fill="#43D14F" stroke="#43D14F"/>
<rect x="24.9999" y="36.5" width="2" height="4" rx="1" fill="#43D14F" stroke="#43D14F"/>
<rect x="39.9999" y="25" width="2" height="4" rx="1" transform="rotate(90 39.9999 25)" fill="#43D14F" stroke="#43D14F"/>
<rect x="15.9999" y="25" width="2" height="4" rx="1" transform="rotate(90 15.9999 25)" fill="#43D14F" stroke="#43D14F"/>
<circle cx="25.9999" cy="26" r="3" stroke="#43D14F" stroke-width="3"/>
</svg>
