<svg width="275" height="24" viewBox="0 0 275 24" fill="none" xmlns="http://www.w3.org/2000/svg">
<g clip-path="url(#clip0)">
<path d="M38.2133 5.33805H32.7454V1.55469H48.3681V5.33805H42.9002V22.4831H38.2133V5.33805Z" fill="#333333"/>
<path d="M59.8976 1.55459C61.3299 1.49521 62.7555 1.77921 64.0533 2.38245C65.0986 2.88555 65.9788 3.6715 66.592 4.64937C67.1806 5.66762 67.4751 6.82657 67.4434 7.99947V9.34569C67.482 10.5667 67.1442 11.7703 66.4748 12.7964C65.8348 13.7457 64.9277 14.4881 63.8658 14.9318L67.7715 22.4753H62.7878L59.5383 15.7441H56.9059V22.4753H52.2659V1.55459H59.8976ZM56.9059 5.1368V12.2625H59.757C60.5746 12.2998 61.3751 12.0226 61.9911 11.4888C62.2745 11.2166 62.4952 10.8869 62.6381 10.5224C62.781 10.1578 62.8428 9.767 62.8191 9.37664V7.97626C62.8436 7.58813 62.7822 7.19937 62.6392 6.8372C62.4962 6.47503 62.275 6.14819 61.9911 5.87954C61.373 5.34927 60.574 5.07255 59.757 5.10585L56.9059 5.1368Z" fill="#333333"/>
<path d="M84.2927 22.4831L83.121 18.0112H76.6141L75.4424 22.4831H70.4821L76.5516 1.55469H83.1991L89.2451 22.5218L84.2927 22.4831ZM77.3952 14.398H82.3554L79.8636 5.0131L77.3952 14.398Z" fill="#333333"/>
<path d="M93.0961 1.55519H100.665C101.759 1.54448 102.848 1.70373 103.891 2.02715C104.826 2.31637 105.696 2.78133 106.454 3.39659C107.17 3.99117 107.739 4.74013 108.117 5.58614C108.515 6.48313 108.715 7.4538 108.703 8.43334V15.7757C108.768 16.7273 108.605 17.6806 108.226 18.5575C107.847 19.4343 107.264 20.2098 106.524 20.8202C104.824 22.0325 102.757 22.6331 100.665 22.5223H93.0961V1.55519ZM104.032 9.22251C104.126 8.13457 103.796 7.05231 103.11 6.19736C102.776 5.84879 102.37 5.5752 101.92 5.39504C101.47 5.21487 100.986 5.13229 100.501 5.15287H97.7829V18.8627H100.501C101.445 18.9129 102.375 18.6152 103.11 18.0271C103.418 17.7248 103.659 17.3622 103.818 16.9627C103.976 16.5631 104.049 16.1351 104.032 15.7061V9.22251Z" fill="#333333"/>
<path d="M118.264 22.4831H113.578V1.55469H118.264V22.4831Z" fill="#333333"/>
<path d="M123.834 1.55469H136.895V5.42316H128.49V10.1504H136.574V13.7868H128.49V18.576H137.223V22.4444H123.834V1.55469Z" fill="#333333"/>
<path d="M151.885 1.55591C153.323 1.50733 154.751 1.80466 156.048 2.42244C157.083 2.91742 157.957 3.68928 158.571 4.65068C159.162 5.66816 159.46 6.82715 159.43 8.00078V9.34701C159.465 10.5675 159.128 11.77 158.462 12.7977C157.817 13.7457 156.908 14.4876 155.845 14.9331L159.751 22.4766H154.728L151.541 15.7532H148.908V22.4843H144.269V1.55591H151.885ZM148.893 5.1768V12.3025H151.744C152.562 12.3398 153.362 12.0626 153.978 11.5288C154.262 11.2566 154.482 10.9269 154.625 10.5624C154.768 10.1978 154.83 9.807 154.806 9.41664V7.97757C154.831 7.58944 154.769 7.20069 154.626 6.83852C154.483 6.47635 154.262 6.1495 153.978 5.88086C153.36 5.35059 152.561 5.07387 151.744 5.10716L148.893 5.1768Z" fill="#3962FA"/>
<path d="M165.117 1.55469H178.178V5.42316H169.781V10.1504H177.865V13.7868H169.781V18.576H178.506V22.4444H165.117V1.55469Z" fill="#3962FA"/>
<path d="M199.339 1.55469L193.769 22.5218H186.817L181.224 1.55469H186.208L190.293 18.2355L194.347 1.55469H199.339Z" fill="#3962FA"/>
<path d="M207.963 22.4831H203.276V1.55469H207.963V22.4831Z" fill="#3962FA"/>
<path d="M213.657 1.55469H226.718V5.42316H218.32V10.1504H226.405V13.7868H218.32V18.576H227.046V22.4444H213.657V1.55469Z" fill="#3962FA"/>
<path d="M257.104 1.55469L252.417 22.5218H246.379L243.504 9.05179L240.591 22.4831H234.576L229.85 1.55469H234.795L238.075 17.8023L241.2 1.87964H245.676L248.879 17.8023L252.152 1.55469H257.104Z" fill="#3962FA"/>
<path d="M272.164 21.1907C270.938 22.2584 269.079 22.7923 266.571 22.7923C265.471 22.7863 264.372 22.7062 263.283 22.5524C262.165 22.4057 261.066 22.1465 260.002 21.7787L260.619 17.9876C262.293 18.5128 264.035 18.7943 265.79 18.8232C266.721 18.8709 267.651 18.7068 268.509 18.3435C268.818 18.1767 269.071 17.9235 269.236 17.6154C269.402 17.3072 269.472 16.9578 269.438 16.6104C269.452 16.3342 269.408 16.0582 269.308 15.7998C269.209 15.5414 269.056 15.3064 268.86 15.1095C268.116 14.5582 267.269 14.1585 266.368 13.9335C265.064 13.5002 264.165 13.1985 263.689 13.0205C262.626 12.6728 261.714 11.977 261.103 11.0476C260.489 9.99406 260.191 8.78901 260.244 7.57369C260.238 6.7097 260.402 5.85286 260.728 5.05145C261.036 4.28068 261.513 3.58798 262.127 3.02437C262.781 2.42663 263.556 1.97307 264.4 1.69362C265.373 1.36635 266.395 1.20672 267.423 1.22166C269.385 1.20383 271.339 1.46438 273.227 1.99536L272.68 5.86383C271.158 5.4159 269.581 5.17641 267.993 5.15203C267.143 5.106 266.299 5.30775 265.564 5.7323C265.283 5.90727 265.053 6.15238 264.898 6.44302C264.743 6.73366 264.668 7.05957 264.681 7.38801C264.662 7.90247 264.816 8.40871 265.118 8.82708C265.629 9.33421 266.273 9.68824 266.978 9.84835L269.321 10.5756C270.695 10.9241 271.934 11.667 272.883 12.711C273.693 13.8353 274.09 15.2006 274.008 16.5795C274.064 17.4353 273.928 18.2929 273.609 19.0903C273.29 19.8877 272.797 20.6051 272.164 21.1907Z" fill="#3962FA"/>
<path d="M8.39724 8.35598L0.734274 15.9304C0.674184 15.9903 0.597479 16.0311 0.513914 16.0477C0.430349 16.0642 0.3437 16.0558 0.264985 16.0234C0.18627 15.9911 0.119046 15.9363 0.0718615 15.866C0.0246771 15.7957 -0.000335927 15.7131 3.40737e-06 15.6287V0.433348C3.40737e-06 0.32049 0.0452675 0.212254 0.125838 0.132451C0.206409 0.0526486 0.315686 0.00781587 0.42963 0.00781587H15.7478C15.833 0.00747977 15.9164 0.0322544 15.9873 0.0789892C16.0583 0.125724 16.1136 0.192307 16.1463 0.270272C16.179 0.348237 16.1875 0.434061 16.1707 0.516829C16.154 0.599598 16.1128 0.675571 16.0524 0.735089L8.39724 8.35598Z" fill="#3962FA"/>
<path d="M9.53772 15.2505L16.982 22.5542C17.096 22.6721 17.1735 22.8199 17.2051 22.9801C17.2367 23.1403 17.2211 23.3062 17.1602 23.4579C17.0992 23.6096 16.9955 23.7407 16.8615 23.8356C16.7274 23.9306 16.5686 23.9853 16.4039 23.9933H0.976442C0.891222 23.9936 0.807826 23.9689 0.736859 23.9221C0.665893 23.8754 0.610562 23.8088 0.577904 23.7308C0.545246 23.6529 0.536735 23.5671 0.553454 23.4843C0.570174 23.4015 0.611368 23.3255 0.671798 23.266L8.93624 15.2505C9.01655 15.1726 9.12453 15.1289 9.23698 15.1289C9.34944 15.1289 9.45741 15.1726 9.53772 15.2505Z" fill="#3962FA"/>
<path d="M13.6855 10.8389L20.3799 3.61259C20.4202 3.56795 20.4696 3.53224 20.5247 3.50779C20.5799 3.48334 20.6397 3.4707 20.7002 3.4707C20.7606 3.4707 20.8204 3.48334 20.8756 3.50779C20.9308 3.53224 20.9801 3.56795 21.0204 3.61259C21.9109 4.64934 24.3637 7.74412 24.3637 11.6822C24.3452 14.3583 23.4118 16.9492 21.7156 19.0323C21.6753 19.077 21.626 19.1127 21.5708 19.1371C21.5156 19.1616 21.4558 19.1742 21.3954 19.1742C21.3349 19.1742 21.2751 19.1616 21.22 19.1371C21.1648 19.1127 21.1154 19.077 21.0751 19.0323L13.6855 11.3727C13.6227 11.2977 13.5882 11.2033 13.5882 11.1058C13.5882 11.0083 13.6227 10.9139 13.6855 10.8389Z" fill="#3962FA"/>
</g>
<defs>
<clipPath id="clip0">
<rect width="274.02" height="23.9845" fill="white" transform="translate(0 0.0078125)"/>
</clipPath>
</defs>
</svg>
